%TF.GenerationSoftware,KiCad,Pcbnew,(7.0.0)*%
%TF.CreationDate,2023-10-30T21:57:29-03:00*%
%TF.ProjectId,Main_Board_COYOTE_TB67H451AFNG,4d61696e-5f42-46f6-9172-645f434f594f,rev?*%
%TF.SameCoordinates,Original*%
%TF.FileFunction,Copper,L2,Bot*%
%TF.FilePolarity,Positive*%
%FSLAX46Y46*%
G04 Gerber Fmt 4.6, Leading zero omitted, Abs format (unit mm)*
G04 Created by KiCad (PCBNEW (7.0.0)) date 2023-10-30 21:57:29*
%MOMM*%
%LPD*%
G01*
G04 APERTURE LIST*
%TA.AperFunction,ComponentPad*%
%ADD10R,3.000000X2.000000*%
%TD*%
%TA.AperFunction,ComponentPad*%
%ADD11C,0.700000*%
%TD*%
%TA.AperFunction,ComponentPad*%
%ADD12R,3.500000X6.160000*%
%TD*%
%TA.AperFunction,ComponentPad*%
%ADD13R,3.500000X6.180000*%
%TD*%
%TA.AperFunction,ComponentPad*%
%ADD14C,3.000000*%
%TD*%
%TA.AperFunction,ComponentPad*%
%ADD15C,2.000000*%
%TD*%
%TA.AperFunction,ComponentPad*%
%ADD16R,2.000000X2.000000*%
%TD*%
%TA.AperFunction,ComponentPad*%
%ADD17O,2.000000X2.000000*%
%TD*%
%TA.AperFunction,ComponentPad*%
%ADD18R,1.600000X1.600000*%
%TD*%
%TA.AperFunction,ComponentPad*%
%ADD19C,1.600000*%
%TD*%
%TA.AperFunction,ComponentPad*%
%ADD20R,3.500000X7.000000*%
%TD*%
%TA.AperFunction,ComponentPad*%
%ADD21R,2.000000X1.905000*%
%TD*%
%TA.AperFunction,ComponentPad*%
%ADD22O,2.000000X1.905000*%
%TD*%
%TA.AperFunction,SMDPad,CuDef*%
%ADD23R,1.498600X1.300480*%
%TD*%
%TA.AperFunction,SMDPad,CuDef*%
%ADD24R,1.600200X1.803400*%
%TD*%
%TA.AperFunction,ViaPad*%
%ADD25C,1.000000*%
%TD*%
%TA.AperFunction,ViaPad*%
%ADD26C,1.500000*%
%TD*%
%TA.AperFunction,Conductor*%
%ADD27C,3.000000*%
%TD*%
%TA.AperFunction,Conductor*%
%ADD28C,2.000000*%
%TD*%
%TA.AperFunction,Conductor*%
%ADD29C,0.750000*%
%TD*%
%TA.AperFunction,Conductor*%
%ADD30C,1.000000*%
%TD*%
%TA.AperFunction,Conductor*%
%ADD31C,1.500000*%
%TD*%
%TA.AperFunction,Profile*%
%ADD32C,0.100000*%
%TD*%
G04 APERTURE END LIST*
D10*
%TO.P,SW1,3*%
%TO.N,N/C*%
X94042499Y-98238999D03*
%TO.P,SW1,2,B*%
%TO.N,VCC*%
X94042499Y-104238999D03*
%TO.P,SW1,1,A*%
%TO.N,/VIN*%
X94042499Y-101238999D03*
%TD*%
D11*
%TO.P,J6,1*%
%TO.N,Net-(U5-OUT1)*%
X138940000Y-136710000D03*
X138940000Y-137330000D03*
X138940000Y-137930000D03*
X138940000Y-138550000D03*
X139540000Y-136710000D03*
X139540000Y-137330000D03*
X139540000Y-137930000D03*
X139540000Y-138550000D03*
D12*
X139799999Y-139209999D03*
D11*
X140140000Y-136690000D03*
X140140000Y-137310000D03*
X140140000Y-137910000D03*
X140140000Y-138530000D03*
X140740000Y-136710000D03*
X140740000Y-137330000D03*
X140740000Y-137930000D03*
X140740000Y-138550000D03*
%TO.P,J6,2*%
%TO.N,Net-(U5-OUT2)*%
X144040000Y-136710000D03*
X144040000Y-137330000D03*
X144040000Y-137930000D03*
X144040000Y-138550000D03*
X144640000Y-136710000D03*
X144640000Y-137330000D03*
X144640000Y-137930000D03*
X144640000Y-138550000D03*
D13*
X144879999Y-139199999D03*
D11*
X145240000Y-136710000D03*
X145240000Y-137330000D03*
X145240000Y-137930000D03*
X145240000Y-138550000D03*
X145840000Y-136710000D03*
X145840000Y-137330000D03*
X145840000Y-137930000D03*
X145840000Y-138550000D03*
%TD*%
D14*
%TO.P,H1,1*%
%TO.N,N/C*%
X116382500Y-118410000D03*
%TD*%
D15*
%TO.P,EN1,1,1*%
%TO.N,GND*%
X191972500Y-90131000D03*
X198472500Y-90131000D03*
%TO.P,EN1,2,2*%
%TO.N,/EN*%
X191972500Y-94631000D03*
X198472500Y-94631000D03*
%TD*%
D16*
%TO.P,J3,1,Pin_1*%
%TO.N,/OUT_4*%
X166586249Y-82204999D03*
D17*
%TO.P,J3,2,Pin_2*%
%TO.N,/OUT_3*%
X169126249Y-82204999D03*
%TO.P,J3,3,Pin_3*%
%TO.N,+3V3*%
X171666249Y-82204999D03*
%TO.P,J3,4,Pin_4*%
%TO.N,/OUT_2*%
X174206249Y-82204999D03*
%TO.P,J3,5,Pin_5*%
%TO.N,/OUT_1*%
X176746249Y-82204999D03*
%TD*%
D15*
%TO.P,BOOT1,1,1*%
%TO.N,GND*%
X202281250Y-94631000D03*
X208781250Y-94631000D03*
%TO.P,BOOT1,2,2*%
%TO.N,/BOOT*%
X202281250Y-99131000D03*
X208781250Y-99131000D03*
%TD*%
%TO.P,SW2,1,1*%
%TO.N,GND*%
X114642500Y-97430000D03*
X114642500Y-90930000D03*
%TO.P,SW2,2,2*%
%TO.N,/PUSH_1*%
X119142500Y-97430000D03*
X119142500Y-90930000D03*
%TD*%
D18*
%TO.P,C11,1*%
%TO.N,VCC*%
X127504887Y-120329999D03*
D19*
%TO.P,C11,2*%
%TO.N,GND*%
X130004888Y-120330000D03*
%TD*%
D16*
%TO.P,J4,1,Pin_1*%
%TO.N,/OUT_8*%
X119421249Y-82204999D03*
D17*
%TO.P,J4,2,Pin_2*%
%TO.N,/OUT_7*%
X121961249Y-82204999D03*
%TO.P,J4,3,Pin_3*%
%TO.N,GND*%
X124501249Y-82204999D03*
%TO.P,J4,4,Pin_4*%
%TO.N,/OUT_6*%
X127041249Y-82204999D03*
%TO.P,J4,5,Pin_5*%
%TO.N,/OUT_5*%
X129581249Y-82204999D03*
%TD*%
D14*
%TO.P,H2,1*%
%TO.N,N/C*%
X180178850Y-118410000D03*
%TD*%
D11*
%TO.P,J2,2*%
%TO.N,/VIN*%
X98220000Y-91200000D03*
X98220000Y-91820000D03*
X98220000Y-92420000D03*
X98220000Y-93040000D03*
X98820000Y-91200000D03*
X98820000Y-91820000D03*
X98820000Y-92420000D03*
X98820000Y-93040000D03*
D20*
X99179999Y-90959999D03*
D11*
X99420000Y-91200000D03*
X99420000Y-91820000D03*
X99420000Y-92420000D03*
X99420000Y-93040000D03*
X100020000Y-91200000D03*
X100020000Y-91820000D03*
X100020000Y-92420000D03*
X100020000Y-93040000D03*
%TO.P,J2,1*%
%TO.N,GND*%
X103320000Y-91200000D03*
X103320000Y-91820000D03*
X103320000Y-92420000D03*
X103320000Y-93040000D03*
X103920000Y-91220000D03*
X103920000Y-91840000D03*
X103920000Y-92440000D03*
X103920000Y-93060000D03*
D20*
X104259999Y-90959999D03*
D11*
X104520000Y-91200000D03*
X104520000Y-91820000D03*
X104520000Y-92420000D03*
X104520000Y-93040000D03*
X105120000Y-91200000D03*
X105120000Y-91820000D03*
X105120000Y-92420000D03*
X105120000Y-93040000D03*
%TD*%
D14*
%TO.P,H5,1*%
%TO.N,N/C*%
X184781250Y-79980000D03*
%TD*%
D11*
%TO.P,U4,1,GND*%
%TO.N,GND*%
X158275000Y-129440000D03*
X158275000Y-128740000D03*
X158275000Y-128040000D03*
X158275000Y-127340000D03*
X157575000Y-129440000D03*
X157575000Y-128740000D03*
X157575000Y-128040000D03*
X157575000Y-127340000D03*
X156875000Y-129440000D03*
X156875000Y-128740000D03*
X156875000Y-128040000D03*
X156875000Y-127340000D03*
X156175000Y-129440000D03*
X156175000Y-128740000D03*
X156175000Y-128040000D03*
X156175000Y-127340000D03*
X155475000Y-129440000D03*
X155475000Y-128740000D03*
X155475000Y-128040000D03*
X155475000Y-127340000D03*
X154775000Y-129440000D03*
X154775000Y-128740000D03*
X154775000Y-128040000D03*
X154775000Y-127340000D03*
%TD*%
%TO.P,J5,1*%
%TO.N,Net-(U4-OUT1)*%
X153683321Y-136710000D03*
X153683321Y-137330000D03*
X153683321Y-137930000D03*
X153683321Y-138550000D03*
X154283321Y-136710000D03*
X154283321Y-137330000D03*
X154283321Y-137930000D03*
X154283321Y-138550000D03*
D12*
X154543320Y-139209999D03*
D11*
X154883321Y-136690000D03*
X154883321Y-137310000D03*
X154883321Y-137910000D03*
X154883321Y-138530000D03*
X155483321Y-136710000D03*
X155483321Y-137330000D03*
X155483321Y-137930000D03*
X155483321Y-138550000D03*
%TO.P,J5,2*%
%TO.N,Net-(U4-OUT2)*%
X158783321Y-136710000D03*
X158783321Y-137330000D03*
X158783321Y-137930000D03*
X158783321Y-138550000D03*
X159383321Y-136710000D03*
X159383321Y-137330000D03*
X159383321Y-137930000D03*
X159383321Y-138550000D03*
D12*
X159623320Y-139209999D03*
D11*
X159983321Y-136710000D03*
X159983321Y-137330000D03*
X159983321Y-137930000D03*
X159983321Y-138550000D03*
X160583321Y-136710000D03*
X160583321Y-137330000D03*
X160583321Y-137930000D03*
X160583321Y-138550000D03*
%TD*%
D14*
%TO.P,H4,1*%
%TO.N,N/C*%
X116382500Y-141400000D03*
%TD*%
%TO.P,H3,1*%
%TO.N,N/C*%
X180178850Y-141400000D03*
%TD*%
D15*
%TO.P,BZ1,1,-*%
%TO.N,+5V*%
X168342500Y-98980000D03*
%TO.P,BZ1,2,+*%
%TO.N,Net-(BZ1-+)*%
X175942500Y-98980000D03*
%TD*%
D18*
%TO.P,C12,1*%
%TO.N,VCC*%
X151169999Y-131269999D03*
D19*
%TO.P,C12,2*%
%TO.N,GND*%
X151170000Y-128770000D03*
%TD*%
D16*
%TO.P,J1,1,Pin_1*%
%TO.N,+3V3*%
X206649999Y-102479999D03*
D17*
%TO.P,J1,2,Pin_2*%
%TO.N,GND*%
X206649999Y-105019999D03*
%TO.P,J1,3,Pin_3*%
%TO.N,/Rx*%
X206649999Y-107559999D03*
%TO.P,J1,4,Pin_4*%
%TO.N,/Tx*%
X206649999Y-110099999D03*
%TD*%
D21*
%TO.P,U2,1,VI*%
%TO.N,VCC*%
X106042499Y-97369999D03*
D22*
%TO.P,U2,2,GND*%
%TO.N,GND*%
X106042499Y-99909999D03*
%TO.P,U2,3,VO*%
%TO.N,+5V*%
X106042499Y-102449999D03*
%TD*%
D11*
%TO.P,U5,1,GND*%
%TO.N,GND*%
X143455000Y-129440000D03*
X143455000Y-128740000D03*
X143455000Y-128040000D03*
X143455000Y-127340000D03*
X142755000Y-129440000D03*
X142755000Y-128740000D03*
X142755000Y-128040000D03*
X142755000Y-127340000D03*
X142055000Y-129440000D03*
X142055000Y-128740000D03*
X142055000Y-128040000D03*
X142055000Y-127340000D03*
X141355000Y-129440000D03*
X141355000Y-128740000D03*
X141355000Y-128040000D03*
X141355000Y-127340000D03*
X140655000Y-129440000D03*
X140655000Y-128740000D03*
X140655000Y-128040000D03*
X140655000Y-127340000D03*
X139955000Y-129440000D03*
X139955000Y-128740000D03*
X139955000Y-128040000D03*
X139955000Y-127340000D03*
%TD*%
D18*
%TO.P,C1,1*%
%TO.N,VCC*%
X109359999Y-108849999D03*
D19*
%TO.P,C1,2*%
%TO.N,GND*%
X114360000Y-108850000D03*
%TD*%
D15*
%TO.P,SW3,1,1*%
%TO.N,GND*%
X123192500Y-97430000D03*
X123192500Y-90930000D03*
%TO.P,SW3,2,2*%
%TO.N,/PUSH_2*%
X127692500Y-97430000D03*
X127692500Y-90930000D03*
%TD*%
D14*
%TO.P,H6,1*%
%TO.N,N/C*%
X111781250Y-79980000D03*
%TD*%
D23*
%TO.P,C7,1*%
%TO.N,GND*%
X195222499Y-91422749D03*
%TO.P,C7,2*%
%TO.N,/EN*%
X195222499Y-93327749D03*
%TD*%
%TO.P,C4,1*%
%TO.N,GND*%
X205531249Y-95922749D03*
%TO.P,C4,2*%
%TO.N,/BOOT*%
X205531249Y-97827749D03*
%TD*%
D24*
%TO.P,R8,1*%
%TO.N,+3V3*%
X124898499Y-101779999D03*
%TO.P,R8,2*%
%TO.N,/PUSH_2*%
X127692499Y-101779999D03*
%TD*%
%TO.P,R7,1*%
%TO.N,+3V3*%
X121936499Y-101779999D03*
%TO.P,R7,2*%
%TO.N,/PUSH_1*%
X119142499Y-101779999D03*
%TD*%
D25*
%TO.N,/Rx*%
X149540000Y-120234500D03*
%TO.N,/Tx*%
X147693750Y-120250000D03*
%TO.N,+3V3*%
X150070000Y-90340000D03*
%TO.N,/EN*%
X148090000Y-90570000D03*
X185340000Y-90940000D03*
D26*
%TO.N,+5V*%
X111940000Y-101990000D03*
D25*
X139000002Y-122800000D03*
X153880000Y-122805000D03*
%TO.N,/PUSH_1*%
X138803750Y-116650000D03*
%TO.N,/PUSH_2*%
X140073750Y-115290000D03*
%TO.N,/BUZZER*%
X171603000Y-113100000D03*
X142590000Y-120720000D03*
%TO.N,/BOOT*%
X132390000Y-107640000D03*
X132390000Y-113205000D03*
X189920000Y-96320000D03*
X132390000Y-102270000D03*
%TD*%
D27*
%TO.N,/VIN*%
X87180000Y-98990000D02*
X87180000Y-94834678D01*
X94042500Y-101239000D02*
X89429000Y-101239000D01*
X92594678Y-89420000D02*
X99180000Y-89420000D01*
X89429000Y-101239000D02*
X87180000Y-98990000D01*
X87180000Y-94834678D02*
X92594678Y-89420000D01*
D28*
%TO.N,GND*%
X198472500Y-90131000D02*
X191972500Y-90131000D01*
X208781250Y-94631000D02*
X202281250Y-94631000D01*
D29*
%TO.N,/Rx*%
X183010000Y-107570000D02*
X206640000Y-107570000D01*
X206640000Y-107570000D02*
X206650000Y-107560000D01*
X149540000Y-120234500D02*
X170345500Y-120234500D01*
X170345500Y-120234500D02*
X183010000Y-107570000D01*
%TO.N,/Tx*%
X182400000Y-110090000D02*
X170800000Y-121690000D01*
X206650000Y-110100000D02*
X206640000Y-110090000D01*
X206640000Y-110090000D02*
X182400000Y-110090000D01*
X170800000Y-121690000D02*
X148450000Y-121690000D01*
X147693750Y-120933750D02*
X147693750Y-120250000D01*
X148450000Y-121690000D02*
X147693750Y-120933750D01*
D30*
%TO.N,+3V3*%
X145687500Y-88210000D02*
X125980000Y-88210000D01*
X124898500Y-100454000D02*
X124898500Y-101780000D01*
X146950000Y-92230000D02*
X146242500Y-91522500D01*
X125442500Y-88747500D02*
X125442500Y-99910000D01*
X148380000Y-85940000D02*
X169880000Y-85940000D01*
X171666250Y-84153750D02*
X171666250Y-82205000D01*
X150070000Y-90340000D02*
X150070000Y-91170000D01*
X146242500Y-91522500D02*
X146242500Y-88765000D01*
X146242500Y-88765000D02*
X145687500Y-88210000D01*
X169880000Y-85940000D02*
X171666250Y-84153750D01*
X149010000Y-92230000D02*
X146950000Y-92230000D01*
X146242500Y-88765000D02*
X146242500Y-88077500D01*
X150070000Y-91170000D02*
X149010000Y-92230000D01*
X121936500Y-101780000D02*
X124898500Y-101780000D01*
X125980000Y-88210000D02*
X125442500Y-88747500D01*
X125442500Y-99910000D02*
X124898500Y-100454000D01*
X146242500Y-88077500D02*
X148380000Y-85940000D01*
D29*
%TO.N,/EN*%
X148090000Y-90570000D02*
X148090000Y-89680000D01*
D28*
X198472500Y-94631000D02*
X191972500Y-94631000D01*
D29*
X149335000Y-88435000D02*
X184347500Y-88435000D01*
X185340000Y-89427500D02*
X185340000Y-90940000D01*
X148090000Y-89680000D02*
X149335000Y-88435000D01*
X184347500Y-88435000D02*
X185340000Y-89427500D01*
D31*
%TO.N,+5V*%
X130230000Y-109070000D02*
X130230000Y-114280000D01*
X135770000Y-116730000D02*
X139000002Y-119960002D01*
X168342500Y-115657500D02*
X168342500Y-98980000D01*
X132680000Y-116730000D02*
X135770000Y-116730000D01*
X108600000Y-101990000D02*
X111940000Y-101990000D01*
X111940000Y-101990000D02*
X114100000Y-101990000D01*
X139000002Y-122800000D02*
X139000002Y-119979998D01*
X119710000Y-107600000D02*
X128760000Y-107600000D01*
X139000002Y-119979998D02*
X141880000Y-117100000D01*
X141880000Y-117100000D02*
X166900000Y-117100000D01*
X166900000Y-117100000D02*
X168342500Y-115657500D01*
X130230000Y-114280000D02*
X132680000Y-116730000D01*
X108140000Y-102450000D02*
X108600000Y-101990000D01*
D29*
X153880000Y-122805000D02*
X139005002Y-122805000D01*
D31*
X106042500Y-102450000D02*
X108140000Y-102450000D01*
D29*
X139005002Y-122805000D02*
X139000002Y-122800000D01*
D31*
X139000002Y-119960002D02*
X139000002Y-119979998D01*
X128760000Y-107600000D02*
X130230000Y-109070000D01*
X114100000Y-101990000D02*
X119710000Y-107600000D01*
D29*
%TO.N,/PUSH_1*%
X119142500Y-103222500D02*
X121320000Y-105400000D01*
D31*
X119142500Y-101780000D02*
X119142500Y-97430000D01*
D29*
X119142500Y-101780000D02*
X119142500Y-103222500D01*
X138770000Y-107130000D02*
X138770000Y-116650000D01*
X137040000Y-105400000D02*
X138770000Y-107130000D01*
D28*
X119142500Y-90930000D02*
X119142500Y-97430000D01*
D29*
X121320000Y-105400000D02*
X137040000Y-105400000D01*
%TO.N,/PUSH_2*%
X140100000Y-115263750D02*
X140073750Y-115290000D01*
X127692500Y-101780000D02*
X127692500Y-103222500D01*
D31*
X127692500Y-101780000D02*
X127692500Y-97430000D01*
D28*
X127692500Y-90930000D02*
X127692500Y-97430000D01*
D29*
X127692500Y-103222500D02*
X128610000Y-104140000D01*
X137910000Y-104140000D02*
X140100000Y-106330000D01*
X140100000Y-106330000D02*
X140100000Y-115263750D01*
X128610000Y-104140000D02*
X137910000Y-104140000D01*
%TO.N,/BUZZER*%
X169160000Y-119040000D02*
X171603000Y-116597000D01*
X171603000Y-116597000D02*
X171603000Y-113100000D01*
X142590000Y-120720000D02*
X145240000Y-120720000D01*
X146920000Y-119040000D02*
X169160000Y-119040000D01*
X145240000Y-120720000D02*
X146920000Y-119040000D01*
%TO.N,/BOOT*%
X132390000Y-113205000D02*
X132390000Y-107640000D01*
X175012500Y-92300000D02*
X154140000Y-92300000D01*
X152170000Y-102270000D02*
X132390000Y-102270000D01*
X179032500Y-96320000D02*
X175012500Y-92300000D01*
X153420000Y-93020000D02*
X153420000Y-101020000D01*
X153420000Y-101020000D02*
X152170000Y-102270000D01*
D28*
X208781250Y-99131000D02*
X202281250Y-99131000D01*
D29*
X189920000Y-96320000D02*
X179032500Y-96320000D01*
X154140000Y-92300000D02*
X153420000Y-93020000D01*
%TD*%
%TA.AperFunction,Conductor*%
%TO.N,Net-(U5-OUT1)*%
G36*
X141507779Y-130457337D02*
G01*
X141553651Y-130502487D01*
X141570710Y-130564549D01*
X141581237Y-132409024D01*
X141581250Y-132411250D01*
X141581422Y-132413460D01*
X141581423Y-132413464D01*
X141960873Y-137266428D01*
X141961250Y-137276094D01*
X141961250Y-142188362D01*
X141944823Y-142250039D01*
X141899894Y-142295375D01*
X141838367Y-142312357D01*
X137646338Y-142350123D01*
X137583875Y-142333890D01*
X137538030Y-142288466D01*
X137521221Y-142226156D01*
X137520008Y-136907947D01*
X137525429Y-136871661D01*
X137541234Y-136838545D01*
X140464801Y-132507702D01*
X140464801Y-132507700D01*
X140470000Y-132500000D01*
X140461776Y-130574521D01*
X140478004Y-130512663D01*
X140522898Y-130467117D01*
X140584516Y-130449999D01*
X141445456Y-130441263D01*
X141507779Y-130457337D01*
G37*
%TD.AperFunction*%
%TD*%
%TA.AperFunction,Conductor*%
%TO.N,VCC*%
G36*
X96567500Y-91737113D02*
G01*
X96612887Y-91782500D01*
X96629500Y-91844500D01*
X96629500Y-94504954D01*
X96629889Y-94508412D01*
X96629890Y-94508418D01*
X96643852Y-94632333D01*
X96644632Y-94639255D01*
X96646931Y-94645825D01*
X96686665Y-94759380D01*
X96704211Y-94809522D01*
X96800184Y-94962262D01*
X96927738Y-95089816D01*
X97080478Y-95185789D01*
X97250745Y-95245368D01*
X97385046Y-95260500D01*
X100971469Y-95260500D01*
X100974954Y-95260500D01*
X101061222Y-95250779D01*
X101075105Y-95250000D01*
X101218500Y-95250000D01*
X101280500Y-95266613D01*
X101325887Y-95312000D01*
X101342500Y-95374000D01*
X101342500Y-105480000D01*
X104232500Y-108020000D01*
X110820339Y-108049764D01*
X110868375Y-108059683D01*
X110908808Y-108087452D01*
X121982500Y-119510000D01*
X128218143Y-119480586D01*
X128280323Y-119496966D01*
X128325940Y-119542286D01*
X128342726Y-119604359D01*
X128362470Y-130423695D01*
X128362500Y-130440000D01*
X139349306Y-130440000D01*
X139414583Y-130458573D01*
X139435104Y-130471279D01*
X139435109Y-130471281D01*
X139439981Y-130474298D01*
X139445322Y-130476367D01*
X139577354Y-130527516D01*
X139618754Y-130553999D01*
X139646614Y-130594485D01*
X139656559Y-130642613D01*
X139663282Y-132216901D01*
X139657935Y-132253454D01*
X139642058Y-132286810D01*
X136874896Y-136385962D01*
X136874880Y-136385986D01*
X136873614Y-136387863D01*
X136872486Y-136389834D01*
X136872473Y-136389856D01*
X136815417Y-136489612D01*
X136815401Y-136489642D01*
X136814282Y-136491599D01*
X136813299Y-136493657D01*
X136813293Y-136493670D01*
X136799466Y-136522641D01*
X136799457Y-136522659D01*
X136798477Y-136524715D01*
X136797657Y-136526821D01*
X136797646Y-136526848D01*
X136756816Y-136631793D01*
X136756811Y-136631807D01*
X136755147Y-136636086D01*
X136754131Y-136640572D01*
X136754130Y-136640578D01*
X136729274Y-136750411D01*
X136729268Y-136750439D01*
X136728770Y-136752643D01*
X136728435Y-136754881D01*
X136728431Y-136754906D01*
X136723688Y-136786655D01*
X136723685Y-136786674D01*
X136723349Y-136788929D01*
X136723179Y-136791209D01*
X136723178Y-136791226D01*
X136714677Y-136905839D01*
X136714676Y-136905865D01*
X136714508Y-136908131D01*
X136714508Y-136910408D01*
X136714508Y-136910423D01*
X136715720Y-142224304D01*
X136715720Y-142224320D01*
X136715721Y-142226340D01*
X136715853Y-142228336D01*
X136715854Y-142228366D01*
X136722053Y-142322079D01*
X136722713Y-142332062D01*
X136723512Y-142336054D01*
X136723513Y-142336057D01*
X136732911Y-142382979D01*
X136743522Y-142435951D01*
X136744054Y-142437923D01*
X136759619Y-142495625D01*
X136759624Y-142495643D01*
X136760331Y-142498261D01*
X136808909Y-142630830D01*
X136879889Y-142752880D01*
X136971089Y-142860662D01*
X136973014Y-142862569D01*
X137001530Y-142890824D01*
X137016934Y-142906086D01*
X137125554Y-142996289D01*
X137248256Y-143066140D01*
X137353815Y-143103719D01*
X137371657Y-143110071D01*
X137381270Y-143113493D01*
X137383919Y-143114181D01*
X137383921Y-143114182D01*
X137412230Y-143121538D01*
X137443733Y-143129726D01*
X137547811Y-143149575D01*
X137653594Y-143155590D01*
X141845623Y-143117824D01*
X141950096Y-143110071D01*
X142052679Y-143088824D01*
X142114206Y-143071842D01*
X142244751Y-143023288D01*
X142298818Y-143015986D01*
X142350785Y-143032594D01*
X142368130Y-143042784D01*
X142498694Y-143091613D01*
X142560097Y-143108689D01*
X142562052Y-143109098D01*
X142562056Y-143109099D01*
X142586349Y-143114182D01*
X142662483Y-143130112D01*
X142766782Y-143138087D01*
X146928709Y-143185275D01*
X147034711Y-143179481D01*
X147139031Y-143159797D01*
X147201645Y-143143646D01*
X147335003Y-143096416D01*
X147458041Y-143026583D01*
X147566963Y-142936301D01*
X147612931Y-142890824D01*
X147704374Y-142782883D01*
X147775522Y-142660609D01*
X147824182Y-142527774D01*
X147841006Y-142465338D01*
X147861812Y-142361232D01*
X147868747Y-142255294D01*
X147865522Y-136718579D01*
X147856099Y-136596201D01*
X147850352Y-136558959D01*
X147822440Y-136439418D01*
X147776688Y-136325505D01*
X147760020Y-136291710D01*
X147697498Y-136186087D01*
X146136040Y-133955433D01*
X144947915Y-132258110D01*
X144931236Y-132224280D01*
X144925500Y-132187001D01*
X144925500Y-130576030D01*
X144925500Y-130574000D01*
X144925367Y-130571981D01*
X144925301Y-130569940D01*
X144925838Y-130569922D01*
X144939119Y-130506748D01*
X144984781Y-130457992D01*
X145049111Y-130440000D01*
X154169306Y-130440000D01*
X154234583Y-130458573D01*
X154255104Y-130471279D01*
X154255109Y-130471281D01*
X154259981Y-130474298D01*
X154265318Y-130476365D01*
X154265325Y-130476369D01*
X154404114Y-130530135D01*
X154445641Y-130556741D01*
X154473513Y-130597428D01*
X154483321Y-130645762D01*
X154483321Y-132161772D01*
X154477802Y-132198353D01*
X154461738Y-132231677D01*
X151690082Y-136292375D01*
X151690070Y-136292393D01*
X151688765Y-136294306D01*
X151687599Y-136296321D01*
X151687594Y-136296331D01*
X151629666Y-136396545D01*
X151629652Y-136396570D01*
X151628506Y-136398554D01*
X151612453Y-136431846D01*
X151611609Y-136433991D01*
X151611606Y-136434000D01*
X151576767Y-136522641D01*
X151568411Y-136543901D01*
X151567375Y-136548426D01*
X151567375Y-136548429D01*
X151542077Y-136659017D01*
X151542072Y-136659040D01*
X151541563Y-136661268D01*
X151541221Y-136663529D01*
X151541216Y-136663556D01*
X151536381Y-136695535D01*
X151536036Y-136697819D01*
X151535863Y-136700104D01*
X151535862Y-136700119D01*
X151527155Y-136815575D01*
X151527153Y-136815602D01*
X151526982Y-136817883D01*
X151526980Y-136820171D01*
X151526980Y-136820197D01*
X151524556Y-142115229D01*
X151524556Y-142115257D01*
X151524556Y-142117246D01*
X151531285Y-142221516D01*
X151532060Y-142225459D01*
X151532061Y-142225461D01*
X151551069Y-142322079D01*
X151551072Y-142322096D01*
X151551455Y-142324038D01*
X151551966Y-142325966D01*
X151551968Y-142325974D01*
X151562379Y-142365245D01*
X151567770Y-142385576D01*
X151568676Y-142388094D01*
X151568680Y-142388104D01*
X151613128Y-142511519D01*
X151613131Y-142511525D01*
X151614950Y-142516576D01*
X151617614Y-142521242D01*
X151635584Y-142552718D01*
X151683985Y-142637493D01*
X151687407Y-142641624D01*
X151687408Y-142641625D01*
X151711218Y-142670366D01*
X151737647Y-142726848D01*
X151733242Y-142789051D01*
X151049177Y-144820079D01*
X151023218Y-144864128D01*
X150981693Y-144893959D01*
X150931663Y-144904500D01*
X109405750Y-144904500D01*
X109343750Y-144887887D01*
X109298363Y-144842500D01*
X109281750Y-144780500D01*
X109281750Y-141400000D01*
X114077064Y-141400000D01*
X114096787Y-141700920D01*
X114097577Y-141704891D01*
X114097578Y-141704899D01*
X114154827Y-141992707D01*
X114154829Y-141992714D01*
X114155620Y-141996691D01*
X114252555Y-142282252D01*
X114254350Y-142285893D01*
X114254351Y-142285894D01*
X114374899Y-142530343D01*
X114385934Y-142552718D01*
X114388185Y-142556087D01*
X114388188Y-142556092D01*
X114544511Y-142790046D01*
X114553475Y-142803461D01*
X114752311Y-143030189D01*
X114979039Y-143229025D01*
X115229782Y-143396566D01*
X115500248Y-143529945D01*
X115785809Y-143626880D01*
X116081580Y-143685713D01*
X116382500Y-143705436D01*
X116683420Y-143685713D01*
X116979191Y-143626880D01*
X117264752Y-143529945D01*
X117535218Y-143396566D01*
X117785961Y-143229025D01*
X118012689Y-143030189D01*
X118211525Y-142803461D01*
X118379066Y-142552718D01*
X118512445Y-142282252D01*
X118609380Y-141996691D01*
X118668213Y-141700920D01*
X118687936Y-141400000D01*
X118668213Y-141099080D01*
X118609380Y-140803309D01*
X118512445Y-140517748D01*
X118379066Y-140247282D01*
X118211525Y-139996539D01*
X118012689Y-139769811D01*
X117785961Y-139570975D01*
X117782579Y-139568715D01*
X117538592Y-139405688D01*
X117538587Y-139405685D01*
X117535218Y-139403434D01*
X117531582Y-139401641D01*
X117531577Y-139401638D01*
X117268394Y-139271851D01*
X117268393Y-139271850D01*
X117264752Y-139270055D01*
X116979191Y-139173120D01*
X116975214Y-139172329D01*
X116975207Y-139172327D01*
X116687399Y-139115078D01*
X116687391Y-139115077D01*
X116683420Y-139114287D01*
X116382500Y-139094564D01*
X116378457Y-139094829D01*
X116085622Y-139114022D01*
X116085620Y-139114022D01*
X116081580Y-139114287D01*
X116077610Y-139115076D01*
X116077600Y-139115078D01*
X115789792Y-139172327D01*
X115789781Y-139172329D01*
X115785809Y-139173120D01*
X115781966Y-139174424D01*
X115781964Y-139174425D01*
X115504094Y-139268749D01*
X115504087Y-139268751D01*
X115500248Y-139270055D01*
X115496611Y-139271848D01*
X115496605Y-139271851D01*
X115233422Y-139401638D01*
X115233410Y-139401644D01*
X115229782Y-139403434D01*
X115226419Y-139405681D01*
X115226407Y-139405688D01*
X114982420Y-139568715D01*
X114982411Y-139568721D01*
X114979039Y-139570975D01*
X114975988Y-139573650D01*
X114975981Y-139573656D01*
X114755359Y-139767137D01*
X114755351Y-139767144D01*
X114752311Y-139769811D01*
X114749644Y-139772851D01*
X114749637Y-139772859D01*
X114556156Y-139993481D01*
X114556150Y-139993488D01*
X114553475Y-139996539D01*
X114551221Y-139999911D01*
X114551215Y-139999920D01*
X114388188Y-140243907D01*
X114388181Y-140243919D01*
X114385934Y-140247282D01*
X114384144Y-140250910D01*
X114384138Y-140250922D01*
X114254351Y-140514105D01*
X114254348Y-140514111D01*
X114252555Y-140517748D01*
X114155620Y-140803309D01*
X114154829Y-140807281D01*
X114154827Y-140807292D01*
X114097578Y-141095100D01*
X114097576Y-141095110D01*
X114096787Y-141099080D01*
X114077064Y-141400000D01*
X109281750Y-141400000D01*
X109281750Y-118410000D01*
X114077064Y-118410000D01*
X114096787Y-118710920D01*
X114097577Y-118714891D01*
X114097578Y-118714899D01*
X114154827Y-119002707D01*
X114154829Y-119002714D01*
X114155620Y-119006691D01*
X114252555Y-119292252D01*
X114254350Y-119295893D01*
X114254351Y-119295894D01*
X114376949Y-119544500D01*
X114385934Y-119562718D01*
X114388185Y-119566087D01*
X114388188Y-119566092D01*
X114483202Y-119708290D01*
X114553475Y-119813461D01*
X114752311Y-120040189D01*
X114979039Y-120239025D01*
X115229782Y-120406566D01*
X115500248Y-120539945D01*
X115785809Y-120636880D01*
X116081580Y-120695713D01*
X116382500Y-120715436D01*
X116683420Y-120695713D01*
X116979191Y-120636880D01*
X117264752Y-120539945D01*
X117535218Y-120406566D01*
X117785961Y-120239025D01*
X118012689Y-120040189D01*
X118211525Y-119813461D01*
X118379066Y-119562718D01*
X118512445Y-119292252D01*
X118609380Y-119006691D01*
X118668213Y-118710920D01*
X118687936Y-118410000D01*
X118668213Y-118109080D01*
X118609380Y-117813309D01*
X118512445Y-117527748D01*
X118379066Y-117257282D01*
X118211525Y-117006539D01*
X118012689Y-116779811D01*
X117785961Y-116580975D01*
X117737203Y-116548396D01*
X117538592Y-116415688D01*
X117538587Y-116415685D01*
X117535218Y-116413434D01*
X117531582Y-116411641D01*
X117531577Y-116411638D01*
X117268394Y-116281851D01*
X117268393Y-116281850D01*
X117264752Y-116280055D01*
X116979191Y-116183120D01*
X116975214Y-116182329D01*
X116975207Y-116182327D01*
X116687399Y-116125078D01*
X116687391Y-116125077D01*
X116683420Y-116124287D01*
X116382500Y-116104564D01*
X116378457Y-116104829D01*
X116085622Y-116124022D01*
X116085620Y-116124022D01*
X116081580Y-116124287D01*
X116077610Y-116125076D01*
X116077600Y-116125078D01*
X115789792Y-116182327D01*
X115789781Y-116182329D01*
X115785809Y-116183120D01*
X115781966Y-116184424D01*
X115781964Y-116184425D01*
X115504094Y-116278749D01*
X115504087Y-116278751D01*
X115500248Y-116280055D01*
X115496611Y-116281848D01*
X115496605Y-116281851D01*
X115233422Y-116411638D01*
X115233410Y-116411644D01*
X115229782Y-116413434D01*
X115226419Y-116415681D01*
X115226407Y-116415688D01*
X114982420Y-116578715D01*
X114982411Y-116578721D01*
X114979039Y-116580975D01*
X114975988Y-116583650D01*
X114975981Y-116583656D01*
X114755359Y-116777137D01*
X114755351Y-116777144D01*
X114752311Y-116779811D01*
X114749644Y-116782851D01*
X114749637Y-116782859D01*
X114556156Y-117003481D01*
X114556150Y-117003488D01*
X114553475Y-117006539D01*
X114551221Y-117009911D01*
X114551215Y-117009920D01*
X114388188Y-117253907D01*
X114388181Y-117253919D01*
X114385934Y-117257282D01*
X114384144Y-117260910D01*
X114384138Y-117260922D01*
X114254351Y-117524105D01*
X114254348Y-117524111D01*
X114252555Y-117527748D01*
X114251251Y-117531587D01*
X114251249Y-117531594D01*
X114156925Y-117809464D01*
X114155620Y-117813309D01*
X114154829Y-117817281D01*
X114154827Y-117817292D01*
X114097578Y-118105100D01*
X114097576Y-118105110D01*
X114096787Y-118109080D01*
X114096522Y-118113120D01*
X114096522Y-118113122D01*
X114086046Y-118272952D01*
X114077064Y-118410000D01*
X109281750Y-118410000D01*
X109281750Y-112417025D01*
X109281750Y-112405099D01*
X109281791Y-112405000D01*
X109281633Y-112404617D01*
X109281349Y-112404500D01*
X109281250Y-112404459D01*
X109281151Y-112404500D01*
X79405750Y-112404500D01*
X79343750Y-112387887D01*
X79298363Y-112342500D01*
X79281750Y-112280500D01*
X79281750Y-99956570D01*
X79291189Y-99909117D01*
X79318069Y-99868889D01*
X80565601Y-98621357D01*
X84678235Y-94508721D01*
X84729143Y-94477982D01*
X84788511Y-94474480D01*
X84842681Y-94499024D01*
X84879193Y-94545968D01*
X84889649Y-94604513D01*
X84879500Y-94759367D01*
X84879500Y-94759368D01*
X84879500Y-94759380D01*
X84874565Y-94834678D01*
X84874830Y-94838721D01*
X84874830Y-94838722D01*
X84879235Y-94905934D01*
X84879500Y-94914043D01*
X84879500Y-98910635D01*
X84879235Y-98918744D01*
X84874565Y-98990000D01*
X84879500Y-99065298D01*
X84879500Y-99065310D01*
X84894287Y-99290919D01*
X84895077Y-99294890D01*
X84895078Y-99294898D01*
X84952327Y-99582707D01*
X84952329Y-99582714D01*
X84953120Y-99586691D01*
X85050055Y-99872252D01*
X85051850Y-99875893D01*
X85051851Y-99875894D01*
X85139275Y-100053174D01*
X85183434Y-100142718D01*
X85185684Y-100146085D01*
X85185689Y-100146094D01*
X85328670Y-100360081D01*
X85350974Y-100393461D01*
X85490219Y-100552238D01*
X85549811Y-100620189D01*
X85552859Y-100622862D01*
X85603500Y-100667273D01*
X85609422Y-100672820D01*
X87746178Y-102809576D01*
X87751725Y-102815498D01*
X87774241Y-102841173D01*
X87798811Y-102869189D01*
X87855549Y-102918947D01*
X87855553Y-102918951D01*
X88025539Y-103068026D01*
X88223781Y-103200486D01*
X88276282Y-103235566D01*
X88546748Y-103368945D01*
X88832309Y-103465880D01*
X89128080Y-103524713D01*
X89353690Y-103539500D01*
X89353689Y-103539500D01*
X89353714Y-103539501D01*
X89424943Y-103544170D01*
X89424957Y-103544170D01*
X89429000Y-103544435D01*
X89433043Y-103544170D01*
X89433044Y-103544170D01*
X89500256Y-103539765D01*
X89508365Y-103539500D01*
X94115780Y-103539500D01*
X94117810Y-103539500D01*
X94343420Y-103524713D01*
X94639191Y-103465880D01*
X94924752Y-103368945D01*
X95195218Y-103235566D01*
X95445961Y-103068025D01*
X95449019Y-103065343D01*
X95449301Y-103065127D01*
X95484931Y-103046081D01*
X95524791Y-103039500D01*
X95583970Y-103039500D01*
X95587454Y-103039500D01*
X95721755Y-103024368D01*
X95892022Y-102964789D01*
X96044762Y-102868816D01*
X96172316Y-102741262D01*
X96268289Y-102588522D01*
X96327868Y-102418255D01*
X96343000Y-102283954D01*
X96343000Y-101318377D01*
X96343265Y-101310267D01*
X96347671Y-101243043D01*
X96347936Y-101239000D01*
X96343265Y-101167733D01*
X96343000Y-101159623D01*
X96343000Y-100197530D01*
X96343000Y-100194046D01*
X96327868Y-100059745D01*
X96268289Y-99889478D01*
X96215190Y-99804971D01*
X96196184Y-99738998D01*
X96215191Y-99673026D01*
X96222402Y-99661551D01*
X96268289Y-99588522D01*
X96327868Y-99418255D01*
X96343000Y-99283954D01*
X96343000Y-97194046D01*
X96327868Y-97059745D01*
X96268289Y-96889478D01*
X96172316Y-96736738D01*
X96044762Y-96609184D01*
X95892022Y-96513211D01*
X95885459Y-96510914D01*
X95885456Y-96510913D01*
X95728325Y-96455931D01*
X95721755Y-96453632D01*
X95714833Y-96452852D01*
X95590918Y-96438890D01*
X95590912Y-96438889D01*
X95587454Y-96438500D01*
X92497546Y-96438500D01*
X92494088Y-96438889D01*
X92494081Y-96438890D01*
X92370166Y-96452852D01*
X92370164Y-96452852D01*
X92363245Y-96453632D01*
X92356676Y-96455930D01*
X92356674Y-96455931D01*
X92199543Y-96510913D01*
X92199536Y-96510915D01*
X92192978Y-96513211D01*
X92187090Y-96516910D01*
X92187087Y-96516912D01*
X92046138Y-96605476D01*
X92046133Y-96605479D01*
X92040238Y-96609184D01*
X92035313Y-96614108D01*
X92035309Y-96614112D01*
X91917612Y-96731809D01*
X91917608Y-96731813D01*
X91912684Y-96736738D01*
X91908979Y-96742633D01*
X91908976Y-96742638D01*
X91820412Y-96883587D01*
X91820410Y-96883590D01*
X91816711Y-96889478D01*
X91814415Y-96896036D01*
X91814413Y-96896043D01*
X91759431Y-97053174D01*
X91757132Y-97059745D01*
X91742000Y-97194046D01*
X91742000Y-97197530D01*
X91742000Y-98814500D01*
X91725387Y-98876500D01*
X91680000Y-98921887D01*
X91618000Y-98938500D01*
X90433260Y-98938500D01*
X90385807Y-98929061D01*
X90345579Y-98902181D01*
X89516819Y-98073421D01*
X89489939Y-98033193D01*
X89480500Y-97985740D01*
X89480500Y-95838938D01*
X89489939Y-95791485D01*
X89516819Y-95751257D01*
X93511257Y-91756819D01*
X93551485Y-91729939D01*
X93598938Y-91720500D01*
X96505500Y-91720500D01*
X96567500Y-91737113D01*
G37*
%TD.AperFunction*%
%TD*%
%TA.AperFunction,Conductor*%
%TO.N,GND*%
G36*
X188022322Y-71423805D02*
G01*
X188126582Y-71476928D01*
X188209322Y-71559668D01*
X188262445Y-71663928D01*
X188280750Y-71779500D01*
X188280750Y-84904901D01*
X188280709Y-84905000D01*
X188280750Y-84905099D01*
X188280867Y-84905383D01*
X188281250Y-84905541D01*
X188281349Y-84905500D01*
X202126126Y-84905500D01*
X202222924Y-84918244D01*
X202313126Y-84955606D01*
X202390584Y-85015042D01*
X217171208Y-99795665D01*
X217230643Y-99873123D01*
X217268006Y-99963325D01*
X217280750Y-100060123D01*
X217280750Y-112030500D01*
X217262445Y-112146072D01*
X217209322Y-112250332D01*
X217126582Y-112333072D01*
X217022322Y-112386195D01*
X216906750Y-112404500D01*
X207537746Y-112404500D01*
X207427508Y-112387884D01*
X207327064Y-112339513D01*
X207245341Y-112263685D01*
X207189599Y-112167137D01*
X207164792Y-112058449D01*
X207173123Y-111947277D01*
X207213853Y-111843500D01*
X207283362Y-111756338D01*
X207375474Y-111693538D01*
X207527704Y-111620228D01*
X207744479Y-111472433D01*
X207936805Y-111293981D01*
X208100386Y-111088857D01*
X208231568Y-110861643D01*
X208327420Y-110617416D01*
X208385802Y-110361630D01*
X208405408Y-110100000D01*
X208385802Y-109838370D01*
X208327420Y-109582584D01*
X208231568Y-109338357D01*
X208203915Y-109290460D01*
X208107377Y-109123251D01*
X208107374Y-109123246D01*
X208100386Y-109111143D01*
X208062138Y-109063182D01*
X208010642Y-108976993D01*
X207983930Y-108880204D01*
X207983930Y-108779796D01*
X208010642Y-108683007D01*
X208062138Y-108596817D01*
X208100386Y-108548857D01*
X208231568Y-108321643D01*
X208327420Y-108077416D01*
X208385802Y-107821630D01*
X208405408Y-107560000D01*
X208385802Y-107298370D01*
X208327420Y-107042584D01*
X208231568Y-106798357D01*
X208156266Y-106667930D01*
X208107377Y-106583251D01*
X208107374Y-106583246D01*
X208100386Y-106571143D01*
X208088670Y-106556452D01*
X207945531Y-106376961D01*
X207945530Y-106376960D01*
X207936805Y-106366019D01*
X207744479Y-106187567D01*
X207527704Y-106039772D01*
X207515096Y-106033700D01*
X207515092Y-106033698D01*
X207303930Y-105932008D01*
X207303927Y-105932007D01*
X207291323Y-105925937D01*
X207277959Y-105921814D01*
X207277952Y-105921812D01*
X207053990Y-105852729D01*
X207053982Y-105852727D01*
X207040615Y-105848604D01*
X207026785Y-105846519D01*
X207026779Y-105846518D01*
X206795010Y-105811584D01*
X206795006Y-105811583D01*
X206781182Y-105809500D01*
X206518818Y-105809500D01*
X206504994Y-105811583D01*
X206504989Y-105811584D01*
X206273220Y-105846518D01*
X206273211Y-105846519D01*
X206259385Y-105848604D01*
X206246020Y-105852726D01*
X206246009Y-105852729D01*
X206022047Y-105921812D01*
X206022036Y-105921816D01*
X206008677Y-105925937D01*
X205996076Y-105932004D01*
X205996069Y-105932008D01*
X205784907Y-106033698D01*
X205784897Y-106033703D01*
X205772296Y-106039772D01*
X205760738Y-106047652D01*
X205760733Y-106047655D01*
X205567084Y-106179683D01*
X205567079Y-106179686D01*
X205555521Y-106187567D01*
X205545269Y-106197079D01*
X205545262Y-106197085D01*
X205386212Y-106344662D01*
X205310694Y-106398955D01*
X205224115Y-106432935D01*
X205131828Y-106444500D01*
X183111595Y-106444500D01*
X183101924Y-106444154D01*
X183090658Y-106442260D01*
X183072848Y-106442684D01*
X183001025Y-106444394D01*
X182992123Y-106444500D01*
X182956382Y-106444500D01*
X182947513Y-106445346D01*
X182938639Y-106445769D01*
X182938631Y-106445612D01*
X182929700Y-106446091D01*
X182893582Y-106446951D01*
X182893573Y-106446952D01*
X182875774Y-106447376D01*
X182858378Y-106451160D01*
X182858362Y-106451162D01*
X182858030Y-106451235D01*
X182814096Y-106458086D01*
X182813970Y-106458098D01*
X182813765Y-106458118D01*
X182813762Y-106458118D01*
X182796029Y-106459812D01*
X182778940Y-106464829D01*
X182778932Y-106464831D01*
X182744292Y-106475002D01*
X182718442Y-106481600D01*
X182683148Y-106489278D01*
X182683135Y-106489281D01*
X182665742Y-106493066D01*
X182649371Y-106500076D01*
X182649362Y-106500079D01*
X182649047Y-106500214D01*
X182607206Y-106515255D01*
X182606888Y-106515348D01*
X182606882Y-106515350D01*
X182589791Y-106520369D01*
X182573962Y-106528528D01*
X182573955Y-106528532D01*
X182541858Y-106545079D01*
X182517717Y-106556452D01*
X182484533Y-106570662D01*
X182484518Y-106570670D01*
X182468151Y-106577679D01*
X182453400Y-106587662D01*
X182453390Y-106587668D01*
X182453107Y-106587860D01*
X182414883Y-106610540D01*
X182414575Y-106610698D01*
X182414568Y-106610702D01*
X182398741Y-106618862D01*
X182384747Y-106629866D01*
X182384734Y-106629875D01*
X182356347Y-106652199D01*
X182334803Y-106667930D01*
X182304899Y-106688170D01*
X182304888Y-106688178D01*
X182290146Y-106698157D01*
X182277558Y-106710743D01*
X182277544Y-106710756D01*
X182277297Y-106711004D01*
X182244074Y-106740491D01*
X182243799Y-106740706D01*
X182243779Y-106740724D01*
X182229783Y-106751732D01*
X182218115Y-106765196D01*
X182218113Y-106765199D01*
X182194469Y-106792485D01*
X182176283Y-106812018D01*
X173366958Y-115621345D01*
X173278802Y-115686726D01*
X173175464Y-115723701D01*
X173065842Y-115729086D01*
X172959376Y-115702418D01*
X172865237Y-115645993D01*
X172791530Y-115564670D01*
X172744604Y-115465453D01*
X172728500Y-115356887D01*
X172728500Y-113728207D01*
X172737366Y-113647258D01*
X172763542Y-113570146D01*
X172782575Y-113529330D01*
X172839207Y-113317977D01*
X172858277Y-113100000D01*
X172839207Y-112882023D01*
X172782575Y-112670670D01*
X172690102Y-112472362D01*
X172642865Y-112404901D01*
X172573965Y-112306501D01*
X172564598Y-112293123D01*
X172409877Y-112138402D01*
X172396503Y-112129037D01*
X172396499Y-112129034D01*
X172244011Y-112022261D01*
X172244009Y-112022260D01*
X172230639Y-112012898D01*
X172215844Y-112005999D01*
X172215841Y-112005997D01*
X172047132Y-111927327D01*
X172047129Y-111927325D01*
X172032330Y-111920425D01*
X172016555Y-111916198D01*
X171836750Y-111868019D01*
X171836745Y-111868018D01*
X171820977Y-111863793D01*
X171804717Y-111862370D01*
X171804709Y-111862369D01*
X171619265Y-111846146D01*
X171603000Y-111844723D01*
X171586735Y-111846146D01*
X171401290Y-111862369D01*
X171401280Y-111862370D01*
X171385023Y-111863793D01*
X171369255Y-111868017D01*
X171369249Y-111868019D01*
X171189440Y-111916199D01*
X171189435Y-111916200D01*
X171173670Y-111920425D01*
X171158879Y-111927322D01*
X171158874Y-111927324D01*
X170990156Y-112005999D01*
X170990152Y-112006001D01*
X170975362Y-112012898D01*
X170961997Y-112022256D01*
X170961987Y-112022262D01*
X170809501Y-112129034D01*
X170809496Y-112129037D01*
X170796123Y-112138402D01*
X170784582Y-112149942D01*
X170784576Y-112149948D01*
X170652948Y-112281576D01*
X170652942Y-112281582D01*
X170641402Y-112293123D01*
X170632042Y-112306490D01*
X170632034Y-112306500D01*
X170523363Y-112461701D01*
X170441427Y-112546364D01*
X170337219Y-112601336D01*
X170221080Y-112621162D01*
X170104536Y-112603874D01*
X169999154Y-112551189D01*
X169915390Y-112468334D01*
X169861558Y-112363532D01*
X169843000Y-112247184D01*
X169843000Y-99982271D01*
X169855744Y-99885473D01*
X169893106Y-99795272D01*
X169917068Y-99753767D01*
X169924068Y-99741643D01*
X170019920Y-99497416D01*
X170078302Y-99241630D01*
X170097908Y-98980000D01*
X174187092Y-98980000D01*
X174188138Y-98993958D01*
X174203315Y-99196494D01*
X174206698Y-99241630D01*
X174209811Y-99255268D01*
X174261967Y-99483781D01*
X174261970Y-99483791D01*
X174265080Y-99497416D01*
X174270188Y-99510431D01*
X174270189Y-99510434D01*
X174352564Y-99720323D01*
X174360932Y-99741643D01*
X174367926Y-99753757D01*
X174367928Y-99753761D01*
X174485122Y-99956748D01*
X174485127Y-99956756D01*
X174492114Y-99968857D01*
X174500829Y-99979786D01*
X174500833Y-99979791D01*
X174627241Y-100138301D01*
X174655695Y-100173981D01*
X174848021Y-100352433D01*
X175064796Y-100500228D01*
X175301177Y-100614063D01*
X175551885Y-100691396D01*
X175811318Y-100730500D01*
X176059694Y-100730500D01*
X176073682Y-100730500D01*
X176333115Y-100691396D01*
X176583823Y-100614063D01*
X176820204Y-100500228D01*
X177036979Y-100352433D01*
X177229305Y-100173981D01*
X177392886Y-99968857D01*
X177524068Y-99741643D01*
X177619920Y-99497416D01*
X177678302Y-99241630D01*
X177686592Y-99131000D01*
X200525842Y-99131000D01*
X200526888Y-99144958D01*
X200526888Y-99144959D01*
X200529704Y-99182537D01*
X200530750Y-99210485D01*
X200530750Y-99262182D01*
X200532833Y-99276003D01*
X200532834Y-99276014D01*
X200538454Y-99313299D01*
X200541584Y-99341078D01*
X200544402Y-99378684D01*
X200544403Y-99378694D01*
X200545448Y-99392630D01*
X200548558Y-99406255D01*
X200548560Y-99406269D01*
X200556950Y-99443027D01*
X200562148Y-99470496D01*
X200567768Y-99507778D01*
X200569854Y-99521615D01*
X200573977Y-99534981D01*
X200573979Y-99534990D01*
X200585088Y-99571005D01*
X200592325Y-99598012D01*
X200592672Y-99599531D01*
X200603830Y-99648416D01*
X200608939Y-99661435D01*
X200608944Y-99661449D01*
X200622717Y-99696542D01*
X200631953Y-99722937D01*
X200641405Y-99753578D01*
X200647187Y-99772323D01*
X200653259Y-99784932D01*
X200653260Y-99784934D01*
X200669614Y-99818894D01*
X200680796Y-99844524D01*
X200694567Y-99879613D01*
X200694571Y-99879621D01*
X200699682Y-99892643D01*
X200706674Y-99904753D01*
X200706677Y-99904759D01*
X200725526Y-99937406D01*
X200738594Y-99962133D01*
X200754948Y-99996094D01*
X200754955Y-99996107D01*
X200761022Y-100008704D01*
X200768899Y-100020258D01*
X200768904Y-100020266D01*
X200790141Y-100051414D01*
X200805016Y-100075088D01*
X200830864Y-100119857D01*
X200839586Y-100130794D01*
X200863096Y-100160275D01*
X200879702Y-100182776D01*
X200908817Y-100225479D01*
X200918329Y-100235730D01*
X200918336Y-100235739D01*
X200943971Y-100263366D01*
X200962206Y-100284554D01*
X200994445Y-100324981D01*
X201004704Y-100334500D01*
X201032335Y-100360138D01*
X201052110Y-100379913D01*
X201077745Y-100407541D01*
X201087269Y-100417805D01*
X201098210Y-100426530D01*
X201127682Y-100450033D01*
X201148883Y-100468278D01*
X201172443Y-100490139D01*
X201186771Y-100503433D01*
X201229482Y-100532553D01*
X201251963Y-100549144D01*
X201292393Y-100581386D01*
X201337160Y-100607232D01*
X201360832Y-100622106D01*
X201403546Y-100651228D01*
X201416148Y-100657297D01*
X201416152Y-100657299D01*
X201450122Y-100673658D01*
X201474838Y-100686720D01*
X201519607Y-100712568D01*
X201567732Y-100731455D01*
X201593358Y-100742636D01*
X201639927Y-100765063D01*
X201653291Y-100769185D01*
X201689323Y-100780299D01*
X201715730Y-100789540D01*
X201763834Y-100808420D01*
X201814226Y-100819921D01*
X201841245Y-100827160D01*
X201890635Y-100842396D01*
X201941752Y-100850100D01*
X201969214Y-100855296D01*
X202019620Y-100866802D01*
X202071189Y-100870666D01*
X202098943Y-100873793D01*
X202150068Y-100881500D01*
X202215756Y-100881500D01*
X202412432Y-100881500D01*
X204545151Y-100881500D01*
X204654585Y-100897869D01*
X204754440Y-100945542D01*
X204835976Y-101020347D01*
X204892054Y-101115735D01*
X204917767Y-101223358D01*
X204911572Y-101322460D01*
X204910001Y-101327203D01*
X204907925Y-101347516D01*
X204907925Y-101347520D01*
X204900467Y-101420519D01*
X204900466Y-101420532D01*
X204899500Y-101429991D01*
X204899500Y-101439506D01*
X204899500Y-101439507D01*
X204899500Y-103520483D01*
X204899500Y-103520502D01*
X204899501Y-103530008D01*
X204900467Y-103539467D01*
X204900468Y-103539481D01*
X204906275Y-103596325D01*
X204910001Y-103632797D01*
X204965186Y-103799334D01*
X204976621Y-103817874D01*
X204976622Y-103817875D01*
X205035970Y-103914095D01*
X205057288Y-103948656D01*
X205181344Y-104072712D01*
X205330666Y-104164814D01*
X205497203Y-104219999D01*
X205599991Y-104230500D01*
X207700008Y-104230499D01*
X207802797Y-104219999D01*
X207969334Y-104164814D01*
X208118656Y-104072712D01*
X208242712Y-103948656D01*
X208334814Y-103799334D01*
X208389999Y-103632797D01*
X208400500Y-103530009D01*
X208400499Y-101429992D01*
X208389999Y-101327203D01*
X208388427Y-101322460D01*
X208382233Y-101223359D01*
X208407945Y-101115736D01*
X208464024Y-101020347D01*
X208545559Y-100945542D01*
X208645415Y-100897869D01*
X208754849Y-100881500D01*
X208898437Y-100881500D01*
X208912432Y-100881500D01*
X208963556Y-100873793D01*
X208991311Y-100870666D01*
X209042880Y-100866802D01*
X209093281Y-100855297D01*
X209120748Y-100850099D01*
X209171865Y-100842396D01*
X209221263Y-100827157D01*
X209248249Y-100819926D01*
X209298666Y-100808420D01*
X209346792Y-100789530D01*
X209373174Y-100780299D01*
X209422573Y-100765063D01*
X209469156Y-100742628D01*
X209494757Y-100731459D01*
X209542893Y-100712568D01*
X209587665Y-100686717D01*
X209612372Y-100673660D01*
X209658954Y-100651228D01*
X209701684Y-100622094D01*
X209725319Y-100607243D01*
X209770107Y-100581386D01*
X209810533Y-100549146D01*
X209833016Y-100532553D01*
X209875729Y-100503433D01*
X209913632Y-100468263D01*
X209934817Y-100450033D01*
X209975231Y-100417805D01*
X210010389Y-100379912D01*
X210030168Y-100360134D01*
X210038468Y-100352433D01*
X210068055Y-100324981D01*
X210100291Y-100284556D01*
X210118513Y-100263382D01*
X210153683Y-100225479D01*
X210182803Y-100182766D01*
X210199403Y-100160275D01*
X210231636Y-100119857D01*
X210257493Y-100075069D01*
X210272344Y-100051434D01*
X210301478Y-100008704D01*
X210323910Y-99962122D01*
X210336967Y-99937415D01*
X210362818Y-99892643D01*
X210381709Y-99844507D01*
X210392878Y-99818906D01*
X210415313Y-99772323D01*
X210430549Y-99722924D01*
X210439780Y-99696542D01*
X210458670Y-99648416D01*
X210470176Y-99597999D01*
X210477410Y-99571005D01*
X210492646Y-99521615D01*
X210500350Y-99470496D01*
X210505548Y-99443028D01*
X210510492Y-99421371D01*
X210517052Y-99392630D01*
X210520916Y-99341061D01*
X210524045Y-99313299D01*
X210531750Y-99262182D01*
X210531750Y-99210485D01*
X210532796Y-99182537D01*
X210535612Y-99144959D01*
X210535612Y-99144958D01*
X210536658Y-99131000D01*
X210532796Y-99079463D01*
X210531750Y-99051515D01*
X210531750Y-99013814D01*
X210531750Y-99013809D01*
X210531750Y-98999818D01*
X210524043Y-98948693D01*
X210520916Y-98920939D01*
X210517052Y-98869370D01*
X210505546Y-98818960D01*
X210500349Y-98791496D01*
X210492646Y-98740385D01*
X210477410Y-98690992D01*
X210470169Y-98663969D01*
X210465382Y-98642996D01*
X210458670Y-98613584D01*
X210439790Y-98565480D01*
X210430549Y-98539073D01*
X210419435Y-98503041D01*
X210415313Y-98489677D01*
X210392881Y-98443097D01*
X210381703Y-98417477D01*
X210362818Y-98369357D01*
X210336963Y-98324574D01*
X210323908Y-98299872D01*
X210307549Y-98265902D01*
X210307547Y-98265898D01*
X210301478Y-98253296D01*
X210272355Y-98210581D01*
X210257484Y-98186914D01*
X210231636Y-98142143D01*
X210199394Y-98101713D01*
X210182797Y-98079224D01*
X210153683Y-98036521D01*
X210118528Y-97998633D01*
X210100283Y-97977432D01*
X210076780Y-97947960D01*
X210068055Y-97937019D01*
X210030159Y-97901856D01*
X210010388Y-97882085D01*
X209984750Y-97854454D01*
X209984749Y-97854453D01*
X209975231Y-97844195D01*
X209934804Y-97811956D01*
X209913616Y-97793721D01*
X209885989Y-97768086D01*
X209885982Y-97768080D01*
X209875729Y-97758567D01*
X209864166Y-97750683D01*
X209864163Y-97750681D01*
X209833027Y-97729453D01*
X209810525Y-97712846D01*
X209781044Y-97689336D01*
X209770107Y-97680614D01*
X209725341Y-97654768D01*
X209701664Y-97639891D01*
X209670516Y-97618654D01*
X209670508Y-97618649D01*
X209658954Y-97610772D01*
X209646357Y-97604705D01*
X209646344Y-97604698D01*
X209612383Y-97588344D01*
X209587658Y-97575277D01*
X209542893Y-97549432D01*
X209529875Y-97544322D01*
X209529863Y-97544317D01*
X209494774Y-97530546D01*
X209469144Y-97519364D01*
X209435184Y-97503010D01*
X209435182Y-97503009D01*
X209422573Y-97496937D01*
X209409193Y-97492810D01*
X209409191Y-97492809D01*
X209373187Y-97481703D01*
X209346792Y-97472467D01*
X209311699Y-97458694D01*
X209311685Y-97458689D01*
X209298666Y-97453580D01*
X209274854Y-97448145D01*
X209248262Y-97442075D01*
X209221255Y-97434838D01*
X209185240Y-97423729D01*
X209185231Y-97423727D01*
X209171865Y-97419604D01*
X209158032Y-97417519D01*
X209158028Y-97417518D01*
X209120746Y-97411898D01*
X209093277Y-97406700D01*
X209056519Y-97398310D01*
X209056505Y-97398308D01*
X209042880Y-97395198D01*
X209028944Y-97394153D01*
X209028934Y-97394152D01*
X208991328Y-97391334D01*
X208963549Y-97388204D01*
X208926264Y-97382584D01*
X208926253Y-97382583D01*
X208912432Y-97380500D01*
X208898442Y-97380500D01*
X207394635Y-97380500D01*
X207286328Y-97364474D01*
X207187303Y-97317771D01*
X207106046Y-97244391D01*
X207049520Y-97150625D01*
X207027729Y-97064820D01*
X207026899Y-97064998D01*
X207022624Y-97045033D01*
X207020549Y-97024713D01*
X206965364Y-96858176D01*
X206873262Y-96708854D01*
X206749206Y-96584798D01*
X206730663Y-96573360D01*
X206730661Y-96573359D01*
X206618425Y-96504132D01*
X206618424Y-96504131D01*
X206599884Y-96492696D01*
X206575351Y-96484566D01*
X206452735Y-96443935D01*
X206452730Y-96443933D01*
X206433347Y-96437511D01*
X206413027Y-96435435D01*
X206340030Y-96427977D01*
X206340018Y-96427976D01*
X206330559Y-96427010D01*
X206321042Y-96427010D01*
X204741466Y-96427010D01*
X204741446Y-96427010D01*
X204731942Y-96427011D01*
X204722483Y-96427977D01*
X204722468Y-96427978D01*
X204649471Y-96435435D01*
X204649466Y-96435435D01*
X204629153Y-96437511D01*
X204609764Y-96443935D01*
X204609763Y-96443936D01*
X204483296Y-96485843D01*
X204483293Y-96485844D01*
X204462616Y-96492696D01*
X204444078Y-96504129D01*
X204444074Y-96504132D01*
X204331838Y-96573359D01*
X204331832Y-96573363D01*
X204313294Y-96584798D01*
X204297891Y-96600200D01*
X204297887Y-96600204D01*
X204204644Y-96693447D01*
X204204640Y-96693451D01*
X204189238Y-96708854D01*
X204177803Y-96727392D01*
X204177799Y-96727398D01*
X204108572Y-96839634D01*
X204108569Y-96839638D01*
X204097136Y-96858176D01*
X204090284Y-96878853D01*
X204090283Y-96878856D01*
X204048375Y-97005324D01*
X204048373Y-97005331D01*
X204041951Y-97024713D01*
X204039875Y-97045029D01*
X204035602Y-97064993D01*
X204034772Y-97064815D01*
X204012976Y-97150633D01*
X203956450Y-97244396D01*
X203875194Y-97317773D01*
X203776170Y-97364475D01*
X203667865Y-97380500D01*
X202412432Y-97380500D01*
X202150068Y-97380500D01*
X202136235Y-97382584D01*
X202136233Y-97382585D01*
X202098950Y-97388204D01*
X202071172Y-97391334D01*
X202033567Y-97394152D01*
X202033557Y-97394153D01*
X202019620Y-97395198D01*
X202005991Y-97398308D01*
X202005982Y-97398310D01*
X201969210Y-97406703D01*
X201941746Y-97411899D01*
X201904478Y-97417517D01*
X201904472Y-97417518D01*
X201890635Y-97419604D01*
X201877270Y-97423726D01*
X201877259Y-97423729D01*
X201841242Y-97434839D01*
X201814232Y-97442076D01*
X201777481Y-97450464D01*
X201777467Y-97450468D01*
X201763834Y-97453580D01*
X201715709Y-97472467D01*
X201689326Y-97481699D01*
X201653294Y-97492813D01*
X201653284Y-97492816D01*
X201639927Y-97496937D01*
X201627334Y-97503001D01*
X201627317Y-97503008D01*
X201593347Y-97519367D01*
X201567727Y-97530545D01*
X201532637Y-97544317D01*
X201532625Y-97544322D01*
X201519607Y-97549432D01*
X201507497Y-97556422D01*
X201507475Y-97556434D01*
X201474824Y-97575285D01*
X201450114Y-97588345D01*
X201416151Y-97604701D01*
X201416145Y-97604704D01*
X201403546Y-97610772D01*
X201391997Y-97618645D01*
X201391981Y-97618655D01*
X201360831Y-97639893D01*
X201337167Y-97654762D01*
X201292393Y-97680614D01*
X201281462Y-97689330D01*
X201281453Y-97689337D01*
X201251963Y-97712854D01*
X201229475Y-97729451D01*
X201198329Y-97750686D01*
X201198323Y-97750690D01*
X201186771Y-97758567D01*
X201176519Y-97768078D01*
X201176513Y-97768084D01*
X201148876Y-97793727D01*
X201127690Y-97811959D01*
X201098206Y-97835472D01*
X201098199Y-97835478D01*
X201087269Y-97844195D01*
X201077761Y-97854441D01*
X201077749Y-97854453D01*
X201052106Y-97882090D01*
X201032340Y-97901856D01*
X201004703Y-97927499D01*
X201004691Y-97927511D01*
X200994445Y-97937019D01*
X200985728Y-97947949D01*
X200985722Y-97947956D01*
X200962209Y-97977440D01*
X200943977Y-97998626D01*
X200918334Y-98026263D01*
X200918328Y-98026269D01*
X200908817Y-98036521D01*
X200900940Y-98048073D01*
X200900936Y-98048079D01*
X200879701Y-98079225D01*
X200863104Y-98101713D01*
X200839587Y-98131203D01*
X200839580Y-98131212D01*
X200830864Y-98142143D01*
X200823865Y-98154266D01*
X200805018Y-98186909D01*
X200790143Y-98210581D01*
X200768905Y-98241731D01*
X200768895Y-98241747D01*
X200761022Y-98253296D01*
X200754954Y-98265895D01*
X200754951Y-98265901D01*
X200738595Y-98299864D01*
X200725535Y-98324574D01*
X200706684Y-98357225D01*
X200706672Y-98357247D01*
X200699682Y-98369357D01*
X200694572Y-98382375D01*
X200694567Y-98382387D01*
X200680795Y-98417477D01*
X200669617Y-98443097D01*
X200653258Y-98477067D01*
X200653251Y-98477084D01*
X200647187Y-98489677D01*
X200643066Y-98503034D01*
X200643063Y-98503044D01*
X200631949Y-98539076D01*
X200622717Y-98565459D01*
X200603830Y-98613584D01*
X200600718Y-98627217D01*
X200600714Y-98627231D01*
X200592326Y-98663982D01*
X200585089Y-98690992D01*
X200573979Y-98727009D01*
X200573979Y-98727011D01*
X200569854Y-98740385D01*
X200567768Y-98754222D01*
X200567767Y-98754228D01*
X200562149Y-98791496D01*
X200556953Y-98818960D01*
X200548560Y-98855732D01*
X200548558Y-98855741D01*
X200545448Y-98869370D01*
X200544403Y-98883307D01*
X200544402Y-98883317D01*
X200541584Y-98920922D01*
X200538454Y-98948700D01*
X200535030Y-98971422D01*
X200530750Y-98999818D01*
X200530750Y-99013809D01*
X200530750Y-99051515D01*
X200529704Y-99079463D01*
X200525842Y-99131000D01*
X177686592Y-99131000D01*
X177697908Y-98980000D01*
X177678302Y-98718370D01*
X177619920Y-98462584D01*
X177524068Y-98218357D01*
X177456724Y-98101713D01*
X177399877Y-98003251D01*
X177399874Y-98003246D01*
X177392886Y-97991143D01*
X177381958Y-97977440D01*
X177238031Y-97796961D01*
X177238030Y-97796960D01*
X177229305Y-97786019D01*
X177036979Y-97607567D01*
X176820204Y-97459772D01*
X176807596Y-97453700D01*
X176807592Y-97453698D01*
X176596430Y-97352008D01*
X176596427Y-97352007D01*
X176583823Y-97345937D01*
X176570459Y-97341814D01*
X176570452Y-97341812D01*
X176346490Y-97272729D01*
X176346482Y-97272727D01*
X176333115Y-97268604D01*
X176319285Y-97266519D01*
X176319279Y-97266518D01*
X176087510Y-97231584D01*
X176087506Y-97231583D01*
X176073682Y-97229500D01*
X175811318Y-97229500D01*
X175797494Y-97231583D01*
X175797489Y-97231584D01*
X175565720Y-97266518D01*
X175565711Y-97266519D01*
X175551885Y-97268604D01*
X175538520Y-97272726D01*
X175538509Y-97272729D01*
X175314547Y-97341812D01*
X175314536Y-97341816D01*
X175301177Y-97345937D01*
X175288576Y-97352004D01*
X175288569Y-97352008D01*
X175077407Y-97453698D01*
X175077397Y-97453703D01*
X175064796Y-97459772D01*
X175053238Y-97467652D01*
X175053233Y-97467655D01*
X174859584Y-97599683D01*
X174859579Y-97599686D01*
X174848021Y-97607567D01*
X174837769Y-97617079D01*
X174837762Y-97617085D01*
X174693780Y-97750681D01*
X174655695Y-97786019D01*
X174646975Y-97796953D01*
X174646968Y-97796961D01*
X174500833Y-97980208D01*
X174500824Y-97980219D01*
X174492114Y-97991143D01*
X174485131Y-98003237D01*
X174485122Y-98003251D01*
X174367928Y-98206238D01*
X174367923Y-98206247D01*
X174360932Y-98218357D01*
X174355822Y-98231375D01*
X174355819Y-98231383D01*
X174270189Y-98449565D01*
X174270186Y-98449571D01*
X174265080Y-98462584D01*
X174261971Y-98476204D01*
X174261967Y-98476218D01*
X174219935Y-98660375D01*
X174206698Y-98718370D01*
X174205652Y-98732317D01*
X174205652Y-98732323D01*
X174189711Y-98945053D01*
X174187092Y-98980000D01*
X170097908Y-98980000D01*
X170078302Y-98718370D01*
X170019920Y-98462584D01*
X169924068Y-98218357D01*
X169856724Y-98101713D01*
X169799877Y-98003251D01*
X169799874Y-98003246D01*
X169792886Y-97991143D01*
X169781958Y-97977440D01*
X169638031Y-97796961D01*
X169638030Y-97796960D01*
X169629305Y-97786019D01*
X169436979Y-97607567D01*
X169220204Y-97459772D01*
X169207596Y-97453700D01*
X169207592Y-97453698D01*
X168996430Y-97352008D01*
X168996427Y-97352007D01*
X168983823Y-97345937D01*
X168970459Y-97341814D01*
X168970452Y-97341812D01*
X168746490Y-97272729D01*
X168746482Y-97272727D01*
X168733115Y-97268604D01*
X168719285Y-97266519D01*
X168719279Y-97266518D01*
X168487510Y-97231584D01*
X168487506Y-97231583D01*
X168473682Y-97229500D01*
X168211318Y-97229500D01*
X168197494Y-97231583D01*
X168197489Y-97231584D01*
X167965720Y-97266518D01*
X167965711Y-97266519D01*
X167951885Y-97268604D01*
X167938520Y-97272726D01*
X167938509Y-97272729D01*
X167714547Y-97341812D01*
X167714536Y-97341816D01*
X167701177Y-97345937D01*
X167688576Y-97352004D01*
X167688569Y-97352008D01*
X167477407Y-97453698D01*
X167477397Y-97453703D01*
X167464796Y-97459772D01*
X167453238Y-97467652D01*
X167453233Y-97467655D01*
X167259584Y-97599683D01*
X167259579Y-97599686D01*
X167248021Y-97607567D01*
X167237769Y-97617079D01*
X167237762Y-97617085D01*
X167093780Y-97750681D01*
X167055695Y-97786019D01*
X167046975Y-97796953D01*
X167046968Y-97796961D01*
X166900833Y-97980208D01*
X166900824Y-97980219D01*
X166892114Y-97991143D01*
X166885131Y-98003237D01*
X166885122Y-98003251D01*
X166767928Y-98206238D01*
X166767923Y-98206247D01*
X166760932Y-98218357D01*
X166755822Y-98231375D01*
X166755819Y-98231383D01*
X166670189Y-98449565D01*
X166670186Y-98449571D01*
X166665080Y-98462584D01*
X166661971Y-98476204D01*
X166661967Y-98476218D01*
X166619935Y-98660375D01*
X166606698Y-98718370D01*
X166605652Y-98732317D01*
X166605652Y-98732323D01*
X166589711Y-98945053D01*
X166587092Y-98980000D01*
X166588138Y-98993958D01*
X166603315Y-99196494D01*
X166606698Y-99241630D01*
X166609811Y-99255268D01*
X166661967Y-99483781D01*
X166661970Y-99483791D01*
X166665080Y-99497416D01*
X166670188Y-99510431D01*
X166670189Y-99510434D01*
X166752564Y-99720323D01*
X166760932Y-99741643D01*
X166767927Y-99753758D01*
X166767931Y-99753767D01*
X166791894Y-99795272D01*
X166829256Y-99885473D01*
X166842000Y-99982271D01*
X166842000Y-114881056D01*
X166829256Y-114977854D01*
X166791894Y-115068056D01*
X166732458Y-115145514D01*
X166388014Y-115489958D01*
X166310556Y-115549394D01*
X166220354Y-115586756D01*
X166123556Y-115599500D01*
X162937750Y-115599500D01*
X162822178Y-115581195D01*
X162717918Y-115528072D01*
X162635178Y-115445332D01*
X162582055Y-115341072D01*
X162563750Y-115225500D01*
X162563750Y-93799500D01*
X162582055Y-93683928D01*
X162635178Y-93579668D01*
X162717918Y-93496928D01*
X162822178Y-93443805D01*
X162937750Y-93425500D01*
X174391386Y-93425500D01*
X174488184Y-93438244D01*
X174578386Y-93475606D01*
X174655844Y-93535042D01*
X178164820Y-97044018D01*
X178171407Y-97051093D01*
X178178034Y-97060399D01*
X178242947Y-97122293D01*
X178249271Y-97128469D01*
X178274565Y-97153763D01*
X178281423Y-97159425D01*
X178288021Y-97165423D01*
X178287893Y-97165563D01*
X178294573Y-97171519D01*
X178320701Y-97196431D01*
X178333597Y-97208727D01*
X178348855Y-97218533D01*
X178384792Y-97244774D01*
X178398779Y-97256322D01*
X178446114Y-97282168D01*
X178469051Y-97295778D01*
X178514420Y-97324935D01*
X178531263Y-97331677D01*
X178571503Y-97350636D01*
X178587432Y-97359334D01*
X178638801Y-97375754D01*
X178663889Y-97384773D01*
X178713968Y-97404822D01*
X178731788Y-97408256D01*
X178774881Y-97419255D01*
X178792170Y-97424782D01*
X178845728Y-97431185D01*
X178872077Y-97435294D01*
X178925028Y-97445500D01*
X178943169Y-97445500D01*
X178987569Y-97448145D01*
X178987616Y-97448150D01*
X179005594Y-97450300D01*
X179059382Y-97446452D01*
X179086063Y-97445500D01*
X189291793Y-97445500D01*
X189372742Y-97454366D01*
X189449852Y-97480541D01*
X189490670Y-97499575D01*
X189702023Y-97556207D01*
X189920000Y-97575277D01*
X190137977Y-97556207D01*
X190349330Y-97499575D01*
X190547639Y-97407102D01*
X190726877Y-97281598D01*
X190881598Y-97126877D01*
X191007102Y-96947639D01*
X191099575Y-96749330D01*
X191137153Y-96609085D01*
X191183230Y-96504546D01*
X191258720Y-96418789D01*
X191356577Y-96359824D01*
X191467670Y-96333153D01*
X191577194Y-96340949D01*
X191581885Y-96342396D01*
X191633002Y-96350100D01*
X191660464Y-96355296D01*
X191710870Y-96366802D01*
X191762439Y-96370666D01*
X191790193Y-96373793D01*
X191841318Y-96381500D01*
X191907006Y-96381500D01*
X192103682Y-96381500D01*
X198341318Y-96381500D01*
X198537994Y-96381500D01*
X198589687Y-96381500D01*
X198603682Y-96381500D01*
X198654806Y-96373793D01*
X198682561Y-96370666D01*
X198734130Y-96366802D01*
X198784531Y-96355297D01*
X198811998Y-96350099D01*
X198863115Y-96342396D01*
X198912513Y-96327157D01*
X198939499Y-96319926D01*
X198989916Y-96308420D01*
X199038042Y-96289530D01*
X199064424Y-96280299D01*
X199113823Y-96265063D01*
X199160406Y-96242628D01*
X199186007Y-96231459D01*
X199234143Y-96212568D01*
X199278915Y-96186717D01*
X199303622Y-96173660D01*
X199350204Y-96151228D01*
X199392934Y-96122094D01*
X199416569Y-96107243D01*
X199461357Y-96081386D01*
X199501783Y-96049146D01*
X199524266Y-96032553D01*
X199566979Y-96003433D01*
X199604882Y-95968263D01*
X199626056Y-95950041D01*
X199666481Y-95917805D01*
X199701639Y-95879912D01*
X199721418Y-95860134D01*
X199759305Y-95824981D01*
X199791541Y-95784556D01*
X199809763Y-95763382D01*
X199844933Y-95725479D01*
X199874053Y-95682766D01*
X199890646Y-95660283D01*
X199922886Y-95619857D01*
X199948743Y-95575069D01*
X199963594Y-95551434D01*
X199992728Y-95508704D01*
X200015160Y-95462122D01*
X200028217Y-95437415D01*
X200054068Y-95392643D01*
X200072959Y-95344507D01*
X200084128Y-95318906D01*
X200106563Y-95272323D01*
X200121799Y-95222924D01*
X200131030Y-95196542D01*
X200149920Y-95148416D01*
X200161426Y-95097999D01*
X200168657Y-95071013D01*
X200183896Y-95021615D01*
X200191599Y-94970498D01*
X200196798Y-94943028D01*
X200205188Y-94906272D01*
X200205187Y-94906272D01*
X200208302Y-94892630D01*
X200212166Y-94841061D01*
X200215293Y-94813306D01*
X200223000Y-94762182D01*
X200223000Y-94710485D01*
X200224046Y-94682537D01*
X200226862Y-94644959D01*
X200226862Y-94644958D01*
X200227908Y-94631000D01*
X200224046Y-94579463D01*
X200223000Y-94551515D01*
X200223000Y-94513814D01*
X200223000Y-94513809D01*
X200223000Y-94499818D01*
X200215293Y-94448693D01*
X200212166Y-94420939D01*
X200208302Y-94369370D01*
X200196796Y-94318960D01*
X200191599Y-94291496D01*
X200183896Y-94240385D01*
X200168660Y-94190992D01*
X200161419Y-94163969D01*
X200153034Y-94127231D01*
X200149920Y-94113584D01*
X200131040Y-94065480D01*
X200121799Y-94039073D01*
X200106563Y-93989677D01*
X200084131Y-93943097D01*
X200072953Y-93917477D01*
X200054068Y-93869357D01*
X200028213Y-93824574D01*
X200015158Y-93799872D01*
X199998799Y-93765902D01*
X199998797Y-93765898D01*
X199992728Y-93753296D01*
X199963605Y-93710581D01*
X199948734Y-93686914D01*
X199922886Y-93642143D01*
X199890644Y-93601713D01*
X199874047Y-93579224D01*
X199844933Y-93536521D01*
X199809778Y-93498633D01*
X199791533Y-93477432D01*
X199784124Y-93468141D01*
X199759305Y-93437019D01*
X199732812Y-93412437D01*
X199721413Y-93401860D01*
X199701638Y-93382085D01*
X199676000Y-93354454D01*
X199675999Y-93354453D01*
X199666481Y-93344195D01*
X199626054Y-93311956D01*
X199604866Y-93293721D01*
X199577239Y-93268086D01*
X199577232Y-93268080D01*
X199566979Y-93258567D01*
X199555416Y-93250683D01*
X199555413Y-93250681D01*
X199524277Y-93229453D01*
X199501775Y-93212846D01*
X199472294Y-93189336D01*
X199461357Y-93180614D01*
X199448188Y-93173011D01*
X199416596Y-93154771D01*
X199392914Y-93139891D01*
X199361766Y-93118654D01*
X199361758Y-93118649D01*
X199350204Y-93110772D01*
X199337607Y-93104705D01*
X199337594Y-93104698D01*
X199303633Y-93088344D01*
X199278914Y-93075280D01*
X199234143Y-93049432D01*
X199221125Y-93044322D01*
X199221113Y-93044317D01*
X199186024Y-93030546D01*
X199160394Y-93019364D01*
X199126434Y-93003010D01*
X199126432Y-93003009D01*
X199113823Y-92996937D01*
X199100443Y-92992810D01*
X199100441Y-92992809D01*
X199064437Y-92981703D01*
X199038042Y-92972467D01*
X199002949Y-92958694D01*
X199002935Y-92958689D01*
X198989916Y-92953580D01*
X198967943Y-92948564D01*
X198939512Y-92942075D01*
X198912505Y-92934838D01*
X198876490Y-92923729D01*
X198876481Y-92923727D01*
X198863115Y-92919604D01*
X198849282Y-92917519D01*
X198849278Y-92917518D01*
X198811996Y-92911898D01*
X198784527Y-92906700D01*
X198747769Y-92898310D01*
X198747755Y-92898308D01*
X198734130Y-92895198D01*
X198720194Y-92894153D01*
X198720184Y-92894152D01*
X198682578Y-92891334D01*
X198654799Y-92888204D01*
X198617514Y-92882584D01*
X198617503Y-92882583D01*
X198603682Y-92880500D01*
X198589692Y-92880500D01*
X197085885Y-92880500D01*
X196977578Y-92864474D01*
X196878553Y-92817771D01*
X196797296Y-92744391D01*
X196740770Y-92650625D01*
X196718979Y-92564820D01*
X196718149Y-92564998D01*
X196713874Y-92545033D01*
X196711799Y-92524713D01*
X196656614Y-92358176D01*
X196564512Y-92208854D01*
X196440456Y-92084798D01*
X196421913Y-92073360D01*
X196421911Y-92073359D01*
X196309675Y-92004132D01*
X196309674Y-92004131D01*
X196291134Y-91992696D01*
X196249175Y-91978792D01*
X196143985Y-91943935D01*
X196143980Y-91943933D01*
X196124597Y-91937511D01*
X196104277Y-91935435D01*
X196031280Y-91927977D01*
X196031268Y-91927976D01*
X196021809Y-91927010D01*
X196012292Y-91927010D01*
X194432716Y-91927010D01*
X194432696Y-91927010D01*
X194423192Y-91927011D01*
X194413733Y-91927977D01*
X194413718Y-91927978D01*
X194340721Y-91935435D01*
X194340716Y-91935435D01*
X194320403Y-91937511D01*
X194301014Y-91943935D01*
X194301013Y-91943936D01*
X194174546Y-91985843D01*
X194174543Y-91985844D01*
X194153866Y-91992696D01*
X194135328Y-92004129D01*
X194135324Y-92004132D01*
X194023088Y-92073359D01*
X194023082Y-92073363D01*
X194004544Y-92084798D01*
X193989141Y-92100200D01*
X193989137Y-92100204D01*
X193895894Y-92193447D01*
X193895890Y-92193451D01*
X193880488Y-92208854D01*
X193869053Y-92227392D01*
X193869049Y-92227398D01*
X193799822Y-92339634D01*
X193799819Y-92339638D01*
X193788386Y-92358176D01*
X193781534Y-92378853D01*
X193781533Y-92378856D01*
X193739625Y-92505324D01*
X193739623Y-92505331D01*
X193733201Y-92524713D01*
X193731125Y-92545029D01*
X193726852Y-92564993D01*
X193726022Y-92564815D01*
X193704226Y-92650633D01*
X193647700Y-92744396D01*
X193566444Y-92817773D01*
X193467420Y-92864475D01*
X193359115Y-92880500D01*
X192103682Y-92880500D01*
X191841318Y-92880500D01*
X191827485Y-92882584D01*
X191827483Y-92882585D01*
X191790200Y-92888204D01*
X191762422Y-92891334D01*
X191724817Y-92894152D01*
X191724807Y-92894153D01*
X191710870Y-92895198D01*
X191697241Y-92898308D01*
X191697232Y-92898310D01*
X191660460Y-92906703D01*
X191632996Y-92911899D01*
X191595728Y-92917517D01*
X191595722Y-92917518D01*
X191581885Y-92919604D01*
X191568520Y-92923726D01*
X191568509Y-92923729D01*
X191532492Y-92934839D01*
X191505482Y-92942076D01*
X191468731Y-92950464D01*
X191468717Y-92950468D01*
X191455084Y-92953580D01*
X191406959Y-92972467D01*
X191380576Y-92981699D01*
X191344544Y-92992813D01*
X191344534Y-92992816D01*
X191331177Y-92996937D01*
X191318584Y-93003001D01*
X191318567Y-93003008D01*
X191284597Y-93019367D01*
X191258977Y-93030545D01*
X191223887Y-93044317D01*
X191223875Y-93044322D01*
X191210857Y-93049432D01*
X191198747Y-93056422D01*
X191198725Y-93056434D01*
X191166074Y-93075285D01*
X191141364Y-93088345D01*
X191107401Y-93104701D01*
X191107395Y-93104704D01*
X191094796Y-93110772D01*
X191083247Y-93118645D01*
X191083231Y-93118655D01*
X191052081Y-93139893D01*
X191028417Y-93154762D01*
X190983643Y-93180614D01*
X190972712Y-93189330D01*
X190972703Y-93189337D01*
X190943213Y-93212854D01*
X190920725Y-93229451D01*
X190889579Y-93250686D01*
X190889573Y-93250690D01*
X190878021Y-93258567D01*
X190867769Y-93268078D01*
X190867763Y-93268084D01*
X190840126Y-93293727D01*
X190818940Y-93311959D01*
X190789456Y-93335472D01*
X190789449Y-93335478D01*
X190778519Y-93344195D01*
X190769011Y-93354441D01*
X190768999Y-93354453D01*
X190743356Y-93382090D01*
X190723590Y-93401856D01*
X190695953Y-93427499D01*
X190695941Y-93427511D01*
X190685695Y-93437019D01*
X190676978Y-93447949D01*
X190676972Y-93447956D01*
X190653459Y-93477440D01*
X190635227Y-93498626D01*
X190609584Y-93526263D01*
X190609578Y-93526269D01*
X190600067Y-93536521D01*
X190592190Y-93548073D01*
X190592186Y-93548079D01*
X190570951Y-93579225D01*
X190554354Y-93601713D01*
X190530837Y-93631203D01*
X190530830Y-93631212D01*
X190522114Y-93642143D01*
X190497989Y-93683928D01*
X190496268Y-93686909D01*
X190481393Y-93710581D01*
X190460155Y-93741731D01*
X190460145Y-93741747D01*
X190452272Y-93753296D01*
X190446204Y-93765895D01*
X190446201Y-93765901D01*
X190429845Y-93799864D01*
X190416785Y-93824574D01*
X190397934Y-93857225D01*
X190397922Y-93857247D01*
X190390932Y-93869357D01*
X190385822Y-93882375D01*
X190385817Y-93882387D01*
X190372045Y-93917477D01*
X190360867Y-93943097D01*
X190344508Y-93977067D01*
X190344501Y-93977084D01*
X190338437Y-93989677D01*
X190334316Y-94003034D01*
X190334313Y-94003044D01*
X190323199Y-94039076D01*
X190313967Y-94065459D01*
X190295080Y-94113584D01*
X190291968Y-94127217D01*
X190291964Y-94127231D01*
X190283576Y-94163982D01*
X190276339Y-94190992D01*
X190265229Y-94227009D01*
X190265229Y-94227011D01*
X190261104Y-94240385D01*
X190259018Y-94254222D01*
X190259017Y-94254228D01*
X190253399Y-94291496D01*
X190248203Y-94318960D01*
X190239810Y-94355732D01*
X190239808Y-94355741D01*
X190236698Y-94369370D01*
X190235653Y-94383307D01*
X190235652Y-94383317D01*
X190232834Y-94420922D01*
X190229704Y-94448700D01*
X190222000Y-94499818D01*
X190222000Y-94513809D01*
X190222000Y-94551515D01*
X190220954Y-94579463D01*
X190217092Y-94631000D01*
X190218138Y-94644958D01*
X190218138Y-94644964D01*
X190219845Y-94667745D01*
X190210448Y-94783455D01*
X190166021Y-94890709D01*
X190090845Y-94979172D01*
X189992165Y-95040322D01*
X189879487Y-95068267D01*
X189718289Y-95082369D01*
X189718278Y-95082370D01*
X189702023Y-95083793D01*
X189686255Y-95088017D01*
X189686249Y-95088019D01*
X189506444Y-95136198D01*
X189506440Y-95136199D01*
X189490670Y-95140425D01*
X189475870Y-95147325D01*
X189475868Y-95147327D01*
X189449854Y-95159458D01*
X189372742Y-95185634D01*
X189291793Y-95194500D01*
X179653613Y-95194500D01*
X179556815Y-95181756D01*
X179466613Y-95144394D01*
X179389155Y-95084958D01*
X175880186Y-91575989D01*
X175873592Y-91568907D01*
X175866966Y-91559601D01*
X175854075Y-91547309D01*
X175854072Y-91547306D01*
X175802074Y-91497727D01*
X175795705Y-91491508D01*
X175776728Y-91472531D01*
X175776727Y-91472530D01*
X175770435Y-91466238D01*
X175763571Y-91460570D01*
X175756987Y-91454585D01*
X175757107Y-91454452D01*
X175750435Y-91448489D01*
X175732382Y-91431276D01*
X175711403Y-91411273D01*
X175696422Y-91401645D01*
X175696417Y-91401641D01*
X175696132Y-91401458D01*
X175660215Y-91375232D01*
X175659960Y-91375021D01*
X175659955Y-91375018D01*
X175646221Y-91363678D01*
X175627661Y-91353543D01*
X175598894Y-91337835D01*
X175575940Y-91324215D01*
X175545575Y-91304700D01*
X175545561Y-91304692D01*
X175530580Y-91295065D01*
X175514046Y-91288446D01*
X175514041Y-91288443D01*
X175513722Y-91288316D01*
X175473503Y-91269367D01*
X175457569Y-91260666D01*
X175440599Y-91255241D01*
X175406205Y-91244246D01*
X175381096Y-91235220D01*
X175331032Y-91215178D01*
X175313203Y-91211741D01*
X175270126Y-91200746D01*
X175269804Y-91200643D01*
X175269797Y-91200641D01*
X175252831Y-91195218D01*
X175235145Y-91193103D01*
X175235139Y-91193102D01*
X175199281Y-91188814D01*
X175172917Y-91184703D01*
X175137469Y-91177871D01*
X175137456Y-91177869D01*
X175119972Y-91174500D01*
X175102155Y-91174500D01*
X175101831Y-91174500D01*
X175057431Y-91171855D01*
X175057096Y-91171815D01*
X175057095Y-91171814D01*
X175039406Y-91169700D01*
X175021645Y-91170970D01*
X175021635Y-91170970D01*
X174985618Y-91173547D01*
X174958937Y-91174500D01*
X154241592Y-91174500D01*
X154231924Y-91174154D01*
X154220658Y-91172260D01*
X154202846Y-91172684D01*
X154131025Y-91174394D01*
X154122123Y-91174500D01*
X154086382Y-91174500D01*
X154077513Y-91175346D01*
X154068639Y-91175769D01*
X154068631Y-91175612D01*
X154059700Y-91176091D01*
X154023582Y-91176951D01*
X154023573Y-91176952D01*
X154005774Y-91177376D01*
X153988378Y-91181160D01*
X153988362Y-91181162D01*
X153988030Y-91181235D01*
X153944096Y-91188086D01*
X153943970Y-91188098D01*
X153943765Y-91188118D01*
X153943762Y-91188118D01*
X153926029Y-91189812D01*
X153908940Y-91194829D01*
X153908932Y-91194831D01*
X153874292Y-91205002D01*
X153848442Y-91211600D01*
X153813148Y-91219278D01*
X153813135Y-91219281D01*
X153795742Y-91223066D01*
X153779371Y-91230076D01*
X153779362Y-91230079D01*
X153779047Y-91230214D01*
X153737206Y-91245255D01*
X153736888Y-91245348D01*
X153736882Y-91245350D01*
X153719791Y-91250369D01*
X153703962Y-91258528D01*
X153703955Y-91258532D01*
X153671858Y-91275079D01*
X153647717Y-91286452D01*
X153614533Y-91300662D01*
X153614518Y-91300670D01*
X153598151Y-91307679D01*
X153583400Y-91317662D01*
X153583390Y-91317668D01*
X153583107Y-91317860D01*
X153544883Y-91340540D01*
X153544575Y-91340698D01*
X153544568Y-91340702D01*
X153528741Y-91348862D01*
X153514747Y-91359866D01*
X153514734Y-91359875D01*
X153486347Y-91382199D01*
X153464803Y-91397930D01*
X153434899Y-91418170D01*
X153434888Y-91418178D01*
X153420146Y-91428157D01*
X153407558Y-91440743D01*
X153407544Y-91440756D01*
X153407297Y-91441004D01*
X153374074Y-91470491D01*
X153373799Y-91470706D01*
X153373779Y-91470724D01*
X153359783Y-91481732D01*
X153348115Y-91495196D01*
X153348113Y-91495199D01*
X153324469Y-91522485D01*
X153306283Y-91542018D01*
X152695991Y-92152310D01*
X152688902Y-92158909D01*
X152679601Y-92165534D01*
X152667318Y-92178415D01*
X152667312Y-92178421D01*
X152617723Y-92230428D01*
X152611518Y-92236782D01*
X152592538Y-92255763D01*
X152592520Y-92255782D01*
X152586238Y-92262065D01*
X152580574Y-92268922D01*
X152574594Y-92275502D01*
X152574481Y-92275399D01*
X152568502Y-92282050D01*
X152543565Y-92308204D01*
X152543560Y-92308210D01*
X152531273Y-92321097D01*
X152521647Y-92336073D01*
X152521633Y-92336092D01*
X152521445Y-92336386D01*
X152495244Y-92372269D01*
X152495024Y-92372534D01*
X152495013Y-92372548D01*
X152483678Y-92386279D01*
X152475142Y-92401910D01*
X152475138Y-92401917D01*
X152457832Y-92433609D01*
X152444219Y-92456552D01*
X152424699Y-92486926D01*
X152424691Y-92486941D01*
X152415065Y-92501920D01*
X152408446Y-92518451D01*
X152408439Y-92518466D01*
X152408309Y-92518792D01*
X152389372Y-92558986D01*
X152389204Y-92559292D01*
X152389199Y-92559302D01*
X152380666Y-92574931D01*
X152375243Y-92591893D01*
X152375239Y-92591904D01*
X152364243Y-92626301D01*
X152355218Y-92651407D01*
X152341798Y-92684930D01*
X152341796Y-92684935D01*
X152335178Y-92701468D01*
X152331808Y-92718948D01*
X152331804Y-92718965D01*
X152331740Y-92719301D01*
X152320749Y-92762363D01*
X152320645Y-92762687D01*
X152320641Y-92762700D01*
X152315218Y-92779669D01*
X152313103Y-92797355D01*
X152313101Y-92797366D01*
X152308814Y-92833219D01*
X152304703Y-92859584D01*
X152297872Y-92895030D01*
X152294500Y-92912528D01*
X152294500Y-92930346D01*
X152294500Y-92930669D01*
X152291855Y-92975069D01*
X152289700Y-92993094D01*
X152290970Y-93010854D01*
X152290970Y-93010864D01*
X152293547Y-93046882D01*
X152294500Y-93073563D01*
X152294500Y-100398887D01*
X152281756Y-100495685D01*
X152244394Y-100585887D01*
X152184958Y-100663345D01*
X151813345Y-101034958D01*
X151735887Y-101094394D01*
X151645685Y-101131756D01*
X151548887Y-101144500D01*
X133018207Y-101144500D01*
X132937258Y-101135634D01*
X132860146Y-101109458D01*
X132834131Y-101097327D01*
X132834132Y-101097327D01*
X132819330Y-101090425D01*
X132713583Y-101062090D01*
X132623750Y-101038019D01*
X132623745Y-101038018D01*
X132607977Y-101033793D01*
X132591717Y-101032370D01*
X132591709Y-101032369D01*
X132406265Y-101016146D01*
X132390000Y-101014723D01*
X132373735Y-101016146D01*
X132188290Y-101032369D01*
X132188280Y-101032370D01*
X132172023Y-101033793D01*
X132156255Y-101038017D01*
X132156249Y-101038019D01*
X131976440Y-101086199D01*
X131976435Y-101086200D01*
X131960670Y-101090425D01*
X131945879Y-101097322D01*
X131945874Y-101097324D01*
X131777156Y-101175999D01*
X131777152Y-101176001D01*
X131762362Y-101182898D01*
X131748997Y-101192256D01*
X131748987Y-101192262D01*
X131596501Y-101299034D01*
X131596496Y-101299037D01*
X131583123Y-101308402D01*
X131571582Y-101319942D01*
X131571576Y-101319948D01*
X131439948Y-101451576D01*
X131439942Y-101451582D01*
X131428402Y-101463123D01*
X131419037Y-101476496D01*
X131419034Y-101476501D01*
X131312262Y-101628987D01*
X131312256Y-101628997D01*
X131302898Y-101642362D01*
X131296001Y-101657152D01*
X131295999Y-101657156D01*
X131217324Y-101825874D01*
X131217322Y-101825879D01*
X131210425Y-101840670D01*
X131206200Y-101856435D01*
X131206199Y-101856440D01*
X131158019Y-102036249D01*
X131158017Y-102036255D01*
X131153793Y-102052023D01*
X131152370Y-102068280D01*
X131152369Y-102068290D01*
X131136931Y-102244759D01*
X131134723Y-102270000D01*
X131136146Y-102286265D01*
X131152369Y-102471709D01*
X131152370Y-102471717D01*
X131153793Y-102487977D01*
X131158017Y-102503742D01*
X131158018Y-102503746D01*
X131168725Y-102543703D01*
X131181112Y-102656815D01*
X131158913Y-102768416D01*
X131104182Y-102868177D01*
X131021985Y-102946863D01*
X130919932Y-102997190D01*
X130807468Y-103014500D01*
X129617100Y-103014500D01*
X129501528Y-102996195D01*
X129397268Y-102943072D01*
X129314528Y-102860332D01*
X129261405Y-102756073D01*
X129243100Y-102640500D01*
X129243099Y-100837816D01*
X129243099Y-100837808D01*
X129243099Y-100828292D01*
X129232599Y-100725503D01*
X129211983Y-100663290D01*
X129193000Y-100545650D01*
X129193000Y-98432271D01*
X129205744Y-98335473D01*
X129243106Y-98245272D01*
X129263134Y-98210581D01*
X129274068Y-98191643D01*
X129369920Y-97947416D01*
X129428302Y-97691630D01*
X129447908Y-97430000D01*
X129446709Y-97414002D01*
X129444046Y-97378463D01*
X129443000Y-97350515D01*
X129443000Y-91009485D01*
X129444046Y-90981537D01*
X129446862Y-90943959D01*
X129446862Y-90943958D01*
X129447908Y-90930000D01*
X129428302Y-90668370D01*
X129369920Y-90412584D01*
X129274068Y-90168357D01*
X129267069Y-90156235D01*
X129267066Y-90156228D01*
X129189281Y-90021500D01*
X129148551Y-89917723D01*
X129140220Y-89806551D01*
X129165027Y-89697863D01*
X129220769Y-89601315D01*
X129302492Y-89525487D01*
X129402936Y-89477116D01*
X129513174Y-89460500D01*
X144618000Y-89460500D01*
X144733572Y-89478805D01*
X144837832Y-89531928D01*
X144920572Y-89614668D01*
X144973695Y-89718928D01*
X144992000Y-89834500D01*
X144992000Y-91431276D01*
X144989649Y-91473133D01*
X144987262Y-91494327D01*
X144988391Y-91511087D01*
X144988392Y-91511087D01*
X144991153Y-91552038D01*
X144991484Y-91561887D01*
X144991624Y-91561881D01*
X144992000Y-91570258D01*
X144992000Y-91578655D01*
X144992751Y-91587008D01*
X144992753Y-91587035D01*
X144995401Y-91616463D01*
X144996059Y-91624815D01*
X145001232Y-91701532D01*
X145002404Y-91718912D01*
X145005856Y-91732612D01*
X145007123Y-91746688D01*
X145011589Y-91762872D01*
X145011591Y-91762880D01*
X145032223Y-91837638D01*
X145034360Y-91845735D01*
X145057404Y-91937183D01*
X145063247Y-91950047D01*
X145067007Y-91963670D01*
X145074288Y-91978790D01*
X145074289Y-91978792D01*
X145107942Y-92048674D01*
X145111491Y-92056262D01*
X145150493Y-92142126D01*
X145158539Y-92153740D01*
X145164671Y-92166473D01*
X145220140Y-92242820D01*
X145224959Y-92249613D01*
X145269116Y-92313350D01*
X145269119Y-92313353D01*
X145278680Y-92327154D01*
X145288672Y-92337146D01*
X145296978Y-92348578D01*
X145309116Y-92360183D01*
X145365146Y-92413753D01*
X145371147Y-92419621D01*
X146001264Y-93049739D01*
X146029202Y-93081001D01*
X146042492Y-93097666D01*
X146055142Y-93108718D01*
X146086039Y-93135712D01*
X146093242Y-93142446D01*
X146093336Y-93142344D01*
X146099534Y-93148009D01*
X146105470Y-93153945D01*
X146134657Y-93178311D01*
X146140972Y-93183706D01*
X146152549Y-93193820D01*
X146199352Y-93234712D01*
X146199357Y-93234716D01*
X146212004Y-93245765D01*
X146224133Y-93253012D01*
X146234981Y-93262068D01*
X146307542Y-93303240D01*
X146317004Y-93308609D01*
X146324256Y-93312833D01*
X146390805Y-93352594D01*
X146390814Y-93352598D01*
X146405236Y-93361215D01*
X146418467Y-93366180D01*
X146430755Y-93373153D01*
X146512783Y-93401856D01*
X146519785Y-93404306D01*
X146527676Y-93407167D01*
X146581849Y-93427499D01*
X146615976Y-93440307D01*
X146629875Y-93442829D01*
X146643217Y-93447498D01*
X146659804Y-93450125D01*
X146659808Y-93450126D01*
X146697861Y-93456152D01*
X146736433Y-93462261D01*
X146744575Y-93463644D01*
X146837453Y-93480500D01*
X146851586Y-93480500D01*
X146865540Y-93482710D01*
X146959814Y-93480593D01*
X146968206Y-93480500D01*
X148918776Y-93480500D01*
X148960633Y-93482850D01*
X148981827Y-93485238D01*
X149039538Y-93481346D01*
X149049381Y-93481015D01*
X149049375Y-93480877D01*
X149057767Y-93480500D01*
X149066155Y-93480500D01*
X149103982Y-93477094D01*
X149112281Y-93476441D01*
X149206412Y-93470096D01*
X149220112Y-93466643D01*
X149234188Y-93465377D01*
X149325156Y-93440270D01*
X149333237Y-93438138D01*
X149337678Y-93437019D01*
X149424683Y-93415096D01*
X149437547Y-93409252D01*
X149451170Y-93405493D01*
X149536267Y-93364512D01*
X149543650Y-93361058D01*
X149629626Y-93322007D01*
X149641240Y-93313960D01*
X149653973Y-93307829D01*
X149730323Y-93252356D01*
X149737091Y-93247554D01*
X149814654Y-93193820D01*
X149824646Y-93183827D01*
X149836078Y-93175522D01*
X149901281Y-93107323D01*
X149907060Y-93101412D01*
X150889740Y-92118732D01*
X150921008Y-92090791D01*
X150937666Y-92077508D01*
X150975722Y-92033948D01*
X150982439Y-92026765D01*
X150982336Y-92026671D01*
X150988006Y-92020466D01*
X150993944Y-92014530D01*
X151018289Y-91985368D01*
X151023676Y-91979061D01*
X151085765Y-91907996D01*
X151093012Y-91895865D01*
X151102068Y-91885019D01*
X151148639Y-91802941D01*
X151152801Y-91795794D01*
X151201215Y-91714764D01*
X151206180Y-91701532D01*
X151213153Y-91689245D01*
X151244304Y-91600220D01*
X151247167Y-91592322D01*
X151280307Y-91504024D01*
X151282829Y-91490124D01*
X151287498Y-91476783D01*
X151302258Y-91383583D01*
X151303647Y-91375405D01*
X151320500Y-91282547D01*
X151320500Y-91268414D01*
X151322710Y-91254460D01*
X151320593Y-91160185D01*
X151320500Y-91151794D01*
X151320500Y-90410933D01*
X151321923Y-90378338D01*
X151323854Y-90356266D01*
X151323854Y-90356265D01*
X151325277Y-90340000D01*
X151320558Y-90286066D01*
X151320500Y-90285180D01*
X151320500Y-90283845D01*
X151315638Y-90229827D01*
X151306207Y-90122023D01*
X151305798Y-90120500D01*
X151305377Y-90115812D01*
X151297773Y-90088261D01*
X151282798Y-90034001D01*
X151269580Y-89920519D01*
X151291240Y-89808341D01*
X151345754Y-89707936D01*
X151428037Y-89628674D01*
X151530410Y-89577951D01*
X151643319Y-89560500D01*
X183726386Y-89560500D01*
X183823184Y-89573244D01*
X183913385Y-89610606D01*
X183990843Y-89670041D01*
X184104957Y-89784154D01*
X184164393Y-89861612D01*
X184201756Y-89951814D01*
X184214500Y-90048613D01*
X184214500Y-90311793D01*
X184205634Y-90392742D01*
X184179458Y-90469852D01*
X184160425Y-90510670D01*
X184156199Y-90526440D01*
X184156198Y-90526444D01*
X184108019Y-90706249D01*
X184108017Y-90706255D01*
X184103793Y-90722023D01*
X184102370Y-90738280D01*
X184102369Y-90738290D01*
X184090301Y-90876238D01*
X184084723Y-90940000D01*
X184086146Y-90956265D01*
X184102369Y-91141709D01*
X184102370Y-91141717D01*
X184103793Y-91157977D01*
X184108018Y-91173745D01*
X184108019Y-91173750D01*
X184148336Y-91324215D01*
X184160425Y-91369330D01*
X184167325Y-91384129D01*
X184167327Y-91384132D01*
X184245997Y-91552841D01*
X184246000Y-91552846D01*
X184252898Y-91567639D01*
X184262260Y-91581009D01*
X184262261Y-91581011D01*
X184369034Y-91733499D01*
X184369037Y-91733503D01*
X184378402Y-91746877D01*
X184533123Y-91901598D01*
X184546497Y-91910963D01*
X184546500Y-91910965D01*
X184584412Y-91937511D01*
X184712361Y-92027102D01*
X184910670Y-92119575D01*
X185122023Y-92176207D01*
X185340000Y-92195277D01*
X185557977Y-92176207D01*
X185769330Y-92119575D01*
X185967639Y-92027102D01*
X186146877Y-91901598D01*
X186301598Y-91746877D01*
X186427102Y-91567639D01*
X186519575Y-91369330D01*
X186576207Y-91157977D01*
X186595277Y-90940000D01*
X186576207Y-90722023D01*
X186519575Y-90510670D01*
X186500541Y-90469852D01*
X186474366Y-90392742D01*
X186465500Y-90311793D01*
X186465500Y-89529092D01*
X186465845Y-89519424D01*
X186467740Y-89508158D01*
X186465606Y-89418525D01*
X186465500Y-89409623D01*
X186465500Y-89382778D01*
X186465500Y-89373882D01*
X186464654Y-89365030D01*
X186464230Y-89356118D01*
X186464507Y-89356104D01*
X186463907Y-89347178D01*
X186462624Y-89293274D01*
X186458769Y-89275554D01*
X186451910Y-89231570D01*
X186451880Y-89231255D01*
X186450188Y-89213529D01*
X186445169Y-89196434D01*
X186434998Y-89161794D01*
X186428395Y-89135926D01*
X186427134Y-89130133D01*
X186416934Y-89083242D01*
X186409789Y-89066559D01*
X186394740Y-89024691D01*
X186394651Y-89024388D01*
X186394650Y-89024387D01*
X186389631Y-89007291D01*
X186364920Y-88959360D01*
X186353546Y-88935216D01*
X186339337Y-88902033D01*
X186339332Y-88902024D01*
X186332321Y-88885651D01*
X186322335Y-88870898D01*
X186322329Y-88870886D01*
X186322143Y-88870611D01*
X186299450Y-88832364D01*
X186299304Y-88832082D01*
X186291138Y-88816241D01*
X186257792Y-88773838D01*
X186242070Y-88752306D01*
X186211843Y-88707646D01*
X186199012Y-88694815D01*
X186169485Y-88661547D01*
X186169279Y-88661285D01*
X186158268Y-88647283D01*
X186144804Y-88635616D01*
X186144800Y-88635612D01*
X186117508Y-88611963D01*
X186097969Y-88593772D01*
X185215186Y-87710989D01*
X185208592Y-87703907D01*
X185201966Y-87694601D01*
X185189075Y-87682309D01*
X185189072Y-87682306D01*
X185137074Y-87632727D01*
X185130705Y-87626508D01*
X185111728Y-87607531D01*
X185111727Y-87607530D01*
X185105435Y-87601238D01*
X185098571Y-87595570D01*
X185091987Y-87589585D01*
X185092107Y-87589452D01*
X185085435Y-87583489D01*
X185075500Y-87574016D01*
X185046403Y-87546273D01*
X185031422Y-87536645D01*
X185031417Y-87536641D01*
X185031132Y-87536458D01*
X184995215Y-87510232D01*
X184994960Y-87510021D01*
X184994955Y-87510018D01*
X184981221Y-87498678D01*
X184962661Y-87488543D01*
X184933894Y-87472835D01*
X184910940Y-87459215D01*
X184880575Y-87439700D01*
X184880561Y-87439692D01*
X184865580Y-87430065D01*
X184849046Y-87423446D01*
X184849041Y-87423443D01*
X184848722Y-87423316D01*
X184808503Y-87404367D01*
X184792569Y-87395666D01*
X184775599Y-87390241D01*
X184741205Y-87379246D01*
X184716096Y-87370220D01*
X184666032Y-87350178D01*
X184648203Y-87346741D01*
X184605126Y-87335746D01*
X184604804Y-87335643D01*
X184604797Y-87335641D01*
X184587831Y-87330218D01*
X184570145Y-87328103D01*
X184570139Y-87328102D01*
X184534281Y-87323814D01*
X184507917Y-87319703D01*
X184472469Y-87312871D01*
X184472456Y-87312869D01*
X184454972Y-87309500D01*
X184437155Y-87309500D01*
X184436831Y-87309500D01*
X184392431Y-87306855D01*
X184392096Y-87306815D01*
X184392095Y-87306814D01*
X184374406Y-87304700D01*
X184356645Y-87305970D01*
X184356635Y-87305970D01*
X184320618Y-87308547D01*
X184293937Y-87309500D01*
X171181889Y-87309500D01*
X171073323Y-87293396D01*
X170974106Y-87246470D01*
X170892783Y-87172763D01*
X170836358Y-87078624D01*
X170809690Y-86972158D01*
X170815075Y-86862536D01*
X170852050Y-86759198D01*
X170917431Y-86671042D01*
X171239813Y-86348660D01*
X172485990Y-85102482D01*
X172517258Y-85074541D01*
X172533916Y-85061258D01*
X172571972Y-85017698D01*
X172578692Y-85010513D01*
X172578588Y-85010418D01*
X172584247Y-85004225D01*
X172590195Y-84998279D01*
X172614529Y-84969129D01*
X172619977Y-84962752D01*
X172682015Y-84891746D01*
X172689262Y-84879615D01*
X172698318Y-84868769D01*
X172744889Y-84786691D01*
X172749051Y-84779544D01*
X172797465Y-84698514D01*
X172802430Y-84685282D01*
X172809403Y-84672995D01*
X172840554Y-84583970D01*
X172843417Y-84576072D01*
X172853696Y-84548685D01*
X172876557Y-84487774D01*
X172879079Y-84473874D01*
X172883748Y-84460533D01*
X172898508Y-84367333D01*
X172899897Y-84359155D01*
X172916750Y-84266297D01*
X172916750Y-84252164D01*
X172918960Y-84238210D01*
X172916843Y-84143916D01*
X172916750Y-84135526D01*
X172916750Y-84122134D01*
X172932208Y-84015721D01*
X172977305Y-83918104D01*
X173048313Y-83837353D01*
X173139362Y-83780143D01*
X173242925Y-83751204D01*
X173350441Y-83752928D01*
X173453017Y-83785170D01*
X173564927Y-83839063D01*
X173815635Y-83916396D01*
X174075068Y-83955500D01*
X174323444Y-83955500D01*
X174337432Y-83955500D01*
X174596865Y-83916396D01*
X174847573Y-83839063D01*
X175083954Y-83725228D01*
X175265570Y-83601404D01*
X175366011Y-83553034D01*
X175476250Y-83536418D01*
X175586489Y-83553034D01*
X175686929Y-83601404D01*
X175868546Y-83725228D01*
X176104927Y-83839063D01*
X176355635Y-83916396D01*
X176615068Y-83955500D01*
X176863444Y-83955500D01*
X176877432Y-83955500D01*
X177136865Y-83916396D01*
X177387573Y-83839063D01*
X177623954Y-83725228D01*
X177840729Y-83577433D01*
X178033055Y-83398981D01*
X178196636Y-83193857D01*
X178327818Y-82966643D01*
X178423670Y-82722416D01*
X178482052Y-82466630D01*
X178501658Y-82205000D01*
X178482052Y-81943370D01*
X178423670Y-81687584D01*
X178327818Y-81443357D01*
X178269746Y-81342773D01*
X178203627Y-81228251D01*
X178203624Y-81228246D01*
X178196636Y-81216143D01*
X178178710Y-81193665D01*
X178041781Y-81021961D01*
X178041780Y-81021960D01*
X178033055Y-81011019D01*
X177840729Y-80832567D01*
X177623954Y-80684772D01*
X177611346Y-80678700D01*
X177611342Y-80678698D01*
X177400180Y-80577008D01*
X177400177Y-80577007D01*
X177387573Y-80570937D01*
X177374209Y-80566814D01*
X177374202Y-80566812D01*
X177150240Y-80497729D01*
X177150232Y-80497727D01*
X177136865Y-80493604D01*
X177123035Y-80491519D01*
X177123029Y-80491518D01*
X176891260Y-80456584D01*
X176891256Y-80456583D01*
X176877432Y-80454500D01*
X176615068Y-80454500D01*
X176601244Y-80456583D01*
X176601239Y-80456584D01*
X176369470Y-80491518D01*
X176369461Y-80491519D01*
X176355635Y-80493604D01*
X176342270Y-80497726D01*
X176342259Y-80497729D01*
X176118297Y-80566812D01*
X176118286Y-80566816D01*
X176104927Y-80570937D01*
X176092326Y-80577004D01*
X176092319Y-80577008D01*
X175881157Y-80678698D01*
X175881147Y-80678703D01*
X175868546Y-80684772D01*
X175856990Y-80692650D01*
X175856986Y-80692653D01*
X175686931Y-80808595D01*
X175586488Y-80856965D01*
X175476250Y-80873581D01*
X175366012Y-80856965D01*
X175265569Y-80808595D01*
X175095513Y-80692653D01*
X175083954Y-80684772D01*
X175071346Y-80678700D01*
X175071342Y-80678698D01*
X174860180Y-80577008D01*
X174860177Y-80577007D01*
X174847573Y-80570937D01*
X174834209Y-80566814D01*
X174834202Y-80566812D01*
X174610240Y-80497729D01*
X174610232Y-80497727D01*
X174596865Y-80493604D01*
X174583035Y-80491519D01*
X174583029Y-80491518D01*
X174351260Y-80456584D01*
X174351256Y-80456583D01*
X174337432Y-80454500D01*
X174075068Y-80454500D01*
X174061244Y-80456583D01*
X174061239Y-80456584D01*
X173829470Y-80491518D01*
X173829461Y-80491519D01*
X173815635Y-80493604D01*
X173802270Y-80497726D01*
X173802259Y-80497729D01*
X173578297Y-80566812D01*
X173578286Y-80566816D01*
X173564927Y-80570937D01*
X173552326Y-80577004D01*
X173552319Y-80577008D01*
X173341157Y-80678698D01*
X173341147Y-80678703D01*
X173328546Y-80684772D01*
X173316990Y-80692650D01*
X173316986Y-80692653D01*
X173146931Y-80808595D01*
X173046488Y-80856965D01*
X172936250Y-80873581D01*
X172826012Y-80856965D01*
X172725569Y-80808595D01*
X172555513Y-80692653D01*
X172543954Y-80684772D01*
X172531346Y-80678700D01*
X172531342Y-80678698D01*
X172320180Y-80577008D01*
X172320177Y-80577007D01*
X172307573Y-80570937D01*
X172294209Y-80566814D01*
X172294202Y-80566812D01*
X172070240Y-80497729D01*
X172070232Y-80497727D01*
X172056865Y-80493604D01*
X172043035Y-80491519D01*
X172043029Y-80491518D01*
X171811260Y-80456584D01*
X171811256Y-80456583D01*
X171797432Y-80454500D01*
X171535068Y-80454500D01*
X171521244Y-80456583D01*
X171521239Y-80456584D01*
X171289470Y-80491518D01*
X171289461Y-80491519D01*
X171275635Y-80493604D01*
X171262270Y-80497726D01*
X171262259Y-80497729D01*
X171038297Y-80566812D01*
X171038286Y-80566816D01*
X171024927Y-80570937D01*
X171012326Y-80577004D01*
X171012319Y-80577008D01*
X170801157Y-80678698D01*
X170801147Y-80678703D01*
X170788546Y-80684772D01*
X170776990Y-80692650D01*
X170776986Y-80692653D01*
X170606931Y-80808595D01*
X170506488Y-80856965D01*
X170396250Y-80873581D01*
X170286012Y-80856965D01*
X170185569Y-80808595D01*
X170015513Y-80692653D01*
X170003954Y-80684772D01*
X169991346Y-80678700D01*
X169991342Y-80678698D01*
X169780180Y-80577008D01*
X169780177Y-80577007D01*
X169767573Y-80570937D01*
X169754209Y-80566814D01*
X169754202Y-80566812D01*
X169530240Y-80497729D01*
X169530232Y-80497727D01*
X169516865Y-80493604D01*
X169503035Y-80491519D01*
X169503029Y-80491518D01*
X169271260Y-80456584D01*
X169271256Y-80456583D01*
X169257432Y-80454500D01*
X168995068Y-80454500D01*
X168981244Y-80456583D01*
X168981239Y-80456584D01*
X168749470Y-80491518D01*
X168749461Y-80491519D01*
X168735635Y-80493604D01*
X168722270Y-80497726D01*
X168722259Y-80497729D01*
X168498297Y-80566812D01*
X168498286Y-80566816D01*
X168484927Y-80570937D01*
X168472326Y-80577004D01*
X168472319Y-80577008D01*
X168390203Y-80616553D01*
X168301658Y-80646252D01*
X168208515Y-80653086D01*
X168116582Y-80636629D01*
X168031594Y-80597909D01*
X167924125Y-80531622D01*
X167924124Y-80531621D01*
X167905584Y-80520186D01*
X167853355Y-80502879D01*
X167758435Y-80471425D01*
X167758430Y-80471423D01*
X167739047Y-80465001D01*
X167718727Y-80462925D01*
X167645730Y-80455467D01*
X167645718Y-80455466D01*
X167636259Y-80454500D01*
X167626742Y-80454500D01*
X165545766Y-80454500D01*
X165545746Y-80454500D01*
X165536242Y-80454501D01*
X165526783Y-80455467D01*
X165526768Y-80455468D01*
X165453771Y-80462925D01*
X165453766Y-80462925D01*
X165433453Y-80465001D01*
X165414064Y-80471425D01*
X165414063Y-80471426D01*
X165287596Y-80513333D01*
X165287593Y-80513334D01*
X165266916Y-80520186D01*
X165248378Y-80531619D01*
X165248374Y-80531622D01*
X165136138Y-80600849D01*
X165136132Y-80600853D01*
X165117594Y-80612288D01*
X165102191Y-80627690D01*
X165102187Y-80627694D01*
X165008944Y-80720937D01*
X165008940Y-80720941D01*
X164993538Y-80736344D01*
X164982103Y-80754882D01*
X164982099Y-80754888D01*
X164912872Y-80867124D01*
X164912869Y-80867128D01*
X164901436Y-80885666D01*
X164894584Y-80906343D01*
X164894583Y-80906346D01*
X164852675Y-81032814D01*
X164852673Y-81032821D01*
X164846251Y-81052203D01*
X164844175Y-81072520D01*
X164844175Y-81072522D01*
X164836717Y-81145519D01*
X164836716Y-81145532D01*
X164835750Y-81154991D01*
X164835750Y-81164506D01*
X164835750Y-81164507D01*
X164835750Y-83245483D01*
X164835750Y-83245502D01*
X164835751Y-83255008D01*
X164836717Y-83264467D01*
X164836718Y-83264481D01*
X164844175Y-83337478D01*
X164846251Y-83357797D01*
X164901436Y-83524334D01*
X164912871Y-83542874D01*
X164912872Y-83542875D01*
X164970173Y-83635776D01*
X164993538Y-83673656D01*
X165117594Y-83797712D01*
X165266916Y-83889814D01*
X165433453Y-83944999D01*
X165453773Y-83947074D01*
X165466437Y-83949786D01*
X165579317Y-83994051D01*
X165672105Y-84072101D01*
X165735048Y-84175733D01*
X165761531Y-84294055D01*
X165748769Y-84414631D01*
X165698105Y-84524788D01*
X165614863Y-84612948D01*
X165507792Y-84669846D01*
X165388146Y-84689500D01*
X148471214Y-84689500D01*
X148429340Y-84687148D01*
X148424868Y-84686644D01*
X148424866Y-84686643D01*
X148408172Y-84684763D01*
X148391421Y-84685892D01*
X148391410Y-84685892D01*
X148350472Y-84688653D01*
X148340614Y-84688984D01*
X148340621Y-84689124D01*
X148332245Y-84689500D01*
X148323845Y-84689500D01*
X148315482Y-84690252D01*
X148315471Y-84690253D01*
X148286044Y-84692901D01*
X148277689Y-84693559D01*
X148200339Y-84698774D01*
X148200333Y-84698774D01*
X148183587Y-84699904D01*
X148169886Y-84703356D01*
X148155812Y-84704623D01*
X148139639Y-84709086D01*
X148139630Y-84709088D01*
X148064869Y-84729720D01*
X148056764Y-84731859D01*
X147981607Y-84750798D01*
X147981598Y-84750801D01*
X147965316Y-84754904D01*
X147952449Y-84760748D01*
X147938830Y-84764507D01*
X147923703Y-84771791D01*
X147923691Y-84771796D01*
X147853860Y-84805424D01*
X147846270Y-84808975D01*
X147775667Y-84841045D01*
X147775653Y-84841052D01*
X147760374Y-84847993D01*
X147748760Y-84856039D01*
X147736027Y-84862171D01*
X147722445Y-84872038D01*
X147722441Y-84872041D01*
X147659699Y-84917624D01*
X147652868Y-84922471D01*
X147589146Y-84966619D01*
X147589142Y-84966622D01*
X147575345Y-84976181D01*
X147565353Y-84986172D01*
X147553922Y-84994478D01*
X147542327Y-85006604D01*
X147542318Y-85006613D01*
X147488741Y-85062650D01*
X147482877Y-85068647D01*
X145701568Y-86849958D01*
X145624110Y-86909393D01*
X145533908Y-86946756D01*
X145437110Y-86959500D01*
X126071224Y-86959500D01*
X126029366Y-86957149D01*
X126008173Y-86954762D01*
X125991412Y-86955892D01*
X125950462Y-86958653D01*
X125940612Y-86958984D01*
X125940619Y-86959124D01*
X125932242Y-86959500D01*
X125923845Y-86959500D01*
X125915488Y-86960252D01*
X125915467Y-86960253D01*
X125886039Y-86962901D01*
X125877685Y-86963559D01*
X125800336Y-86968774D01*
X125800327Y-86968775D01*
X125783588Y-86969904D01*
X125769887Y-86973356D01*
X125755812Y-86974623D01*
X125739631Y-86979088D01*
X125739623Y-86979090D01*
X125664879Y-86999718D01*
X125656774Y-87001857D01*
X125581603Y-87020799D01*
X125581591Y-87020803D01*
X125565317Y-87024904D01*
X125552452Y-87030747D01*
X125538830Y-87034507D01*
X125523710Y-87041787D01*
X125523705Y-87041790D01*
X125453815Y-87075446D01*
X125446225Y-87078996D01*
X125375661Y-87111048D01*
X125375650Y-87111053D01*
X125360374Y-87117993D01*
X125348759Y-87126039D01*
X125336027Y-87132171D01*
X125322453Y-87142032D01*
X125322451Y-87142034D01*
X125259718Y-87187611D01*
X125252884Y-87192459D01*
X125189145Y-87236618D01*
X125189131Y-87236628D01*
X125175346Y-87246180D01*
X125165353Y-87256172D01*
X125153922Y-87264478D01*
X125142327Y-87276604D01*
X125142318Y-87276613D01*
X125088741Y-87332650D01*
X125082877Y-87338647D01*
X124622767Y-87798757D01*
X124591508Y-87826693D01*
X124587968Y-87829515D01*
X124587951Y-87829530D01*
X124574834Y-87839992D01*
X124563790Y-87852632D01*
X124563779Y-87852643D01*
X124536761Y-87883566D01*
X124530042Y-87890759D01*
X124530142Y-87890851D01*
X124524481Y-87897044D01*
X124518555Y-87902971D01*
X124513187Y-87909400D01*
X124513172Y-87909417D01*
X124494201Y-87932139D01*
X124488768Y-87938500D01*
X124426735Y-88009504D01*
X124419487Y-88021634D01*
X124410432Y-88032481D01*
X124402155Y-88047067D01*
X124402148Y-88047078D01*
X124363876Y-88114526D01*
X124359660Y-88121766D01*
X124319896Y-88188322D01*
X124319892Y-88188328D01*
X124311285Y-88202736D01*
X124306319Y-88215967D01*
X124299347Y-88228255D01*
X124293802Y-88244098D01*
X124293800Y-88244105D01*
X124268188Y-88317297D01*
X124265331Y-88325178D01*
X124238094Y-88397752D01*
X124232193Y-88413476D01*
X124229670Y-88427375D01*
X124225002Y-88440717D01*
X124222376Y-88457292D01*
X124222376Y-88457295D01*
X124210246Y-88533878D01*
X124208841Y-88542147D01*
X124194998Y-88618427D01*
X124194997Y-88618437D01*
X124192000Y-88634953D01*
X124192000Y-88649086D01*
X124189790Y-88663040D01*
X124190166Y-88679821D01*
X124190166Y-88679830D01*
X124191906Y-88757333D01*
X124192000Y-88765724D01*
X124192000Y-99237109D01*
X124179252Y-99333924D01*
X124141877Y-99424138D01*
X124082422Y-99501603D01*
X124078732Y-99505292D01*
X124047511Y-99533190D01*
X124043972Y-99536012D01*
X124043956Y-99536026D01*
X124030834Y-99546492D01*
X124019790Y-99559132D01*
X124019779Y-99559143D01*
X123992761Y-99590066D01*
X123986042Y-99597259D01*
X123986142Y-99597351D01*
X123980481Y-99603544D01*
X123974555Y-99609471D01*
X123969187Y-99615900D01*
X123969172Y-99615917D01*
X123950201Y-99638639D01*
X123944763Y-99645007D01*
X123896770Y-99699940D01*
X123882735Y-99716004D01*
X123875487Y-99728134D01*
X123866432Y-99738981D01*
X123858155Y-99753567D01*
X123858148Y-99753578D01*
X123819876Y-99821026D01*
X123815660Y-99828266D01*
X123775896Y-99894822D01*
X123775892Y-99894828D01*
X123767285Y-99909236D01*
X123762319Y-99922467D01*
X123755347Y-99934755D01*
X123749802Y-99950598D01*
X123749800Y-99950605D01*
X123724188Y-100023797D01*
X123721329Y-100031682D01*
X123706627Y-100070855D01*
X123653505Y-100166706D01*
X123574880Y-100243045D01*
X123477503Y-100293316D01*
X123369736Y-100313205D01*
X123260830Y-100301003D01*
X123160136Y-100257758D01*
X123074477Y-100204923D01*
X123074474Y-100204921D01*
X123055934Y-100193486D01*
X123023644Y-100182786D01*
X122908785Y-100144725D01*
X122908780Y-100144723D01*
X122889397Y-100138301D01*
X122869077Y-100136225D01*
X122796080Y-100128767D01*
X122796068Y-100128766D01*
X122786609Y-100127800D01*
X122777092Y-100127800D01*
X121095916Y-100127800D01*
X121095896Y-100127800D01*
X121086392Y-100127801D01*
X121076933Y-100128767D01*
X121076918Y-100128768D01*
X121055007Y-100131007D01*
X120951159Y-100127102D01*
X120852395Y-100094772D01*
X120766339Y-100036513D01*
X120699637Y-99956824D01*
X120657438Y-99861856D01*
X120643000Y-99758943D01*
X120643000Y-98432271D01*
X120655744Y-98335473D01*
X120693106Y-98245272D01*
X120713134Y-98210581D01*
X120724068Y-98191643D01*
X120819920Y-97947416D01*
X120878302Y-97691630D01*
X120884361Y-97610772D01*
X120897908Y-97430000D01*
X120896709Y-97414002D01*
X120894046Y-97378463D01*
X120893000Y-97350515D01*
X120893000Y-91009485D01*
X120894046Y-90981537D01*
X120896862Y-90943959D01*
X120896862Y-90943958D01*
X120897908Y-90930000D01*
X120878302Y-90668370D01*
X120819920Y-90412584D01*
X120724068Y-90168357D01*
X120639280Y-90021500D01*
X120599877Y-89953251D01*
X120599874Y-89953246D01*
X120592886Y-89941143D01*
X120574209Y-89917723D01*
X120438031Y-89746961D01*
X120438030Y-89746960D01*
X120429305Y-89736019D01*
X120236979Y-89557567D01*
X120020204Y-89409772D01*
X120007596Y-89403700D01*
X120007592Y-89403698D01*
X119796430Y-89302008D01*
X119796427Y-89302007D01*
X119783823Y-89295937D01*
X119770459Y-89291814D01*
X119770452Y-89291812D01*
X119546490Y-89222729D01*
X119546482Y-89222727D01*
X119533115Y-89218604D01*
X119519285Y-89216519D01*
X119519279Y-89216518D01*
X119287510Y-89181584D01*
X119287506Y-89181583D01*
X119273682Y-89179500D01*
X119011318Y-89179500D01*
X118997494Y-89181583D01*
X118997489Y-89181584D01*
X118765720Y-89216518D01*
X118765711Y-89216519D01*
X118751885Y-89218604D01*
X118738520Y-89222726D01*
X118738509Y-89222729D01*
X118514547Y-89291812D01*
X118514536Y-89291816D01*
X118501177Y-89295937D01*
X118488576Y-89302004D01*
X118488569Y-89302008D01*
X118277407Y-89403698D01*
X118277397Y-89403703D01*
X118264796Y-89409772D01*
X118253238Y-89417652D01*
X118253233Y-89417655D01*
X118059584Y-89549683D01*
X118059579Y-89549686D01*
X118048021Y-89557567D01*
X118037769Y-89567079D01*
X118037762Y-89567085D01*
X117898796Y-89696027D01*
X117855695Y-89736019D01*
X117846975Y-89746953D01*
X117846968Y-89746961D01*
X117700833Y-89930208D01*
X117700824Y-89930219D01*
X117692114Y-89941143D01*
X117685131Y-89953237D01*
X117685122Y-89953251D01*
X117567928Y-90156238D01*
X117567923Y-90156247D01*
X117560932Y-90168357D01*
X117555822Y-90181375D01*
X117555819Y-90181383D01*
X117470189Y-90399565D01*
X117470186Y-90399571D01*
X117465080Y-90412584D01*
X117461971Y-90426204D01*
X117461967Y-90426218D01*
X117414619Y-90633665D01*
X117406698Y-90668370D01*
X117387092Y-90930000D01*
X117388138Y-90943958D01*
X117388138Y-90943959D01*
X117390954Y-90981537D01*
X117392000Y-91009485D01*
X117392000Y-97350515D01*
X117390954Y-97378463D01*
X117388291Y-97414002D01*
X117387092Y-97430000D01*
X117388138Y-97443958D01*
X117400639Y-97610772D01*
X117400639Y-97610773D01*
X117405348Y-97673622D01*
X117406698Y-97691630D01*
X117409808Y-97705259D01*
X117409810Y-97705267D01*
X117461967Y-97933781D01*
X117461970Y-97933791D01*
X117465080Y-97947416D01*
X117470188Y-97960431D01*
X117470189Y-97960434D01*
X117546262Y-98154266D01*
X117560932Y-98191643D01*
X117567927Y-98203758D01*
X117567931Y-98203767D01*
X117591894Y-98245272D01*
X117629256Y-98335473D01*
X117642000Y-98432271D01*
X117642000Y-100545650D01*
X117623016Y-100663291D01*
X117608825Y-100706114D01*
X117608823Y-100706121D01*
X117602401Y-100725503D01*
X117600325Y-100745820D01*
X117600325Y-100745822D01*
X117592867Y-100818819D01*
X117592866Y-100818832D01*
X117591900Y-100828291D01*
X117591900Y-100837807D01*
X117591900Y-100837808D01*
X117591900Y-102456956D01*
X117575796Y-102565522D01*
X117528870Y-102664739D01*
X117455163Y-102746062D01*
X117361024Y-102802487D01*
X117254558Y-102829155D01*
X117144936Y-102823770D01*
X117041598Y-102786795D01*
X116953442Y-102721414D01*
X115243306Y-101011278D01*
X115227823Y-100993745D01*
X115227716Y-100993844D01*
X115217240Y-100982465D01*
X115207738Y-100970256D01*
X115144768Y-100912288D01*
X115133613Y-100901585D01*
X115122593Y-100890565D01*
X115117126Y-100885098D01*
X115099334Y-100870029D01*
X115087745Y-100859795D01*
X115036165Y-100812312D01*
X115036164Y-100812311D01*
X115024785Y-100801836D01*
X115011836Y-100793376D01*
X114999628Y-100783874D01*
X114999717Y-100783759D01*
X114999369Y-100783500D01*
X114999285Y-100783619D01*
X114986700Y-100774633D01*
X114974894Y-100764634D01*
X114946220Y-100747548D01*
X114901359Y-100720816D01*
X114888250Y-100712633D01*
X114829552Y-100674284D01*
X114829549Y-100674282D01*
X114816607Y-100665827D01*
X114802447Y-100659616D01*
X114788838Y-100652251D01*
X114788907Y-100652123D01*
X114788520Y-100651923D01*
X114788456Y-100652055D01*
X114774567Y-100645264D01*
X114761274Y-100637344D01*
X114746861Y-100631720D01*
X114746857Y-100631718D01*
X114681523Y-100606224D01*
X114667248Y-100600311D01*
X114603041Y-100572148D01*
X114603040Y-100572147D01*
X114588881Y-100565937D01*
X114573890Y-100562140D01*
X114559260Y-100557118D01*
X114559306Y-100556982D01*
X114558889Y-100556848D01*
X114558848Y-100556987D01*
X114544025Y-100552574D01*
X114529614Y-100546951D01*
X114514474Y-100543776D01*
X114514473Y-100543776D01*
X114474658Y-100535427D01*
X114445852Y-100529387D01*
X114430803Y-100525905D01*
X114362822Y-100508690D01*
X114362813Y-100508688D01*
X114347821Y-100504892D01*
X114332404Y-100503614D01*
X114317151Y-100501069D01*
X114317174Y-100500926D01*
X114316745Y-100500863D01*
X114316728Y-100501006D01*
X114301366Y-100499091D01*
X114286237Y-100495919D01*
X114270795Y-100495280D01*
X114270785Y-100495279D01*
X114200719Y-100492381D01*
X114185311Y-100491425D01*
X114169785Y-100490139D01*
X114169774Y-100490138D01*
X114162067Y-100489500D01*
X114154328Y-100489500D01*
X114138777Y-100489500D01*
X114123322Y-100489181D01*
X114053224Y-100486281D01*
X114053214Y-100486281D01*
X114037779Y-100485643D01*
X114022439Y-100487555D01*
X114006976Y-100488195D01*
X114006970Y-100488050D01*
X113983616Y-100489500D01*
X112064335Y-100489500D01*
X112002067Y-100489500D01*
X108716385Y-100489500D01*
X108693038Y-100488050D01*
X108693032Y-100488196D01*
X108677572Y-100487556D01*
X108662221Y-100485643D01*
X108646764Y-100486282D01*
X108646757Y-100486282D01*
X108576710Y-100489180D01*
X108561253Y-100489500D01*
X108537933Y-100489500D01*
X108530222Y-100490138D01*
X108530216Y-100490139D01*
X108514680Y-100491426D01*
X108499273Y-100492382D01*
X108429224Y-100495280D01*
X108429219Y-100495280D01*
X108413763Y-100495920D01*
X108398620Y-100499095D01*
X108383275Y-100501008D01*
X108383256Y-100500862D01*
X108382827Y-100500925D01*
X108382851Y-100501068D01*
X108367581Y-100503615D01*
X108352179Y-100504892D01*
X108337204Y-100508683D01*
X108337186Y-100508687D01*
X108269177Y-100525909D01*
X108254128Y-100529391D01*
X108203941Y-100539914D01*
X108170386Y-100546951D01*
X108155972Y-100552574D01*
X108141159Y-100556985D01*
X108141117Y-100556846D01*
X108140692Y-100556982D01*
X108140739Y-100557118D01*
X108126105Y-100562141D01*
X108111119Y-100565937D01*
X108096966Y-100572144D01*
X108096948Y-100572151D01*
X108032720Y-100600323D01*
X108018455Y-100606232D01*
X107953131Y-100631722D01*
X107953120Y-100631727D01*
X107938726Y-100637344D01*
X107925445Y-100645257D01*
X107911543Y-100652054D01*
X107911479Y-100651925D01*
X107911089Y-100652126D01*
X107911158Y-100652253D01*
X107897553Y-100659615D01*
X107883393Y-100665827D01*
X107870449Y-100674283D01*
X107870448Y-100674284D01*
X107811740Y-100712638D01*
X107798642Y-100720813D01*
X107738394Y-100756714D01*
X107738378Y-100756725D01*
X107725106Y-100764634D01*
X107713308Y-100774625D01*
X107700720Y-100783614D01*
X107700636Y-100783497D01*
X107700280Y-100783762D01*
X107700369Y-100783876D01*
X107688162Y-100793376D01*
X107675215Y-100801836D01*
X107663839Y-100812307D01*
X107663834Y-100812312D01*
X107622174Y-100850663D01*
X107546876Y-100904424D01*
X107460684Y-100938056D01*
X107368873Y-100949500D01*
X106985019Y-100949500D01*
X106899802Y-100939662D01*
X106819068Y-100910666D01*
X106800727Y-100901585D01*
X106728484Y-100865815D01*
X106671658Y-100847831D01*
X106492849Y-100791243D01*
X106492839Y-100791240D01*
X106479177Y-100786917D01*
X106465007Y-100784728D01*
X106465006Y-100784728D01*
X106234918Y-100749188D01*
X106234907Y-100749187D01*
X106220747Y-100747000D01*
X105929717Y-100747000D01*
X105922585Y-100747547D01*
X105922573Y-100747548D01*
X105748569Y-100760907D01*
X105748563Y-100760907D01*
X105734273Y-100762005D01*
X105720316Y-100765271D01*
X105720310Y-100765272D01*
X105493613Y-100818322D01*
X105493608Y-100818323D01*
X105479658Y-100821588D01*
X105466378Y-100826940D01*
X105466366Y-100826944D01*
X105250420Y-100913977D01*
X105250408Y-100913982D01*
X105237121Y-100919338D01*
X105224793Y-100926666D01*
X105224791Y-100926668D01*
X105024675Y-101045638D01*
X105024665Y-101045644D01*
X105012349Y-101052967D01*
X105001296Y-101062082D01*
X105001285Y-101062090D01*
X104821674Y-101210214D01*
X104821668Y-101210219D01*
X104810609Y-101219340D01*
X104801072Y-101230040D01*
X104801065Y-101230048D01*
X104646167Y-101403858D01*
X104646163Y-101403862D01*
X104636630Y-101414560D01*
X104628845Y-101426581D01*
X104628840Y-101426588D01*
X104502284Y-101622014D01*
X104502280Y-101622021D01*
X104494491Y-101634049D01*
X104488628Y-101647127D01*
X104488625Y-101647133D01*
X104393388Y-101859577D01*
X104387522Y-101872663D01*
X104383724Y-101886482D01*
X104383723Y-101886486D01*
X104322028Y-102110986D01*
X104322025Y-102110997D01*
X104318230Y-102124810D01*
X104316585Y-102139051D01*
X104316585Y-102139056D01*
X104289884Y-102370339D01*
X104289883Y-102370349D01*
X104288241Y-102384578D01*
X104288789Y-102398884D01*
X104288789Y-102398895D01*
X104297386Y-102623162D01*
X104298257Y-102645881D01*
X104300983Y-102659941D01*
X104300985Y-102659951D01*
X104345314Y-102888524D01*
X104345316Y-102888532D01*
X104348043Y-102902592D01*
X104352883Y-102916070D01*
X104352886Y-102916078D01*
X104431587Y-103135203D01*
X104431589Y-103135209D01*
X104436433Y-103148694D01*
X104443277Y-103161281D01*
X104443279Y-103161284D01*
X104554506Y-103365827D01*
X104561354Y-103378420D01*
X104570038Y-103389812D01*
X104570043Y-103389820D01*
X104711186Y-103574982D01*
X104711190Y-103574986D01*
X104719878Y-103586384D01*
X104730205Y-103596322D01*
X104730207Y-103596325D01*
X104799565Y-103663075D01*
X104908290Y-103767713D01*
X104920003Y-103775951D01*
X104920007Y-103775955D01*
X105086481Y-103893049D01*
X105122174Y-103918155D01*
X105356516Y-104034185D01*
X105514399Y-104084150D01*
X105584803Y-104106431D01*
X105605823Y-104113083D01*
X105864253Y-104153000D01*
X106148114Y-104153000D01*
X106155283Y-104153000D01*
X106350727Y-104137995D01*
X106605342Y-104078412D01*
X106847879Y-103980662D01*
X106848404Y-103981966D01*
X106908626Y-103960338D01*
X106993843Y-103950500D01*
X108023616Y-103950500D01*
X108046970Y-103951949D01*
X108046976Y-103951805D01*
X108062435Y-103952444D01*
X108077779Y-103954357D01*
X108163322Y-103950818D01*
X108178777Y-103950500D01*
X108194343Y-103950500D01*
X108202067Y-103950500D01*
X108225299Y-103948574D01*
X108240685Y-103947618D01*
X108326237Y-103944081D01*
X108341384Y-103940904D01*
X108356726Y-103938992D01*
X108356744Y-103939138D01*
X108357167Y-103939077D01*
X108357143Y-103938932D01*
X108372406Y-103936385D01*
X108387821Y-103935108D01*
X108470840Y-103914083D01*
X108485809Y-103910620D01*
X108569614Y-103893049D01*
X108584027Y-103887424D01*
X108598856Y-103883010D01*
X108598898Y-103883151D01*
X108599300Y-103883022D01*
X108599253Y-103882883D01*
X108613879Y-103877861D01*
X108628881Y-103874063D01*
X108707265Y-103839679D01*
X108721512Y-103833778D01*
X108801274Y-103802656D01*
X108814561Y-103794737D01*
X108828465Y-103787941D01*
X108828529Y-103788072D01*
X108828903Y-103787879D01*
X108828833Y-103787750D01*
X108842436Y-103780388D01*
X108856607Y-103774173D01*
X108928273Y-103727350D01*
X108941344Y-103719191D01*
X109014894Y-103675366D01*
X109026703Y-103665363D01*
X109039288Y-103656378D01*
X109039374Y-103656499D01*
X109039712Y-103656248D01*
X109039621Y-103656131D01*
X109051834Y-103646624D01*
X109064785Y-103638164D01*
X109117819Y-103589341D01*
X109193119Y-103535578D01*
X109279312Y-103501945D01*
X109371125Y-103490500D01*
X111815665Y-103490500D01*
X111877933Y-103490500D01*
X112002067Y-103490500D01*
X112064335Y-103490500D01*
X113323556Y-103490500D01*
X113420354Y-103503244D01*
X113510556Y-103540606D01*
X113588014Y-103600042D01*
X118566690Y-108578718D01*
X118582175Y-108596253D01*
X118582282Y-108596155D01*
X118592766Y-108607544D01*
X118602262Y-108619744D01*
X118613634Y-108630213D01*
X118613639Y-108630218D01*
X118665230Y-108677710D01*
X118676384Y-108688412D01*
X118692874Y-108704902D01*
X118707317Y-108717135D01*
X118710666Y-108719971D01*
X118722256Y-108730206D01*
X118785215Y-108788164D01*
X118798166Y-108796625D01*
X118810374Y-108806127D01*
X118810284Y-108806242D01*
X118810631Y-108806501D01*
X118810717Y-108806382D01*
X118823296Y-108815364D01*
X118835106Y-108825366D01*
X118908661Y-108869195D01*
X118921735Y-108877357D01*
X118993393Y-108924173D01*
X119007561Y-108930387D01*
X119021166Y-108937750D01*
X119021095Y-108937879D01*
X119021470Y-108938072D01*
X119021535Y-108937941D01*
X119035434Y-108944735D01*
X119048726Y-108952656D01*
X119111097Y-108976993D01*
X119128457Y-108983767D01*
X119142723Y-108989675D01*
X119221119Y-109024063D01*
X119236118Y-109027861D01*
X119250746Y-109032883D01*
X119250698Y-109033021D01*
X119251109Y-109033152D01*
X119251151Y-109033012D01*
X119265972Y-109037424D01*
X119280386Y-109043049D01*
X119364202Y-109060623D01*
X119379190Y-109064092D01*
X119462179Y-109085108D01*
X119477598Y-109086385D01*
X119492858Y-109088932D01*
X119492833Y-109089077D01*
X119493253Y-109089138D01*
X119493272Y-109088993D01*
X119508624Y-109090906D01*
X119523763Y-109094081D01*
X119609316Y-109097618D01*
X119624703Y-109098574D01*
X119647933Y-109100500D01*
X119671223Y-109100500D01*
X119686677Y-109100818D01*
X119772221Y-109104357D01*
X119787563Y-109102444D01*
X119803025Y-109101805D01*
X119803030Y-109101949D01*
X119826385Y-109100500D01*
X127983556Y-109100500D01*
X128080354Y-109113244D01*
X128170556Y-109150606D01*
X128248014Y-109210042D01*
X128619958Y-109581986D01*
X128679394Y-109659444D01*
X128716756Y-109749646D01*
X128729500Y-109846444D01*
X128729500Y-114163616D01*
X128728050Y-114186970D01*
X128728195Y-114186976D01*
X128727555Y-114202439D01*
X128725643Y-114217779D01*
X128726281Y-114233214D01*
X128726281Y-114233224D01*
X128729181Y-114303322D01*
X128729500Y-114318777D01*
X128729500Y-114342067D01*
X128730138Y-114349774D01*
X128730139Y-114349785D01*
X128731425Y-114365311D01*
X128732381Y-114380719D01*
X128735279Y-114450785D01*
X128735280Y-114450795D01*
X128735919Y-114466237D01*
X128739091Y-114481366D01*
X128741006Y-114496728D01*
X128740863Y-114496745D01*
X128740926Y-114497174D01*
X128741069Y-114497151D01*
X128743614Y-114512406D01*
X128744892Y-114527821D01*
X128748687Y-114542807D01*
X128748689Y-114542819D01*
X128765905Y-114610801D01*
X128769387Y-114625852D01*
X128786951Y-114709614D01*
X128792574Y-114724026D01*
X128796987Y-114738848D01*
X128796848Y-114738889D01*
X128796982Y-114739306D01*
X128797118Y-114739260D01*
X128802140Y-114753890D01*
X128805937Y-114768881D01*
X128812147Y-114783040D01*
X128812148Y-114783041D01*
X128840311Y-114847248D01*
X128846224Y-114861523D01*
X128871718Y-114926857D01*
X128877344Y-114941274D01*
X128885264Y-114954567D01*
X128892055Y-114968456D01*
X128891923Y-114968520D01*
X128892123Y-114968907D01*
X128892251Y-114968838D01*
X128899616Y-114982447D01*
X128905827Y-114996607D01*
X128914282Y-115009549D01*
X128914284Y-115009552D01*
X128952633Y-115068250D01*
X128960816Y-115081359D01*
X129004634Y-115154894D01*
X129014633Y-115166700D01*
X129023619Y-115179285D01*
X129023500Y-115179369D01*
X129023759Y-115179717D01*
X129023874Y-115179628D01*
X129033376Y-115191836D01*
X129041836Y-115204785D01*
X129052311Y-115216164D01*
X129052312Y-115216165D01*
X129099795Y-115267745D01*
X129110030Y-115279335D01*
X129119062Y-115290000D01*
X129125098Y-115297126D01*
X129130565Y-115302593D01*
X129141585Y-115313613D01*
X129152288Y-115324768D01*
X129210256Y-115387738D01*
X129222465Y-115397240D01*
X129233844Y-115407716D01*
X129233745Y-115407823D01*
X129251278Y-115423306D01*
X131536690Y-117708718D01*
X131552175Y-117726253D01*
X131552282Y-117726155D01*
X131562766Y-117737544D01*
X131572262Y-117749744D01*
X131583634Y-117760213D01*
X131583639Y-117760218D01*
X131635230Y-117807710D01*
X131646385Y-117818413D01*
X131662874Y-117834902D01*
X131675393Y-117845505D01*
X131680666Y-117849971D01*
X131692256Y-117860206D01*
X131755215Y-117918164D01*
X131768166Y-117926625D01*
X131780374Y-117936127D01*
X131780284Y-117936242D01*
X131780631Y-117936501D01*
X131780717Y-117936382D01*
X131793296Y-117945364D01*
X131805106Y-117955366D01*
X131878661Y-117999195D01*
X131891735Y-118007357D01*
X131963393Y-118054173D01*
X131977561Y-118060387D01*
X131991166Y-118067750D01*
X131991095Y-118067879D01*
X131991470Y-118068072D01*
X131991535Y-118067941D01*
X132005434Y-118074735D01*
X132018726Y-118082656D01*
X132072417Y-118103606D01*
X132098457Y-118113767D01*
X132112723Y-118119675D01*
X132191119Y-118154063D01*
X132206118Y-118157861D01*
X132220746Y-118162883D01*
X132220698Y-118163021D01*
X132221109Y-118163152D01*
X132221151Y-118163012D01*
X132235972Y-118167424D01*
X132250386Y-118173049D01*
X132265526Y-118176223D01*
X132265531Y-118176225D01*
X132334124Y-118190607D01*
X132349189Y-118194092D01*
X132417180Y-118211310D01*
X132417183Y-118211310D01*
X132432179Y-118215108D01*
X132447593Y-118216384D01*
X132462859Y-118218932D01*
X132462834Y-118219077D01*
X132463251Y-118219138D01*
X132463270Y-118218991D01*
X132478623Y-118220905D01*
X132493763Y-118224080D01*
X132579289Y-118227617D01*
X132594709Y-118228575D01*
X132617933Y-118230500D01*
X132641253Y-118230500D01*
X132656710Y-118230820D01*
X132742221Y-118234357D01*
X132757576Y-118232442D01*
X132773032Y-118231804D01*
X132773038Y-118231949D01*
X132796385Y-118230500D01*
X134993556Y-118230500D01*
X135090354Y-118243244D01*
X135180556Y-118280606D01*
X135258014Y-118340042D01*
X137389960Y-120471987D01*
X137449395Y-120549445D01*
X137486758Y-120639647D01*
X137499502Y-120736445D01*
X137499502Y-122862067D01*
X137514894Y-123047821D01*
X137518689Y-123062810D01*
X137518690Y-123062811D01*
X137572143Y-123273893D01*
X137572144Y-123273898D01*
X137575939Y-123288881D01*
X137582147Y-123303035D01*
X137582150Y-123303042D01*
X137669614Y-123502439D01*
X137675829Y-123516607D01*
X137684286Y-123529552D01*
X137684288Y-123529555D01*
X137738071Y-123611877D01*
X137811838Y-123724785D01*
X137822311Y-123736161D01*
X137822312Y-123736163D01*
X137858952Y-123775965D01*
X137980258Y-123907738D01*
X138176493Y-124060474D01*
X138395192Y-124178828D01*
X138630388Y-124259571D01*
X138875667Y-124300500D01*
X139108873Y-124300500D01*
X139124337Y-124300500D01*
X139369616Y-124259571D01*
X139604812Y-124178828D01*
X139823511Y-124060474D01*
X139889178Y-124009362D01*
X139959279Y-123966271D01*
X140037108Y-123939552D01*
X140118895Y-123930500D01*
X153251793Y-123930500D01*
X153332742Y-123939366D01*
X153409852Y-123965541D01*
X153450670Y-123984575D01*
X153662023Y-124041207D01*
X153880000Y-124060277D01*
X154097977Y-124041207D01*
X154309330Y-123984575D01*
X154507639Y-123892102D01*
X154686877Y-123766598D01*
X154841598Y-123611877D01*
X154967102Y-123432639D01*
X155059575Y-123234330D01*
X155097523Y-123092703D01*
X155147810Y-122981717D01*
X155231103Y-122892786D01*
X155338561Y-122835348D01*
X155458780Y-122815500D01*
X170698408Y-122815500D01*
X170708075Y-122815845D01*
X170719342Y-122817740D01*
X170808974Y-122815606D01*
X170817877Y-122815500D01*
X170844709Y-122815500D01*
X170853618Y-122815500D01*
X170862490Y-122814652D01*
X170871376Y-122814229D01*
X170871386Y-122814459D01*
X170880319Y-122813907D01*
X170934226Y-122812624D01*
X170951946Y-122808768D01*
X170995914Y-122801912D01*
X170995951Y-122801908D01*
X171013971Y-122800188D01*
X171065723Y-122784992D01*
X171091555Y-122778398D01*
X171144258Y-122766934D01*
X171160927Y-122759795D01*
X171202801Y-122744742D01*
X171220209Y-122739631D01*
X171268126Y-122714926D01*
X171292271Y-122703550D01*
X171341849Y-122682321D01*
X171356878Y-122672149D01*
X171395129Y-122649453D01*
X171411259Y-122641138D01*
X171453664Y-122607788D01*
X171475195Y-122592069D01*
X171519855Y-122561843D01*
X171532680Y-122549016D01*
X171565965Y-122519475D01*
X171580217Y-122508268D01*
X171615532Y-122467509D01*
X171633700Y-122447995D01*
X175671695Y-118410000D01*
X177923521Y-118410000D01*
X177924322Y-118422217D01*
X177924322Y-118422221D01*
X177924676Y-118427622D01*
X177925268Y-118464574D01*
X177924990Y-118472872D01*
X177924990Y-118472882D01*
X177924573Y-118485369D01*
X177925823Y-118497802D01*
X177925824Y-118497810D01*
X177935078Y-118589808D01*
X177936155Y-118602773D01*
X177942015Y-118692172D01*
X177942016Y-118692183D01*
X177942816Y-118704380D01*
X177945202Y-118716376D01*
X177946976Y-118725295D01*
X177952281Y-118760802D01*
X177953480Y-118772726D01*
X177953481Y-118772736D01*
X177954732Y-118785162D01*
X177957627Y-118797313D01*
X177957631Y-118797332D01*
X177978216Y-118883711D01*
X177981217Y-118897443D01*
X177997980Y-118981716D01*
X177997983Y-118981728D01*
X178000369Y-118993722D01*
X178004298Y-119005297D01*
X178004301Y-119005308D01*
X178008405Y-119017398D01*
X178018057Y-119050888D01*
X178024581Y-119078261D01*
X178059687Y-119169414D01*
X178064812Y-119183566D01*
X178084736Y-119242260D01*
X178095198Y-119273077D01*
X178100611Y-119284053D01*
X178107865Y-119298763D01*
X178121444Y-119329761D01*
X178128375Y-119347757D01*
X178128379Y-119347766D01*
X178132873Y-119359434D01*
X178138877Y-119370390D01*
X178138883Y-119370403D01*
X178178053Y-119441879D01*
X178185490Y-119456173D01*
X178225678Y-119537665D01*
X178232476Y-119547840D01*
X178232479Y-119547844D01*
X178243625Y-119564526D01*
X178260632Y-119592566D01*
X178271666Y-119612701D01*
X178271669Y-119612706D01*
X178277675Y-119623665D01*
X178285088Y-119633726D01*
X178285095Y-119633737D01*
X178331275Y-119696413D01*
X178341147Y-119710477D01*
X178378216Y-119765955D01*
X178389577Y-119782957D01*
X178397647Y-119792159D01*
X178397652Y-119792165D01*
X178413290Y-119809997D01*
X178433193Y-119834737D01*
X178448988Y-119856174D01*
X178448992Y-119856179D01*
X178456404Y-119866238D01*
X178465085Y-119875214D01*
X178465090Y-119875220D01*
X178516676Y-119928560D01*
X178529018Y-119941960D01*
X178571049Y-119989886D01*
X178584092Y-120004758D01*
X178593294Y-120012828D01*
X178593299Y-120012833D01*
X178613881Y-120030883D01*
X178636123Y-120052066D01*
X178665870Y-120082824D01*
X178675682Y-120090572D01*
X178675685Y-120090575D01*
X178731027Y-120134277D01*
X178745844Y-120146611D01*
X178796679Y-120191193D01*
X178796684Y-120191197D01*
X178805893Y-120199273D01*
X178841897Y-120223330D01*
X178865890Y-120240778D01*
X178902335Y-120269558D01*
X178947338Y-120296213D01*
X178970618Y-120310002D01*
X178987804Y-120320822D01*
X179051185Y-120363172D01*
X179093300Y-120383941D01*
X179118478Y-120397580D01*
X179161580Y-120423109D01*
X179231290Y-120452668D01*
X179250689Y-120461557D01*
X179304781Y-120488232D01*
X179304788Y-120488235D01*
X179315773Y-120493652D01*
X179363698Y-120509920D01*
X179389479Y-120519747D01*
X179427460Y-120535852D01*
X179438978Y-120540736D01*
X179508484Y-120559775D01*
X179529855Y-120566323D01*
X179595128Y-120588481D01*
X179648366Y-120599070D01*
X179674187Y-120605166D01*
X179729579Y-120620340D01*
X179794395Y-120629056D01*
X179797350Y-120629454D01*
X179820471Y-120633304D01*
X179872459Y-120643645D01*
X179872461Y-120643645D01*
X179884470Y-120646034D01*
X179942291Y-120649823D01*
X179967656Y-120652358D01*
X180004950Y-120657373D01*
X180028197Y-120660500D01*
X180092935Y-120660500D01*
X180117395Y-120661300D01*
X180178850Y-120665329D01*
X180251421Y-120660572D01*
X180252882Y-120660500D01*
X180254094Y-120660500D01*
X180327692Y-120655573D01*
X180327697Y-120655658D01*
X180328209Y-120655539D01*
X180473230Y-120646034D01*
X180474770Y-120645727D01*
X180479484Y-120645412D01*
X180621849Y-120616474D01*
X180623193Y-120616204D01*
X180724841Y-120595986D01*
X180752779Y-120590429D01*
X180752781Y-120590428D01*
X180762572Y-120588481D01*
X180767044Y-120586962D01*
X180774753Y-120585396D01*
X180908503Y-120538952D01*
X180910861Y-120538143D01*
X181030315Y-120497594D01*
X181030318Y-120497592D01*
X181041927Y-120493652D01*
X181048980Y-120490173D01*
X181059387Y-120486560D01*
X181182633Y-120424279D01*
X181185504Y-120422846D01*
X181306515Y-120363172D01*
X181313997Y-120358171D01*
X181317131Y-120356315D01*
X181328309Y-120350668D01*
X181439077Y-120274628D01*
X181442676Y-120272191D01*
X181551807Y-120199273D01*
X181559799Y-120192262D01*
X181562563Y-120190256D01*
X181566395Y-120187230D01*
X181576719Y-120180144D01*
X181620822Y-120140255D01*
X181673569Y-120092547D01*
X181677766Y-120088807D01*
X181773608Y-120004758D01*
X181781687Y-119995544D01*
X181783270Y-119993962D01*
X181787556Y-119989886D01*
X181790905Y-119986422D01*
X181800183Y-119978032D01*
X181882170Y-119881055D01*
X181886452Y-119876082D01*
X181968123Y-119782957D01*
X181974927Y-119772772D01*
X181981403Y-119764334D01*
X181983675Y-119761513D01*
X181986635Y-119757495D01*
X181994715Y-119747939D01*
X182061092Y-119643959D01*
X182065236Y-119637616D01*
X182132022Y-119537665D01*
X182137444Y-119526668D01*
X182143561Y-119516075D01*
X182143893Y-119516266D01*
X182144284Y-119515573D01*
X182144105Y-119515475D01*
X182150113Y-119504510D01*
X182156843Y-119493970D01*
X182207208Y-119385434D01*
X182210982Y-119377546D01*
X182262502Y-119273077D01*
X182266441Y-119261472D01*
X182271123Y-119250170D01*
X182271267Y-119250229D01*
X182274457Y-119242260D01*
X182278404Y-119232010D01*
X182283673Y-119220658D01*
X182318036Y-119109879D01*
X182321051Y-119100595D01*
X182357331Y-118993722D01*
X182359722Y-118981699D01*
X182361695Y-118974336D01*
X182368954Y-118945736D01*
X182372943Y-118932879D01*
X182391629Y-118822095D01*
X182393580Y-118811479D01*
X182414884Y-118704380D01*
X182415797Y-118690437D01*
X182420210Y-118652653D01*
X182423059Y-118635770D01*
X182426689Y-118527183D01*
X182427276Y-118515308D01*
X182434179Y-118410000D01*
X182433023Y-118392377D01*
X182432432Y-118355402D01*
X182433127Y-118334631D01*
X182422619Y-118230179D01*
X182421542Y-118217203D01*
X182415685Y-118127842D01*
X182414884Y-118115620D01*
X182410726Y-118094715D01*
X182405417Y-118059181D01*
X182404220Y-118047287D01*
X182402968Y-118034838D01*
X182379471Y-117936242D01*
X182376479Y-117922547D01*
X182375607Y-117918164D01*
X182357331Y-117826278D01*
X182349297Y-117802613D01*
X182339640Y-117769103D01*
X182333119Y-117741739D01*
X182298014Y-117650592D01*
X182292875Y-117636398D01*
X182262502Y-117546923D01*
X182249829Y-117521224D01*
X182236255Y-117490238D01*
X182229319Y-117472230D01*
X182224827Y-117460566D01*
X182179648Y-117378126D01*
X182172200Y-117363808D01*
X182137442Y-117293326D01*
X182137439Y-117293321D01*
X182132022Y-117282336D01*
X182114073Y-117255474D01*
X182097062Y-117227425D01*
X182086034Y-117207300D01*
X182086032Y-117207297D01*
X182080025Y-117196335D01*
X182026433Y-117123599D01*
X182016562Y-117109537D01*
X181982458Y-117058497D01*
X181968123Y-117037043D01*
X181960060Y-117027849D01*
X181960048Y-117027833D01*
X181944408Y-117010000D01*
X181924498Y-116985252D01*
X181901296Y-116953762D01*
X181841022Y-116891438D01*
X181828680Y-116878038D01*
X181783117Y-116826085D01*
X181773608Y-116815242D01*
X181743821Y-116789119D01*
X181721580Y-116767937D01*
X181718970Y-116765238D01*
X181691830Y-116737176D01*
X181658716Y-116711026D01*
X181626661Y-116685713D01*
X181611867Y-116673398D01*
X181551807Y-116620727D01*
X181541635Y-116613930D01*
X181541627Y-116613924D01*
X181515806Y-116596671D01*
X181491809Y-116579221D01*
X181465177Y-116558190D01*
X181465173Y-116558187D01*
X181455365Y-116550442D01*
X181444610Y-116544072D01*
X181444606Y-116544069D01*
X181387070Y-116509991D01*
X181369900Y-116499181D01*
X181306515Y-116456828D01*
X181295535Y-116451413D01*
X181295528Y-116451409D01*
X181264388Y-116436052D01*
X181239217Y-116422417D01*
X181220137Y-116411116D01*
X181196120Y-116396891D01*
X181184612Y-116392011D01*
X181184608Y-116392009D01*
X181126418Y-116367334D01*
X181107011Y-116358443D01*
X181052904Y-116331761D01*
X181052902Y-116331760D01*
X181041927Y-116326348D01*
X181030347Y-116322417D01*
X181030335Y-116322412D01*
X180993997Y-116310077D01*
X180968211Y-116300249D01*
X180930227Y-116284142D01*
X180930220Y-116284139D01*
X180918722Y-116279264D01*
X180906677Y-116275964D01*
X180906670Y-116275962D01*
X180862089Y-116263750D01*
X180849231Y-116260228D01*
X180827830Y-116253671D01*
X180774164Y-116235454D01*
X180762572Y-116231519D01*
X180750572Y-116229132D01*
X180750561Y-116229129D01*
X180709337Y-116220929D01*
X180683506Y-116214830D01*
X180640181Y-116202963D01*
X180640173Y-116202961D01*
X180628121Y-116199660D01*
X180615749Y-116197996D01*
X180615739Y-116197994D01*
X180565695Y-116191264D01*
X180560322Y-116190541D01*
X180537217Y-116186693D01*
X180485240Y-116176354D01*
X180485227Y-116176352D01*
X180473230Y-116173966D01*
X180461023Y-116173165D01*
X180461017Y-116173165D01*
X180415417Y-116170176D01*
X180390040Y-116167641D01*
X180341895Y-116161166D01*
X180341887Y-116161165D01*
X180329503Y-116159500D01*
X180316995Y-116159500D01*
X180264765Y-116159500D01*
X180240304Y-116158699D01*
X180191071Y-116155472D01*
X180178850Y-116154671D01*
X180166629Y-116155472D01*
X180166628Y-116155472D01*
X180106284Y-116159427D01*
X180104805Y-116159500D01*
X180103606Y-116159500D01*
X180100239Y-116159725D01*
X180100165Y-116159729D01*
X180030272Y-116164407D01*
X180029767Y-116164441D01*
X179893478Y-116173375D01*
X179893470Y-116173376D01*
X179884470Y-116173966D01*
X179882929Y-116174272D01*
X179878216Y-116174588D01*
X179865986Y-116177073D01*
X179865984Y-116177074D01*
X179818659Y-116186693D01*
X179738611Y-116202963D01*
X179735939Y-116203506D01*
X179734415Y-116203812D01*
X179604955Y-116229564D01*
X179604948Y-116229565D01*
X179595128Y-116231519D01*
X179590655Y-116233037D01*
X179582947Y-116234604D01*
X179571158Y-116238697D01*
X179571145Y-116238701D01*
X179449305Y-116281008D01*
X179446852Y-116281850D01*
X179327348Y-116322418D01*
X179327338Y-116322421D01*
X179315773Y-116326348D01*
X179308719Y-116329826D01*
X179298313Y-116333440D01*
X179287157Y-116339077D01*
X179287153Y-116339079D01*
X179175234Y-116395633D01*
X179171979Y-116397258D01*
X179062158Y-116451416D01*
X179062144Y-116451423D01*
X179051186Y-116456828D01*
X179043752Y-116461794D01*
X179040536Y-116463699D01*
X179029391Y-116469332D01*
X179019088Y-116476404D01*
X179019089Y-116476404D01*
X178918749Y-116545283D01*
X178914872Y-116547908D01*
X178816070Y-116613925D01*
X178816050Y-116613940D01*
X178805893Y-116620727D01*
X178797911Y-116627725D01*
X178795120Y-116629753D01*
X178791277Y-116632787D01*
X178780981Y-116639856D01*
X178771719Y-116648232D01*
X178771710Y-116648240D01*
X178684173Y-116727413D01*
X178679899Y-116731220D01*
X178593287Y-116807177D01*
X178593278Y-116807185D01*
X178584092Y-116815242D01*
X178576036Y-116824426D01*
X178574378Y-116826085D01*
X178570136Y-116830119D01*
X178566779Y-116833590D01*
X178557517Y-116841968D01*
X178549454Y-116851504D01*
X178549450Y-116851509D01*
X178475604Y-116938854D01*
X178471190Y-116943979D01*
X178397647Y-117027839D01*
X178397635Y-117027854D01*
X178389577Y-117037043D01*
X178382786Y-117047205D01*
X178376259Y-117055711D01*
X178374014Y-117058497D01*
X178371044Y-117062527D01*
X178362985Y-117072061D01*
X178356270Y-117082579D01*
X178356255Y-117082600D01*
X178296659Y-117175954D01*
X178292394Y-117182484D01*
X178232477Y-117272158D01*
X178232467Y-117272175D01*
X178225678Y-117282336D01*
X178220268Y-117293305D01*
X178214145Y-117303911D01*
X178213820Y-117303723D01*
X178213420Y-117304433D01*
X178213592Y-117304528D01*
X178207583Y-117315492D01*
X178200857Y-117326030D01*
X178195595Y-117337367D01*
X178195595Y-117337369D01*
X178150521Y-117434500D01*
X178146702Y-117442481D01*
X178100608Y-117535951D01*
X178100604Y-117535960D01*
X178095198Y-117546923D01*
X178091266Y-117558504D01*
X178086580Y-117569818D01*
X178086440Y-117569760D01*
X178083143Y-117577993D01*
X178079285Y-117588009D01*
X178074027Y-117599342D01*
X178070324Y-117611276D01*
X178070320Y-117611289D01*
X178039675Y-117710077D01*
X178036630Y-117719453D01*
X178000369Y-117826278D01*
X177997982Y-117838274D01*
X177996045Y-117845505D01*
X177988751Y-117874243D01*
X177988461Y-117875177D01*
X177988458Y-117875188D01*
X177984757Y-117887121D01*
X177982679Y-117899437D01*
X177982679Y-117899439D01*
X177966084Y-117997816D01*
X177964109Y-118008564D01*
X177945204Y-118103611D01*
X177945202Y-118103619D01*
X177942816Y-118115620D01*
X177942015Y-118127824D01*
X177942012Y-118127854D01*
X177941897Y-118129618D01*
X177937495Y-118167304D01*
X177936722Y-118171887D01*
X177936720Y-118171898D01*
X177934641Y-118184230D01*
X177934223Y-118196714D01*
X177934222Y-118196730D01*
X177931010Y-118292794D01*
X177930419Y-118304748D01*
X177923521Y-118410000D01*
X175671695Y-118410000D01*
X182756654Y-111325042D01*
X182834113Y-111265606D01*
X182924315Y-111228244D01*
X183021113Y-111215500D01*
X205131828Y-111215500D01*
X205224115Y-111227065D01*
X205310694Y-111261045D01*
X205386212Y-111315338D01*
X205523548Y-111442767D01*
X205555521Y-111472433D01*
X205772296Y-111620228D01*
X205784908Y-111626301D01*
X205784907Y-111626301D01*
X205924526Y-111693538D01*
X206016638Y-111756338D01*
X206086147Y-111843500D01*
X206126877Y-111947277D01*
X206135208Y-112058449D01*
X206110401Y-112167137D01*
X206054659Y-112263685D01*
X205972936Y-112339513D01*
X205872492Y-112387884D01*
X205762254Y-112404500D01*
X187281349Y-112404500D01*
X187281250Y-112404459D01*
X187281151Y-112404500D01*
X187280867Y-112404617D01*
X187280709Y-112405000D01*
X187280750Y-112405099D01*
X187280750Y-112424787D01*
X187280750Y-144530500D01*
X187262445Y-144646072D01*
X187209322Y-144750332D01*
X187126582Y-144833072D01*
X187022322Y-144886195D01*
X186906750Y-144904500D01*
X152391313Y-144904500D01*
X152275106Y-144885988D01*
X152170402Y-144832285D01*
X152087567Y-144748708D01*
X152034801Y-144643529D01*
X152017328Y-144527161D01*
X152036875Y-144411127D01*
X152412757Y-143295113D01*
X152466393Y-143192243D01*
X152548981Y-143110753D01*
X152652570Y-143058496D01*
X152767182Y-143040499D01*
X155637323Y-143040499D01*
X155642399Y-143040533D01*
X155660380Y-143040777D01*
X156614062Y-143053723D01*
X156713598Y-143048499D01*
X156811579Y-143030217D01*
X156874288Y-143014173D01*
X156949721Y-142987616D01*
X157033327Y-142968603D01*
X157119075Y-142969132D01*
X157202437Y-142989174D01*
X157298170Y-143024210D01*
X157360049Y-143040916D01*
X157456797Y-143060360D01*
X157555254Y-143067028D01*
X161717239Y-143076466D01*
X161816018Y-143070207D01*
X161913132Y-143051087D01*
X161975255Y-143034565D01*
X162099270Y-142989670D01*
X162213588Y-142923892D01*
X162314724Y-142839235D01*
X162360228Y-142793828D01*
X162445102Y-142692871D01*
X162511125Y-142578691D01*
X162556284Y-142454769D01*
X162572938Y-142392681D01*
X162592263Y-142295611D01*
X162598733Y-142196848D01*
X162598624Y-141400000D01*
X177923521Y-141400000D01*
X177924322Y-141412217D01*
X177924322Y-141412221D01*
X177924676Y-141417622D01*
X177925268Y-141454574D01*
X177924990Y-141462872D01*
X177924990Y-141462882D01*
X177924573Y-141475369D01*
X177925823Y-141487802D01*
X177925824Y-141487810D01*
X177935078Y-141579808D01*
X177936155Y-141592773D01*
X177942015Y-141682172D01*
X177942016Y-141682183D01*
X177942816Y-141694380D01*
X177945202Y-141706376D01*
X177946976Y-141715295D01*
X177952281Y-141750802D01*
X177953480Y-141762726D01*
X177953481Y-141762736D01*
X177954732Y-141775162D01*
X177957627Y-141787313D01*
X177957631Y-141787332D01*
X177978216Y-141873711D01*
X177981217Y-141887443D01*
X177997980Y-141971716D01*
X177997983Y-141971728D01*
X178000369Y-141983722D01*
X178004298Y-141995297D01*
X178004301Y-141995308D01*
X178008405Y-142007398D01*
X178018057Y-142040888D01*
X178024581Y-142068261D01*
X178059687Y-142159414D01*
X178064812Y-142173566D01*
X178084736Y-142232260D01*
X178095198Y-142263077D01*
X178100611Y-142274053D01*
X178107865Y-142288763D01*
X178121444Y-142319761D01*
X178128375Y-142337757D01*
X178128379Y-142337766D01*
X178132873Y-142349434D01*
X178138877Y-142360390D01*
X178138883Y-142360403D01*
X178178053Y-142431879D01*
X178185490Y-142446173D01*
X178225678Y-142527665D01*
X178232476Y-142537840D01*
X178232479Y-142537844D01*
X178243625Y-142554526D01*
X178260632Y-142582566D01*
X178271666Y-142602701D01*
X178271669Y-142602706D01*
X178277675Y-142613665D01*
X178285088Y-142623726D01*
X178285095Y-142623737D01*
X178331275Y-142686413D01*
X178341147Y-142700477D01*
X178378216Y-142755955D01*
X178389577Y-142772957D01*
X178397647Y-142782159D01*
X178397652Y-142782165D01*
X178413290Y-142799997D01*
X178433193Y-142824737D01*
X178448988Y-142846174D01*
X178448992Y-142846179D01*
X178456404Y-142856238D01*
X178465085Y-142865214D01*
X178465090Y-142865220D01*
X178516676Y-142918560D01*
X178529018Y-142931960D01*
X178570286Y-142979016D01*
X178584092Y-142994758D01*
X178593294Y-143002828D01*
X178593299Y-143002833D01*
X178613881Y-143020883D01*
X178636123Y-143042066D01*
X178665870Y-143072824D01*
X178675682Y-143080572D01*
X178675685Y-143080575D01*
X178731027Y-143124277D01*
X178745844Y-143136611D01*
X178796679Y-143181193D01*
X178796684Y-143181197D01*
X178805893Y-143189273D01*
X178841897Y-143213330D01*
X178865890Y-143230778D01*
X178902335Y-143259558D01*
X178951309Y-143288565D01*
X178970618Y-143300002D01*
X178987804Y-143310822D01*
X179051185Y-143353172D01*
X179093300Y-143373941D01*
X179118478Y-143387580D01*
X179161580Y-143413109D01*
X179231290Y-143442668D01*
X179250689Y-143451557D01*
X179304781Y-143478232D01*
X179304788Y-143478235D01*
X179315773Y-143483652D01*
X179363698Y-143499920D01*
X179389479Y-143509747D01*
X179427460Y-143525852D01*
X179438978Y-143530736D01*
X179508484Y-143549775D01*
X179529855Y-143556323D01*
X179595128Y-143578481D01*
X179648366Y-143589070D01*
X179674187Y-143595166D01*
X179729579Y-143610340D01*
X179794395Y-143619056D01*
X179797350Y-143619454D01*
X179820471Y-143623304D01*
X179872459Y-143633645D01*
X179872461Y-143633645D01*
X179884470Y-143636034D01*
X179942291Y-143639823D01*
X179967656Y-143642358D01*
X180004949Y-143647373D01*
X180028197Y-143650500D01*
X180092935Y-143650500D01*
X180117395Y-143651300D01*
X180178850Y-143655329D01*
X180251421Y-143650572D01*
X180252882Y-143650500D01*
X180254094Y-143650500D01*
X180327692Y-143645573D01*
X180327697Y-143645658D01*
X180328209Y-143645539D01*
X180473230Y-143636034D01*
X180474770Y-143635727D01*
X180479484Y-143635412D01*
X180621849Y-143606474D01*
X180623193Y-143606204D01*
X180724841Y-143585986D01*
X180752779Y-143580429D01*
X180752781Y-143580428D01*
X180762572Y-143578481D01*
X180767044Y-143576962D01*
X180774753Y-143575396D01*
X180908503Y-143528952D01*
X180910861Y-143528143D01*
X181030315Y-143487594D01*
X181030318Y-143487592D01*
X181041927Y-143483652D01*
X181048980Y-143480173D01*
X181059387Y-143476560D01*
X181182633Y-143414279D01*
X181185504Y-143412846D01*
X181306515Y-143353172D01*
X181313997Y-143348171D01*
X181317131Y-143346315D01*
X181328309Y-143340668D01*
X181439077Y-143264628D01*
X181442676Y-143262191D01*
X181551807Y-143189273D01*
X181559799Y-143182262D01*
X181562563Y-143180256D01*
X181566395Y-143177230D01*
X181576719Y-143170144D01*
X181620822Y-143130255D01*
X181673569Y-143082547D01*
X181677766Y-143078807D01*
X181773608Y-142994758D01*
X181781687Y-142985544D01*
X181783270Y-142983962D01*
X181787556Y-142979886D01*
X181790905Y-142976422D01*
X181800183Y-142968032D01*
X181882170Y-142871055D01*
X181886452Y-142866082D01*
X181968123Y-142772957D01*
X181974927Y-142762772D01*
X181981403Y-142754334D01*
X181983675Y-142751513D01*
X181986635Y-142747495D01*
X181994715Y-142737939D01*
X182061092Y-142633959D01*
X182065236Y-142627616D01*
X182132022Y-142527665D01*
X182137444Y-142516668D01*
X182143561Y-142506075D01*
X182143893Y-142506266D01*
X182144284Y-142505573D01*
X182144105Y-142505475D01*
X182150113Y-142494510D01*
X182156843Y-142483970D01*
X182207208Y-142375434D01*
X182210982Y-142367546D01*
X182262502Y-142263077D01*
X182266441Y-142251472D01*
X182271123Y-142240170D01*
X182271267Y-142240229D01*
X182274457Y-142232260D01*
X182278404Y-142222010D01*
X182283673Y-142210658D01*
X182318036Y-142099879D01*
X182321051Y-142090595D01*
X182357331Y-141983722D01*
X182359722Y-141971699D01*
X182361695Y-141964336D01*
X182368954Y-141935736D01*
X182372943Y-141922879D01*
X182391629Y-141812095D01*
X182393580Y-141801479D01*
X182414884Y-141694380D01*
X182415797Y-141680437D01*
X182420210Y-141642653D01*
X182423059Y-141625770D01*
X182426689Y-141517183D01*
X182427276Y-141505308D01*
X182434179Y-141400000D01*
X182433023Y-141382377D01*
X182432432Y-141345402D01*
X182433127Y-141324631D01*
X182422619Y-141220179D01*
X182421542Y-141207203D01*
X182415685Y-141117842D01*
X182414884Y-141105620D01*
X182410726Y-141084715D01*
X182405417Y-141049181D01*
X182404220Y-141037287D01*
X182402968Y-141024838D01*
X182379477Y-140926271D01*
X182376479Y-140912547D01*
X182359721Y-140828296D01*
X182357331Y-140816278D01*
X182349297Y-140792613D01*
X182339640Y-140759103D01*
X182333119Y-140731739D01*
X182298014Y-140640592D01*
X182292875Y-140626398D01*
X182262502Y-140536923D01*
X182249829Y-140511224D01*
X182236255Y-140480238D01*
X182229319Y-140462230D01*
X182224827Y-140450566D01*
X182179648Y-140368126D01*
X182172200Y-140353808D01*
X182137442Y-140283326D01*
X182137439Y-140283321D01*
X182132022Y-140272336D01*
X182114073Y-140245474D01*
X182097062Y-140217425D01*
X182086034Y-140197300D01*
X182086032Y-140197297D01*
X182080025Y-140186335D01*
X182026433Y-140113599D01*
X182016562Y-140099537D01*
X181982458Y-140048497D01*
X181968123Y-140027043D01*
X181960060Y-140017849D01*
X181960048Y-140017833D01*
X181944408Y-140000000D01*
X181924498Y-139975252D01*
X181901296Y-139943762D01*
X181841022Y-139881438D01*
X181828680Y-139868038D01*
X181783117Y-139816085D01*
X181773608Y-139805242D01*
X181743821Y-139779119D01*
X181721580Y-139757937D01*
X181691830Y-139727176D01*
X181626661Y-139675713D01*
X181611867Y-139663398D01*
X181551807Y-139610727D01*
X181541635Y-139603930D01*
X181541627Y-139603924D01*
X181515806Y-139586671D01*
X181491809Y-139569221D01*
X181465177Y-139548190D01*
X181465173Y-139548187D01*
X181455365Y-139540442D01*
X181444610Y-139534072D01*
X181444606Y-139534069D01*
X181387070Y-139499991D01*
X181369900Y-139489181D01*
X181306515Y-139446828D01*
X181295535Y-139441413D01*
X181295528Y-139441409D01*
X181264388Y-139426052D01*
X181239217Y-139412417D01*
X181196120Y-139386891D01*
X181184612Y-139382011D01*
X181184608Y-139382009D01*
X181126418Y-139357334D01*
X181107011Y-139348443D01*
X181052904Y-139321761D01*
X181052902Y-139321760D01*
X181041927Y-139316348D01*
X181030347Y-139312417D01*
X181030335Y-139312412D01*
X180993997Y-139300077D01*
X180968211Y-139290249D01*
X180930227Y-139274142D01*
X180930220Y-139274139D01*
X180918722Y-139269264D01*
X180906677Y-139265964D01*
X180906670Y-139265962D01*
X180862089Y-139253750D01*
X180849231Y-139250228D01*
X180827830Y-139243671D01*
X180774164Y-139225454D01*
X180762572Y-139221519D01*
X180750572Y-139219132D01*
X180750561Y-139219129D01*
X180709337Y-139210929D01*
X180683506Y-139204830D01*
X180640181Y-139192963D01*
X180640173Y-139192961D01*
X180628121Y-139189660D01*
X180615749Y-139187996D01*
X180615739Y-139187994D01*
X180565695Y-139181264D01*
X180560322Y-139180541D01*
X180537217Y-139176693D01*
X180485240Y-139166354D01*
X180485227Y-139166352D01*
X180473230Y-139163966D01*
X180461023Y-139163165D01*
X180461017Y-139163165D01*
X180415417Y-139160176D01*
X180390040Y-139157641D01*
X180341895Y-139151166D01*
X180341887Y-139151165D01*
X180329503Y-139149500D01*
X180316995Y-139149500D01*
X180264765Y-139149500D01*
X180240304Y-139148699D01*
X180191071Y-139145472D01*
X180178850Y-139144671D01*
X180166629Y-139145472D01*
X180166628Y-139145472D01*
X180106284Y-139149427D01*
X180104805Y-139149500D01*
X180103606Y-139149500D01*
X180100239Y-139149725D01*
X180100165Y-139149729D01*
X180030272Y-139154407D01*
X180029767Y-139154441D01*
X179893478Y-139163375D01*
X179893470Y-139163376D01*
X179884470Y-139163966D01*
X179882929Y-139164272D01*
X179878216Y-139164588D01*
X179865986Y-139167073D01*
X179865984Y-139167074D01*
X179818659Y-139176693D01*
X179738611Y-139192963D01*
X179735939Y-139193506D01*
X179734415Y-139193812D01*
X179604955Y-139219564D01*
X179604948Y-139219565D01*
X179595128Y-139221519D01*
X179590655Y-139223037D01*
X179582947Y-139224604D01*
X179571158Y-139228697D01*
X179571145Y-139228701D01*
X179449305Y-139271008D01*
X179446852Y-139271850D01*
X179327348Y-139312418D01*
X179327338Y-139312421D01*
X179315773Y-139316348D01*
X179308719Y-139319826D01*
X179298313Y-139323440D01*
X179287157Y-139329077D01*
X179287153Y-139329079D01*
X179175234Y-139385633D01*
X179171979Y-139387258D01*
X179062158Y-139441416D01*
X179062144Y-139441423D01*
X179051186Y-139446828D01*
X179043752Y-139451794D01*
X179040536Y-139453699D01*
X179029391Y-139459332D01*
X179019088Y-139466404D01*
X179019089Y-139466404D01*
X178918749Y-139535283D01*
X178914872Y-139537908D01*
X178816070Y-139603925D01*
X178816050Y-139603940D01*
X178805893Y-139610727D01*
X178797911Y-139617725D01*
X178795120Y-139619753D01*
X178791277Y-139622787D01*
X178780981Y-139629856D01*
X178771719Y-139638232D01*
X178771710Y-139638240D01*
X178684173Y-139717413D01*
X178679899Y-139721220D01*
X178593287Y-139797177D01*
X178593278Y-139797185D01*
X178584092Y-139805242D01*
X178576036Y-139814426D01*
X178574378Y-139816085D01*
X178570136Y-139820119D01*
X178566779Y-139823590D01*
X178557517Y-139831968D01*
X178549454Y-139841504D01*
X178549450Y-139841509D01*
X178475604Y-139928854D01*
X178471190Y-139933979D01*
X178397647Y-140017839D01*
X178397635Y-140017854D01*
X178389577Y-140027043D01*
X178382786Y-140037205D01*
X178376259Y-140045711D01*
X178374014Y-140048497D01*
X178371044Y-140052527D01*
X178362985Y-140062061D01*
X178356270Y-140072579D01*
X178356255Y-140072600D01*
X178296659Y-140165954D01*
X178292394Y-140172484D01*
X178232477Y-140262158D01*
X178232467Y-140262175D01*
X178225678Y-140272336D01*
X178220268Y-140283305D01*
X178214145Y-140293911D01*
X178213820Y-140293723D01*
X178213420Y-140294433D01*
X178213592Y-140294528D01*
X178207583Y-140305492D01*
X178200857Y-140316030D01*
X178195595Y-140327367D01*
X178195595Y-140327369D01*
X178150521Y-140424500D01*
X178146702Y-140432481D01*
X178100608Y-140525951D01*
X178100604Y-140525960D01*
X178095198Y-140536923D01*
X178091266Y-140548504D01*
X178086580Y-140559818D01*
X178086440Y-140559760D01*
X178083143Y-140567993D01*
X178079285Y-140578009D01*
X178074027Y-140589342D01*
X178070324Y-140601276D01*
X178070320Y-140601289D01*
X178039675Y-140700077D01*
X178036630Y-140709453D01*
X178000369Y-140816278D01*
X177997982Y-140828274D01*
X177996045Y-140835505D01*
X177988751Y-140864243D01*
X177988461Y-140865177D01*
X177988458Y-140865188D01*
X177984757Y-140877121D01*
X177982679Y-140889437D01*
X177982679Y-140889439D01*
X177966084Y-140987816D01*
X177964109Y-140998564D01*
X177945204Y-141093611D01*
X177945202Y-141093619D01*
X177942816Y-141105620D01*
X177942015Y-141117824D01*
X177942012Y-141117854D01*
X177941897Y-141119618D01*
X177937495Y-141157304D01*
X177936722Y-141161887D01*
X177936720Y-141161898D01*
X177934641Y-141174230D01*
X177934223Y-141186714D01*
X177934222Y-141186730D01*
X177931010Y-141282794D01*
X177930419Y-141294748D01*
X177923521Y-141400000D01*
X162598624Y-141400000D01*
X162598005Y-136857244D01*
X162589923Y-136747136D01*
X162584650Y-136711376D01*
X162560602Y-136603605D01*
X162521101Y-136500490D01*
X162505738Y-136467770D01*
X162451642Y-136371535D01*
X159757739Y-132306317D01*
X159711398Y-132207605D01*
X159695500Y-132099722D01*
X159695500Y-130540093D01*
X159695500Y-130534011D01*
X159689119Y-130436025D01*
X159670083Y-130339693D01*
X159653677Y-130278053D01*
X159609198Y-130154996D01*
X159544154Y-130041459D01*
X159460495Y-129940847D01*
X159452274Y-129932543D01*
X159421323Y-129901279D01*
X159415619Y-129895517D01*
X159393904Y-129877088D01*
X159328216Y-129821340D01*
X159328212Y-129821337D01*
X159315849Y-129810845D01*
X159301859Y-129802643D01*
X159301857Y-129802641D01*
X159216953Y-129752861D01*
X159216950Y-129752859D01*
X159202965Y-129744660D01*
X159187776Y-129738997D01*
X159187768Y-129738993D01*
X159087952Y-129701778D01*
X159087947Y-129701776D01*
X159080353Y-129698945D01*
X159065754Y-129694902D01*
X159024721Y-129683538D01*
X159024704Y-129683533D01*
X159018880Y-129681921D01*
X159012950Y-129680687D01*
X159012945Y-129680686D01*
X158934658Y-129664398D01*
X158922748Y-129661920D01*
X158910614Y-129661007D01*
X158910612Y-129661007D01*
X158830905Y-129655011D01*
X158830884Y-129655010D01*
X158824834Y-129654555D01*
X158818777Y-129654494D01*
X158818750Y-129654493D01*
X158623650Y-129652534D01*
X158623639Y-129652532D01*
X157959209Y-129645859D01*
X157959178Y-129645859D01*
X157953037Y-129645798D01*
X157946897Y-129646141D01*
X157946879Y-129646142D01*
X157865933Y-129650672D01*
X157865926Y-129650672D01*
X157853628Y-129651361D01*
X157841533Y-129653659D01*
X157841518Y-129653661D01*
X157761861Y-129668797D01*
X157761832Y-129668803D01*
X157755814Y-129669947D01*
X157749870Y-129671488D01*
X157749858Y-129671491D01*
X157701189Y-129684111D01*
X157701174Y-129684115D01*
X157693232Y-129686175D01*
X157685513Y-129688919D01*
X157685489Y-129688927D01*
X157583728Y-129725111D01*
X157583723Y-129725113D01*
X157568236Y-129730620D01*
X157553950Y-129738750D01*
X157553944Y-129738754D01*
X157475292Y-129783522D01*
X157452941Y-129796244D01*
X157440298Y-129806748D01*
X157440293Y-129806752D01*
X157350902Y-129881024D01*
X157349972Y-129879904D01*
X157272007Y-129932543D01*
X157170246Y-129964849D01*
X157063503Y-129967086D01*
X156960477Y-129939072D01*
X156869567Y-129883090D01*
X156831902Y-129851675D01*
X156789462Y-129816277D01*
X156789455Y-129816272D01*
X156776812Y-129805727D01*
X156740795Y-129785147D01*
X156675792Y-129748004D01*
X156675793Y-129748004D01*
X156661496Y-129739835D01*
X156645991Y-129734296D01*
X156645989Y-129734295D01*
X156544176Y-129697923D01*
X156544169Y-129697920D01*
X156536424Y-129695154D01*
X156528474Y-129693080D01*
X156528465Y-129693078D01*
X156479764Y-129680378D01*
X156479761Y-129680377D01*
X156473797Y-129678822D01*
X156467749Y-129677664D01*
X156467729Y-129677660D01*
X156388039Y-129662409D01*
X156388032Y-129662408D01*
X156375909Y-129660088D01*
X156363588Y-129659383D01*
X156363581Y-129659383D01*
X156282575Y-129654754D01*
X156282559Y-129654753D01*
X156276406Y-129654402D01*
X156270229Y-129654457D01*
X156270223Y-129654457D01*
X155411044Y-129662128D01*
X155411021Y-129662128D01*
X155404968Y-129662183D01*
X155398919Y-129662631D01*
X155398907Y-129662632D01*
X155319116Y-129668548D01*
X155319106Y-129668549D01*
X155306973Y-129669449D01*
X155295049Y-129671917D01*
X155295048Y-129671918D01*
X155216712Y-129688137D01*
X155216695Y-129688141D01*
X155210750Y-129689372D01*
X155204911Y-129690983D01*
X155204887Y-129690989D01*
X155157051Y-129704189D01*
X155157033Y-129704194D01*
X155149219Y-129706351D01*
X155141609Y-129709180D01*
X155141596Y-129709185D01*
X155041702Y-129746331D01*
X155041696Y-129746333D01*
X155026485Y-129751990D01*
X155012478Y-129760188D01*
X154997797Y-129767150D01*
X154996534Y-129764487D01*
X154912437Y-129797225D01*
X154794823Y-129803696D01*
X154695792Y-129777213D01*
X154695090Y-129779027D01*
X154615632Y-129748244D01*
X154576361Y-129730361D01*
X154572831Y-129728501D01*
X154559934Y-129721703D01*
X154547734Y-129717298D01*
X154461109Y-129686021D01*
X154461096Y-129686017D01*
X154455020Y-129683823D01*
X154441482Y-129679971D01*
X154395970Y-129667021D01*
X154395949Y-129667016D01*
X154389743Y-129665250D01*
X154383424Y-129663917D01*
X154383404Y-129663912D01*
X154293280Y-129644900D01*
X154293268Y-129644898D01*
X154280591Y-129642224D01*
X154267661Y-129641326D01*
X154267650Y-129641325D01*
X154175768Y-129634948D01*
X154175753Y-129634947D01*
X154169306Y-129634500D01*
X145049111Y-129634500D01*
X145042743Y-129634934D01*
X145042738Y-129634935D01*
X144952347Y-129641107D01*
X144952338Y-129641108D01*
X144939615Y-129641977D01*
X144927133Y-129644566D01*
X144927120Y-129644568D01*
X144841118Y-129662409D01*
X144832152Y-129664269D01*
X144826016Y-129665984D01*
X144826000Y-129665989D01*
X144776008Y-129679971D01*
X144775997Y-129679974D01*
X144767822Y-129682261D01*
X144759891Y-129685278D01*
X144759876Y-129685284D01*
X144647030Y-129728227D01*
X144647027Y-129728228D01*
X144631135Y-129734276D01*
X144616600Y-129743096D01*
X144611712Y-129745485D01*
X144516920Y-129776960D01*
X144417178Y-129782224D01*
X144319602Y-129760901D01*
X144253539Y-129736856D01*
X144243910Y-129734276D01*
X144197460Y-129721829D01*
X144197444Y-129721825D01*
X144191539Y-129720243D01*
X144185541Y-129719050D01*
X144185524Y-129719046D01*
X144106619Y-129703352D01*
X144106618Y-129703351D01*
X144094613Y-129700964D01*
X144082402Y-129700163D01*
X144082398Y-129700163D01*
X144002119Y-129694901D01*
X144002116Y-129694900D01*
X143996000Y-129694500D01*
X143124627Y-129694500D01*
X143118515Y-129694901D01*
X143118512Y-129694902D01*
X143037957Y-129700199D01*
X143037954Y-129700199D01*
X143025702Y-129701005D01*
X143013664Y-129703407D01*
X143013659Y-129703408D01*
X142934495Y-129719206D01*
X142934476Y-129719210D01*
X142928480Y-129720407D01*
X142922563Y-129721997D01*
X142922549Y-129722001D01*
X142874199Y-129735000D01*
X142866299Y-129737124D01*
X142858631Y-129739924D01*
X142858617Y-129739929D01*
X142757587Y-129776829D01*
X142757583Y-129776830D01*
X142742198Y-129782450D01*
X142728029Y-129790662D01*
X142728021Y-129790666D01*
X142642067Y-129840485D01*
X142642061Y-129840488D01*
X142627891Y-129848702D01*
X142615370Y-129859256D01*
X142615365Y-129859260D01*
X142531695Y-129929790D01*
X142440950Y-129986301D01*
X142337924Y-130014831D01*
X142231036Y-130013050D01*
X142129018Y-129981102D01*
X142041092Y-129922193D01*
X142037744Y-129918897D01*
X141965480Y-129859260D01*
X141948520Y-129845263D01*
X141948516Y-129845260D01*
X141935892Y-129834842D01*
X141921643Y-129826779D01*
X141921640Y-129826777D01*
X141846797Y-129784427D01*
X141820960Y-129769807D01*
X141805529Y-129764350D01*
X141805523Y-129764347D01*
X141704163Y-129728501D01*
X141704152Y-129728497D01*
X141696459Y-129725777D01*
X141688552Y-129723737D01*
X141688540Y-129723734D01*
X141640080Y-129711236D01*
X141640078Y-129711235D01*
X141634136Y-129709703D01*
X141588247Y-129701031D01*
X141548815Y-129693579D01*
X141548811Y-129693578D01*
X141536749Y-129691299D01*
X141524501Y-129690618D01*
X141524488Y-129690617D01*
X141443933Y-129686143D01*
X141443925Y-129686142D01*
X141437790Y-129685802D01*
X141431656Y-129685864D01*
X141431646Y-129685864D01*
X140582928Y-129694476D01*
X140582917Y-129694476D01*
X140576850Y-129694538D01*
X140570807Y-129694994D01*
X140570788Y-129694995D01*
X140490835Y-129701031D01*
X140490823Y-129701032D01*
X140478672Y-129701950D01*
X140466731Y-129704442D01*
X140466726Y-129704443D01*
X140388259Y-129720821D01*
X140388254Y-129720822D01*
X140382290Y-129722067D01*
X140376441Y-129723691D01*
X140376420Y-129723697D01*
X140328501Y-129737009D01*
X140328479Y-129737016D01*
X140320672Y-129739185D01*
X140313082Y-129742023D01*
X140313057Y-129742032D01*
X140213021Y-129779449D01*
X140213016Y-129779451D01*
X140197788Y-129785147D01*
X140196432Y-129785944D01*
X140095767Y-129816256D01*
X139982243Y-129814862D01*
X139885717Y-129783194D01*
X139885168Y-129784427D01*
X139876660Y-129780633D01*
X139868331Y-129776409D01*
X139837196Y-129764347D01*
X139795633Y-129748245D01*
X139756364Y-129730363D01*
X139751403Y-129727748D01*
X139751402Y-129727747D01*
X139739934Y-129721703D01*
X139727734Y-129717298D01*
X139641109Y-129686021D01*
X139641096Y-129686017D01*
X139635020Y-129683823D01*
X139621482Y-129679971D01*
X139575970Y-129667021D01*
X139575949Y-129667016D01*
X139569743Y-129665250D01*
X139563424Y-129663917D01*
X139563404Y-129663912D01*
X139473280Y-129644900D01*
X139473268Y-129644898D01*
X139460591Y-129642224D01*
X139447661Y-129641326D01*
X139447650Y-129641325D01*
X139355768Y-129634948D01*
X139355753Y-129634947D01*
X139349306Y-129634500D01*
X139342833Y-129634500D01*
X129539850Y-129634500D01*
X129424407Y-129616237D01*
X129320239Y-129563233D01*
X129237519Y-129480663D01*
X129184324Y-129376592D01*
X129165851Y-129261183D01*
X129154091Y-122817315D01*
X129148225Y-119602889D01*
X129141116Y-119497570D01*
X129134507Y-119464723D01*
X129121507Y-119400106D01*
X129120296Y-119394086D01*
X129103510Y-119332013D01*
X129055074Y-119199951D01*
X128984403Y-119078328D01*
X128893651Y-118970854D01*
X128848034Y-118925534D01*
X128739971Y-118835487D01*
X128656782Y-118787872D01*
X128632084Y-118773736D01*
X128632082Y-118773735D01*
X128617890Y-118765612D01*
X128538935Y-118737237D01*
X128493215Y-118720806D01*
X128493210Y-118720804D01*
X128485515Y-118718039D01*
X128477608Y-118715956D01*
X128429266Y-118703221D01*
X128429254Y-118703218D01*
X128423335Y-118701659D01*
X128417320Y-118700489D01*
X128417317Y-118700489D01*
X128331742Y-118683853D01*
X128331730Y-118683851D01*
X128319711Y-118681515D01*
X128307482Y-118680769D01*
X128307475Y-118680769D01*
X128220464Y-118675467D01*
X128220435Y-118675466D01*
X128214343Y-118675095D01*
X128208236Y-118675123D01*
X128208208Y-118675123D01*
X122481292Y-118702137D01*
X122381999Y-118689201D01*
X122289696Y-118650383D01*
X122211003Y-118588468D01*
X111487146Y-107526777D01*
X111364827Y-107423466D01*
X111357154Y-107418196D01*
X111332063Y-107400963D01*
X111332048Y-107400954D01*
X111324394Y-107395697D01*
X111316250Y-107391224D01*
X111316242Y-107391219D01*
X111200392Y-107327590D01*
X111184066Y-107318623D01*
X111166292Y-107313063D01*
X111166285Y-107313060D01*
X111040147Y-107273602D01*
X111040132Y-107273598D01*
X111031267Y-107270825D01*
X111022158Y-107268944D01*
X110992343Y-107262787D01*
X110992332Y-107262785D01*
X110983231Y-107260906D01*
X110973986Y-107259940D01*
X110973971Y-107259938D01*
X110833250Y-107245240D01*
X110833240Y-107245239D01*
X110823978Y-107244272D01*
X110814674Y-107244229D01*
X110814657Y-107244229D01*
X104677753Y-107216502D01*
X104589324Y-107205486D01*
X104506010Y-107173863D01*
X104432544Y-107123427D01*
X102275101Y-105227266D01*
X102206427Y-105147067D01*
X102162904Y-105050872D01*
X102148000Y-104946345D01*
X102148000Y-98363002D01*
X104292000Y-98363002D01*
X104292001Y-98372508D01*
X104292967Y-98381967D01*
X104292968Y-98381981D01*
X104299213Y-98443112D01*
X104302501Y-98475297D01*
X104357686Y-98641834D01*
X104369121Y-98660374D01*
X104369122Y-98660375D01*
X104427010Y-98754228D01*
X104449788Y-98791156D01*
X104573844Y-98915212D01*
X104723166Y-99007314D01*
X104889703Y-99062499D01*
X104992491Y-99073000D01*
X107092508Y-99072999D01*
X107195297Y-99062499D01*
X107361834Y-99007314D01*
X107511156Y-98915212D01*
X107635212Y-98791156D01*
X107727314Y-98641834D01*
X107782499Y-98475297D01*
X107793000Y-98372509D01*
X107792999Y-96367492D01*
X107782499Y-96264703D01*
X107727314Y-96098166D01*
X107635212Y-95948844D01*
X107511156Y-95824788D01*
X107492613Y-95813350D01*
X107492611Y-95813349D01*
X107380375Y-95744122D01*
X107380374Y-95744121D01*
X107361834Y-95732686D01*
X107305196Y-95713918D01*
X107214685Y-95683925D01*
X107214680Y-95683923D01*
X107195297Y-95677501D01*
X107174977Y-95675425D01*
X107101980Y-95667967D01*
X107101968Y-95667966D01*
X107092509Y-95667000D01*
X107082992Y-95667000D01*
X105002016Y-95667000D01*
X105001996Y-95667000D01*
X104992492Y-95667001D01*
X104983033Y-95667967D01*
X104983018Y-95667968D01*
X104910021Y-95675425D01*
X104910016Y-95675425D01*
X104889703Y-95677501D01*
X104870314Y-95683925D01*
X104870313Y-95683926D01*
X104743846Y-95725833D01*
X104743843Y-95725834D01*
X104723166Y-95732686D01*
X104704628Y-95744119D01*
X104704624Y-95744122D01*
X104592388Y-95813349D01*
X104592382Y-95813353D01*
X104573844Y-95824788D01*
X104558441Y-95840190D01*
X104558437Y-95840194D01*
X104465194Y-95933437D01*
X104465190Y-95933441D01*
X104449788Y-95948844D01*
X104438353Y-95967382D01*
X104438349Y-95967388D01*
X104369122Y-96079624D01*
X104369119Y-96079628D01*
X104357686Y-96098166D01*
X104350834Y-96118843D01*
X104350833Y-96118846D01*
X104308925Y-96245314D01*
X104308923Y-96245321D01*
X104302501Y-96264703D01*
X104300425Y-96285020D01*
X104300425Y-96285022D01*
X104292967Y-96358019D01*
X104292966Y-96358032D01*
X104292000Y-96367491D01*
X104292000Y-96377006D01*
X104292000Y-96377007D01*
X104292000Y-98362983D01*
X104292000Y-98363002D01*
X102148000Y-98363002D01*
X102148000Y-95380134D01*
X102148000Y-95374000D01*
X102144937Y-95327266D01*
X102148480Y-95250000D01*
X102152500Y-95250000D01*
X102152500Y-87240000D01*
X102147253Y-87240087D01*
X102131367Y-87209290D01*
X102120056Y-87194556D01*
X102081932Y-87098224D01*
X102071698Y-86995129D01*
X102090141Y-86893182D01*
X102109056Y-86835703D01*
X102109059Y-86835690D01*
X102111380Y-86828639D01*
X102125213Y-86771725D01*
X102142283Y-86677285D01*
X102148000Y-86581486D01*
X102148000Y-85279500D01*
X102166305Y-85163928D01*
X102219428Y-85059668D01*
X102302168Y-84976928D01*
X102406428Y-84923805D01*
X102522000Y-84905500D01*
X108281151Y-84905500D01*
X108281250Y-84905541D01*
X108281633Y-84905383D01*
X108281750Y-84905099D01*
X108281791Y-84905000D01*
X108281750Y-84904901D01*
X108281750Y-83245502D01*
X117670750Y-83245502D01*
X117670751Y-83255008D01*
X117671717Y-83264467D01*
X117671718Y-83264481D01*
X117679175Y-83337478D01*
X117681251Y-83357797D01*
X117736436Y-83524334D01*
X117747871Y-83542874D01*
X117747872Y-83542875D01*
X117805173Y-83635776D01*
X117828538Y-83673656D01*
X117952594Y-83797712D01*
X118101916Y-83889814D01*
X118268453Y-83944999D01*
X118371241Y-83955500D01*
X120471258Y-83955499D01*
X120574047Y-83944999D01*
X120740584Y-83889814D01*
X120866598Y-83812087D01*
X120951582Y-83773370D01*
X121043515Y-83756913D01*
X121136660Y-83763748D01*
X121225200Y-83793445D01*
X121319927Y-83839063D01*
X121570635Y-83916396D01*
X121830068Y-83955500D01*
X122078444Y-83955500D01*
X122092432Y-83955500D01*
X122351865Y-83916396D01*
X122602573Y-83839063D01*
X122838954Y-83725228D01*
X123055729Y-83577433D01*
X123248055Y-83398981D01*
X123411636Y-83193857D01*
X123542818Y-82966643D01*
X123638670Y-82722416D01*
X123697052Y-82466630D01*
X123716658Y-82205000D01*
X125285842Y-82205000D01*
X125305448Y-82466630D01*
X125308561Y-82480268D01*
X125360717Y-82708781D01*
X125360720Y-82708791D01*
X125363830Y-82722416D01*
X125459682Y-82966643D01*
X125466676Y-82978757D01*
X125466678Y-82978761D01*
X125583872Y-83181748D01*
X125583877Y-83181756D01*
X125590864Y-83193857D01*
X125599579Y-83204786D01*
X125599583Y-83204791D01*
X125705398Y-83337478D01*
X125754445Y-83398981D01*
X125946771Y-83577433D01*
X126163546Y-83725228D01*
X126399927Y-83839063D01*
X126650635Y-83916396D01*
X126910068Y-83955500D01*
X127158444Y-83955500D01*
X127172432Y-83955500D01*
X127431865Y-83916396D01*
X127682573Y-83839063D01*
X127918954Y-83725228D01*
X128100570Y-83601404D01*
X128201011Y-83553034D01*
X128311250Y-83536418D01*
X128421489Y-83553034D01*
X128521929Y-83601404D01*
X128703546Y-83725228D01*
X128939927Y-83839063D01*
X129190635Y-83916396D01*
X129450068Y-83955500D01*
X129698444Y-83955500D01*
X129712432Y-83955500D01*
X129971865Y-83916396D01*
X130222573Y-83839063D01*
X130458954Y-83725228D01*
X130675729Y-83577433D01*
X130868055Y-83398981D01*
X131031636Y-83193857D01*
X131162818Y-82966643D01*
X131258670Y-82722416D01*
X131317052Y-82466630D01*
X131336658Y-82205000D01*
X131317052Y-81943370D01*
X131258670Y-81687584D01*
X131162818Y-81443357D01*
X131104746Y-81342773D01*
X131038627Y-81228251D01*
X131038624Y-81228246D01*
X131031636Y-81216143D01*
X131013710Y-81193665D01*
X130876781Y-81021961D01*
X130876780Y-81021960D01*
X130868055Y-81011019D01*
X130675729Y-80832567D01*
X130458954Y-80684772D01*
X130446346Y-80678700D01*
X130446342Y-80678698D01*
X130235180Y-80577008D01*
X130235177Y-80577007D01*
X130222573Y-80570937D01*
X130209209Y-80566814D01*
X130209202Y-80566812D01*
X129985240Y-80497729D01*
X129985232Y-80497727D01*
X129971865Y-80493604D01*
X129958035Y-80491519D01*
X129958029Y-80491518D01*
X129726260Y-80456584D01*
X129726256Y-80456583D01*
X129712432Y-80454500D01*
X129450068Y-80454500D01*
X129436244Y-80456583D01*
X129436239Y-80456584D01*
X129204470Y-80491518D01*
X129204461Y-80491519D01*
X129190635Y-80493604D01*
X129177270Y-80497726D01*
X129177259Y-80497729D01*
X128953297Y-80566812D01*
X128953286Y-80566816D01*
X128939927Y-80570937D01*
X128927326Y-80577004D01*
X128927319Y-80577008D01*
X128716157Y-80678698D01*
X128716147Y-80678703D01*
X128703546Y-80684772D01*
X128691990Y-80692650D01*
X128691986Y-80692653D01*
X128521931Y-80808595D01*
X128421488Y-80856965D01*
X128311250Y-80873581D01*
X128201012Y-80856965D01*
X128100569Y-80808595D01*
X127930513Y-80692653D01*
X127918954Y-80684772D01*
X127906346Y-80678700D01*
X127906342Y-80678698D01*
X127695180Y-80577008D01*
X127695177Y-80577007D01*
X127682573Y-80570937D01*
X127669209Y-80566814D01*
X127669202Y-80566812D01*
X127445240Y-80497729D01*
X127445232Y-80497727D01*
X127431865Y-80493604D01*
X127418035Y-80491519D01*
X127418029Y-80491518D01*
X127186260Y-80456584D01*
X127186256Y-80456583D01*
X127172432Y-80454500D01*
X126910068Y-80454500D01*
X126896244Y-80456583D01*
X126896239Y-80456584D01*
X126664470Y-80491518D01*
X126664461Y-80491519D01*
X126650635Y-80493604D01*
X126637270Y-80497726D01*
X126637259Y-80497729D01*
X126413297Y-80566812D01*
X126413286Y-80566816D01*
X126399927Y-80570937D01*
X126387326Y-80577004D01*
X126387319Y-80577008D01*
X126176157Y-80678698D01*
X126176147Y-80678703D01*
X126163546Y-80684772D01*
X126151988Y-80692652D01*
X126151983Y-80692655D01*
X125958334Y-80824683D01*
X125958329Y-80824686D01*
X125946771Y-80832567D01*
X125936519Y-80842079D01*
X125936512Y-80842085D01*
X125818617Y-80951476D01*
X125754445Y-81011019D01*
X125745725Y-81021953D01*
X125745718Y-81021961D01*
X125599583Y-81205208D01*
X125599574Y-81205219D01*
X125590864Y-81216143D01*
X125583881Y-81228237D01*
X125583872Y-81228251D01*
X125466678Y-81431238D01*
X125466673Y-81431247D01*
X125459682Y-81443357D01*
X125454572Y-81456375D01*
X125454569Y-81456383D01*
X125368939Y-81674565D01*
X125368936Y-81674571D01*
X125363830Y-81687584D01*
X125360721Y-81701204D01*
X125360717Y-81701218D01*
X125328560Y-81842109D01*
X125305448Y-81943370D01*
X125304402Y-81957317D01*
X125304402Y-81957323D01*
X125291480Y-82129767D01*
X125285842Y-82205000D01*
X123716658Y-82205000D01*
X123697052Y-81943370D01*
X123638670Y-81687584D01*
X123542818Y-81443357D01*
X123484746Y-81342773D01*
X123418627Y-81228251D01*
X123418624Y-81228246D01*
X123411636Y-81216143D01*
X123393710Y-81193665D01*
X123256781Y-81021961D01*
X123256780Y-81021960D01*
X123248055Y-81011019D01*
X123055729Y-80832567D01*
X122838954Y-80684772D01*
X122826346Y-80678700D01*
X122826342Y-80678698D01*
X122615180Y-80577008D01*
X122615177Y-80577007D01*
X122602573Y-80570937D01*
X122589209Y-80566814D01*
X122589202Y-80566812D01*
X122365240Y-80497729D01*
X122365232Y-80497727D01*
X122351865Y-80493604D01*
X122338035Y-80491519D01*
X122338029Y-80491518D01*
X122106260Y-80456584D01*
X122106256Y-80456583D01*
X122092432Y-80454500D01*
X121830068Y-80454500D01*
X121816244Y-80456583D01*
X121816239Y-80456584D01*
X121584470Y-80491518D01*
X121584461Y-80491519D01*
X121570635Y-80493604D01*
X121557270Y-80497726D01*
X121557259Y-80497729D01*
X121333297Y-80566812D01*
X121333286Y-80566816D01*
X121319927Y-80570937D01*
X121307326Y-80577004D01*
X121307319Y-80577008D01*
X121225203Y-80616553D01*
X121136658Y-80646252D01*
X121043515Y-80653086D01*
X120951582Y-80636629D01*
X120866594Y-80597909D01*
X120759125Y-80531622D01*
X120759124Y-80531621D01*
X120740584Y-80520186D01*
X120688355Y-80502879D01*
X120593435Y-80471425D01*
X120593430Y-80471423D01*
X120574047Y-80465001D01*
X120553727Y-80462925D01*
X120480730Y-80455467D01*
X120480718Y-80455466D01*
X120471259Y-80454500D01*
X120461742Y-80454500D01*
X118380766Y-80454500D01*
X118380746Y-80454500D01*
X118371242Y-80454501D01*
X118361783Y-80455467D01*
X118361768Y-80455468D01*
X118288771Y-80462925D01*
X118288766Y-80462925D01*
X118268453Y-80465001D01*
X118249064Y-80471425D01*
X118249063Y-80471426D01*
X118122596Y-80513333D01*
X118122593Y-80513334D01*
X118101916Y-80520186D01*
X118083378Y-80531619D01*
X118083374Y-80531622D01*
X117971138Y-80600849D01*
X117971132Y-80600853D01*
X117952594Y-80612288D01*
X117937191Y-80627690D01*
X117937187Y-80627694D01*
X117843944Y-80720937D01*
X117843940Y-80720941D01*
X117828538Y-80736344D01*
X117817103Y-80754882D01*
X117817099Y-80754888D01*
X117747872Y-80867124D01*
X117747869Y-80867128D01*
X117736436Y-80885666D01*
X117729584Y-80906343D01*
X117729583Y-80906346D01*
X117687675Y-81032814D01*
X117687673Y-81032821D01*
X117681251Y-81052203D01*
X117679175Y-81072520D01*
X117679175Y-81072522D01*
X117671717Y-81145519D01*
X117671716Y-81145532D01*
X117670750Y-81154991D01*
X117670750Y-81164506D01*
X117670750Y-81164507D01*
X117670750Y-83245483D01*
X117670750Y-83245502D01*
X108281750Y-83245502D01*
X108281750Y-79980000D01*
X109525921Y-79980000D01*
X109526722Y-79992217D01*
X109526722Y-79992221D01*
X109527076Y-79997622D01*
X109527668Y-80034574D01*
X109527390Y-80042872D01*
X109527390Y-80042882D01*
X109526973Y-80055369D01*
X109528223Y-80067802D01*
X109528224Y-80067810D01*
X109537478Y-80159808D01*
X109538555Y-80172773D01*
X109544415Y-80262172D01*
X109544416Y-80262183D01*
X109545216Y-80274380D01*
X109547602Y-80286376D01*
X109549376Y-80295295D01*
X109554681Y-80330802D01*
X109555880Y-80342726D01*
X109555881Y-80342736D01*
X109557132Y-80355162D01*
X109560027Y-80367313D01*
X109560031Y-80367332D01*
X109580616Y-80453711D01*
X109583617Y-80467443D01*
X109600380Y-80551716D01*
X109600383Y-80551728D01*
X109602769Y-80563722D01*
X109606698Y-80575297D01*
X109606701Y-80575308D01*
X109610805Y-80587398D01*
X109620457Y-80620888D01*
X109626981Y-80648261D01*
X109662087Y-80739414D01*
X109667212Y-80753566D01*
X109687136Y-80812260D01*
X109697598Y-80843077D01*
X109703011Y-80854053D01*
X109710265Y-80868763D01*
X109723844Y-80899761D01*
X109730775Y-80917757D01*
X109730779Y-80917766D01*
X109735273Y-80929434D01*
X109741277Y-80940390D01*
X109741283Y-80940403D01*
X109780453Y-81011879D01*
X109787890Y-81026173D01*
X109828078Y-81107665D01*
X109834876Y-81117840D01*
X109834879Y-81117844D01*
X109846025Y-81134526D01*
X109863032Y-81162566D01*
X109874066Y-81182701D01*
X109874069Y-81182706D01*
X109880075Y-81193665D01*
X109887488Y-81203726D01*
X109887495Y-81203737D01*
X109933675Y-81266413D01*
X109943547Y-81280477D01*
X109980616Y-81335955D01*
X109991977Y-81352957D01*
X110000047Y-81362159D01*
X110000052Y-81362165D01*
X110015690Y-81379997D01*
X110035593Y-81404737D01*
X110051388Y-81426174D01*
X110051392Y-81426179D01*
X110058804Y-81436238D01*
X110067485Y-81445214D01*
X110067490Y-81445220D01*
X110119076Y-81498560D01*
X110131418Y-81511960D01*
X110173449Y-81559886D01*
X110186492Y-81574758D01*
X110195694Y-81582828D01*
X110195699Y-81582833D01*
X110216281Y-81600883D01*
X110238523Y-81622066D01*
X110268270Y-81652824D01*
X110278082Y-81660572D01*
X110278085Y-81660575D01*
X110333427Y-81704277D01*
X110348244Y-81716611D01*
X110399079Y-81761193D01*
X110399084Y-81761197D01*
X110408293Y-81769273D01*
X110444297Y-81793330D01*
X110468290Y-81810778D01*
X110504735Y-81839558D01*
X110553709Y-81868565D01*
X110573018Y-81880002D01*
X110590204Y-81890822D01*
X110653585Y-81933172D01*
X110695700Y-81953941D01*
X110720878Y-81967580D01*
X110763980Y-81993109D01*
X110833690Y-82022668D01*
X110853089Y-82031557D01*
X110907181Y-82058232D01*
X110907188Y-82058235D01*
X110918173Y-82063652D01*
X110966098Y-82079920D01*
X110991879Y-82089747D01*
X111029860Y-82105852D01*
X111041378Y-82110736D01*
X111110884Y-82129775D01*
X111132255Y-82136323D01*
X111197528Y-82158481D01*
X111250766Y-82169070D01*
X111276587Y-82175166D01*
X111331979Y-82190340D01*
X111396795Y-82199056D01*
X111399750Y-82199454D01*
X111422871Y-82203304D01*
X111474859Y-82213645D01*
X111474861Y-82213645D01*
X111486870Y-82216034D01*
X111544691Y-82219823D01*
X111570056Y-82222358D01*
X111607350Y-82227373D01*
X111630597Y-82230500D01*
X111695335Y-82230500D01*
X111719795Y-82231300D01*
X111781250Y-82235329D01*
X111853821Y-82230572D01*
X111855282Y-82230500D01*
X111856494Y-82230500D01*
X111930092Y-82225573D01*
X111930097Y-82225658D01*
X111930609Y-82225539D01*
X112075630Y-82216034D01*
X112077170Y-82215727D01*
X112081884Y-82215412D01*
X112224249Y-82186474D01*
X112225593Y-82186204D01*
X112327241Y-82165986D01*
X112355179Y-82160429D01*
X112355181Y-82160428D01*
X112364972Y-82158481D01*
X112369444Y-82156962D01*
X112377153Y-82155396D01*
X112510903Y-82108952D01*
X112513261Y-82108143D01*
X112632715Y-82067594D01*
X112632718Y-82067592D01*
X112644327Y-82063652D01*
X112651380Y-82060173D01*
X112661787Y-82056560D01*
X112785033Y-81994279D01*
X112787904Y-81992846D01*
X112908915Y-81933172D01*
X112916397Y-81928171D01*
X112919531Y-81926315D01*
X112930709Y-81920668D01*
X113041477Y-81844628D01*
X113045076Y-81842191D01*
X113154207Y-81769273D01*
X113162199Y-81762262D01*
X113164963Y-81760256D01*
X113168795Y-81757230D01*
X113179119Y-81750144D01*
X113223222Y-81710255D01*
X113275969Y-81662547D01*
X113280166Y-81658807D01*
X113376008Y-81574758D01*
X113384087Y-81565544D01*
X113385670Y-81563962D01*
X113389956Y-81559886D01*
X113393305Y-81556422D01*
X113402583Y-81548032D01*
X113484570Y-81451055D01*
X113488852Y-81446082D01*
X113570523Y-81352957D01*
X113577327Y-81342772D01*
X113583803Y-81334334D01*
X113586075Y-81331513D01*
X113589035Y-81327495D01*
X113597115Y-81317939D01*
X113663492Y-81213959D01*
X113667636Y-81207616D01*
X113734422Y-81107665D01*
X113739844Y-81096668D01*
X113745961Y-81086075D01*
X113746293Y-81086266D01*
X113746684Y-81085573D01*
X113746505Y-81085475D01*
X113752513Y-81074510D01*
X113759243Y-81063970D01*
X113809608Y-80955434D01*
X113813382Y-80947546D01*
X113864902Y-80843077D01*
X113868841Y-80831472D01*
X113873523Y-80820170D01*
X113873667Y-80820229D01*
X113876857Y-80812260D01*
X113880804Y-80802010D01*
X113886073Y-80790658D01*
X113920436Y-80679879D01*
X113923451Y-80670595D01*
X113959731Y-80563722D01*
X113962122Y-80551699D01*
X113964095Y-80544336D01*
X113971354Y-80515736D01*
X113975343Y-80502879D01*
X113994029Y-80392095D01*
X113995980Y-80381479D01*
X114017284Y-80274380D01*
X114018197Y-80260437D01*
X114022610Y-80222653D01*
X114025459Y-80205770D01*
X114029089Y-80097183D01*
X114029676Y-80085308D01*
X114036579Y-79980000D01*
X182525921Y-79980000D01*
X182526722Y-79992217D01*
X182526722Y-79992221D01*
X182527076Y-79997622D01*
X182527668Y-80034574D01*
X182527390Y-80042872D01*
X182527390Y-80042882D01*
X182526973Y-80055369D01*
X182528223Y-80067802D01*
X182528224Y-80067810D01*
X182537478Y-80159808D01*
X182538555Y-80172773D01*
X182544415Y-80262172D01*
X182544416Y-80262183D01*
X182545216Y-80274380D01*
X182547602Y-80286376D01*
X182549376Y-80295295D01*
X182554681Y-80330802D01*
X182555880Y-80342726D01*
X182555881Y-80342736D01*
X182557132Y-80355162D01*
X182560027Y-80367313D01*
X182560031Y-80367332D01*
X182580616Y-80453711D01*
X182583617Y-80467443D01*
X182600380Y-80551716D01*
X182600383Y-80551728D01*
X182602769Y-80563722D01*
X182606698Y-80575297D01*
X182606701Y-80575308D01*
X182610805Y-80587398D01*
X182620457Y-80620888D01*
X182626981Y-80648261D01*
X182662087Y-80739414D01*
X182667212Y-80753566D01*
X182687136Y-80812260D01*
X182697598Y-80843077D01*
X182703011Y-80854053D01*
X182710265Y-80868763D01*
X182723844Y-80899761D01*
X182730775Y-80917757D01*
X182730779Y-80917766D01*
X182735273Y-80929434D01*
X182741277Y-80940390D01*
X182741283Y-80940403D01*
X182780453Y-81011879D01*
X182787890Y-81026173D01*
X182828078Y-81107665D01*
X182834876Y-81117840D01*
X182834879Y-81117844D01*
X182846025Y-81134526D01*
X182863032Y-81162566D01*
X182874066Y-81182701D01*
X182874069Y-81182706D01*
X182880075Y-81193665D01*
X182887488Y-81203726D01*
X182887495Y-81203737D01*
X182933675Y-81266413D01*
X182943547Y-81280477D01*
X182980616Y-81335955D01*
X182991977Y-81352957D01*
X183000047Y-81362159D01*
X183000052Y-81362165D01*
X183015690Y-81379997D01*
X183035593Y-81404737D01*
X183051388Y-81426174D01*
X183051392Y-81426179D01*
X183058804Y-81436238D01*
X183067485Y-81445214D01*
X183067490Y-81445220D01*
X183119076Y-81498560D01*
X183131418Y-81511960D01*
X183173449Y-81559886D01*
X183186492Y-81574758D01*
X183195694Y-81582828D01*
X183195699Y-81582833D01*
X183216281Y-81600883D01*
X183238523Y-81622066D01*
X183268270Y-81652824D01*
X183278082Y-81660572D01*
X183278085Y-81660575D01*
X183333427Y-81704277D01*
X183348244Y-81716611D01*
X183399079Y-81761193D01*
X183399084Y-81761197D01*
X183408293Y-81769273D01*
X183444297Y-81793330D01*
X183468290Y-81810778D01*
X183504735Y-81839558D01*
X183553709Y-81868565D01*
X183573018Y-81880002D01*
X183590204Y-81890822D01*
X183653585Y-81933172D01*
X183695700Y-81953941D01*
X183720878Y-81967580D01*
X183763980Y-81993109D01*
X183833690Y-82022668D01*
X183853089Y-82031557D01*
X183907181Y-82058232D01*
X183907188Y-82058235D01*
X183918173Y-82063652D01*
X183966098Y-82079920D01*
X183991879Y-82089747D01*
X184029860Y-82105852D01*
X184041378Y-82110736D01*
X184110884Y-82129775D01*
X184132255Y-82136323D01*
X184197528Y-82158481D01*
X184250766Y-82169070D01*
X184276587Y-82175166D01*
X184331979Y-82190340D01*
X184396795Y-82199056D01*
X184399750Y-82199454D01*
X184422871Y-82203304D01*
X184474859Y-82213645D01*
X184474861Y-82213645D01*
X184486870Y-82216034D01*
X184544691Y-82219823D01*
X184570056Y-82222358D01*
X184607350Y-82227373D01*
X184630597Y-82230500D01*
X184695335Y-82230500D01*
X184719795Y-82231300D01*
X184781250Y-82235329D01*
X184853821Y-82230572D01*
X184855282Y-82230500D01*
X184856494Y-82230500D01*
X184930092Y-82225573D01*
X184930097Y-82225658D01*
X184930609Y-82225539D01*
X185075630Y-82216034D01*
X185077170Y-82215727D01*
X185081884Y-82215412D01*
X185224249Y-82186474D01*
X185225593Y-82186204D01*
X185327241Y-82165986D01*
X185355179Y-82160429D01*
X185355181Y-82160428D01*
X185364972Y-82158481D01*
X185369444Y-82156962D01*
X185377153Y-82155396D01*
X185510903Y-82108952D01*
X185513261Y-82108143D01*
X185632715Y-82067594D01*
X185632718Y-82067592D01*
X185644327Y-82063652D01*
X185651380Y-82060173D01*
X185661787Y-82056560D01*
X185785033Y-81994279D01*
X185787904Y-81992846D01*
X185908915Y-81933172D01*
X185916397Y-81928171D01*
X185919531Y-81926315D01*
X185930709Y-81920668D01*
X186041477Y-81844628D01*
X186045076Y-81842191D01*
X186154207Y-81769273D01*
X186162199Y-81762262D01*
X186164963Y-81760256D01*
X186168795Y-81757230D01*
X186179119Y-81750144D01*
X186223222Y-81710255D01*
X186275969Y-81662547D01*
X186280166Y-81658807D01*
X186376008Y-81574758D01*
X186384087Y-81565544D01*
X186385670Y-81563962D01*
X186389956Y-81559886D01*
X186393305Y-81556422D01*
X186402583Y-81548032D01*
X186484570Y-81451055D01*
X186488852Y-81446082D01*
X186570523Y-81352957D01*
X186577327Y-81342772D01*
X186583803Y-81334334D01*
X186586075Y-81331513D01*
X186589035Y-81327495D01*
X186597115Y-81317939D01*
X186663492Y-81213959D01*
X186667636Y-81207616D01*
X186734422Y-81107665D01*
X186739844Y-81096668D01*
X186745961Y-81086075D01*
X186746293Y-81086266D01*
X186746684Y-81085573D01*
X186746505Y-81085475D01*
X186752513Y-81074510D01*
X186759243Y-81063970D01*
X186809608Y-80955434D01*
X186813382Y-80947546D01*
X186864902Y-80843077D01*
X186868841Y-80831472D01*
X186873523Y-80820170D01*
X186873667Y-80820229D01*
X186876857Y-80812260D01*
X186880804Y-80802010D01*
X186886073Y-80790658D01*
X186920436Y-80679879D01*
X186923451Y-80670595D01*
X186959731Y-80563722D01*
X186962122Y-80551699D01*
X186964095Y-80544336D01*
X186971354Y-80515736D01*
X186975343Y-80502879D01*
X186994029Y-80392095D01*
X186995980Y-80381479D01*
X187017284Y-80274380D01*
X187018197Y-80260437D01*
X187022610Y-80222653D01*
X187025459Y-80205770D01*
X187029089Y-80097183D01*
X187029676Y-80085308D01*
X187036579Y-79980000D01*
X187035423Y-79962377D01*
X187034832Y-79925402D01*
X187035527Y-79904631D01*
X187025019Y-79800179D01*
X187023942Y-79787203D01*
X187018085Y-79697842D01*
X187017284Y-79685620D01*
X187013126Y-79664715D01*
X187007817Y-79629181D01*
X187006620Y-79617287D01*
X187005368Y-79604838D01*
X186981877Y-79506271D01*
X186978879Y-79492547D01*
X186962121Y-79408296D01*
X186959731Y-79396278D01*
X186951697Y-79372613D01*
X186942040Y-79339103D01*
X186935519Y-79311739D01*
X186900414Y-79220592D01*
X186895275Y-79206398D01*
X186864902Y-79116923D01*
X186852229Y-79091224D01*
X186838655Y-79060238D01*
X186831719Y-79042230D01*
X186827227Y-79030566D01*
X186782048Y-78948126D01*
X186774600Y-78933808D01*
X186739842Y-78863326D01*
X186739839Y-78863321D01*
X186734422Y-78852336D01*
X186716473Y-78825474D01*
X186699462Y-78797425D01*
X186688434Y-78777300D01*
X186688432Y-78777297D01*
X186682425Y-78766335D01*
X186628833Y-78693599D01*
X186618962Y-78679537D01*
X186584858Y-78628497D01*
X186570523Y-78607043D01*
X186562460Y-78597849D01*
X186562448Y-78597833D01*
X186546808Y-78580000D01*
X186526898Y-78555252D01*
X186503696Y-78523762D01*
X186443422Y-78461438D01*
X186431080Y-78448038D01*
X186385517Y-78396085D01*
X186376008Y-78385242D01*
X186346221Y-78359119D01*
X186323980Y-78337937D01*
X186294230Y-78307176D01*
X186229061Y-78255713D01*
X186214267Y-78243398D01*
X186154207Y-78190727D01*
X186144035Y-78183930D01*
X186144027Y-78183924D01*
X186118206Y-78166671D01*
X186094209Y-78149221D01*
X186067577Y-78128190D01*
X186067573Y-78128187D01*
X186057765Y-78120442D01*
X186047010Y-78114072D01*
X186047006Y-78114069D01*
X185989470Y-78079991D01*
X185972300Y-78069181D01*
X185908915Y-78026828D01*
X185897935Y-78021413D01*
X185897928Y-78021409D01*
X185866788Y-78006052D01*
X185841617Y-77992417D01*
X185798520Y-77966891D01*
X185787012Y-77962011D01*
X185787008Y-77962009D01*
X185728818Y-77937334D01*
X185709411Y-77928443D01*
X185655304Y-77901761D01*
X185655302Y-77901760D01*
X185644327Y-77896348D01*
X185632747Y-77892417D01*
X185632735Y-77892412D01*
X185596397Y-77880077D01*
X185570611Y-77870249D01*
X185532627Y-77854142D01*
X185532620Y-77854139D01*
X185521122Y-77849264D01*
X185509077Y-77845964D01*
X185509070Y-77845962D01*
X185464489Y-77833750D01*
X185451631Y-77830228D01*
X185430230Y-77823671D01*
X185376564Y-77805454D01*
X185364972Y-77801519D01*
X185352972Y-77799132D01*
X185352961Y-77799129D01*
X185311737Y-77790929D01*
X185285906Y-77784830D01*
X185242581Y-77772963D01*
X185242573Y-77772961D01*
X185230521Y-77769660D01*
X185218149Y-77767996D01*
X185218139Y-77767994D01*
X185168095Y-77761264D01*
X185162722Y-77760541D01*
X185139617Y-77756693D01*
X185087640Y-77746354D01*
X185087627Y-77746352D01*
X185075630Y-77743966D01*
X185063423Y-77743165D01*
X185063417Y-77743165D01*
X185017817Y-77740176D01*
X184992440Y-77737641D01*
X184944295Y-77731166D01*
X184944287Y-77731165D01*
X184931903Y-77729500D01*
X184919395Y-77729500D01*
X184867165Y-77729500D01*
X184842704Y-77728699D01*
X184793471Y-77725472D01*
X184781250Y-77724671D01*
X184769029Y-77725472D01*
X184769028Y-77725472D01*
X184708684Y-77729427D01*
X184707205Y-77729500D01*
X184706006Y-77729500D01*
X184702639Y-77729725D01*
X184702565Y-77729729D01*
X184632672Y-77734407D01*
X184632167Y-77734441D01*
X184495878Y-77743375D01*
X184495870Y-77743376D01*
X184486870Y-77743966D01*
X184485329Y-77744272D01*
X184480616Y-77744588D01*
X184468386Y-77747073D01*
X184468384Y-77747074D01*
X184421059Y-77756693D01*
X184341011Y-77772963D01*
X184338339Y-77773506D01*
X184336815Y-77773812D01*
X184207355Y-77799564D01*
X184207348Y-77799565D01*
X184197528Y-77801519D01*
X184193055Y-77803037D01*
X184185347Y-77804604D01*
X184173558Y-77808697D01*
X184173545Y-77808701D01*
X184051705Y-77851008D01*
X184049252Y-77851850D01*
X183929748Y-77892418D01*
X183929738Y-77892421D01*
X183918173Y-77896348D01*
X183911119Y-77899826D01*
X183900713Y-77903440D01*
X183889557Y-77909077D01*
X183889553Y-77909079D01*
X183777634Y-77965633D01*
X183774379Y-77967258D01*
X183664558Y-78021416D01*
X183664544Y-78021423D01*
X183653586Y-78026828D01*
X183646152Y-78031794D01*
X183642936Y-78033699D01*
X183631791Y-78039332D01*
X183621488Y-78046404D01*
X183621489Y-78046404D01*
X183521149Y-78115283D01*
X183517272Y-78117908D01*
X183418470Y-78183925D01*
X183418450Y-78183940D01*
X183408293Y-78190727D01*
X183400311Y-78197725D01*
X183397520Y-78199753D01*
X183393677Y-78202787D01*
X183383381Y-78209856D01*
X183374119Y-78218232D01*
X183374110Y-78218240D01*
X183286573Y-78297413D01*
X183282299Y-78301220D01*
X183195687Y-78377177D01*
X183195678Y-78377185D01*
X183186492Y-78385242D01*
X183178436Y-78394426D01*
X183176778Y-78396085D01*
X183172536Y-78400119D01*
X183169179Y-78403590D01*
X183159917Y-78411968D01*
X183151854Y-78421504D01*
X183151850Y-78421509D01*
X183078004Y-78508854D01*
X183073590Y-78513979D01*
X183000047Y-78597839D01*
X183000035Y-78597854D01*
X182991977Y-78607043D01*
X182985186Y-78617205D01*
X182978659Y-78625711D01*
X182976414Y-78628497D01*
X182973444Y-78632527D01*
X182965385Y-78642061D01*
X182958670Y-78652579D01*
X182958655Y-78652600D01*
X182899059Y-78745954D01*
X182894794Y-78752484D01*
X182834877Y-78842158D01*
X182834867Y-78842175D01*
X182828078Y-78852336D01*
X182822668Y-78863305D01*
X182816545Y-78873911D01*
X182816220Y-78873723D01*
X182815820Y-78874433D01*
X182815992Y-78874528D01*
X182809983Y-78885492D01*
X182803257Y-78896030D01*
X182797995Y-78907367D01*
X182797995Y-78907369D01*
X182752921Y-79004500D01*
X182749102Y-79012481D01*
X182703008Y-79105951D01*
X182703004Y-79105960D01*
X182697598Y-79116923D01*
X182693666Y-79128504D01*
X182688980Y-79139818D01*
X182688840Y-79139760D01*
X182685543Y-79147993D01*
X182681685Y-79158009D01*
X182676427Y-79169342D01*
X182672724Y-79181276D01*
X182672720Y-79181289D01*
X182642075Y-79280077D01*
X182639030Y-79289453D01*
X182602769Y-79396278D01*
X182600382Y-79408274D01*
X182598445Y-79415505D01*
X182591151Y-79444243D01*
X182590861Y-79445177D01*
X182590858Y-79445188D01*
X182587157Y-79457121D01*
X182585079Y-79469437D01*
X182585079Y-79469439D01*
X182568484Y-79567816D01*
X182566509Y-79578564D01*
X182547604Y-79673611D01*
X182547602Y-79673619D01*
X182545216Y-79685620D01*
X182544415Y-79697824D01*
X182544412Y-79697854D01*
X182544297Y-79699618D01*
X182539895Y-79737304D01*
X182539122Y-79741887D01*
X182539120Y-79741898D01*
X182537041Y-79754230D01*
X182536623Y-79766714D01*
X182536622Y-79766730D01*
X182533410Y-79862794D01*
X182532819Y-79874748D01*
X182525921Y-79980000D01*
X114036579Y-79980000D01*
X114035423Y-79962377D01*
X114034832Y-79925402D01*
X114035527Y-79904631D01*
X114025019Y-79800179D01*
X114023942Y-79787203D01*
X114018085Y-79697842D01*
X114017284Y-79685620D01*
X114013126Y-79664715D01*
X114007817Y-79629181D01*
X114006620Y-79617287D01*
X114005368Y-79604838D01*
X113981877Y-79506271D01*
X113978879Y-79492547D01*
X113962121Y-79408296D01*
X113959731Y-79396278D01*
X113951697Y-79372613D01*
X113942040Y-79339103D01*
X113935519Y-79311739D01*
X113900414Y-79220592D01*
X113895275Y-79206398D01*
X113864902Y-79116923D01*
X113852229Y-79091224D01*
X113838655Y-79060238D01*
X113831719Y-79042230D01*
X113827227Y-79030566D01*
X113782048Y-78948126D01*
X113774600Y-78933808D01*
X113739842Y-78863326D01*
X113739839Y-78863321D01*
X113734422Y-78852336D01*
X113716473Y-78825474D01*
X113699462Y-78797425D01*
X113688434Y-78777300D01*
X113688432Y-78777297D01*
X113682425Y-78766335D01*
X113628833Y-78693599D01*
X113618962Y-78679537D01*
X113584858Y-78628497D01*
X113570523Y-78607043D01*
X113562460Y-78597849D01*
X113562448Y-78597833D01*
X113546808Y-78580000D01*
X113526898Y-78555252D01*
X113503696Y-78523762D01*
X113443422Y-78461438D01*
X113431080Y-78448038D01*
X113385517Y-78396085D01*
X113376008Y-78385242D01*
X113346221Y-78359119D01*
X113323980Y-78337937D01*
X113294230Y-78307176D01*
X113229061Y-78255713D01*
X113214267Y-78243398D01*
X113154207Y-78190727D01*
X113144035Y-78183930D01*
X113144027Y-78183924D01*
X113118206Y-78166671D01*
X113094209Y-78149221D01*
X113067577Y-78128190D01*
X113067573Y-78128187D01*
X113057765Y-78120442D01*
X113047010Y-78114072D01*
X113047006Y-78114069D01*
X112989470Y-78079991D01*
X112972300Y-78069181D01*
X112908915Y-78026828D01*
X112897935Y-78021413D01*
X112897928Y-78021409D01*
X112866788Y-78006052D01*
X112841617Y-77992417D01*
X112798520Y-77966891D01*
X112787012Y-77962011D01*
X112787008Y-77962009D01*
X112728818Y-77937334D01*
X112709411Y-77928443D01*
X112655304Y-77901761D01*
X112655302Y-77901760D01*
X112644327Y-77896348D01*
X112632747Y-77892417D01*
X112632735Y-77892412D01*
X112596397Y-77880077D01*
X112570611Y-77870249D01*
X112532627Y-77854142D01*
X112532620Y-77854139D01*
X112521122Y-77849264D01*
X112509077Y-77845964D01*
X112509070Y-77845962D01*
X112464489Y-77833750D01*
X112451631Y-77830228D01*
X112430230Y-77823671D01*
X112376564Y-77805454D01*
X112364972Y-77801519D01*
X112352972Y-77799132D01*
X112352961Y-77799129D01*
X112311737Y-77790929D01*
X112285906Y-77784830D01*
X112242581Y-77772963D01*
X112242573Y-77772961D01*
X112230521Y-77769660D01*
X112218149Y-77767996D01*
X112218139Y-77767994D01*
X112168095Y-77761264D01*
X112162722Y-77760541D01*
X112139617Y-77756693D01*
X112087640Y-77746354D01*
X112087627Y-77746352D01*
X112075630Y-77743966D01*
X112063423Y-77743165D01*
X112063417Y-77743165D01*
X112017817Y-77740176D01*
X111992440Y-77737641D01*
X111944295Y-77731166D01*
X111944287Y-77731165D01*
X111931903Y-77729500D01*
X111919395Y-77729500D01*
X111867165Y-77729500D01*
X111842704Y-77728699D01*
X111793471Y-77725472D01*
X111781250Y-77724671D01*
X111769029Y-77725472D01*
X111769028Y-77725472D01*
X111708684Y-77729427D01*
X111707205Y-77729500D01*
X111706006Y-77729500D01*
X111702639Y-77729725D01*
X111702565Y-77729729D01*
X111632672Y-77734407D01*
X111632167Y-77734441D01*
X111495878Y-77743375D01*
X111495870Y-77743376D01*
X111486870Y-77743966D01*
X111485329Y-77744272D01*
X111480616Y-77744588D01*
X111468386Y-77747073D01*
X111468384Y-77747074D01*
X111421059Y-77756693D01*
X111341011Y-77772963D01*
X111338339Y-77773506D01*
X111336815Y-77773812D01*
X111207355Y-77799564D01*
X111207348Y-77799565D01*
X111197528Y-77801519D01*
X111193055Y-77803037D01*
X111185347Y-77804604D01*
X111173558Y-77808697D01*
X111173545Y-77808701D01*
X111051705Y-77851008D01*
X111049252Y-77851850D01*
X110929748Y-77892418D01*
X110929738Y-77892421D01*
X110918173Y-77896348D01*
X110911119Y-77899826D01*
X110900713Y-77903440D01*
X110889557Y-77909077D01*
X110889553Y-77909079D01*
X110777634Y-77965633D01*
X110774379Y-77967258D01*
X110664558Y-78021416D01*
X110664544Y-78021423D01*
X110653586Y-78026828D01*
X110646152Y-78031794D01*
X110642936Y-78033699D01*
X110631791Y-78039332D01*
X110621488Y-78046404D01*
X110621489Y-78046404D01*
X110521149Y-78115283D01*
X110517272Y-78117908D01*
X110418470Y-78183925D01*
X110418450Y-78183940D01*
X110408293Y-78190727D01*
X110400311Y-78197725D01*
X110397520Y-78199753D01*
X110393677Y-78202787D01*
X110383381Y-78209856D01*
X110374119Y-78218232D01*
X110374110Y-78218240D01*
X110286573Y-78297413D01*
X110282299Y-78301220D01*
X110195687Y-78377177D01*
X110195678Y-78377185D01*
X110186492Y-78385242D01*
X110178436Y-78394426D01*
X110176778Y-78396085D01*
X110172536Y-78400119D01*
X110169179Y-78403590D01*
X110159917Y-78411968D01*
X110151854Y-78421504D01*
X110151850Y-78421509D01*
X110078004Y-78508854D01*
X110073590Y-78513979D01*
X110000047Y-78597839D01*
X110000035Y-78597854D01*
X109991977Y-78607043D01*
X109985186Y-78617205D01*
X109978659Y-78625711D01*
X109976414Y-78628497D01*
X109973444Y-78632527D01*
X109965385Y-78642061D01*
X109958670Y-78652579D01*
X109958655Y-78652600D01*
X109899059Y-78745954D01*
X109894794Y-78752484D01*
X109834877Y-78842158D01*
X109834867Y-78842175D01*
X109828078Y-78852336D01*
X109822668Y-78863305D01*
X109816545Y-78873911D01*
X109816220Y-78873723D01*
X109815820Y-78874433D01*
X109815992Y-78874528D01*
X109809983Y-78885492D01*
X109803257Y-78896030D01*
X109797995Y-78907367D01*
X109797995Y-78907369D01*
X109752921Y-79004500D01*
X109749102Y-79012481D01*
X109703008Y-79105951D01*
X109703004Y-79105960D01*
X109697598Y-79116923D01*
X109693666Y-79128504D01*
X109688980Y-79139818D01*
X109688840Y-79139760D01*
X109685543Y-79147993D01*
X109681685Y-79158009D01*
X109676427Y-79169342D01*
X109672724Y-79181276D01*
X109672720Y-79181289D01*
X109642075Y-79280077D01*
X109639030Y-79289453D01*
X109602769Y-79396278D01*
X109600382Y-79408274D01*
X109598445Y-79415505D01*
X109591151Y-79444243D01*
X109590861Y-79445177D01*
X109590858Y-79445188D01*
X109587157Y-79457121D01*
X109585079Y-79469437D01*
X109585079Y-79469439D01*
X109568484Y-79567816D01*
X109566509Y-79578564D01*
X109547604Y-79673611D01*
X109547602Y-79673619D01*
X109545216Y-79685620D01*
X109544415Y-79697824D01*
X109544412Y-79697854D01*
X109544297Y-79699618D01*
X109539895Y-79737304D01*
X109539122Y-79741887D01*
X109539120Y-79741898D01*
X109537041Y-79754230D01*
X109536623Y-79766714D01*
X109536622Y-79766730D01*
X109533410Y-79862794D01*
X109532819Y-79874748D01*
X109525921Y-79980000D01*
X108281750Y-79980000D01*
X108281750Y-71779500D01*
X108300055Y-71663928D01*
X108353178Y-71559668D01*
X108435918Y-71476928D01*
X108540178Y-71423805D01*
X108655750Y-71405500D01*
X187906750Y-71405500D01*
X188022322Y-71423805D01*
G37*
%TD.AperFunction*%
%TD*%
%TA.AperFunction,Conductor*%
%TO.N,Net-(U5-OUT2)*%
G36*
X144058000Y-130466613D02*
G01*
X144103387Y-130512000D01*
X144120000Y-130574000D01*
X144120000Y-132480000D01*
X144125439Y-132487770D01*
X147037607Y-136648011D01*
X147054275Y-136681806D01*
X147060022Y-136719048D01*
X147063247Y-142255763D01*
X147046423Y-142318199D01*
X147000455Y-142363676D01*
X146937841Y-142379827D01*
X143286580Y-142338429D01*
X142775914Y-142332639D01*
X142714511Y-142315563D01*
X142669700Y-142270242D01*
X142653321Y-142208648D01*
X142653321Y-137295799D01*
X142653653Y-137286725D01*
X143010000Y-132430000D01*
X143000629Y-130574624D01*
X143017032Y-130512362D01*
X143062446Y-130466717D01*
X143124627Y-130450000D01*
X143996000Y-130450000D01*
X144058000Y-130466613D01*
G37*
%TD.AperFunction*%
%TD*%
%TA.AperFunction,Conductor*%
%TO.N,Net-(U4-OUT1)*%
G36*
X156345779Y-130426204D02*
G01*
X156391647Y-130471868D01*
X156408258Y-130534422D01*
X156400010Y-132377642D01*
X156400010Y-132377656D01*
X156400000Y-132380000D01*
X156400168Y-132382354D01*
X156400169Y-132382358D01*
X156749682Y-137255566D01*
X156750000Y-137264437D01*
X156750000Y-142174305D01*
X156733106Y-142236790D01*
X156687026Y-142282249D01*
X156624317Y-142298293D01*
X155051289Y-142276940D01*
X152452373Y-142241661D01*
X152391070Y-142224484D01*
X152346371Y-142179153D01*
X152330056Y-142117615D01*
X152332482Y-136818252D01*
X152338009Y-136781701D01*
X152354062Y-136748409D01*
X155288821Y-132448750D01*
X155288821Y-130541648D01*
X155305250Y-130479968D01*
X155350183Y-130434632D01*
X155411714Y-130417653D01*
X156154999Y-130411016D01*
X156283152Y-130409872D01*
X156345779Y-130426204D01*
G37*
%TD.AperFunction*%
%TD*%
%TA.AperFunction,Conductor*%
%TO.N,Net-(U4-OUT2)*%
G36*
X158616061Y-130407996D02*
G01*
X158817245Y-130410017D01*
X158878718Y-130427041D01*
X158923594Y-130472371D01*
X158940000Y-130534011D01*
X158940000Y-132440000D01*
X158945021Y-132447577D01*
X158945022Y-132447579D01*
X161821869Y-136788867D01*
X161837232Y-136821587D01*
X161842505Y-136857347D01*
X161843233Y-142196951D01*
X161826579Y-142259039D01*
X161781075Y-142304446D01*
X161718952Y-142320968D01*
X160717572Y-142318697D01*
X157556967Y-142311530D01*
X157495088Y-142294824D01*
X157449816Y-142249450D01*
X157433250Y-142187531D01*
X157433250Y-137276193D01*
X157433642Y-137266335D01*
X157471722Y-136788867D01*
X157823250Y-132381250D01*
X157820205Y-130525454D01*
X157836958Y-130463012D01*
X157882867Y-130417488D01*
X157945449Y-130401260D01*
X158616061Y-130407996D01*
G37*
%TD.AperFunction*%
%TD*%
D32*
X187281250Y-144905000D02*
X187281250Y-112405000D01*
X79281250Y-99905000D02*
X79281250Y-112405000D01*
X217281250Y-112405000D02*
X217281250Y-99905000D01*
X108281250Y-71405000D02*
X108281250Y-84905000D01*
X187281250Y-112405000D02*
X217281250Y-112405000D01*
X109281250Y-112405000D02*
X109281250Y-144905000D01*
X94281250Y-84905000D02*
X79281250Y-99905000D01*
X188281250Y-84905000D02*
X188281250Y-71405000D01*
X202281250Y-84905000D02*
X188281250Y-84905000D01*
X217281250Y-99905000D02*
X202281250Y-84905000D01*
X188281250Y-71405000D02*
X108281250Y-71405000D01*
X79281250Y-112405000D02*
X109281250Y-112405000D01*
X109281250Y-144905000D02*
X187281250Y-144905000D01*
X108281250Y-84905000D02*
X94281250Y-84905000D01*
M02*
