%TF.GenerationSoftware,KiCad,Pcbnew,(7.0.0)*%
%TF.CreationDate,2023-10-30T21:57:29-03:00*%
%TF.ProjectId,Main_Board_COYOTE_TB67H451AFNG,4d61696e-5f42-46f6-9172-645f434f594f,rev?*%
%TF.SameCoordinates,Original*%
%TF.FileFunction,Soldermask,Bot*%
%TF.FilePolarity,Negative*%
%FSLAX46Y46*%
G04 Gerber Fmt 4.6, Leading zero omitted, Abs format (unit mm)*
G04 Created by KiCad (PCBNEW (7.0.0)) date 2023-10-30 21:57:29*
%MOMM*%
%LPD*%
G01*
G04 APERTURE LIST*
%ADD10R,3.000000X2.000000*%
%ADD11C,0.700000*%
%ADD12R,3.500000X6.160000*%
%ADD13R,3.500000X6.180000*%
%ADD14C,3.000000*%
%ADD15C,2.000000*%
%ADD16R,2.000000X2.000000*%
%ADD17O,2.000000X2.000000*%
%ADD18R,1.600000X1.600000*%
%ADD19C,1.600000*%
%ADD20R,3.500000X7.000000*%
%ADD21R,2.000000X1.905000*%
%ADD22O,2.000000X1.905000*%
%ADD23R,1.498600X1.300480*%
%ADD24R,1.600200X1.803400*%
%TA.AperFunction,Profile*%
%ADD25C,0.100000*%
%TD*%
G04 APERTURE END LIST*
D10*
%TO.C,SW1*%
X94042499Y-98238999D03*
X94042499Y-104238999D03*
X94042499Y-101238999D03*
%TD*%
D11*
%TO.C,J6*%
X138940000Y-136710000D03*
X138940000Y-137330000D03*
X138940000Y-137930000D03*
X138940000Y-138550000D03*
X139540000Y-136710000D03*
X139540000Y-137330000D03*
X139540000Y-137930000D03*
X139540000Y-138550000D03*
D12*
X139799999Y-139209999D03*
D11*
X140140000Y-136690000D03*
X140140000Y-137310000D03*
X140140000Y-137910000D03*
X140140000Y-138530000D03*
X140740000Y-136710000D03*
X140740000Y-137330000D03*
X140740000Y-137930000D03*
X140740000Y-138550000D03*
X144040000Y-136710000D03*
X144040000Y-137330000D03*
X144040000Y-137930000D03*
X144040000Y-138550000D03*
X144640000Y-136710000D03*
X144640000Y-137330000D03*
X144640000Y-137930000D03*
X144640000Y-138550000D03*
D13*
X144879999Y-139199999D03*
D11*
X145240000Y-136710000D03*
X145240000Y-137330000D03*
X145240000Y-137930000D03*
X145240000Y-138550000D03*
X145840000Y-136710000D03*
X145840000Y-137330000D03*
X145840000Y-137930000D03*
X145840000Y-138550000D03*
%TD*%
D14*
%TO.C,H1*%
X116382500Y-118410000D03*
%TD*%
D15*
%TO.C,EN1*%
X191972500Y-90131000D03*
X198472500Y-90131000D03*
X191972500Y-94631000D03*
X198472500Y-94631000D03*
%TD*%
D16*
%TO.C,J3*%
X166586249Y-82204999D03*
D17*
X169126249Y-82204999D03*
X171666249Y-82204999D03*
X174206249Y-82204999D03*
X176746249Y-82204999D03*
%TD*%
D15*
%TO.C,BOOT1*%
X202281250Y-94631000D03*
X208781250Y-94631000D03*
X202281250Y-99131000D03*
X208781250Y-99131000D03*
%TD*%
%TO.C,SW2*%
X114642500Y-97430000D03*
X114642500Y-90930000D03*
X119142500Y-97430000D03*
X119142500Y-90930000D03*
%TD*%
D18*
%TO.C,C11*%
X127504887Y-120329999D03*
D19*
X130004888Y-120330000D03*
%TD*%
D16*
%TO.C,J4*%
X119421249Y-82204999D03*
D17*
X121961249Y-82204999D03*
X124501249Y-82204999D03*
X127041249Y-82204999D03*
X129581249Y-82204999D03*
%TD*%
D14*
%TO.C,H2*%
X180178850Y-118410000D03*
%TD*%
D11*
%TO.C,J2*%
X98220000Y-91200000D03*
X98220000Y-91820000D03*
X98220000Y-92420000D03*
X98220000Y-93040000D03*
X98820000Y-91200000D03*
X98820000Y-91820000D03*
X98820000Y-92420000D03*
X98820000Y-93040000D03*
D20*
X99179999Y-90959999D03*
D11*
X99420000Y-91200000D03*
X99420000Y-91820000D03*
X99420000Y-92420000D03*
X99420000Y-93040000D03*
X100020000Y-91200000D03*
X100020000Y-91820000D03*
X100020000Y-92420000D03*
X100020000Y-93040000D03*
X103320000Y-91200000D03*
X103320000Y-91820000D03*
X103320000Y-92420000D03*
X103320000Y-93040000D03*
X103920000Y-91220000D03*
X103920000Y-91840000D03*
X103920000Y-92440000D03*
X103920000Y-93060000D03*
D20*
X104259999Y-90959999D03*
D11*
X104520000Y-91200000D03*
X104520000Y-91820000D03*
X104520000Y-92420000D03*
X104520000Y-93040000D03*
X105120000Y-91200000D03*
X105120000Y-91820000D03*
X105120000Y-92420000D03*
X105120000Y-93040000D03*
%TD*%
D14*
%TO.C,H5*%
X184781250Y-79980000D03*
%TD*%
D11*
%TO.C,U4*%
X158275000Y-129440000D03*
X158275000Y-128740000D03*
X158275000Y-128040000D03*
X158275000Y-127340000D03*
X157575000Y-129440000D03*
X157575000Y-128740000D03*
X157575000Y-128040000D03*
X157575000Y-127340000D03*
X156875000Y-129440000D03*
X156875000Y-128740000D03*
X156875000Y-128040000D03*
X156875000Y-127340000D03*
X156175000Y-129440000D03*
X156175000Y-128740000D03*
X156175000Y-128040000D03*
X156175000Y-127340000D03*
X155475000Y-129440000D03*
X155475000Y-128740000D03*
X155475000Y-128040000D03*
X155475000Y-127340000D03*
X154775000Y-129440000D03*
X154775000Y-128740000D03*
X154775000Y-128040000D03*
X154775000Y-127340000D03*
%TD*%
%TO.C,J5*%
X153683321Y-136710000D03*
X153683321Y-137330000D03*
X153683321Y-137930000D03*
X153683321Y-138550000D03*
X154283321Y-136710000D03*
X154283321Y-137330000D03*
X154283321Y-137930000D03*
X154283321Y-138550000D03*
D12*
X154543320Y-139209999D03*
D11*
X154883321Y-136690000D03*
X154883321Y-137310000D03*
X154883321Y-137910000D03*
X154883321Y-138530000D03*
X155483321Y-136710000D03*
X155483321Y-137330000D03*
X155483321Y-137930000D03*
X155483321Y-138550000D03*
X158783321Y-136710000D03*
X158783321Y-137330000D03*
X158783321Y-137930000D03*
X158783321Y-138550000D03*
X159383321Y-136710000D03*
X159383321Y-137330000D03*
X159383321Y-137930000D03*
X159383321Y-138550000D03*
D12*
X159623320Y-139209999D03*
D11*
X159983321Y-136710000D03*
X159983321Y-137330000D03*
X159983321Y-137930000D03*
X159983321Y-138550000D03*
X160583321Y-136710000D03*
X160583321Y-137330000D03*
X160583321Y-137930000D03*
X160583321Y-138550000D03*
%TD*%
D14*
%TO.C,H4*%
X116382500Y-141400000D03*
%TD*%
%TO.C,H3*%
X180178850Y-141400000D03*
%TD*%
D15*
%TO.C,BZ1*%
X168342500Y-98980000D03*
X175942500Y-98980000D03*
%TD*%
D18*
%TO.C,C12*%
X151169999Y-131269999D03*
D19*
X151170000Y-128770000D03*
%TD*%
D16*
%TO.C,J1*%
X206649999Y-102479999D03*
D17*
X206649999Y-105019999D03*
X206649999Y-107559999D03*
X206649999Y-110099999D03*
%TD*%
D21*
%TO.C,U2*%
X106042499Y-97369999D03*
D22*
X106042499Y-99909999D03*
X106042499Y-102449999D03*
%TD*%
D11*
%TO.C,U5*%
X143455000Y-129440000D03*
X143455000Y-128740000D03*
X143455000Y-128040000D03*
X143455000Y-127340000D03*
X142755000Y-129440000D03*
X142755000Y-128740000D03*
X142755000Y-128040000D03*
X142755000Y-127340000D03*
X142055000Y-129440000D03*
X142055000Y-128740000D03*
X142055000Y-128040000D03*
X142055000Y-127340000D03*
X141355000Y-129440000D03*
X141355000Y-128740000D03*
X141355000Y-128040000D03*
X141355000Y-127340000D03*
X140655000Y-129440000D03*
X140655000Y-128740000D03*
X140655000Y-128040000D03*
X140655000Y-127340000D03*
X139955000Y-129440000D03*
X139955000Y-128740000D03*
X139955000Y-128040000D03*
X139955000Y-127340000D03*
%TD*%
D18*
%TO.C,C1*%
X109359999Y-108849999D03*
D19*
X114360000Y-108850000D03*
%TD*%
D15*
%TO.C,SW3*%
X123192500Y-97430000D03*
X123192500Y-90930000D03*
X127692500Y-97430000D03*
X127692500Y-90930000D03*
%TD*%
D14*
%TO.C,H6*%
X111781250Y-79980000D03*
%TD*%
D23*
%TO.C,C7*%
X195222499Y-91422749D03*
X195222499Y-93327749D03*
%TD*%
%TO.C,C4*%
X205531249Y-95922749D03*
X205531249Y-97827749D03*
%TD*%
D24*
%TO.C,R8*%
X124898499Y-101779999D03*
X127692499Y-101779999D03*
%TD*%
%TO.C,R7*%
X121936499Y-101779999D03*
X119142499Y-101779999D03*
%TD*%
D25*
X187281250Y-144905000D02*
X187281250Y-112405000D01*
X79281250Y-99905000D02*
X79281250Y-112405000D01*
X217281250Y-112405000D02*
X217281250Y-99905000D01*
X108281250Y-71405000D02*
X108281250Y-84905000D01*
X187281250Y-112405000D02*
X217281250Y-112405000D01*
X109281250Y-112405000D02*
X109281250Y-144905000D01*
X94281250Y-84905000D02*
X79281250Y-99905000D01*
X188281250Y-84905000D02*
X188281250Y-71405000D01*
X202281250Y-84905000D02*
X188281250Y-84905000D01*
X217281250Y-99905000D02*
X202281250Y-84905000D01*
X188281250Y-71405000D02*
X108281250Y-71405000D01*
X79281250Y-112405000D02*
X109281250Y-112405000D01*
X109281250Y-144905000D02*
X187281250Y-144905000D01*
X108281250Y-84905000D02*
X94281250Y-84905000D01*
M02*
