%TF.GenerationSoftware,KiCad,Pcbnew,(7.0.0)*%
%TF.CreationDate,2023-10-30T21:57:29-03:00*%
%TF.ProjectId,Main_Board_COYOTE_TB67H451AFNG,4d61696e-5f42-46f6-9172-645f434f594f,rev?*%
%TF.SameCoordinates,Original*%
%TF.FileFunction,Paste,Bot*%
%TF.FilePolarity,Positive*%
%FSLAX46Y46*%
G04 Gerber Fmt 4.6, Leading zero omitted, Abs format (unit mm)*
G04 Created by KiCad (PCBNEW (7.0.0)) date 2023-10-30 21:57:29*
%MOMM*%
%LPD*%
G01*
G04 APERTURE LIST*
%ADD10R,3.500000X6.160000*%
%ADD11R,3.500000X6.180000*%
%ADD12R,3.500000X7.000000*%
%ADD13R,1.498600X1.300480*%
%ADD14R,1.600200X1.803400*%
%TA.AperFunction,Profile*%
%ADD15C,0.100000*%
%TD*%
G04 APERTURE END LIST*
D10*
%TO.C,J6*%
X139799999Y-139209999D03*
D11*
X144879999Y-139199999D03*
%TD*%
D12*
%TO.C,J2*%
X99179999Y-90959999D03*
X104259999Y-90959999D03*
%TD*%
D10*
%TO.C,J5*%
X154543320Y-139209999D03*
X159623320Y-139209999D03*
%TD*%
D13*
%TO.C,C7*%
X195222499Y-91422749D03*
X195222499Y-93327749D03*
%TD*%
%TO.C,C4*%
X205531249Y-95922749D03*
X205531249Y-97827749D03*
%TD*%
D14*
%TO.C,R8*%
X124898499Y-101779999D03*
X127692499Y-101779999D03*
%TD*%
%TO.C,R7*%
X121936499Y-101779999D03*
X119142499Y-101779999D03*
%TD*%
D15*
X187281250Y-144905000D02*
X187281250Y-112405000D01*
X79281250Y-99905000D02*
X79281250Y-112405000D01*
X217281250Y-112405000D02*
X217281250Y-99905000D01*
X108281250Y-71405000D02*
X108281250Y-84905000D01*
X187281250Y-112405000D02*
X217281250Y-112405000D01*
X109281250Y-112405000D02*
X109281250Y-144905000D01*
X94281250Y-84905000D02*
X79281250Y-99905000D01*
X188281250Y-84905000D02*
X188281250Y-71405000D01*
X202281250Y-84905000D02*
X188281250Y-84905000D01*
X217281250Y-99905000D02*
X202281250Y-84905000D01*
X188281250Y-71405000D02*
X108281250Y-71405000D01*
X79281250Y-112405000D02*
X109281250Y-112405000D01*
X109281250Y-144905000D02*
X187281250Y-144905000D01*
X108281250Y-84905000D02*
X94281250Y-84905000D01*
M02*
