%TF.GenerationSoftware,KiCad,Pcbnew,(7.0.0)*%
%TF.CreationDate,2023-10-30T21:57:29-03:00*%
%TF.ProjectId,Main_Board_COYOTE_TB67H451AFNG,4d61696e-5f42-46f6-9172-645f434f594f,rev?*%
%TF.SameCoordinates,Original*%
%TF.FileFunction,Soldermask,Top*%
%TF.FilePolarity,Negative*%
%FSLAX46Y46*%
G04 Gerber Fmt 4.6, Leading zero omitted, Abs format (unit mm)*
G04 Created by KiCad (PCBNEW (7.0.0)) date 2023-10-30 21:57:29*
%MOMM*%
%LPD*%
G01*
G04 APERTURE LIST*
G04 Aperture macros list*
%AMRoundRect*
0 Rectangle with rounded corners*
0 $1 Rounding radius*
0 $2 $3 $4 $5 $6 $7 $8 $9 X,Y pos of 4 corners*
0 Add a 4 corners polygon primitive as box body*
4,1,4,$2,$3,$4,$5,$6,$7,$8,$9,$2,$3,0*
0 Add four circle primitives for the rounded corners*
1,1,$1+$1,$2,$3*
1,1,$1+$1,$4,$5*
1,1,$1+$1,$6,$7*
1,1,$1+$1,$8,$9*
0 Add four rect primitives between the rounded corners*
20,1,$1+$1,$2,$3,$4,$5,0*
20,1,$1+$1,$4,$5,$6,$7,0*
20,1,$1+$1,$6,$7,$8,$9,0*
20,1,$1+$1,$8,$9,$2,$3,0*%
G04 Aperture macros list end*
%ADD10R,3.000000X2.000000*%
%ADD11C,0.700000*%
%ADD12R,3.500000X6.160000*%
%ADD13R,3.500000X6.180000*%
%ADD14R,1.198880X1.198880*%
%ADD15C,3.000000*%
%ADD16R,0.900000X1.500000*%
%ADD17R,1.500000X0.900000*%
%ADD18R,1.498600X1.300480*%
%ADD19RoundRect,0.250000X0.475000X-0.337500X0.475000X0.337500X-0.475000X0.337500X-0.475000X-0.337500X0*%
%ADD20R,1.500000X2.000000*%
%ADD21R,3.800000X2.000000*%
%ADD22RoundRect,0.250000X0.337500X0.475000X-0.337500X0.475000X-0.337500X-0.475000X0.337500X-0.475000X0*%
%ADD23C,2.000000*%
%ADD24R,2.000000X2.000000*%
%ADD25O,2.000000X2.000000*%
%ADD26R,1.803400X1.600200*%
%ADD27R,1.600000X1.600000*%
%ADD28C,1.600000*%
%ADD29RoundRect,0.250000X-0.475000X0.337500X-0.475000X-0.337500X0.475000X-0.337500X0.475000X0.337500X0*%
%ADD30R,1.600200X1.803400*%
%ADD31R,3.500000X7.000000*%
%ADD32R,0.711200X2.000000*%
%ADD33RoundRect,0.150000X0.150000X-0.587500X0.150000X0.587500X-0.150000X0.587500X-0.150000X-0.587500X0*%
%ADD34R,2.000000X1.905000*%
%ADD35O,2.000000X1.905000*%
%TA.AperFunction,Profile*%
%ADD36C,0.100000*%
%TD*%
G04 APERTURE END LIST*
%TO.C,G\u002A\u002A\u002A*%
G36*
X86179871Y-101984073D02*
G01*
X86172462Y-101991482D01*
X86165052Y-101984073D01*
X86172462Y-101976663D01*
X86179871Y-101984073D01*
G37*
G36*
X84297841Y-102295275D02*
G01*
X84290431Y-102302684D01*
X84283022Y-102295275D01*
X84290431Y-102287865D01*
X84297841Y-102295275D01*
G37*
G36*
X87024562Y-102354551D02*
G01*
X87017152Y-102361961D01*
X87009743Y-102354551D01*
X87017152Y-102347142D01*
X87024562Y-102354551D01*
G37*
G36*
X83334597Y-102858402D02*
G01*
X83327187Y-102865811D01*
X83319778Y-102858402D01*
X83327187Y-102850992D01*
X83334597Y-102858402D01*
G37*
G36*
X87558051Y-102962136D02*
G01*
X87550641Y-102969545D01*
X87543232Y-102962136D01*
X87550641Y-102954726D01*
X87558051Y-102962136D01*
G37*
G36*
X86698541Y-103347433D02*
G01*
X86691131Y-103354843D01*
X86683722Y-103347433D01*
X86691131Y-103340024D01*
X86698541Y-103347433D01*
G37*
G36*
X86372520Y-103762369D02*
G01*
X86365110Y-103769779D01*
X86357701Y-103762369D01*
X86365110Y-103754960D01*
X86372520Y-103762369D01*
G37*
G36*
X82993757Y-103836465D02*
G01*
X82986347Y-103843874D01*
X82978938Y-103836465D01*
X82986347Y-103829055D01*
X82993757Y-103836465D01*
G37*
G36*
X88210093Y-103910561D02*
G01*
X88202683Y-103917970D01*
X88195274Y-103910561D01*
X88202683Y-103903151D01*
X88210093Y-103910561D01*
G37*
G36*
X85883489Y-104444049D02*
G01*
X85876079Y-104451459D01*
X85868669Y-104444049D01*
X85876079Y-104436640D01*
X85883489Y-104444049D01*
G37*
G36*
X87750700Y-104473688D02*
G01*
X87743290Y-104481097D01*
X87735881Y-104473688D01*
X87743290Y-104466278D01*
X87750700Y-104473688D01*
G37*
G36*
X82638098Y-104473688D02*
G01*
X82630688Y-104481097D01*
X82623278Y-104473688D01*
X82630688Y-104466278D01*
X82638098Y-104473688D01*
G37*
G36*
X87721061Y-104518145D02*
G01*
X87713652Y-104525555D01*
X87706242Y-104518145D01*
X87713652Y-104510736D01*
X87721061Y-104518145D01*
G37*
G36*
X87676604Y-104577422D02*
G01*
X87669194Y-104584831D01*
X87661785Y-104577422D01*
X87669194Y-104570012D01*
X87676604Y-104577422D01*
G37*
G36*
X82400991Y-104977538D02*
G01*
X82393582Y-104984948D01*
X82386172Y-104977538D01*
X82393582Y-104970129D01*
X82400991Y-104977538D01*
G37*
G36*
X85438914Y-105021996D02*
G01*
X85431505Y-105029405D01*
X85424095Y-105021996D01*
X85431505Y-105014586D01*
X85438914Y-105021996D01*
G37*
G36*
X85350000Y-105155368D02*
G01*
X85342590Y-105162778D01*
X85335180Y-105155368D01*
X85342590Y-105147958D01*
X85350000Y-105155368D01*
G37*
G36*
X81953796Y-105346029D02*
G01*
X81951478Y-105350487D01*
X81933891Y-105352260D01*
X81931719Y-105350487D01*
X81933753Y-105341677D01*
X81941598Y-105340607D01*
X81953796Y-105346029D01*
G37*
G36*
X88625029Y-105481389D02*
G01*
X88617619Y-105488799D01*
X88610210Y-105481389D01*
X88617619Y-105473979D01*
X88625029Y-105481389D01*
G37*
G36*
X84905425Y-108311844D02*
G01*
X84898016Y-108319254D01*
X84890606Y-108311844D01*
X84898016Y-108304435D01*
X84905425Y-108311844D01*
G37*
G36*
X89437460Y-108902622D02*
G01*
X89435142Y-108907079D01*
X89417555Y-108908853D01*
X89415383Y-108907079D01*
X89417417Y-108898269D01*
X89425262Y-108897200D01*
X89437460Y-108902622D01*
G37*
G36*
X89188156Y-109082439D02*
G01*
X89180746Y-109089849D01*
X89173337Y-109082439D01*
X89180746Y-109075030D01*
X89188156Y-109082439D01*
G37*
G36*
X84533878Y-109585854D02*
G01*
X84534947Y-109593699D01*
X84529525Y-109605897D01*
X84525068Y-109603579D01*
X84523294Y-109585992D01*
X84525068Y-109583820D01*
X84533878Y-109585854D01*
G37*
G36*
X86430727Y-109689588D02*
G01*
X86431797Y-109697433D01*
X86426374Y-109709631D01*
X86421917Y-109707313D01*
X86420144Y-109689726D01*
X86421917Y-109687554D01*
X86430727Y-109689588D01*
G37*
G36*
X87851812Y-109717675D02*
G01*
X87849494Y-109722132D01*
X87831907Y-109723906D01*
X87829735Y-109722132D01*
X87831769Y-109713322D01*
X87839615Y-109712253D01*
X87851812Y-109717675D01*
G37*
G36*
X82504725Y-109734481D02*
G01*
X82497316Y-109741891D01*
X82489906Y-109734481D01*
X82497316Y-109727072D01*
X82504725Y-109734481D01*
G37*
G36*
X88165636Y-109853034D02*
G01*
X88158226Y-109860444D01*
X88150816Y-109853034D01*
X88158226Y-109845625D01*
X88165636Y-109853034D01*
G37*
G36*
X84653500Y-109853034D02*
G01*
X84646091Y-109860444D01*
X84638681Y-109853034D01*
X84646091Y-109845625D01*
X84653500Y-109853034D01*
G37*
G36*
X87853364Y-110045247D02*
G01*
X87854434Y-110053093D01*
X87849012Y-110065291D01*
X87844554Y-110062972D01*
X87842781Y-110045385D01*
X87844554Y-110043213D01*
X87853364Y-110045247D01*
G37*
%TD*%
D10*
%TO.C,SW1*%
X94042499Y-98238999D03*
X94042499Y-104238999D03*
X94042499Y-101238999D03*
%TD*%
D11*
%TO.C,J6*%
X138940000Y-136710000D03*
X138940000Y-137330000D03*
X138940000Y-137930000D03*
X138940000Y-138550000D03*
X139540000Y-136710000D03*
X139540000Y-137330000D03*
X139540000Y-137930000D03*
X139540000Y-138550000D03*
D12*
X139799999Y-139209999D03*
D11*
X140140000Y-136690000D03*
X140140000Y-137310000D03*
X140140000Y-137910000D03*
X140140000Y-138530000D03*
X140740000Y-136710000D03*
X140740000Y-137330000D03*
X140740000Y-137930000D03*
X140740000Y-138550000D03*
X144040000Y-136710000D03*
X144040000Y-137330000D03*
X144040000Y-137930000D03*
X144040000Y-138550000D03*
X144640000Y-136710000D03*
X144640000Y-137330000D03*
X144640000Y-137930000D03*
X144640000Y-138550000D03*
D13*
X144879999Y-139199999D03*
D11*
X145240000Y-136710000D03*
X145240000Y-137330000D03*
X145240000Y-137930000D03*
X145240000Y-138550000D03*
X145840000Y-136710000D03*
X145840000Y-137330000D03*
X145840000Y-137930000D03*
X145840000Y-138550000D03*
%TD*%
D14*
%TO.C,D1*%
X117522499Y-101110979D03*
X117522499Y-103209019D03*
%TD*%
D15*
%TO.C,H1*%
X116382500Y-118410000D03*
%TD*%
D14*
%TO.C,D3*%
X124822499Y-101110979D03*
X124822499Y-103209019D03*
%TD*%
D16*
%TO.C,U3*%
X152773749Y-95704999D03*
X151503749Y-95704999D03*
X150233749Y-95704999D03*
X148963749Y-95704999D03*
X147693749Y-95704999D03*
X146423749Y-95704999D03*
X145153749Y-95704999D03*
X143883749Y-95704999D03*
X142613749Y-95704999D03*
X141343749Y-95704999D03*
X140073749Y-95704999D03*
X138803749Y-95704999D03*
X137533749Y-95704999D03*
X136263749Y-95704999D03*
D17*
X135013749Y-98744999D03*
X135013749Y-100014999D03*
X135013749Y-101284999D03*
X135013749Y-102554999D03*
X135013749Y-103824999D03*
X135013749Y-105094999D03*
X135013749Y-106364999D03*
X135013749Y-107634999D03*
X135013749Y-108904999D03*
X135013749Y-110174999D03*
D16*
X136263749Y-113204999D03*
X137533749Y-113204999D03*
X138803749Y-113204999D03*
X140073749Y-113204999D03*
X141343749Y-113204999D03*
X142613749Y-113204999D03*
X143883749Y-113204999D03*
X145153749Y-113204999D03*
X146423749Y-113204999D03*
X147693749Y-113204999D03*
X148963749Y-113204999D03*
X150233749Y-113204999D03*
X151503749Y-113204999D03*
X152773749Y-113204999D03*
%TD*%
D14*
%TO.C,D4*%
X192469999Y-106875039D03*
X192469999Y-104776999D03*
%TD*%
D18*
%TO.C,C10*%
X137719999Y-131092499D03*
X137719999Y-129187499D03*
%TD*%
D19*
%TO.C,C6*%
X108642500Y-101985000D03*
X108642500Y-99910000D03*
%TD*%
D20*
%TO.C,U1*%
X179719999Y-106649999D03*
X182019999Y-106649999D03*
D21*
X182019999Y-100349999D03*
D20*
X184319999Y-106649999D03*
%TD*%
D22*
%TO.C,C8*%
X153578750Y-92926250D03*
X151503750Y-92926250D03*
%TD*%
D23*
%TO.C,EN1*%
X191972500Y-90131000D03*
X198472500Y-90131000D03*
X191972500Y-94631000D03*
X198472500Y-94631000D03*
%TD*%
D24*
%TO.C,J3*%
X166586249Y-82204999D03*
D25*
X169126249Y-82204999D03*
X171666249Y-82204999D03*
X174206249Y-82204999D03*
X176746249Y-82204999D03*
%TD*%
D23*
%TO.C,BOOT1*%
X202281250Y-94631000D03*
X208781250Y-94631000D03*
X202281250Y-99131000D03*
X208781250Y-99131000D03*
%TD*%
%TO.C,SW2*%
X114642500Y-97430000D03*
X114642500Y-90930000D03*
X119142500Y-97430000D03*
X119142500Y-90930000D03*
%TD*%
D26*
%TO.C,R2*%
X187482499Y-90932999D03*
X187482499Y-93726999D03*
%TD*%
D27*
%TO.C,C11*%
X127504887Y-120329999D03*
D28*
X130004888Y-120330000D03*
%TD*%
D29*
%TO.C,C3*%
X102880000Y-97777500D03*
X102880000Y-99852500D03*
%TD*%
D24*
%TO.C,J4*%
X119421249Y-82204999D03*
D25*
X121961249Y-82204999D03*
X124501249Y-82204999D03*
X127041249Y-82204999D03*
X129581249Y-82204999D03*
%TD*%
D15*
%TO.C,H2*%
X180178850Y-118410000D03*
%TD*%
D30*
%TO.C,R6*%
X171602999Y-111099999D03*
X174396999Y-111099999D03*
%TD*%
D11*
%TO.C,J2*%
X98220000Y-91200000D03*
X98220000Y-91820000D03*
X98220000Y-92420000D03*
X98220000Y-93040000D03*
X98820000Y-91200000D03*
X98820000Y-91820000D03*
X98820000Y-92420000D03*
X98820000Y-93040000D03*
D31*
X99179999Y-90959999D03*
D11*
X99420000Y-91200000D03*
X99420000Y-91820000D03*
X99420000Y-92420000D03*
X99420000Y-93040000D03*
X100020000Y-91200000D03*
X100020000Y-91820000D03*
X100020000Y-92420000D03*
X100020000Y-93040000D03*
X103320000Y-91200000D03*
X103320000Y-91820000D03*
X103320000Y-92420000D03*
X103320000Y-93040000D03*
X103920000Y-91220000D03*
X103920000Y-91840000D03*
X103920000Y-92440000D03*
X103920000Y-93060000D03*
D31*
X104259999Y-90959999D03*
D11*
X104520000Y-91200000D03*
X104520000Y-91820000D03*
X104520000Y-92420000D03*
X104520000Y-93040000D03*
X105120000Y-91200000D03*
X105120000Y-91820000D03*
X105120000Y-92420000D03*
X105120000Y-93040000D03*
%TD*%
D26*
%TO.C,R1*%
X198472499Y-99130999D03*
X198472499Y-101924999D03*
%TD*%
%TO.C,R3*%
X117522499Y-108777999D03*
X117522499Y-105983999D03*
%TD*%
D15*
%TO.C,H5*%
X184781250Y-79980000D03*
%TD*%
D32*
%TO.C,U4*%
X158379999Y-125439999D03*
D11*
X158275000Y-129440000D03*
X158275000Y-128740000D03*
X158275000Y-128040000D03*
X158275000Y-127340000D03*
X157575000Y-129440000D03*
X157575000Y-128740000D03*
X157575000Y-128040000D03*
X157575000Y-127340000D03*
X156875000Y-129440000D03*
X156875000Y-128740000D03*
X156875000Y-128040000D03*
X156875000Y-127340000D03*
X156175000Y-129440000D03*
X156175000Y-128740000D03*
X156175000Y-128040000D03*
X156175000Y-127340000D03*
X155475000Y-129440000D03*
X155475000Y-128740000D03*
X155475000Y-128040000D03*
X155475000Y-127340000D03*
X154775000Y-129440000D03*
X154775000Y-128740000D03*
X154775000Y-128040000D03*
X154775000Y-127340000D03*
D32*
X157109999Y-125439999D03*
X155839999Y-125439999D03*
X154569999Y-125439999D03*
X154569999Y-131439999D03*
X155839999Y-131439999D03*
X157109999Y-131439999D03*
X158379999Y-131439999D03*
%TD*%
D19*
%TO.C,C2*%
X179720000Y-111167500D03*
X179720000Y-109092500D03*
%TD*%
D11*
%TO.C,J5*%
X153683321Y-136710000D03*
X153683321Y-137330000D03*
X153683321Y-137930000D03*
X153683321Y-138550000D03*
X154283321Y-136710000D03*
X154283321Y-137330000D03*
X154283321Y-137930000D03*
X154283321Y-138550000D03*
D12*
X154543320Y-139209999D03*
D11*
X154883321Y-136690000D03*
X154883321Y-137310000D03*
X154883321Y-137910000D03*
X154883321Y-138530000D03*
X155483321Y-136710000D03*
X155483321Y-137330000D03*
X155483321Y-137930000D03*
X155483321Y-138550000D03*
X158783321Y-136710000D03*
X158783321Y-137330000D03*
X158783321Y-137930000D03*
X158783321Y-138550000D03*
X159383321Y-136710000D03*
X159383321Y-137330000D03*
X159383321Y-137930000D03*
X159383321Y-138550000D03*
D12*
X159623320Y-139209999D03*
D11*
X159983321Y-136710000D03*
X159983321Y-137330000D03*
X159983321Y-137930000D03*
X159983321Y-138550000D03*
X160583321Y-136710000D03*
X160583321Y-137330000D03*
X160583321Y-137930000D03*
X160583321Y-138550000D03*
%TD*%
D15*
%TO.C,H4*%
X116382500Y-141400000D03*
%TD*%
%TO.C,H3*%
X180178850Y-141400000D03*
%TD*%
D23*
%TO.C,BZ1*%
X168342500Y-98980000D03*
X175942500Y-98980000D03*
%TD*%
D33*
%TO.C,Q1*%
X171603000Y-108297500D03*
X173503000Y-108297500D03*
X172553000Y-106422500D03*
%TD*%
D27*
%TO.C,C12*%
X151169999Y-131269999D03*
D28*
X151170000Y-128770000D03*
%TD*%
D24*
%TO.C,J1*%
X206649999Y-102479999D03*
D25*
X206649999Y-105019999D03*
X206649999Y-107559999D03*
X206649999Y-110099999D03*
%TD*%
D18*
%TO.C,C9*%
X147169999Y-131082499D03*
X147169999Y-129177499D03*
%TD*%
D26*
%TO.C,R9*%
X189859999Y-101924999D03*
X189859999Y-104718999D03*
%TD*%
%TO.C,R4*%
X121172499Y-108777999D03*
X121172499Y-105983999D03*
%TD*%
D34*
%TO.C,U2*%
X106042499Y-97369999D03*
D35*
X106042499Y-99909999D03*
X106042499Y-102449999D03*
%TD*%
D14*
%TO.C,D2*%
X121172499Y-101110979D03*
X121172499Y-103209019D03*
%TD*%
D32*
%TO.C,U5*%
X143559999Y-125439999D03*
D11*
X143455000Y-129440000D03*
X143455000Y-128740000D03*
X143455000Y-128040000D03*
X143455000Y-127340000D03*
X142755000Y-129440000D03*
X142755000Y-128740000D03*
X142755000Y-128040000D03*
X142755000Y-127340000D03*
X142055000Y-129440000D03*
X142055000Y-128740000D03*
X142055000Y-128040000D03*
X142055000Y-127340000D03*
X141355000Y-129440000D03*
X141355000Y-128740000D03*
X141355000Y-128040000D03*
X141355000Y-127340000D03*
X140655000Y-129440000D03*
X140655000Y-128740000D03*
X140655000Y-128040000D03*
X140655000Y-127340000D03*
X139955000Y-129440000D03*
X139955000Y-128740000D03*
X139955000Y-128040000D03*
X139955000Y-127340000D03*
D32*
X142289999Y-125439999D03*
X141019999Y-125439999D03*
X139749999Y-125439999D03*
X139749999Y-131439999D03*
X141019999Y-131439999D03*
X142289999Y-131439999D03*
X143559999Y-131439999D03*
%TD*%
D26*
%TO.C,R5*%
X124762499Y-108777999D03*
X124762499Y-105983999D03*
%TD*%
D27*
%TO.C,C1*%
X109359999Y-108849999D03*
D28*
X114360000Y-108850000D03*
%TD*%
D23*
%TO.C,SW3*%
X123192500Y-97430000D03*
X123192500Y-90930000D03*
X127692500Y-97430000D03*
X127692500Y-90930000D03*
%TD*%
D15*
%TO.C,H6*%
X111781250Y-79980000D03*
%TD*%
D22*
%TO.C,C5*%
X181850000Y-97830000D03*
X179775000Y-97830000D03*
%TD*%
D36*
X187281250Y-144905000D02*
X187281250Y-112405000D01*
X79281250Y-99905000D02*
X79281250Y-112405000D01*
X217281250Y-112405000D02*
X217281250Y-99905000D01*
X108281250Y-71405000D02*
X108281250Y-84905000D01*
X187281250Y-112405000D02*
X217281250Y-112405000D01*
X109281250Y-112405000D02*
X109281250Y-144905000D01*
X94281250Y-84905000D02*
X79281250Y-99905000D01*
X188281250Y-84905000D02*
X188281250Y-71405000D01*
X202281250Y-84905000D02*
X188281250Y-84905000D01*
X217281250Y-99905000D02*
X202281250Y-84905000D01*
X188281250Y-71405000D02*
X108281250Y-71405000D01*
X79281250Y-112405000D02*
X109281250Y-112405000D01*
X109281250Y-144905000D02*
X187281250Y-144905000D01*
X108281250Y-84905000D02*
X94281250Y-84905000D01*
M02*
