%TF.GenerationSoftware,KiCad,Pcbnew,(7.0.0)*%
%TF.CreationDate,2023-10-30T21:57:29-03:00*%
%TF.ProjectId,Main_Board_COYOTE_TB67H451AFNG,4d61696e-5f42-46f6-9172-645f434f594f,rev?*%
%TF.SameCoordinates,Original*%
%TF.FileFunction,Legend,Bot*%
%TF.FilePolarity,Positive*%
%FSLAX46Y46*%
G04 Gerber Fmt 4.6, Leading zero omitted, Abs format (unit mm)*
G04 Created by KiCad (PCBNEW (7.0.0)) date 2023-10-30 21:57:29*
%MOMM*%
%LPD*%
G01*
G04 APERTURE LIST*
%ADD10C,0.200000*%
%ADD11C,0.254000*%
%ADD12C,0.150000*%
%ADD13C,0.127000*%
%TA.AperFunction,Profile*%
%ADD14C,0.100000*%
%TD*%
G04 APERTURE END LIST*
D10*
%TO.C,C7*%
X197622142Y-92233333D02*
X197669761Y-92185714D01*
X197669761Y-92185714D02*
X197717380Y-92042857D01*
X197717380Y-92042857D02*
X197717380Y-91947619D01*
X197717380Y-91947619D02*
X197669761Y-91804762D01*
X197669761Y-91804762D02*
X197574523Y-91709524D01*
X197574523Y-91709524D02*
X197479285Y-91661905D01*
X197479285Y-91661905D02*
X197288809Y-91614286D01*
X197288809Y-91614286D02*
X197145952Y-91614286D01*
X197145952Y-91614286D02*
X196955476Y-91661905D01*
X196955476Y-91661905D02*
X196860238Y-91709524D01*
X196860238Y-91709524D02*
X196765000Y-91804762D01*
X196765000Y-91804762D02*
X196717380Y-91947619D01*
X196717380Y-91947619D02*
X196717380Y-92042857D01*
X196717380Y-92042857D02*
X196765000Y-92185714D01*
X196765000Y-92185714D02*
X196812619Y-92233333D01*
X196717380Y-92566667D02*
X196717380Y-93233333D01*
X196717380Y-93233333D02*
X197717380Y-92804762D01*
%TO.C,C4*%
X207822142Y-96733333D02*
X207869761Y-96685714D01*
X207869761Y-96685714D02*
X207917380Y-96542857D01*
X207917380Y-96542857D02*
X207917380Y-96447619D01*
X207917380Y-96447619D02*
X207869761Y-96304762D01*
X207869761Y-96304762D02*
X207774523Y-96209524D01*
X207774523Y-96209524D02*
X207679285Y-96161905D01*
X207679285Y-96161905D02*
X207488809Y-96114286D01*
X207488809Y-96114286D02*
X207345952Y-96114286D01*
X207345952Y-96114286D02*
X207155476Y-96161905D01*
X207155476Y-96161905D02*
X207060238Y-96209524D01*
X207060238Y-96209524D02*
X206965000Y-96304762D01*
X206965000Y-96304762D02*
X206917380Y-96447619D01*
X206917380Y-96447619D02*
X206917380Y-96542857D01*
X206917380Y-96542857D02*
X206965000Y-96685714D01*
X206965000Y-96685714D02*
X207012619Y-96733333D01*
X207250714Y-97590476D02*
X207917380Y-97590476D01*
X206869761Y-97352381D02*
X207584047Y-97114286D01*
X207584047Y-97114286D02*
X207584047Y-97733333D01*
%TO.C,R8*%
X126466666Y-104417380D02*
X126799999Y-103941190D01*
X127038094Y-104417380D02*
X127038094Y-103417380D01*
X127038094Y-103417380D02*
X126657142Y-103417380D01*
X126657142Y-103417380D02*
X126561904Y-103465000D01*
X126561904Y-103465000D02*
X126514285Y-103512619D01*
X126514285Y-103512619D02*
X126466666Y-103607857D01*
X126466666Y-103607857D02*
X126466666Y-103750714D01*
X126466666Y-103750714D02*
X126514285Y-103845952D01*
X126514285Y-103845952D02*
X126561904Y-103893571D01*
X126561904Y-103893571D02*
X126657142Y-103941190D01*
X126657142Y-103941190D02*
X127038094Y-103941190D01*
X125895237Y-103845952D02*
X125990475Y-103798333D01*
X125990475Y-103798333D02*
X126038094Y-103750714D01*
X126038094Y-103750714D02*
X126085713Y-103655476D01*
X126085713Y-103655476D02*
X126085713Y-103607857D01*
X126085713Y-103607857D02*
X126038094Y-103512619D01*
X126038094Y-103512619D02*
X125990475Y-103465000D01*
X125990475Y-103465000D02*
X125895237Y-103417380D01*
X125895237Y-103417380D02*
X125704761Y-103417380D01*
X125704761Y-103417380D02*
X125609523Y-103465000D01*
X125609523Y-103465000D02*
X125561904Y-103512619D01*
X125561904Y-103512619D02*
X125514285Y-103607857D01*
X125514285Y-103607857D02*
X125514285Y-103655476D01*
X125514285Y-103655476D02*
X125561904Y-103750714D01*
X125561904Y-103750714D02*
X125609523Y-103798333D01*
X125609523Y-103798333D02*
X125704761Y-103845952D01*
X125704761Y-103845952D02*
X125895237Y-103845952D01*
X125895237Y-103845952D02*
X125990475Y-103893571D01*
X125990475Y-103893571D02*
X126038094Y-103941190D01*
X126038094Y-103941190D02*
X126085713Y-104036428D01*
X126085713Y-104036428D02*
X126085713Y-104226904D01*
X126085713Y-104226904D02*
X126038094Y-104322142D01*
X126038094Y-104322142D02*
X125990475Y-104369761D01*
X125990475Y-104369761D02*
X125895237Y-104417380D01*
X125895237Y-104417380D02*
X125704761Y-104417380D01*
X125704761Y-104417380D02*
X125609523Y-104369761D01*
X125609523Y-104369761D02*
X125561904Y-104322142D01*
X125561904Y-104322142D02*
X125514285Y-104226904D01*
X125514285Y-104226904D02*
X125514285Y-104036428D01*
X125514285Y-104036428D02*
X125561904Y-103941190D01*
X125561904Y-103941190D02*
X125609523Y-103893571D01*
X125609523Y-103893571D02*
X125704761Y-103845952D01*
%TO.C,R7*%
X120716666Y-104417380D02*
X121049999Y-103941190D01*
X121288094Y-104417380D02*
X121288094Y-103417380D01*
X121288094Y-103417380D02*
X120907142Y-103417380D01*
X120907142Y-103417380D02*
X120811904Y-103465000D01*
X120811904Y-103465000D02*
X120764285Y-103512619D01*
X120764285Y-103512619D02*
X120716666Y-103607857D01*
X120716666Y-103607857D02*
X120716666Y-103750714D01*
X120716666Y-103750714D02*
X120764285Y-103845952D01*
X120764285Y-103845952D02*
X120811904Y-103893571D01*
X120811904Y-103893571D02*
X120907142Y-103941190D01*
X120907142Y-103941190D02*
X121288094Y-103941190D01*
X120383332Y-103417380D02*
X119716666Y-103417380D01*
X119716666Y-103417380D02*
X120145237Y-104417380D01*
D11*
%TO.C,H1*%
X116382500Y-115410000D02*
X116382500Y-121410000D01*
X119382500Y-118410000D02*
X113382500Y-118410000D01*
X119382500Y-118410000D02*
G75*
G03*
X119382500Y-118410000I-3000000J0D01*
G01*
%TO.C,H2*%
X180178850Y-115410000D02*
X180178850Y-121410000D01*
X183178850Y-118410000D02*
X177178850Y-118410000D01*
X183178850Y-118410000D02*
G75*
G03*
X183178850Y-118410000I-3000000J0D01*
G01*
%TO.C,H5*%
X184781250Y-76980000D02*
X184781250Y-82980000D01*
X187781250Y-79980000D02*
X181781250Y-79980000D01*
X187781250Y-79980000D02*
G75*
G03*
X187781250Y-79980000I-3000000J0D01*
G01*
%TO.C,H4*%
X116382500Y-138400000D02*
X116382500Y-144400000D01*
X119382500Y-141400000D02*
X113382500Y-141400000D01*
X119382500Y-141400000D02*
G75*
G03*
X119382500Y-141400000I-3000000J0D01*
G01*
%TO.C,H3*%
X180178850Y-138400000D02*
X180178850Y-144400000D01*
X183178850Y-141400000D02*
X177178850Y-141400000D01*
X183178850Y-141400000D02*
G75*
G03*
X183178850Y-141400000I-3000000J0D01*
G01*
%TO.C,H6*%
X111781250Y-76980000D02*
X111781250Y-82980000D01*
X114781250Y-79980000D02*
X108781250Y-79980000D01*
X114781250Y-79980000D02*
G75*
G03*
X114781250Y-79980000I-3000000J0D01*
G01*
D12*
%TO.C,C7*%
X194222500Y-94375250D02*
X194222500Y-93375250D01*
X196222500Y-94375250D02*
X194222500Y-94375250D01*
X196222500Y-93375250D02*
X196222500Y-94375250D01*
D13*
X196222500Y-91375250D02*
X196222500Y-90375250D01*
X194222500Y-90375250D02*
X194222500Y-91375250D01*
X196222500Y-90375250D02*
X194222500Y-90375250D01*
D12*
%TO.C,C4*%
X204531250Y-98875250D02*
X204531250Y-97875250D01*
X206531250Y-98875250D02*
X204531250Y-98875250D01*
X206531250Y-97875250D02*
X206531250Y-98875250D01*
D13*
X206531250Y-95875250D02*
X206531250Y-94875250D01*
X204531250Y-94875250D02*
X204531250Y-95875250D01*
X206531250Y-94875250D02*
X204531250Y-94875250D01*
D12*
%TO.C,R8*%
X128795500Y-103030000D02*
X127795500Y-103030000D01*
X128795500Y-100530000D02*
X128795500Y-103030000D01*
X127795500Y-100530000D02*
X128795500Y-100530000D01*
X124795500Y-103030000D02*
X123795500Y-103030000D01*
X124795500Y-100530000D02*
X123795500Y-100530000D01*
X123795500Y-103030000D02*
X123795500Y-100530000D01*
%TO.C,R7*%
X118039500Y-100530000D02*
X119039500Y-100530000D01*
X118039500Y-103030000D02*
X118039500Y-100530000D01*
X119039500Y-103030000D02*
X118039500Y-103030000D01*
X122039500Y-100530000D02*
X123039500Y-100530000D01*
X122039500Y-103030000D02*
X123039500Y-103030000D01*
X123039500Y-100530000D02*
X123039500Y-103030000D01*
%TD*%
D14*
X187281250Y-144905000D02*
X187281250Y-112405000D01*
X79281250Y-99905000D02*
X79281250Y-112405000D01*
X217281250Y-112405000D02*
X217281250Y-99905000D01*
X108281250Y-71405000D02*
X108281250Y-84905000D01*
X187281250Y-112405000D02*
X217281250Y-112405000D01*
X109281250Y-112405000D02*
X109281250Y-144905000D01*
X94281250Y-84905000D02*
X79281250Y-99905000D01*
X188281250Y-84905000D02*
X188281250Y-71405000D01*
X202281250Y-84905000D02*
X188281250Y-84905000D01*
X217281250Y-99905000D02*
X202281250Y-84905000D01*
X188281250Y-71405000D02*
X108281250Y-71405000D01*
X79281250Y-112405000D02*
X109281250Y-112405000D01*
X109281250Y-144905000D02*
X187281250Y-144905000D01*
X108281250Y-84905000D02*
X94281250Y-84905000D01*
M02*
