%TF.GenerationSoftware,KiCad,Pcbnew,(7.0.0)*%
%TF.CreationDate,2023-10-30T21:57:32-03:00*%
%TF.ProjectId,Main_Board_COYOTE_TB67H451AFNG,4d61696e-5f42-46f6-9172-645f434f594f,rev?*%
%TF.SameCoordinates,Original*%
%TF.FileFunction,Plated,1,2,PTH,Drill*%
%TF.FilePolarity,Positive*%
%FSLAX46Y46*%
G04 Gerber Fmt 4.6, Leading zero omitted, Abs format (unit mm)*
G04 Created by KiCad (PCBNEW (7.0.0)) date 2023-10-30 21:57:32*
%MOMM*%
%LPD*%
G01*
G04 APERTURE LIST*
%TA.AperFunction,ViaDrill*%
%ADD10C,0.300000*%
%TD*%
%TA.AperFunction,ComponentDrill*%
%ADD11C,0.300000*%
%TD*%
%TA.AperFunction,ViaDrill*%
%ADD12C,0.400000*%
%TD*%
%TA.AperFunction,ComponentDrill*%
%ADD13C,0.400000*%
%TD*%
%TA.AperFunction,ComponentDrill*%
%ADD14C,0.800000*%
%TD*%
%TA.AperFunction,ComponentDrill*%
%ADD15C,1.000000*%
%TD*%
%TA.AperFunction,ComponentDrill*%
%ADD16C,1.100000*%
%TD*%
%TA.AperFunction,ComponentDrill*%
%ADD17C,1.300000*%
%TD*%
%TA.AperFunction,ComponentDrill*%
%ADD18C,3.000000*%
%TD*%
G04 APERTURE END LIST*
D10*
X132390000Y-102270000D03*
X132390000Y-107640000D03*
X132390000Y-113205000D03*
X138803750Y-116650000D03*
X139000002Y-122800000D03*
X140073750Y-115290000D03*
X142590000Y-120720000D03*
X147693750Y-120250000D03*
X148090000Y-90570000D03*
X149540000Y-120234500D03*
X150070000Y-90340000D03*
X153880000Y-122805000D03*
X171603000Y-113100000D03*
X185340000Y-90940000D03*
X189920000Y-96320000D03*
D11*
%TO.C,J2*%
X98220000Y-91200000D03*
X98220000Y-91820000D03*
X98220000Y-92420000D03*
X98220000Y-93040000D03*
X98820000Y-91200000D03*
X98820000Y-91820000D03*
X98820000Y-92420000D03*
X98820000Y-93040000D03*
X99420000Y-91200000D03*
X99420000Y-91820000D03*
X99420000Y-92420000D03*
X99420000Y-93040000D03*
X100020000Y-91200000D03*
X100020000Y-91820000D03*
X100020000Y-92420000D03*
X100020000Y-93040000D03*
X103320000Y-91200000D03*
X103320000Y-91820000D03*
X103320000Y-92420000D03*
X103320000Y-93040000D03*
X103920000Y-91220000D03*
X103920000Y-91840000D03*
X103920000Y-92440000D03*
X103920000Y-93060000D03*
X104520000Y-91200000D03*
X104520000Y-91820000D03*
X104520000Y-92420000D03*
X104520000Y-93040000D03*
X105120000Y-91200000D03*
X105120000Y-91820000D03*
X105120000Y-92420000D03*
X105120000Y-93040000D03*
%TO.C,J6*%
X138940000Y-136710000D03*
X138940000Y-137330000D03*
X138940000Y-137930000D03*
X138940000Y-138550000D03*
X139540000Y-136710000D03*
X139540000Y-137330000D03*
X139540000Y-137930000D03*
X139540000Y-138550000D03*
X140140000Y-136690000D03*
X140140000Y-137310000D03*
X140140000Y-137910000D03*
X140140000Y-138530000D03*
X140740000Y-136710000D03*
X140740000Y-137330000D03*
X140740000Y-137930000D03*
X140740000Y-138550000D03*
X144040000Y-136710000D03*
X144040000Y-137330000D03*
X144040000Y-137930000D03*
X144040000Y-138550000D03*
X144640000Y-136710000D03*
X144640000Y-137330000D03*
X144640000Y-137930000D03*
X144640000Y-138550000D03*
X145240000Y-136710000D03*
X145240000Y-137330000D03*
X145240000Y-137930000D03*
X145240000Y-138550000D03*
X145840000Y-136710000D03*
X145840000Y-137330000D03*
X145840000Y-137930000D03*
X145840000Y-138550000D03*
%TO.C,J5*%
X153683321Y-136710000D03*
X153683321Y-137330000D03*
X153683321Y-137930000D03*
X153683321Y-138550000D03*
X154283321Y-136710000D03*
X154283321Y-137330000D03*
X154283321Y-137930000D03*
X154283321Y-138550000D03*
X154883321Y-136690000D03*
X154883321Y-137310000D03*
X154883321Y-137910000D03*
X154883321Y-138530000D03*
X155483321Y-136710000D03*
X155483321Y-137330000D03*
X155483321Y-137930000D03*
X155483321Y-138550000D03*
X158783321Y-136710000D03*
X158783321Y-137330000D03*
X158783321Y-137930000D03*
X158783321Y-138550000D03*
X159383321Y-136710000D03*
X159383321Y-137330000D03*
X159383321Y-137930000D03*
X159383321Y-138550000D03*
X159983321Y-136710000D03*
X159983321Y-137330000D03*
X159983321Y-137930000D03*
X159983321Y-138550000D03*
X160583321Y-136710000D03*
X160583321Y-137330000D03*
X160583321Y-137930000D03*
X160583321Y-138550000D03*
%TD*%
D12*
X111940000Y-101990000D03*
D13*
%TO.C,U5*%
X139955000Y-127340000D03*
X139955000Y-128040000D03*
X139955000Y-128740000D03*
X139955000Y-129440000D03*
X140655000Y-127340000D03*
X140655000Y-128040000D03*
X140655000Y-128740000D03*
X140655000Y-129440000D03*
X141355000Y-127340000D03*
X141355000Y-128040000D03*
X141355000Y-128740000D03*
X141355000Y-129440000D03*
X142055000Y-127340000D03*
X142055000Y-128040000D03*
X142055000Y-128740000D03*
X142055000Y-129440000D03*
X142755000Y-127340000D03*
X142755000Y-128040000D03*
X142755000Y-128740000D03*
X142755000Y-129440000D03*
X143455000Y-127340000D03*
X143455000Y-128040000D03*
X143455000Y-128740000D03*
X143455000Y-129440000D03*
%TO.C,U4*%
X154775000Y-127340000D03*
X154775000Y-128040000D03*
X154775000Y-128740000D03*
X154775000Y-129440000D03*
X155475000Y-127340000D03*
X155475000Y-128040000D03*
X155475000Y-128740000D03*
X155475000Y-129440000D03*
X156175000Y-127340000D03*
X156175000Y-128040000D03*
X156175000Y-128740000D03*
X156175000Y-129440000D03*
X156875000Y-127340000D03*
X156875000Y-128040000D03*
X156875000Y-128740000D03*
X156875000Y-129440000D03*
X157575000Y-127340000D03*
X157575000Y-128040000D03*
X157575000Y-128740000D03*
X157575000Y-129440000D03*
X158275000Y-127340000D03*
X158275000Y-128040000D03*
X158275000Y-128740000D03*
X158275000Y-129440000D03*
D14*
%TO.C,C1*%
X109360000Y-108850000D03*
X114360000Y-108850000D03*
%TO.C,C11*%
X127504888Y-120330000D03*
X130004888Y-120330000D03*
%TO.C,C12*%
X151170000Y-128770000D03*
X151170000Y-131270000D03*
%TO.C,BZ1*%
X168342500Y-98980000D03*
X175942500Y-98980000D03*
D15*
%TO.C,J4*%
X119421250Y-82205000D03*
X121961250Y-82205000D03*
X124501250Y-82205000D03*
X127041250Y-82205000D03*
X129581250Y-82205000D03*
%TO.C,J3*%
X166586250Y-82205000D03*
X169126250Y-82205000D03*
X171666250Y-82205000D03*
X174206250Y-82205000D03*
X176746250Y-82205000D03*
%TO.C,J1*%
X206650000Y-102480000D03*
X206650000Y-105020000D03*
X206650000Y-107560000D03*
X206650000Y-110100000D03*
D16*
%TO.C,U2*%
X106042500Y-97370000D03*
X106042500Y-99910000D03*
X106042500Y-102450000D03*
%TO.C,SW2*%
X114642500Y-90930000D03*
X114642500Y-97430000D03*
X119142500Y-90930000D03*
X119142500Y-97430000D03*
%TO.C,SW3*%
X123192500Y-90930000D03*
X123192500Y-97430000D03*
X127692500Y-90930000D03*
X127692500Y-97430000D03*
%TO.C,EN1*%
X191972500Y-90131000D03*
X191972500Y-94631000D03*
X198472500Y-90131000D03*
X198472500Y-94631000D03*
%TO.C,BOOT1*%
X202281250Y-94631000D03*
X202281250Y-99131000D03*
X208781250Y-94631000D03*
X208781250Y-99131000D03*
D17*
%TO.C,SW1*%
X94042500Y-98239000D03*
X94042500Y-101239000D03*
X94042500Y-104239000D03*
%TO.C,J2*%
X99180000Y-89420000D03*
X104260000Y-89420000D03*
%TO.C,J6*%
X139800000Y-140330000D03*
X144880000Y-140330000D03*
%TO.C,J5*%
X154543321Y-140330000D03*
X159623321Y-140330000D03*
D18*
%TO.C,H6*%
X111781250Y-79980000D03*
%TO.C,H1*%
X116382500Y-118410000D03*
%TO.C,H4*%
X116382500Y-141400000D03*
%TO.C,H2*%
X180178850Y-118410000D03*
%TO.C,H3*%
X180178850Y-141400000D03*
%TO.C,H5*%
X184781250Y-79980000D03*
M02*
