%TF.GenerationSoftware,KiCad,Pcbnew,(7.0.0)*%
%TF.CreationDate,2023-10-30T21:48:48-03:00*%
%TF.ProjectId,QRE1113_Line_Sensors_x8,51524531-3131-4335-9f4c-696e655f5365,rev?*%
%TF.SameCoordinates,Original*%
%TF.FileFunction,Legend,Bot*%
%TF.FilePolarity,Positive*%
%FSLAX46Y46*%
G04 Gerber Fmt 4.6, Leading zero omitted, Abs format (unit mm)*
G04 Created by KiCad (PCBNEW (7.0.0)) date 2023-10-30 21:48:48*
%MOMM*%
%LPD*%
G01*
G04 APERTURE LIST*
%ADD10C,0.200000*%
%ADD11C,0.150000*%
%ADD12C,0.254000*%
%ADD13C,0.099060*%
%ADD14C,0.120000*%
%TA.AperFunction,Profile*%
%ADD15C,0.100000*%
%TD*%
G04 APERTURE END LIST*
D10*
%TO.C,R14*%
X149116207Y-66367380D02*
X149449540Y-65891190D01*
X149687635Y-66367380D02*
X149687635Y-65367380D01*
X149687635Y-65367380D02*
X149306683Y-65367380D01*
X149306683Y-65367380D02*
X149211445Y-65415000D01*
X149211445Y-65415000D02*
X149163826Y-65462619D01*
X149163826Y-65462619D02*
X149116207Y-65557857D01*
X149116207Y-65557857D02*
X149116207Y-65700714D01*
X149116207Y-65700714D02*
X149163826Y-65795952D01*
X149163826Y-65795952D02*
X149211445Y-65843571D01*
X149211445Y-65843571D02*
X149306683Y-65891190D01*
X149306683Y-65891190D02*
X149687635Y-65891190D01*
X148163826Y-66367380D02*
X148735254Y-66367380D01*
X148449540Y-66367380D02*
X148449540Y-65367380D01*
X148449540Y-65367380D02*
X148544778Y-65510238D01*
X148544778Y-65510238D02*
X148640016Y-65605476D01*
X148640016Y-65605476D02*
X148735254Y-65653095D01*
X147306683Y-65700714D02*
X147306683Y-66367380D01*
X147544778Y-65319761D02*
X147782873Y-66034047D01*
X147782873Y-66034047D02*
X147163826Y-66034047D01*
%TO.C,U8*%
X130284403Y-57867380D02*
X130284403Y-58676904D01*
X130284403Y-58676904D02*
X130236784Y-58772142D01*
X130236784Y-58772142D02*
X130189165Y-58819761D01*
X130189165Y-58819761D02*
X130093927Y-58867380D01*
X130093927Y-58867380D02*
X129903451Y-58867380D01*
X129903451Y-58867380D02*
X129808213Y-58819761D01*
X129808213Y-58819761D02*
X129760594Y-58772142D01*
X129760594Y-58772142D02*
X129712975Y-58676904D01*
X129712975Y-58676904D02*
X129712975Y-57867380D01*
X129093927Y-58295952D02*
X129189165Y-58248333D01*
X129189165Y-58248333D02*
X129236784Y-58200714D01*
X129236784Y-58200714D02*
X129284403Y-58105476D01*
X129284403Y-58105476D02*
X129284403Y-58057857D01*
X129284403Y-58057857D02*
X129236784Y-57962619D01*
X129236784Y-57962619D02*
X129189165Y-57915000D01*
X129189165Y-57915000D02*
X129093927Y-57867380D01*
X129093927Y-57867380D02*
X128903451Y-57867380D01*
X128903451Y-57867380D02*
X128808213Y-57915000D01*
X128808213Y-57915000D02*
X128760594Y-57962619D01*
X128760594Y-57962619D02*
X128712975Y-58057857D01*
X128712975Y-58057857D02*
X128712975Y-58105476D01*
X128712975Y-58105476D02*
X128760594Y-58200714D01*
X128760594Y-58200714D02*
X128808213Y-58248333D01*
X128808213Y-58248333D02*
X128903451Y-58295952D01*
X128903451Y-58295952D02*
X129093927Y-58295952D01*
X129093927Y-58295952D02*
X129189165Y-58343571D01*
X129189165Y-58343571D02*
X129236784Y-58391190D01*
X129236784Y-58391190D02*
X129284403Y-58486428D01*
X129284403Y-58486428D02*
X129284403Y-58676904D01*
X129284403Y-58676904D02*
X129236784Y-58772142D01*
X129236784Y-58772142D02*
X129189165Y-58819761D01*
X129189165Y-58819761D02*
X129093927Y-58867380D01*
X129093927Y-58867380D02*
X128903451Y-58867380D01*
X128903451Y-58867380D02*
X128808213Y-58819761D01*
X128808213Y-58819761D02*
X128760594Y-58772142D01*
X128760594Y-58772142D02*
X128712975Y-58676904D01*
X128712975Y-58676904D02*
X128712975Y-58486428D01*
X128712975Y-58486428D02*
X128760594Y-58391190D01*
X128760594Y-58391190D02*
X128808213Y-58343571D01*
X128808213Y-58343571D02*
X128903451Y-58295952D01*
%TO.C,R16*%
X130532356Y-66367380D02*
X130865689Y-65891190D01*
X131103784Y-66367380D02*
X131103784Y-65367380D01*
X131103784Y-65367380D02*
X130722832Y-65367380D01*
X130722832Y-65367380D02*
X130627594Y-65415000D01*
X130627594Y-65415000D02*
X130579975Y-65462619D01*
X130579975Y-65462619D02*
X130532356Y-65557857D01*
X130532356Y-65557857D02*
X130532356Y-65700714D01*
X130532356Y-65700714D02*
X130579975Y-65795952D01*
X130579975Y-65795952D02*
X130627594Y-65843571D01*
X130627594Y-65843571D02*
X130722832Y-65891190D01*
X130722832Y-65891190D02*
X131103784Y-65891190D01*
X129579975Y-66367380D02*
X130151403Y-66367380D01*
X129865689Y-66367380D02*
X129865689Y-65367380D01*
X129865689Y-65367380D02*
X129960927Y-65510238D01*
X129960927Y-65510238D02*
X130056165Y-65605476D01*
X130056165Y-65605476D02*
X130151403Y-65653095D01*
X128722832Y-65367380D02*
X128913308Y-65367380D01*
X128913308Y-65367380D02*
X129008546Y-65415000D01*
X129008546Y-65415000D02*
X129056165Y-65462619D01*
X129056165Y-65462619D02*
X129151403Y-65605476D01*
X129151403Y-65605476D02*
X129199022Y-65795952D01*
X129199022Y-65795952D02*
X129199022Y-66176904D01*
X129199022Y-66176904D02*
X129151403Y-66272142D01*
X129151403Y-66272142D02*
X129103784Y-66319761D01*
X129103784Y-66319761D02*
X129008546Y-66367380D01*
X129008546Y-66367380D02*
X128818070Y-66367380D01*
X128818070Y-66367380D02*
X128722832Y-66319761D01*
X128722832Y-66319761D02*
X128675213Y-66272142D01*
X128675213Y-66272142D02*
X128627594Y-66176904D01*
X128627594Y-66176904D02*
X128627594Y-65938809D01*
X128627594Y-65938809D02*
X128675213Y-65843571D01*
X128675213Y-65843571D02*
X128722832Y-65795952D01*
X128722832Y-65795952D02*
X128818070Y-65748333D01*
X128818070Y-65748333D02*
X129008546Y-65748333D01*
X129008546Y-65748333D02*
X129103784Y-65795952D01*
X129103784Y-65795952D02*
X129151403Y-65843571D01*
X129151403Y-65843571D02*
X129199022Y-65938809D01*
%TO.C,U1*%
X195327874Y-57867380D02*
X195327874Y-58676904D01*
X195327874Y-58676904D02*
X195280255Y-58772142D01*
X195280255Y-58772142D02*
X195232636Y-58819761D01*
X195232636Y-58819761D02*
X195137398Y-58867380D01*
X195137398Y-58867380D02*
X194946922Y-58867380D01*
X194946922Y-58867380D02*
X194851684Y-58819761D01*
X194851684Y-58819761D02*
X194804065Y-58772142D01*
X194804065Y-58772142D02*
X194756446Y-58676904D01*
X194756446Y-58676904D02*
X194756446Y-57867380D01*
X193756446Y-58867380D02*
X194327874Y-58867380D01*
X194042160Y-58867380D02*
X194042160Y-57867380D01*
X194042160Y-57867380D02*
X194137398Y-58010238D01*
X194137398Y-58010238D02*
X194232636Y-58105476D01*
X194232636Y-58105476D02*
X194327874Y-58153095D01*
%TO.C,C1*%
X166682142Y-70473333D02*
X166729761Y-70425714D01*
X166729761Y-70425714D02*
X166777380Y-70282857D01*
X166777380Y-70282857D02*
X166777380Y-70187619D01*
X166777380Y-70187619D02*
X166729761Y-70044762D01*
X166729761Y-70044762D02*
X166634523Y-69949524D01*
X166634523Y-69949524D02*
X166539285Y-69901905D01*
X166539285Y-69901905D02*
X166348809Y-69854286D01*
X166348809Y-69854286D02*
X166205952Y-69854286D01*
X166205952Y-69854286D02*
X166015476Y-69901905D01*
X166015476Y-69901905D02*
X165920238Y-69949524D01*
X165920238Y-69949524D02*
X165825000Y-70044762D01*
X165825000Y-70044762D02*
X165777380Y-70187619D01*
X165777380Y-70187619D02*
X165777380Y-70282857D01*
X165777380Y-70282857D02*
X165825000Y-70425714D01*
X165825000Y-70425714D02*
X165872619Y-70473333D01*
X166777380Y-71425714D02*
X166777380Y-70854286D01*
X166777380Y-71140000D02*
X165777380Y-71140000D01*
X165777380Y-71140000D02*
X165920238Y-71044762D01*
X165920238Y-71044762D02*
X166015476Y-70949524D01*
X166015476Y-70949524D02*
X166063095Y-70854286D01*
%TO.C,R12*%
X123867380Y-62107142D02*
X123391190Y-61773809D01*
X123867380Y-61535714D02*
X122867380Y-61535714D01*
X122867380Y-61535714D02*
X122867380Y-61916666D01*
X122867380Y-61916666D02*
X122915000Y-62011904D01*
X122915000Y-62011904D02*
X122962619Y-62059523D01*
X122962619Y-62059523D02*
X123057857Y-62107142D01*
X123057857Y-62107142D02*
X123200714Y-62107142D01*
X123200714Y-62107142D02*
X123295952Y-62059523D01*
X123295952Y-62059523D02*
X123343571Y-62011904D01*
X123343571Y-62011904D02*
X123391190Y-61916666D01*
X123391190Y-61916666D02*
X123391190Y-61535714D01*
X123867380Y-63059523D02*
X123867380Y-62488095D01*
X123867380Y-62773809D02*
X122867380Y-62773809D01*
X122867380Y-62773809D02*
X123010238Y-62678571D01*
X123010238Y-62678571D02*
X123105476Y-62583333D01*
X123105476Y-62583333D02*
X123153095Y-62488095D01*
X122962619Y-63440476D02*
X122915000Y-63488095D01*
X122915000Y-63488095D02*
X122867380Y-63583333D01*
X122867380Y-63583333D02*
X122867380Y-63821428D01*
X122867380Y-63821428D02*
X122915000Y-63916666D01*
X122915000Y-63916666D02*
X122962619Y-63964285D01*
X122962619Y-63964285D02*
X123057857Y-64011904D01*
X123057857Y-64011904D02*
X123153095Y-64011904D01*
X123153095Y-64011904D02*
X123295952Y-63964285D01*
X123295952Y-63964285D02*
X123867380Y-63392857D01*
X123867380Y-63392857D02*
X123867380Y-64011904D01*
%TO.C,U6*%
X148868254Y-57867380D02*
X148868254Y-58676904D01*
X148868254Y-58676904D02*
X148820635Y-58772142D01*
X148820635Y-58772142D02*
X148773016Y-58819761D01*
X148773016Y-58819761D02*
X148677778Y-58867380D01*
X148677778Y-58867380D02*
X148487302Y-58867380D01*
X148487302Y-58867380D02*
X148392064Y-58819761D01*
X148392064Y-58819761D02*
X148344445Y-58772142D01*
X148344445Y-58772142D02*
X148296826Y-58676904D01*
X148296826Y-58676904D02*
X148296826Y-57867380D01*
X147392064Y-57867380D02*
X147582540Y-57867380D01*
X147582540Y-57867380D02*
X147677778Y-57915000D01*
X147677778Y-57915000D02*
X147725397Y-57962619D01*
X147725397Y-57962619D02*
X147820635Y-58105476D01*
X147820635Y-58105476D02*
X147868254Y-58295952D01*
X147868254Y-58295952D02*
X147868254Y-58676904D01*
X147868254Y-58676904D02*
X147820635Y-58772142D01*
X147820635Y-58772142D02*
X147773016Y-58819761D01*
X147773016Y-58819761D02*
X147677778Y-58867380D01*
X147677778Y-58867380D02*
X147487302Y-58867380D01*
X147487302Y-58867380D02*
X147392064Y-58819761D01*
X147392064Y-58819761D02*
X147344445Y-58772142D01*
X147344445Y-58772142D02*
X147296826Y-58676904D01*
X147296826Y-58676904D02*
X147296826Y-58438809D01*
X147296826Y-58438809D02*
X147344445Y-58343571D01*
X147344445Y-58343571D02*
X147392064Y-58295952D01*
X147392064Y-58295952D02*
X147487302Y-58248333D01*
X147487302Y-58248333D02*
X147677778Y-58248333D01*
X147677778Y-58248333D02*
X147773016Y-58295952D01*
X147773016Y-58295952D02*
X147820635Y-58343571D01*
X147820635Y-58343571D02*
X147868254Y-58438809D01*
%TO.C,R8*%
X167223864Y-66367380D02*
X167557197Y-65891190D01*
X167795292Y-66367380D02*
X167795292Y-65367380D01*
X167795292Y-65367380D02*
X167414340Y-65367380D01*
X167414340Y-65367380D02*
X167319102Y-65415000D01*
X167319102Y-65415000D02*
X167271483Y-65462619D01*
X167271483Y-65462619D02*
X167223864Y-65557857D01*
X167223864Y-65557857D02*
X167223864Y-65700714D01*
X167223864Y-65700714D02*
X167271483Y-65795952D01*
X167271483Y-65795952D02*
X167319102Y-65843571D01*
X167319102Y-65843571D02*
X167414340Y-65891190D01*
X167414340Y-65891190D02*
X167795292Y-65891190D01*
X166652435Y-65795952D02*
X166747673Y-65748333D01*
X166747673Y-65748333D02*
X166795292Y-65700714D01*
X166795292Y-65700714D02*
X166842911Y-65605476D01*
X166842911Y-65605476D02*
X166842911Y-65557857D01*
X166842911Y-65557857D02*
X166795292Y-65462619D01*
X166795292Y-65462619D02*
X166747673Y-65415000D01*
X166747673Y-65415000D02*
X166652435Y-65367380D01*
X166652435Y-65367380D02*
X166461959Y-65367380D01*
X166461959Y-65367380D02*
X166366721Y-65415000D01*
X166366721Y-65415000D02*
X166319102Y-65462619D01*
X166319102Y-65462619D02*
X166271483Y-65557857D01*
X166271483Y-65557857D02*
X166271483Y-65605476D01*
X166271483Y-65605476D02*
X166319102Y-65700714D01*
X166319102Y-65700714D02*
X166366721Y-65748333D01*
X166366721Y-65748333D02*
X166461959Y-65795952D01*
X166461959Y-65795952D02*
X166652435Y-65795952D01*
X166652435Y-65795952D02*
X166747673Y-65843571D01*
X166747673Y-65843571D02*
X166795292Y-65891190D01*
X166795292Y-65891190D02*
X166842911Y-65986428D01*
X166842911Y-65986428D02*
X166842911Y-66176904D01*
X166842911Y-66176904D02*
X166795292Y-66272142D01*
X166795292Y-66272142D02*
X166747673Y-66319761D01*
X166747673Y-66319761D02*
X166652435Y-66367380D01*
X166652435Y-66367380D02*
X166461959Y-66367380D01*
X166461959Y-66367380D02*
X166366721Y-66319761D01*
X166366721Y-66319761D02*
X166319102Y-66272142D01*
X166319102Y-66272142D02*
X166271483Y-66176904D01*
X166271483Y-66176904D02*
X166271483Y-65986428D01*
X166271483Y-65986428D02*
X166319102Y-65891190D01*
X166319102Y-65891190D02*
X166366721Y-65843571D01*
X166366721Y-65843571D02*
X166461959Y-65795952D01*
%TO.C,R2*%
X179578090Y-61833333D02*
X179101900Y-61500000D01*
X179578090Y-61261905D02*
X178578090Y-61261905D01*
X178578090Y-61261905D02*
X178578090Y-61642857D01*
X178578090Y-61642857D02*
X178625710Y-61738095D01*
X178625710Y-61738095D02*
X178673329Y-61785714D01*
X178673329Y-61785714D02*
X178768567Y-61833333D01*
X178768567Y-61833333D02*
X178911424Y-61833333D01*
X178911424Y-61833333D02*
X179006662Y-61785714D01*
X179006662Y-61785714D02*
X179054281Y-61738095D01*
X179054281Y-61738095D02*
X179101900Y-61642857D01*
X179101900Y-61642857D02*
X179101900Y-61261905D01*
X178673329Y-62214286D02*
X178625710Y-62261905D01*
X178625710Y-62261905D02*
X178578090Y-62357143D01*
X178578090Y-62357143D02*
X178578090Y-62595238D01*
X178578090Y-62595238D02*
X178625710Y-62690476D01*
X178625710Y-62690476D02*
X178673329Y-62738095D01*
X178673329Y-62738095D02*
X178768567Y-62785714D01*
X178768567Y-62785714D02*
X178863805Y-62785714D01*
X178863805Y-62785714D02*
X179006662Y-62738095D01*
X179006662Y-62738095D02*
X179578090Y-62166667D01*
X179578090Y-62166667D02*
X179578090Y-62785714D01*
%TO.C,R4*%
X160999520Y-61833333D02*
X160523330Y-61500000D01*
X160999520Y-61261905D02*
X159999520Y-61261905D01*
X159999520Y-61261905D02*
X159999520Y-61642857D01*
X159999520Y-61642857D02*
X160047140Y-61738095D01*
X160047140Y-61738095D02*
X160094759Y-61785714D01*
X160094759Y-61785714D02*
X160189997Y-61833333D01*
X160189997Y-61833333D02*
X160332854Y-61833333D01*
X160332854Y-61833333D02*
X160428092Y-61785714D01*
X160428092Y-61785714D02*
X160475711Y-61738095D01*
X160475711Y-61738095D02*
X160523330Y-61642857D01*
X160523330Y-61642857D02*
X160523330Y-61261905D01*
X160332854Y-62690476D02*
X160999520Y-62690476D01*
X159951901Y-62452381D02*
X160666187Y-62214286D01*
X160666187Y-62214286D02*
X160666187Y-62833333D01*
%TO.C,R6*%
X185807712Y-66367380D02*
X186141045Y-65891190D01*
X186379140Y-66367380D02*
X186379140Y-65367380D01*
X186379140Y-65367380D02*
X185998188Y-65367380D01*
X185998188Y-65367380D02*
X185902950Y-65415000D01*
X185902950Y-65415000D02*
X185855331Y-65462619D01*
X185855331Y-65462619D02*
X185807712Y-65557857D01*
X185807712Y-65557857D02*
X185807712Y-65700714D01*
X185807712Y-65700714D02*
X185855331Y-65795952D01*
X185855331Y-65795952D02*
X185902950Y-65843571D01*
X185902950Y-65843571D02*
X185998188Y-65891190D01*
X185998188Y-65891190D02*
X186379140Y-65891190D01*
X184950569Y-65367380D02*
X185141045Y-65367380D01*
X185141045Y-65367380D02*
X185236283Y-65415000D01*
X185236283Y-65415000D02*
X185283902Y-65462619D01*
X185283902Y-65462619D02*
X185379140Y-65605476D01*
X185379140Y-65605476D02*
X185426759Y-65795952D01*
X185426759Y-65795952D02*
X185426759Y-66176904D01*
X185426759Y-66176904D02*
X185379140Y-66272142D01*
X185379140Y-66272142D02*
X185331521Y-66319761D01*
X185331521Y-66319761D02*
X185236283Y-66367380D01*
X185236283Y-66367380D02*
X185045807Y-66367380D01*
X185045807Y-66367380D02*
X184950569Y-66319761D01*
X184950569Y-66319761D02*
X184902950Y-66272142D01*
X184902950Y-66272142D02*
X184855331Y-66176904D01*
X184855331Y-66176904D02*
X184855331Y-65938809D01*
X184855331Y-65938809D02*
X184902950Y-65843571D01*
X184902950Y-65843571D02*
X184950569Y-65795952D01*
X184950569Y-65795952D02*
X185045807Y-65748333D01*
X185045807Y-65748333D02*
X185236283Y-65748333D01*
X185236283Y-65748333D02*
X185331521Y-65795952D01*
X185331521Y-65795952D02*
X185379140Y-65843571D01*
X185379140Y-65843571D02*
X185426759Y-65938809D01*
%TO.C,U4*%
X167452102Y-57867380D02*
X167452102Y-58676904D01*
X167452102Y-58676904D02*
X167404483Y-58772142D01*
X167404483Y-58772142D02*
X167356864Y-58819761D01*
X167356864Y-58819761D02*
X167261626Y-58867380D01*
X167261626Y-58867380D02*
X167071150Y-58867380D01*
X167071150Y-58867380D02*
X166975912Y-58819761D01*
X166975912Y-58819761D02*
X166928293Y-58772142D01*
X166928293Y-58772142D02*
X166880674Y-58676904D01*
X166880674Y-58676904D02*
X166880674Y-57867380D01*
X165975912Y-58200714D02*
X165975912Y-58867380D01*
X166214007Y-57819761D02*
X166452102Y-58534047D01*
X166452102Y-58534047D02*
X165833055Y-58534047D01*
%TO.C,U7*%
X139576330Y-57867380D02*
X139576330Y-58676904D01*
X139576330Y-58676904D02*
X139528711Y-58772142D01*
X139528711Y-58772142D02*
X139481092Y-58819761D01*
X139481092Y-58819761D02*
X139385854Y-58867380D01*
X139385854Y-58867380D02*
X139195378Y-58867380D01*
X139195378Y-58867380D02*
X139100140Y-58819761D01*
X139100140Y-58819761D02*
X139052521Y-58772142D01*
X139052521Y-58772142D02*
X139004902Y-58676904D01*
X139004902Y-58676904D02*
X139004902Y-57867380D01*
X138623949Y-57867380D02*
X137957283Y-57867380D01*
X137957283Y-57867380D02*
X138385854Y-58867380D01*
%TO.C,R3*%
X170288805Y-61833333D02*
X169812615Y-61500000D01*
X170288805Y-61261905D02*
X169288805Y-61261905D01*
X169288805Y-61261905D02*
X169288805Y-61642857D01*
X169288805Y-61642857D02*
X169336425Y-61738095D01*
X169336425Y-61738095D02*
X169384044Y-61785714D01*
X169384044Y-61785714D02*
X169479282Y-61833333D01*
X169479282Y-61833333D02*
X169622139Y-61833333D01*
X169622139Y-61833333D02*
X169717377Y-61785714D01*
X169717377Y-61785714D02*
X169764996Y-61738095D01*
X169764996Y-61738095D02*
X169812615Y-61642857D01*
X169812615Y-61642857D02*
X169812615Y-61261905D01*
X169288805Y-62166667D02*
X169288805Y-62785714D01*
X169288805Y-62785714D02*
X169669758Y-62452381D01*
X169669758Y-62452381D02*
X169669758Y-62595238D01*
X169669758Y-62595238D02*
X169717377Y-62690476D01*
X169717377Y-62690476D02*
X169764996Y-62738095D01*
X169764996Y-62738095D02*
X169860234Y-62785714D01*
X169860234Y-62785714D02*
X170098329Y-62785714D01*
X170098329Y-62785714D02*
X170193567Y-62738095D01*
X170193567Y-62738095D02*
X170241186Y-62690476D01*
X170241186Y-62690476D02*
X170288805Y-62595238D01*
X170288805Y-62595238D02*
X170288805Y-62309524D01*
X170288805Y-62309524D02*
X170241186Y-62214286D01*
X170241186Y-62214286D02*
X170193567Y-62166667D01*
%TO.C,R15*%
X139824283Y-66367380D02*
X140157616Y-65891190D01*
X140395711Y-66367380D02*
X140395711Y-65367380D01*
X140395711Y-65367380D02*
X140014759Y-65367380D01*
X140014759Y-65367380D02*
X139919521Y-65415000D01*
X139919521Y-65415000D02*
X139871902Y-65462619D01*
X139871902Y-65462619D02*
X139824283Y-65557857D01*
X139824283Y-65557857D02*
X139824283Y-65700714D01*
X139824283Y-65700714D02*
X139871902Y-65795952D01*
X139871902Y-65795952D02*
X139919521Y-65843571D01*
X139919521Y-65843571D02*
X140014759Y-65891190D01*
X140014759Y-65891190D02*
X140395711Y-65891190D01*
X138871902Y-66367380D02*
X139443330Y-66367380D01*
X139157616Y-66367380D02*
X139157616Y-65367380D01*
X139157616Y-65367380D02*
X139252854Y-65510238D01*
X139252854Y-65510238D02*
X139348092Y-65605476D01*
X139348092Y-65605476D02*
X139443330Y-65653095D01*
X137967140Y-65367380D02*
X138443330Y-65367380D01*
X138443330Y-65367380D02*
X138490949Y-65843571D01*
X138490949Y-65843571D02*
X138443330Y-65795952D01*
X138443330Y-65795952D02*
X138348092Y-65748333D01*
X138348092Y-65748333D02*
X138109997Y-65748333D01*
X138109997Y-65748333D02*
X138014759Y-65795952D01*
X138014759Y-65795952D02*
X137967140Y-65843571D01*
X137967140Y-65843571D02*
X137919521Y-65938809D01*
X137919521Y-65938809D02*
X137919521Y-66176904D01*
X137919521Y-66176904D02*
X137967140Y-66272142D01*
X137967140Y-66272142D02*
X138014759Y-66319761D01*
X138014759Y-66319761D02*
X138109997Y-66367380D01*
X138109997Y-66367380D02*
X138348092Y-66367380D01*
X138348092Y-66367380D02*
X138443330Y-66319761D01*
X138443330Y-66319761D02*
X138490949Y-66272142D01*
%TO.C,U3*%
X176744026Y-57867380D02*
X176744026Y-58676904D01*
X176744026Y-58676904D02*
X176696407Y-58772142D01*
X176696407Y-58772142D02*
X176648788Y-58819761D01*
X176648788Y-58819761D02*
X176553550Y-58867380D01*
X176553550Y-58867380D02*
X176363074Y-58867380D01*
X176363074Y-58867380D02*
X176267836Y-58819761D01*
X176267836Y-58819761D02*
X176220217Y-58772142D01*
X176220217Y-58772142D02*
X176172598Y-58676904D01*
X176172598Y-58676904D02*
X176172598Y-57867380D01*
X175791645Y-57867380D02*
X175172598Y-57867380D01*
X175172598Y-57867380D02*
X175505931Y-58248333D01*
X175505931Y-58248333D02*
X175363074Y-58248333D01*
X175363074Y-58248333D02*
X175267836Y-58295952D01*
X175267836Y-58295952D02*
X175220217Y-58343571D01*
X175220217Y-58343571D02*
X175172598Y-58438809D01*
X175172598Y-58438809D02*
X175172598Y-58676904D01*
X175172598Y-58676904D02*
X175220217Y-58772142D01*
X175220217Y-58772142D02*
X175267836Y-58819761D01*
X175267836Y-58819761D02*
X175363074Y-58867380D01*
X175363074Y-58867380D02*
X175648788Y-58867380D01*
X175648788Y-58867380D02*
X175744026Y-58819761D01*
X175744026Y-58819761D02*
X175791645Y-58772142D01*
%TO.C,R13*%
X158408131Y-66367380D02*
X158741464Y-65891190D01*
X158979559Y-66367380D02*
X158979559Y-65367380D01*
X158979559Y-65367380D02*
X158598607Y-65367380D01*
X158598607Y-65367380D02*
X158503369Y-65415000D01*
X158503369Y-65415000D02*
X158455750Y-65462619D01*
X158455750Y-65462619D02*
X158408131Y-65557857D01*
X158408131Y-65557857D02*
X158408131Y-65700714D01*
X158408131Y-65700714D02*
X158455750Y-65795952D01*
X158455750Y-65795952D02*
X158503369Y-65843571D01*
X158503369Y-65843571D02*
X158598607Y-65891190D01*
X158598607Y-65891190D02*
X158979559Y-65891190D01*
X157455750Y-66367380D02*
X158027178Y-66367380D01*
X157741464Y-66367380D02*
X157741464Y-65367380D01*
X157741464Y-65367380D02*
X157836702Y-65510238D01*
X157836702Y-65510238D02*
X157931940Y-65605476D01*
X157931940Y-65605476D02*
X158027178Y-65653095D01*
X157122416Y-65367380D02*
X156503369Y-65367380D01*
X156503369Y-65367380D02*
X156836702Y-65748333D01*
X156836702Y-65748333D02*
X156693845Y-65748333D01*
X156693845Y-65748333D02*
X156598607Y-65795952D01*
X156598607Y-65795952D02*
X156550988Y-65843571D01*
X156550988Y-65843571D02*
X156503369Y-65938809D01*
X156503369Y-65938809D02*
X156503369Y-66176904D01*
X156503369Y-66176904D02*
X156550988Y-66272142D01*
X156550988Y-66272142D02*
X156598607Y-66319761D01*
X156598607Y-66319761D02*
X156693845Y-66367380D01*
X156693845Y-66367380D02*
X156979559Y-66367380D01*
X156979559Y-66367380D02*
X157074797Y-66319761D01*
X157074797Y-66319761D02*
X157122416Y-66272142D01*
%TO.C,R9*%
X151710235Y-61833333D02*
X151234045Y-61500000D01*
X151710235Y-61261905D02*
X150710235Y-61261905D01*
X150710235Y-61261905D02*
X150710235Y-61642857D01*
X150710235Y-61642857D02*
X150757855Y-61738095D01*
X150757855Y-61738095D02*
X150805474Y-61785714D01*
X150805474Y-61785714D02*
X150900712Y-61833333D01*
X150900712Y-61833333D02*
X151043569Y-61833333D01*
X151043569Y-61833333D02*
X151138807Y-61785714D01*
X151138807Y-61785714D02*
X151186426Y-61738095D01*
X151186426Y-61738095D02*
X151234045Y-61642857D01*
X151234045Y-61642857D02*
X151234045Y-61261905D01*
X151710235Y-62309524D02*
X151710235Y-62500000D01*
X151710235Y-62500000D02*
X151662616Y-62595238D01*
X151662616Y-62595238D02*
X151614997Y-62642857D01*
X151614997Y-62642857D02*
X151472140Y-62738095D01*
X151472140Y-62738095D02*
X151281664Y-62785714D01*
X151281664Y-62785714D02*
X150900712Y-62785714D01*
X150900712Y-62785714D02*
X150805474Y-62738095D01*
X150805474Y-62738095D02*
X150757855Y-62690476D01*
X150757855Y-62690476D02*
X150710235Y-62595238D01*
X150710235Y-62595238D02*
X150710235Y-62404762D01*
X150710235Y-62404762D02*
X150757855Y-62309524D01*
X150757855Y-62309524D02*
X150805474Y-62261905D01*
X150805474Y-62261905D02*
X150900712Y-62214286D01*
X150900712Y-62214286D02*
X151138807Y-62214286D01*
X151138807Y-62214286D02*
X151234045Y-62261905D01*
X151234045Y-62261905D02*
X151281664Y-62309524D01*
X151281664Y-62309524D02*
X151329283Y-62404762D01*
X151329283Y-62404762D02*
X151329283Y-62595238D01*
X151329283Y-62595238D02*
X151281664Y-62690476D01*
X151281664Y-62690476D02*
X151234045Y-62738095D01*
X151234045Y-62738095D02*
X151138807Y-62785714D01*
%TO.C,R10*%
X142445950Y-62107142D02*
X141969760Y-61773809D01*
X142445950Y-61535714D02*
X141445950Y-61535714D01*
X141445950Y-61535714D02*
X141445950Y-61916666D01*
X141445950Y-61916666D02*
X141493570Y-62011904D01*
X141493570Y-62011904D02*
X141541189Y-62059523D01*
X141541189Y-62059523D02*
X141636427Y-62107142D01*
X141636427Y-62107142D02*
X141779284Y-62107142D01*
X141779284Y-62107142D02*
X141874522Y-62059523D01*
X141874522Y-62059523D02*
X141922141Y-62011904D01*
X141922141Y-62011904D02*
X141969760Y-61916666D01*
X141969760Y-61916666D02*
X141969760Y-61535714D01*
X142445950Y-63059523D02*
X142445950Y-62488095D01*
X142445950Y-62773809D02*
X141445950Y-62773809D01*
X141445950Y-62773809D02*
X141588808Y-62678571D01*
X141588808Y-62678571D02*
X141684046Y-62583333D01*
X141684046Y-62583333D02*
X141731665Y-62488095D01*
X141445950Y-63678571D02*
X141445950Y-63773809D01*
X141445950Y-63773809D02*
X141493570Y-63869047D01*
X141493570Y-63869047D02*
X141541189Y-63916666D01*
X141541189Y-63916666D02*
X141636427Y-63964285D01*
X141636427Y-63964285D02*
X141826903Y-64011904D01*
X141826903Y-64011904D02*
X142064998Y-64011904D01*
X142064998Y-64011904D02*
X142255474Y-63964285D01*
X142255474Y-63964285D02*
X142350712Y-63916666D01*
X142350712Y-63916666D02*
X142398331Y-63869047D01*
X142398331Y-63869047D02*
X142445950Y-63773809D01*
X142445950Y-63773809D02*
X142445950Y-63678571D01*
X142445950Y-63678571D02*
X142398331Y-63583333D01*
X142398331Y-63583333D02*
X142350712Y-63535714D01*
X142350712Y-63535714D02*
X142255474Y-63488095D01*
X142255474Y-63488095D02*
X142064998Y-63440476D01*
X142064998Y-63440476D02*
X141826903Y-63440476D01*
X141826903Y-63440476D02*
X141636427Y-63488095D01*
X141636427Y-63488095D02*
X141541189Y-63535714D01*
X141541189Y-63535714D02*
X141493570Y-63583333D01*
X141493570Y-63583333D02*
X141445950Y-63678571D01*
%TO.C,R1*%
X188867380Y-61833333D02*
X188391190Y-61500000D01*
X188867380Y-61261905D02*
X187867380Y-61261905D01*
X187867380Y-61261905D02*
X187867380Y-61642857D01*
X187867380Y-61642857D02*
X187915000Y-61738095D01*
X187915000Y-61738095D02*
X187962619Y-61785714D01*
X187962619Y-61785714D02*
X188057857Y-61833333D01*
X188057857Y-61833333D02*
X188200714Y-61833333D01*
X188200714Y-61833333D02*
X188295952Y-61785714D01*
X188295952Y-61785714D02*
X188343571Y-61738095D01*
X188343571Y-61738095D02*
X188391190Y-61642857D01*
X188391190Y-61642857D02*
X188391190Y-61261905D01*
X188867380Y-62785714D02*
X188867380Y-62214286D01*
X188867380Y-62500000D02*
X187867380Y-62500000D01*
X187867380Y-62500000D02*
X188010238Y-62404762D01*
X188010238Y-62404762D02*
X188105476Y-62309524D01*
X188105476Y-62309524D02*
X188153095Y-62214286D01*
%TO.C,R11*%
X133156665Y-62107142D02*
X132680475Y-61773809D01*
X133156665Y-61535714D02*
X132156665Y-61535714D01*
X132156665Y-61535714D02*
X132156665Y-61916666D01*
X132156665Y-61916666D02*
X132204285Y-62011904D01*
X132204285Y-62011904D02*
X132251904Y-62059523D01*
X132251904Y-62059523D02*
X132347142Y-62107142D01*
X132347142Y-62107142D02*
X132489999Y-62107142D01*
X132489999Y-62107142D02*
X132585237Y-62059523D01*
X132585237Y-62059523D02*
X132632856Y-62011904D01*
X132632856Y-62011904D02*
X132680475Y-61916666D01*
X132680475Y-61916666D02*
X132680475Y-61535714D01*
X133156665Y-63059523D02*
X133156665Y-62488095D01*
X133156665Y-62773809D02*
X132156665Y-62773809D01*
X132156665Y-62773809D02*
X132299523Y-62678571D01*
X132299523Y-62678571D02*
X132394761Y-62583333D01*
X132394761Y-62583333D02*
X132442380Y-62488095D01*
X133156665Y-64011904D02*
X133156665Y-63440476D01*
X133156665Y-63726190D02*
X132156665Y-63726190D01*
X132156665Y-63726190D02*
X132299523Y-63630952D01*
X132299523Y-63630952D02*
X132394761Y-63535714D01*
X132394761Y-63535714D02*
X132442380Y-63440476D01*
%TO.C,R5*%
X195099636Y-66367380D02*
X195432969Y-65891190D01*
X195671064Y-66367380D02*
X195671064Y-65367380D01*
X195671064Y-65367380D02*
X195290112Y-65367380D01*
X195290112Y-65367380D02*
X195194874Y-65415000D01*
X195194874Y-65415000D02*
X195147255Y-65462619D01*
X195147255Y-65462619D02*
X195099636Y-65557857D01*
X195099636Y-65557857D02*
X195099636Y-65700714D01*
X195099636Y-65700714D02*
X195147255Y-65795952D01*
X195147255Y-65795952D02*
X195194874Y-65843571D01*
X195194874Y-65843571D02*
X195290112Y-65891190D01*
X195290112Y-65891190D02*
X195671064Y-65891190D01*
X194194874Y-65367380D02*
X194671064Y-65367380D01*
X194671064Y-65367380D02*
X194718683Y-65843571D01*
X194718683Y-65843571D02*
X194671064Y-65795952D01*
X194671064Y-65795952D02*
X194575826Y-65748333D01*
X194575826Y-65748333D02*
X194337731Y-65748333D01*
X194337731Y-65748333D02*
X194242493Y-65795952D01*
X194242493Y-65795952D02*
X194194874Y-65843571D01*
X194194874Y-65843571D02*
X194147255Y-65938809D01*
X194147255Y-65938809D02*
X194147255Y-66176904D01*
X194147255Y-66176904D02*
X194194874Y-66272142D01*
X194194874Y-66272142D02*
X194242493Y-66319761D01*
X194242493Y-66319761D02*
X194337731Y-66367380D01*
X194337731Y-66367380D02*
X194575826Y-66367380D01*
X194575826Y-66367380D02*
X194671064Y-66319761D01*
X194671064Y-66319761D02*
X194718683Y-66272142D01*
D11*
%TO.C,C3*%
X161092142Y-70475833D02*
X161139761Y-70428214D01*
X161139761Y-70428214D02*
X161187380Y-70285357D01*
X161187380Y-70285357D02*
X161187380Y-70190119D01*
X161187380Y-70190119D02*
X161139761Y-70047262D01*
X161139761Y-70047262D02*
X161044523Y-69952024D01*
X161044523Y-69952024D02*
X160949285Y-69904405D01*
X160949285Y-69904405D02*
X160758809Y-69856786D01*
X160758809Y-69856786D02*
X160615952Y-69856786D01*
X160615952Y-69856786D02*
X160425476Y-69904405D01*
X160425476Y-69904405D02*
X160330238Y-69952024D01*
X160330238Y-69952024D02*
X160235000Y-70047262D01*
X160235000Y-70047262D02*
X160187380Y-70190119D01*
X160187380Y-70190119D02*
X160187380Y-70285357D01*
X160187380Y-70285357D02*
X160235000Y-70428214D01*
X160235000Y-70428214D02*
X160282619Y-70475833D01*
X160187380Y-70809167D02*
X160187380Y-71428214D01*
X160187380Y-71428214D02*
X160568333Y-71094881D01*
X160568333Y-71094881D02*
X160568333Y-71237738D01*
X160568333Y-71237738D02*
X160615952Y-71332976D01*
X160615952Y-71332976D02*
X160663571Y-71380595D01*
X160663571Y-71380595D02*
X160758809Y-71428214D01*
X160758809Y-71428214D02*
X160996904Y-71428214D01*
X160996904Y-71428214D02*
X161092142Y-71380595D01*
X161092142Y-71380595D02*
X161139761Y-71332976D01*
X161139761Y-71332976D02*
X161187380Y-71237738D01*
X161187380Y-71237738D02*
X161187380Y-70952024D01*
X161187380Y-70952024D02*
X161139761Y-70856786D01*
X161139761Y-70856786D02*
X161092142Y-70809167D01*
D10*
%TO.C,R7*%
X176515788Y-66367380D02*
X176849121Y-65891190D01*
X177087216Y-66367380D02*
X177087216Y-65367380D01*
X177087216Y-65367380D02*
X176706264Y-65367380D01*
X176706264Y-65367380D02*
X176611026Y-65415000D01*
X176611026Y-65415000D02*
X176563407Y-65462619D01*
X176563407Y-65462619D02*
X176515788Y-65557857D01*
X176515788Y-65557857D02*
X176515788Y-65700714D01*
X176515788Y-65700714D02*
X176563407Y-65795952D01*
X176563407Y-65795952D02*
X176611026Y-65843571D01*
X176611026Y-65843571D02*
X176706264Y-65891190D01*
X176706264Y-65891190D02*
X177087216Y-65891190D01*
X176182454Y-65367380D02*
X175515788Y-65367380D01*
X175515788Y-65367380D02*
X175944359Y-66367380D01*
%TO.C,U2*%
X186035950Y-57867380D02*
X186035950Y-58676904D01*
X186035950Y-58676904D02*
X185988331Y-58772142D01*
X185988331Y-58772142D02*
X185940712Y-58819761D01*
X185940712Y-58819761D02*
X185845474Y-58867380D01*
X185845474Y-58867380D02*
X185654998Y-58867380D01*
X185654998Y-58867380D02*
X185559760Y-58819761D01*
X185559760Y-58819761D02*
X185512141Y-58772142D01*
X185512141Y-58772142D02*
X185464522Y-58676904D01*
X185464522Y-58676904D02*
X185464522Y-57867380D01*
X185035950Y-57962619D02*
X184988331Y-57915000D01*
X184988331Y-57915000D02*
X184893093Y-57867380D01*
X184893093Y-57867380D02*
X184654998Y-57867380D01*
X184654998Y-57867380D02*
X184559760Y-57915000D01*
X184559760Y-57915000D02*
X184512141Y-57962619D01*
X184512141Y-57962619D02*
X184464522Y-58057857D01*
X184464522Y-58057857D02*
X184464522Y-58153095D01*
X184464522Y-58153095D02*
X184512141Y-58295952D01*
X184512141Y-58295952D02*
X185083569Y-58867380D01*
X185083569Y-58867380D02*
X184464522Y-58867380D01*
%TO.C,U5*%
X158160178Y-57867380D02*
X158160178Y-58676904D01*
X158160178Y-58676904D02*
X158112559Y-58772142D01*
X158112559Y-58772142D02*
X158064940Y-58819761D01*
X158064940Y-58819761D02*
X157969702Y-58867380D01*
X157969702Y-58867380D02*
X157779226Y-58867380D01*
X157779226Y-58867380D02*
X157683988Y-58819761D01*
X157683988Y-58819761D02*
X157636369Y-58772142D01*
X157636369Y-58772142D02*
X157588750Y-58676904D01*
X157588750Y-58676904D02*
X157588750Y-57867380D01*
X156636369Y-57867380D02*
X157112559Y-57867380D01*
X157112559Y-57867380D02*
X157160178Y-58343571D01*
X157160178Y-58343571D02*
X157112559Y-58295952D01*
X157112559Y-58295952D02*
X157017321Y-58248333D01*
X157017321Y-58248333D02*
X156779226Y-58248333D01*
X156779226Y-58248333D02*
X156683988Y-58295952D01*
X156683988Y-58295952D02*
X156636369Y-58343571D01*
X156636369Y-58343571D02*
X156588750Y-58438809D01*
X156588750Y-58438809D02*
X156588750Y-58676904D01*
X156588750Y-58676904D02*
X156636369Y-58772142D01*
X156636369Y-58772142D02*
X156683988Y-58819761D01*
X156683988Y-58819761D02*
X156779226Y-58867380D01*
X156779226Y-58867380D02*
X157017321Y-58867380D01*
X157017321Y-58867380D02*
X157112559Y-58819761D01*
X157112559Y-58819761D02*
X157160178Y-58772142D01*
D12*
%TO.C,H1*%
X120500000Y-70500000D02*
X126500000Y-70500000D01*
X123500000Y-67500000D02*
X123500000Y-73500000D01*
X126500000Y-70500000D02*
G75*
G03*
X126500000Y-70500000I-3000000J0D01*
G01*
%TO.C,H2*%
X193500000Y-70500000D02*
X199500000Y-70500000D01*
X196500000Y-67500000D02*
X196500000Y-73500000D01*
X199500000Y-70500000D02*
G75*
G03*
X199500000Y-70500000I-3000000J0D01*
G01*
D13*
%TO.C,R14*%
X146949350Y-63174500D02*
X146949350Y-64825500D01*
X146949350Y-64825500D02*
X147965350Y-64825500D01*
X147965350Y-63174500D02*
X146949350Y-63174500D01*
X148981350Y-64825500D02*
X150060850Y-64825500D01*
X150060850Y-63174500D02*
X148981350Y-63174500D01*
X150060850Y-64825500D02*
X150060850Y-63174500D01*
D14*
%TO.C,U8*%
X128722499Y-59240000D02*
X124522499Y-59240000D01*
X128722499Y-62640000D02*
X125922499Y-62640000D01*
D13*
%TO.C,R16*%
X128365499Y-63174500D02*
X128365499Y-64825500D01*
X128365499Y-64825500D02*
X129381499Y-64825500D01*
X129381499Y-63174500D02*
X128365499Y-63174500D01*
X130397499Y-64825500D02*
X131476999Y-64825500D01*
X131476999Y-63174500D02*
X130397499Y-63174500D01*
X131476999Y-64825500D02*
X131476999Y-63174500D01*
D14*
%TO.C,U1*%
X193765970Y-59240000D02*
X189565970Y-59240000D01*
X193765970Y-62640000D02*
X190965970Y-62640000D01*
%TO.C,C1*%
X163865000Y-70903752D02*
X163865000Y-70381248D01*
X165335000Y-70903752D02*
X165335000Y-70381248D01*
D13*
%TO.C,R12*%
X124125500Y-57563500D02*
X122474500Y-57563500D01*
X122474500Y-57563500D02*
X122474500Y-58579500D01*
X124125500Y-58579500D02*
X124125500Y-57563500D01*
X122474500Y-59595500D02*
X122474500Y-60675000D01*
X124125500Y-60675000D02*
X124125500Y-59595500D01*
X122474500Y-60675000D02*
X124125500Y-60675000D01*
D14*
%TO.C,U6*%
X147306350Y-59240000D02*
X143106350Y-59240000D01*
X147306350Y-62640000D02*
X144506350Y-62640000D01*
D13*
%TO.C,R8*%
X165533198Y-63174500D02*
X165533198Y-64825500D01*
X165533198Y-64825500D02*
X166549198Y-64825500D01*
X166549198Y-63174500D02*
X165533198Y-63174500D01*
X167565198Y-64825500D02*
X168644698Y-64825500D01*
X168644698Y-63174500D02*
X167565198Y-63174500D01*
X168644698Y-64825500D02*
X168644698Y-63174500D01*
%TO.C,R2*%
X179861210Y-57563500D02*
X178210210Y-57563500D01*
X178210210Y-57563500D02*
X178210210Y-58579500D01*
X179861210Y-58579500D02*
X179861210Y-57563500D01*
X178210210Y-59595500D02*
X178210210Y-60675000D01*
X179861210Y-60675000D02*
X179861210Y-59595500D01*
X178210210Y-60675000D02*
X179861210Y-60675000D01*
%TO.C,R4*%
X161282640Y-57563500D02*
X159631640Y-57563500D01*
X159631640Y-57563500D02*
X159631640Y-58579500D01*
X161282640Y-58579500D02*
X161282640Y-57563500D01*
X159631640Y-59595500D02*
X159631640Y-60675000D01*
X161282640Y-60675000D02*
X161282640Y-59595500D01*
X159631640Y-60675000D02*
X161282640Y-60675000D01*
%TO.C,R6*%
X184117046Y-63174500D02*
X184117046Y-64825500D01*
X184117046Y-64825500D02*
X185133046Y-64825500D01*
X185133046Y-63174500D02*
X184117046Y-63174500D01*
X186149046Y-64825500D02*
X187228546Y-64825500D01*
X187228546Y-63174500D02*
X186149046Y-63174500D01*
X187228546Y-64825500D02*
X187228546Y-63174500D01*
D14*
%TO.C,U4*%
X165890198Y-59240000D02*
X161690198Y-59240000D01*
X165890198Y-62640000D02*
X163090198Y-62640000D01*
%TO.C,U7*%
X138014426Y-59240000D02*
X133814426Y-59240000D01*
X138014426Y-62640000D02*
X135214426Y-62640000D01*
D13*
%TO.C,R3*%
X170571925Y-57563500D02*
X168920925Y-57563500D01*
X168920925Y-57563500D02*
X168920925Y-58579500D01*
X170571925Y-58579500D02*
X170571925Y-57563500D01*
X168920925Y-59595500D02*
X168920925Y-60675000D01*
X170571925Y-60675000D02*
X170571925Y-59595500D01*
X168920925Y-60675000D02*
X170571925Y-60675000D01*
%TO.C,R15*%
X137657426Y-63174500D02*
X137657426Y-64825500D01*
X137657426Y-64825500D02*
X138673426Y-64825500D01*
X138673426Y-63174500D02*
X137657426Y-63174500D01*
X139689426Y-64825500D02*
X140768926Y-64825500D01*
X140768926Y-63174500D02*
X139689426Y-63174500D01*
X140768926Y-64825500D02*
X140768926Y-63174500D01*
D14*
%TO.C,U3*%
X175182122Y-59240000D02*
X170982122Y-59240000D01*
X175182122Y-62640000D02*
X172382122Y-62640000D01*
D13*
%TO.C,R13*%
X156241274Y-63174500D02*
X156241274Y-64825500D01*
X156241274Y-64825500D02*
X157257274Y-64825500D01*
X157257274Y-63174500D02*
X156241274Y-63174500D01*
X158273274Y-64825500D02*
X159352774Y-64825500D01*
X159352774Y-63174500D02*
X158273274Y-63174500D01*
X159352774Y-64825500D02*
X159352774Y-63174500D01*
%TO.C,R9*%
X151993355Y-57563500D02*
X150342355Y-57563500D01*
X150342355Y-57563500D02*
X150342355Y-58579500D01*
X151993355Y-58579500D02*
X151993355Y-57563500D01*
X150342355Y-59595500D02*
X150342355Y-60675000D01*
X151993355Y-60675000D02*
X151993355Y-59595500D01*
X150342355Y-60675000D02*
X151993355Y-60675000D01*
%TO.C,R10*%
X142704070Y-57563500D02*
X141053070Y-57563500D01*
X141053070Y-57563500D02*
X141053070Y-58579500D01*
X142704070Y-58579500D02*
X142704070Y-57563500D01*
X141053070Y-59595500D02*
X141053070Y-60675000D01*
X142704070Y-60675000D02*
X142704070Y-59595500D01*
X141053070Y-60675000D02*
X142704070Y-60675000D01*
%TO.C,R1*%
X189150500Y-57563500D02*
X187499500Y-57563500D01*
X187499500Y-57563500D02*
X187499500Y-58579500D01*
X189150500Y-58579500D02*
X189150500Y-57563500D01*
X187499500Y-59595500D02*
X187499500Y-60675000D01*
X189150500Y-60675000D02*
X189150500Y-59595500D01*
X187499500Y-60675000D02*
X189150500Y-60675000D01*
%TO.C,R11*%
X133414785Y-57563500D02*
X131763785Y-57563500D01*
X131763785Y-57563500D02*
X131763785Y-58579500D01*
X133414785Y-58579500D02*
X133414785Y-57563500D01*
X131763785Y-59595500D02*
X131763785Y-60675000D01*
X133414785Y-60675000D02*
X133414785Y-59595500D01*
X131763785Y-60675000D02*
X133414785Y-60675000D01*
%TO.C,R5*%
X193408970Y-63174500D02*
X193408970Y-64825500D01*
X193408970Y-64825500D02*
X194424970Y-64825500D01*
X194424970Y-63174500D02*
X193408970Y-63174500D01*
X195440970Y-64825500D02*
X196520470Y-64825500D01*
X196520470Y-63174500D02*
X195440970Y-63174500D01*
X196520470Y-64825500D02*
X196520470Y-63174500D01*
D14*
%TO.C,C3*%
X161695000Y-70903752D02*
X161695000Y-70381248D01*
X163165000Y-70903752D02*
X163165000Y-70381248D01*
D13*
%TO.C,R7*%
X174825122Y-63174500D02*
X174825122Y-64825500D01*
X174825122Y-64825500D02*
X175841122Y-64825500D01*
X175841122Y-63174500D02*
X174825122Y-63174500D01*
X176857122Y-64825500D02*
X177936622Y-64825500D01*
X177936622Y-63174500D02*
X176857122Y-63174500D01*
X177936622Y-64825500D02*
X177936622Y-63174500D01*
D14*
%TO.C,U2*%
X184474046Y-59240000D02*
X180274046Y-59240000D01*
X184474046Y-62640000D02*
X181674046Y-62640000D01*
%TO.C,U5*%
X156598274Y-59240000D02*
X152398274Y-59240000D01*
X156598274Y-62640000D02*
X153798274Y-62640000D01*
%TD*%
D15*
X200000000Y-58000000D02*
X200000000Y-72000000D01*
X120000000Y-58000000D02*
X122000000Y-56000000D01*
X198000000Y-74000000D02*
X122000000Y-74000000D01*
X120000000Y-72000000D02*
X120000000Y-58000000D01*
X122000000Y-74000000D02*
X120000000Y-72000000D01*
X122000000Y-56000000D02*
X198000000Y-56000000D01*
X200000000Y-72000000D02*
X198000000Y-74000000D01*
X198000000Y-56000000D02*
X200000000Y-58000000D01*
M02*
