%TF.GenerationSoftware,KiCad,Pcbnew,(7.0.0)*%
%TF.CreationDate,2023-10-30T21:48:47-03:00*%
%TF.ProjectId,QRE1113_Line_Sensors_x8,51524531-3131-4335-9f4c-696e655f5365,rev?*%
%TF.SameCoordinates,Original*%
%TF.FileFunction,Copper,L1,Top*%
%TF.FilePolarity,Positive*%
%FSLAX46Y46*%
G04 Gerber Fmt 4.6, Leading zero omitted, Abs format (unit mm)*
G04 Created by KiCad (PCBNEW (7.0.0)) date 2023-10-30 21:48:47*
%MOMM*%
%LPD*%
G01*
G04 APERTURE LIST*
%TA.AperFunction,ComponentPad*%
%ADD10C,3.250000*%
%TD*%
%TA.AperFunction,ComponentPad*%
%ADD11R,2.000000X2.000000*%
%TD*%
%TA.AperFunction,ComponentPad*%
%ADD12O,2.000000X2.000000*%
%TD*%
%TA.AperFunction,ComponentPad*%
%ADD13C,1.600000*%
%TD*%
%TA.AperFunction,ViaPad*%
%ADD14C,1.000000*%
%TD*%
%TA.AperFunction,Conductor*%
%ADD15C,1.000000*%
%TD*%
%TA.AperFunction,Conductor*%
%ADD16C,0.750000*%
%TD*%
%TA.AperFunction,Profile*%
%ADD17C,0.100000*%
%TD*%
G04 APERTURE END LIST*
D10*
%TO.P,H1,1*%
%TO.N,N/C*%
X123500000Y-70500000D03*
%TD*%
%TO.P,H2,1*%
%TO.N,N/C*%
X196500000Y-70500000D03*
%TD*%
D11*
%TO.P,J2,1,Pin_1*%
%TO.N,/OUT_8*%
X131137499Y-68789999D03*
D12*
%TO.P,J2,2,Pin_2*%
%TO.N,/OUT_7*%
X133677499Y-68789999D03*
%TO.P,J2,3,Pin_3*%
%TO.N,GND*%
X136217499Y-68789999D03*
%TO.P,J2,4,Pin_4*%
%TO.N,/OUT_5*%
X138757499Y-68789999D03*
%TO.P,J2,5,Pin_5*%
%TO.N,/OUT_6*%
X141297499Y-68789999D03*
%TD*%
D11*
%TO.P,J1,1,Pin_1*%
%TO.N,/OUT_4*%
X178302499Y-68789999D03*
D12*
%TO.P,J1,2,Pin_2*%
%TO.N,/OUT_3*%
X180842499Y-68789999D03*
%TO.P,J1,3,Pin_3*%
%TO.N,+3V3*%
X183382499Y-68789999D03*
%TO.P,J1,4,Pin_4*%
%TO.N,/OUT_2*%
X185922499Y-68789999D03*
%TO.P,J1,5,Pin_5*%
%TO.N,/OUT_1*%
X188462499Y-68789999D03*
%TD*%
D13*
%TO.P,C2,1*%
%TO.N,+3V3*%
X157200000Y-72200000D03*
%TO.P,C2,2*%
%TO.N,GND*%
X157200000Y-70200000D03*
%TD*%
D14*
%TO.N,GND*%
X125318453Y-64190000D03*
X143902304Y-64190000D03*
X181070000Y-64190000D03*
X171778076Y-64190000D03*
X190361924Y-64190000D03*
X133110000Y-64190000D03*
X162486152Y-64190000D03*
X153194228Y-64190000D03*
%TD*%
D15*
%TO.N,GND*%
X162486152Y-64190000D02*
X171778076Y-64190000D01*
X190361924Y-64190000D02*
X181070000Y-64190000D01*
X143902304Y-64190000D02*
X153194228Y-64190000D01*
X181070000Y-64190000D02*
X171778076Y-64190000D01*
D16*
X125355000Y-64375000D02*
X125320000Y-64340000D01*
D15*
X125318453Y-64190000D02*
X133110000Y-64190000D01*
%TD*%
D17*
X200000000Y-58000000D02*
X200000000Y-72000000D01*
X120000000Y-58000000D02*
X122000000Y-56000000D01*
X198000000Y-74000000D02*
X122000000Y-74000000D01*
X120000000Y-72000000D02*
X120000000Y-58000000D01*
X122000000Y-74000000D02*
X120000000Y-72000000D01*
X122000000Y-56000000D02*
X198000000Y-56000000D01*
X200000000Y-72000000D02*
X198000000Y-74000000D01*
X198000000Y-56000000D02*
X200000000Y-58000000D01*
M02*
