%TF.GenerationSoftware,KiCad,Pcbnew,(7.0.0)*%
%TF.CreationDate,2023-10-30T21:48:47-03:00*%
%TF.ProjectId,QRE1113_Line_Sensors_x8,51524531-3131-4335-9f4c-696e655f5365,rev?*%
%TF.SameCoordinates,Original*%
%TF.FileFunction,Copper,L2,Bot*%
%TF.FilePolarity,Positive*%
%FSLAX46Y46*%
G04 Gerber Fmt 4.6, Leading zero omitted, Abs format (unit mm)*
G04 Created by KiCad (PCBNEW (7.0.0)) date 2023-10-30 21:48:47*
%MOMM*%
%LPD*%
G01*
G04 APERTURE LIST*
G04 Aperture macros list*
%AMRoundRect*
0 Rectangle with rounded corners*
0 $1 Rounding radius*
0 $2 $3 $4 $5 $6 $7 $8 $9 X,Y pos of 4 corners*
0 Add a 4 corners polygon primitive as box body*
4,1,4,$2,$3,$4,$5,$6,$7,$8,$9,$2,$3,0*
0 Add four circle primitives for the rounded corners*
1,1,$1+$1,$2,$3*
1,1,$1+$1,$4,$5*
1,1,$1+$1,$6,$7*
1,1,$1+$1,$8,$9*
0 Add four rect primitives between the rounded corners*
20,1,$1+$1,$2,$3,$4,$5,0*
20,1,$1+$1,$4,$5,$6,$7,0*
20,1,$1+$1,$6,$7,$8,$9,0*
20,1,$1+$1,$8,$9,$2,$3,0*%
G04 Aperture macros list end*
%TA.AperFunction,ComponentPad*%
%ADD10C,3.250000*%
%TD*%
%TA.AperFunction,ComponentPad*%
%ADD11R,2.000000X2.000000*%
%TD*%
%TA.AperFunction,ComponentPad*%
%ADD12O,2.000000X2.000000*%
%TD*%
%TA.AperFunction,ComponentPad*%
%ADD13C,1.600000*%
%TD*%
%TA.AperFunction,SMDPad,CuDef*%
%ADD14R,0.889000X1.397000*%
%TD*%
%TA.AperFunction,SMDPad,CuDef*%
%ADD15RoundRect,0.197500X-0.632500X0.197500X-0.632500X-0.197500X0.632500X-0.197500X0.632500X0.197500X0*%
%TD*%
%TA.AperFunction,SMDPad,CuDef*%
%ADD16RoundRect,0.250000X0.475000X-0.337500X0.475000X0.337500X-0.475000X0.337500X-0.475000X-0.337500X0*%
%TD*%
%TA.AperFunction,SMDPad,CuDef*%
%ADD17R,1.397000X0.889000*%
%TD*%
%TA.AperFunction,ViaPad*%
%ADD18C,1.000000*%
%TD*%
%TA.AperFunction,Conductor*%
%ADD19C,0.750000*%
%TD*%
%TA.AperFunction,Conductor*%
%ADD20C,1.500000*%
%TD*%
%TA.AperFunction,Conductor*%
%ADD21C,1.000000*%
%TD*%
%TA.AperFunction,Profile*%
%ADD22C,0.100000*%
%TD*%
G04 APERTURE END LIST*
D10*
%TO.P,H1,1*%
%TO.N,N/C*%
X123500000Y-70500000D03*
%TD*%
%TO.P,H2,1*%
%TO.N,N/C*%
X196500000Y-70500000D03*
%TD*%
D11*
%TO.P,J2,1,Pin_1*%
%TO.N,/OUT_8*%
X131137499Y-68789999D03*
D12*
%TO.P,J2,2,Pin_2*%
%TO.N,/OUT_7*%
X133677499Y-68789999D03*
%TO.P,J2,3,Pin_3*%
%TO.N,GND*%
X136217499Y-68789999D03*
%TO.P,J2,4,Pin_4*%
%TO.N,/OUT_5*%
X138757499Y-68789999D03*
%TO.P,J2,5,Pin_5*%
%TO.N,/OUT_6*%
X141297499Y-68789999D03*
%TD*%
D11*
%TO.P,J1,1,Pin_1*%
%TO.N,/OUT_4*%
X178302499Y-68789999D03*
D12*
%TO.P,J1,2,Pin_2*%
%TO.N,/OUT_3*%
X180842499Y-68789999D03*
%TO.P,J1,3,Pin_3*%
%TO.N,+3V3*%
X183382499Y-68789999D03*
%TO.P,J1,4,Pin_4*%
%TO.N,/OUT_2*%
X185922499Y-68789999D03*
%TO.P,J1,5,Pin_5*%
%TO.N,/OUT_1*%
X188462499Y-68789999D03*
%TD*%
D13*
%TO.P,C2,1*%
%TO.N,+3V3*%
X157200000Y-72200000D03*
%TO.P,C2,2*%
%TO.N,GND*%
X157200000Y-70200000D03*
%TD*%
D14*
%TO.P,R14,1*%
%TO.N,/OUT_6*%
X147520849Y-63999999D03*
%TO.P,R14,2*%
%TO.N,+3V3*%
X149425849Y-63999999D03*
%TD*%
D15*
%TO.P,U8,1,A*%
%TO.N,Net-(U8-A)*%
X125322499Y-60040000D03*
%TO.P,U8,2,K*%
%TO.N,GND*%
X129322499Y-60040000D03*
%TO.P,U8,3*%
%TO.N,/OUT_8*%
X129322499Y-61840000D03*
%TO.P,U8,4*%
%TO.N,GND*%
X125322499Y-61840000D03*
%TD*%
D14*
%TO.P,R16,1*%
%TO.N,/OUT_8*%
X128936998Y-63999999D03*
%TO.P,R16,2*%
%TO.N,+3V3*%
X130841998Y-63999999D03*
%TD*%
D15*
%TO.P,U1,1,A*%
%TO.N,Net-(U1-A)*%
X190365970Y-60040000D03*
%TO.P,U1,2,K*%
%TO.N,GND*%
X194365970Y-60040000D03*
%TO.P,U1,3*%
%TO.N,/OUT_1*%
X194365970Y-61840000D03*
%TO.P,U1,4*%
%TO.N,GND*%
X190365970Y-61840000D03*
%TD*%
D16*
%TO.P,C1,1*%
%TO.N,+3V3*%
X164600000Y-71680000D03*
%TO.P,C1,2*%
%TO.N,GND*%
X164600000Y-69605000D03*
%TD*%
D17*
%TO.P,R12,1*%
%TO.N,+3V3*%
X123299999Y-58134999D03*
%TO.P,R12,2*%
%TO.N,Net-(U8-A)*%
X123299999Y-60039999D03*
%TD*%
D15*
%TO.P,U6,1,A*%
%TO.N,Net-(U6-A)*%
X143906350Y-60040000D03*
%TO.P,U6,2,K*%
%TO.N,GND*%
X147906350Y-60040000D03*
%TO.P,U6,3*%
%TO.N,/OUT_6*%
X147906350Y-61840000D03*
%TO.P,U6,4*%
%TO.N,GND*%
X143906350Y-61840000D03*
%TD*%
D14*
%TO.P,R8,1*%
%TO.N,/OUT_4*%
X166104697Y-63999999D03*
%TO.P,R8,2*%
%TO.N,+3V3*%
X168009697Y-63999999D03*
%TD*%
D17*
%TO.P,R2,1*%
%TO.N,+3V3*%
X179035709Y-58134999D03*
%TO.P,R2,2*%
%TO.N,Net-(U2-A)*%
X179035709Y-60039999D03*
%TD*%
%TO.P,R4,1*%
%TO.N,+3V3*%
X160457139Y-58134999D03*
%TO.P,R4,2*%
%TO.N,Net-(U4-A)*%
X160457139Y-60039999D03*
%TD*%
D14*
%TO.P,R6,1*%
%TO.N,/OUT_2*%
X184688545Y-63999999D03*
%TO.P,R6,2*%
%TO.N,+3V3*%
X186593545Y-63999999D03*
%TD*%
D15*
%TO.P,U4,1,A*%
%TO.N,Net-(U4-A)*%
X162490198Y-60040000D03*
%TO.P,U4,2,K*%
%TO.N,GND*%
X166490198Y-60040000D03*
%TO.P,U4,3*%
%TO.N,/OUT_4*%
X166490198Y-61840000D03*
%TO.P,U4,4*%
%TO.N,GND*%
X162490198Y-61840000D03*
%TD*%
%TO.P,U7,1,A*%
%TO.N,Net-(U7-A)*%
X134614426Y-60040000D03*
%TO.P,U7,2,K*%
%TO.N,GND*%
X138614426Y-60040000D03*
%TO.P,U7,3*%
%TO.N,/OUT_7*%
X138614426Y-61840000D03*
%TO.P,U7,4*%
%TO.N,GND*%
X134614426Y-61840000D03*
%TD*%
D17*
%TO.P,R3,1*%
%TO.N,+3V3*%
X169746424Y-58134999D03*
%TO.P,R3,2*%
%TO.N,Net-(U3-A)*%
X169746424Y-60039999D03*
%TD*%
D14*
%TO.P,R15,1*%
%TO.N,/OUT_7*%
X138228925Y-63999999D03*
%TO.P,R15,2*%
%TO.N,+3V3*%
X140133925Y-63999999D03*
%TD*%
D15*
%TO.P,U3,1,A*%
%TO.N,Net-(U3-A)*%
X171782122Y-60040000D03*
%TO.P,U3,2,K*%
%TO.N,GND*%
X175782122Y-60040000D03*
%TO.P,U3,3*%
%TO.N,/OUT_3*%
X175782122Y-61840000D03*
%TO.P,U3,4*%
%TO.N,GND*%
X171782122Y-61840000D03*
%TD*%
D14*
%TO.P,R13,1*%
%TO.N,/OUT_5*%
X156812773Y-63999999D03*
%TO.P,R13,2*%
%TO.N,+3V3*%
X158717773Y-63999999D03*
%TD*%
D17*
%TO.P,R9,1*%
%TO.N,+3V3*%
X151167854Y-58134999D03*
%TO.P,R9,2*%
%TO.N,Net-(U5-A)*%
X151167854Y-60039999D03*
%TD*%
%TO.P,R10,1*%
%TO.N,+3V3*%
X141878569Y-58134999D03*
%TO.P,R10,2*%
%TO.N,Net-(U6-A)*%
X141878569Y-60039999D03*
%TD*%
%TO.P,R1,1*%
%TO.N,+3V3*%
X188324999Y-58134999D03*
%TO.P,R1,2*%
%TO.N,Net-(U1-A)*%
X188324999Y-60039999D03*
%TD*%
%TO.P,R11,1*%
%TO.N,+3V3*%
X132589284Y-58134999D03*
%TO.P,R11,2*%
%TO.N,Net-(U7-A)*%
X132589284Y-60039999D03*
%TD*%
D14*
%TO.P,R5,1*%
%TO.N,/OUT_1*%
X193980469Y-63999999D03*
%TO.P,R5,2*%
%TO.N,+3V3*%
X195885469Y-63999999D03*
%TD*%
D16*
%TO.P,C3,1*%
%TO.N,+3V3*%
X162430000Y-71680000D03*
%TO.P,C3,2*%
%TO.N,GND*%
X162430000Y-69605000D03*
%TD*%
D14*
%TO.P,R7,1*%
%TO.N,/OUT_3*%
X175396621Y-63999999D03*
%TO.P,R7,2*%
%TO.N,+3V3*%
X177301621Y-63999999D03*
%TD*%
D15*
%TO.P,U2,1,A*%
%TO.N,Net-(U2-A)*%
X181074046Y-60040000D03*
%TO.P,U2,2,K*%
%TO.N,GND*%
X185074046Y-60040000D03*
%TO.P,U2,3*%
%TO.N,/OUT_2*%
X185074046Y-61840000D03*
%TO.P,U2,4*%
%TO.N,GND*%
X181074046Y-61840000D03*
%TD*%
%TO.P,U5,1,A*%
%TO.N,Net-(U5-A)*%
X153198274Y-60040000D03*
%TO.P,U5,2,K*%
%TO.N,GND*%
X157198274Y-60040000D03*
%TO.P,U5,3*%
%TO.N,/OUT_5*%
X157198274Y-61840000D03*
%TO.P,U5,4*%
%TO.N,GND*%
X153198274Y-61840000D03*
%TD*%
D18*
%TO.N,GND*%
X125318453Y-64190000D03*
X143902304Y-64190000D03*
X181070000Y-64190000D03*
X171778076Y-64190000D03*
X190361924Y-64190000D03*
X133110000Y-64190000D03*
X162486152Y-64190000D03*
X153194228Y-64190000D03*
%TD*%
D19*
%TO.N,+3V3*%
X169145000Y-58135000D02*
X169746425Y-58135000D01*
D20*
X195885470Y-64000000D02*
X195885470Y-65324530D01*
D21*
X197850000Y-63050000D02*
X196900000Y-64000000D01*
D20*
X162430000Y-71680000D02*
X160120000Y-71680000D01*
D19*
X158717774Y-59192226D02*
X159775000Y-58135000D01*
D20*
X183382500Y-70567500D02*
X183382500Y-68790000D01*
D21*
X196685000Y-58135000D02*
X197850000Y-59300000D01*
D20*
X160120000Y-71680000D02*
X159600000Y-72200000D01*
D19*
X177301622Y-59288378D02*
X178455000Y-58135000D01*
X140133926Y-64000000D02*
X140133926Y-59176074D01*
X168009698Y-59270302D02*
X169145000Y-58135000D01*
D20*
X164600000Y-71680000D02*
X181790000Y-71680000D01*
D21*
X159775000Y-58135000D02*
X196685000Y-58135000D01*
D20*
X181790000Y-71680000D02*
X182270000Y-71680000D01*
D19*
X149425850Y-59109150D02*
X150400000Y-58135000D01*
D20*
X189530000Y-71680000D02*
X181790000Y-71680000D01*
X159600000Y-72200000D02*
X157200000Y-72200000D01*
X182270000Y-71680000D02*
X183382500Y-70567500D01*
D19*
X130860000Y-63860000D02*
X130860000Y-59250000D01*
X149425850Y-64000000D02*
X149425850Y-59109150D01*
D21*
X123300000Y-58135000D02*
X141175000Y-58135000D01*
D19*
X178455000Y-58135000D02*
X179035710Y-58135000D01*
X131975000Y-58135000D02*
X132600000Y-58135000D01*
X186593546Y-64000000D02*
X186593546Y-59326454D01*
X177301622Y-64000000D02*
X177301622Y-59288378D01*
X158717774Y-64000000D02*
X158717774Y-59192226D01*
D21*
X197850000Y-59300000D02*
X197850000Y-63050000D01*
D19*
X186593546Y-59326454D02*
X187785000Y-58135000D01*
D20*
X195885470Y-65324530D02*
X189530000Y-71680000D01*
X164600000Y-71680000D02*
X162430000Y-71680000D01*
D19*
X130860000Y-59250000D02*
X131975000Y-58135000D01*
X168009698Y-64000000D02*
X168009698Y-59270302D01*
X140133926Y-59176074D02*
X141175000Y-58135000D01*
D21*
X196900000Y-64000000D02*
X195885470Y-64000000D01*
X150400000Y-58135000D02*
X159775000Y-58135000D01*
X141175000Y-58135000D02*
X150400000Y-58135000D01*
D19*
X187785000Y-58135000D02*
X188325000Y-58135000D01*
%TO.N,Net-(U1-A)*%
X188325000Y-60040000D02*
X190365970Y-60040000D01*
%TO.N,Net-(U2-A)*%
X179035710Y-60040000D02*
X181074046Y-60040000D01*
%TO.N,Net-(U3-A)*%
X169746425Y-60040000D02*
X171782122Y-60040000D01*
%TO.N,Net-(U4-A)*%
X160457140Y-60040000D02*
X162490198Y-60040000D01*
D21*
%TO.N,/OUT_1*%
X193980470Y-64000000D02*
X193980470Y-62225500D01*
X193980470Y-62225500D02*
X194365970Y-61840000D01*
X188462500Y-68790000D02*
X189190470Y-68790000D01*
X189190470Y-68790000D02*
X193980470Y-64000000D01*
%TO.N,/OUT_2*%
X185922500Y-68790000D02*
X185922500Y-66485408D01*
X184688546Y-65251454D02*
X184688546Y-64000000D01*
X185922500Y-66485408D02*
X184688546Y-65251454D01*
X184688546Y-64000000D02*
X184688546Y-62225500D01*
X184688546Y-62225500D02*
X185074046Y-61840000D01*
%TO.N,/OUT_3*%
X179776622Y-66186622D02*
X175910000Y-66186622D01*
X175396622Y-65673244D02*
X175396622Y-64000000D01*
X175396622Y-62225500D02*
X175782122Y-61840000D01*
X175396622Y-64000000D02*
X175396622Y-62225500D01*
X175910000Y-66186622D02*
X175396622Y-65673244D01*
X180842500Y-68790000D02*
X180842500Y-67252500D01*
X180842500Y-67252500D02*
X179776622Y-66186622D01*
%TO.N,/OUT_4*%
X166104698Y-66204698D02*
X166104698Y-64000000D01*
X166104698Y-62225500D02*
X166490198Y-61840000D01*
X178302500Y-68790000D02*
X168690000Y-68790000D01*
X168690000Y-68790000D02*
X166104698Y-66204698D01*
X166104698Y-64000000D02*
X166104698Y-62225500D01*
D19*
%TO.N,Net-(U5-A)*%
X151167855Y-60040000D02*
X153198274Y-60040000D01*
%TO.N,Net-(U6-A)*%
X141878570Y-60040000D02*
X143906350Y-60040000D01*
%TO.N,Net-(U7-A)*%
X132600000Y-60040000D02*
X134614426Y-60040000D01*
%TO.N,Net-(U8-A)*%
X123300000Y-60040000D02*
X125322499Y-60040000D01*
D21*
%TO.N,/OUT_5*%
X138757500Y-68790000D02*
X138757500Y-70287500D01*
X151070000Y-71310000D02*
X156812774Y-65567226D01*
X138757500Y-70287500D02*
X139780000Y-71310000D01*
X156812774Y-65567226D02*
X156812774Y-64000000D01*
X156812774Y-62225500D02*
X157198274Y-61840000D01*
X156812774Y-64000000D02*
X156812774Y-62225500D01*
X139780000Y-71310000D02*
X151070000Y-71310000D01*
%TO.N,/OUT_6*%
X147520850Y-62225500D02*
X147906350Y-61840000D01*
X144860000Y-68790000D02*
X147520850Y-66129150D01*
X141297500Y-68790000D02*
X144860000Y-68790000D01*
X147520850Y-66129150D02*
X147520850Y-64000000D01*
X147520850Y-64000000D02*
X147520850Y-62225500D01*
%TO.N,/OUT_7*%
X133677500Y-68790000D02*
X133677500Y-67082500D01*
X138228926Y-62225500D02*
X138614426Y-61840000D01*
X136760000Y-64000000D02*
X138228926Y-64000000D01*
X138228926Y-64000000D02*
X138228926Y-62225500D01*
X133677500Y-67082500D02*
X136760000Y-64000000D01*
%TO.N,/OUT_8*%
X128936999Y-62225500D02*
X129322499Y-61840000D01*
X129760000Y-68790000D02*
X128936999Y-67966999D01*
X128936999Y-64000000D02*
X128936999Y-62225500D01*
X131137500Y-68790000D02*
X129760000Y-68790000D01*
X128936999Y-67966999D02*
X128936999Y-64000000D01*
%TD*%
%TA.AperFunction,Conductor*%
%TO.N,GND*%
G36*
X197941674Y-56013244D02*
G01*
X198031876Y-56050606D01*
X198109334Y-56110042D01*
X199889958Y-57890665D01*
X199949393Y-57968123D01*
X199986756Y-58058325D01*
X199999500Y-58155123D01*
X199999500Y-71844877D01*
X199986756Y-71941675D01*
X199949393Y-72031877D01*
X199889958Y-72109335D01*
X198109334Y-73889958D01*
X198031876Y-73949394D01*
X197941674Y-73986756D01*
X197844876Y-73999500D01*
X160819176Y-73999500D01*
X160708764Y-73982831D01*
X160608194Y-73934308D01*
X160526431Y-73858259D01*
X160470764Y-73761461D01*
X160446155Y-73652543D01*
X160454797Y-73541215D01*
X160495920Y-73437399D01*
X160565859Y-73350352D01*
X160566026Y-73350197D01*
X160587768Y-73330182D01*
X160599310Y-73319990D01*
X160617126Y-73304902D01*
X160631977Y-73290049D01*
X160709436Y-73230611D01*
X160799641Y-73193245D01*
X160896443Y-73180500D01*
X162367933Y-73180500D01*
X162492067Y-73180500D01*
X164537933Y-73180500D01*
X164662067Y-73180500D01*
X181727933Y-73180500D01*
X181852067Y-73180500D01*
X182153616Y-73180500D01*
X182176970Y-73181949D01*
X182176976Y-73181805D01*
X182192435Y-73182444D01*
X182207779Y-73184357D01*
X182293322Y-73180818D01*
X182308777Y-73180500D01*
X182332067Y-73180500D01*
X189413616Y-73180500D01*
X189436970Y-73181949D01*
X189436976Y-73181805D01*
X189452435Y-73182444D01*
X189467779Y-73184357D01*
X189553322Y-73180818D01*
X189568777Y-73180500D01*
X189584343Y-73180500D01*
X189592067Y-73180500D01*
X189615299Y-73178574D01*
X189630685Y-73177618D01*
X189716237Y-73174081D01*
X189731384Y-73170904D01*
X189746726Y-73168992D01*
X189746744Y-73169138D01*
X189747167Y-73169077D01*
X189747143Y-73168932D01*
X189762406Y-73166385D01*
X189777821Y-73165108D01*
X189860840Y-73144083D01*
X189875809Y-73140620D01*
X189959614Y-73123049D01*
X189974027Y-73117424D01*
X189988856Y-73113010D01*
X189988898Y-73113151D01*
X189989300Y-73113022D01*
X189989253Y-73112883D01*
X190003879Y-73107861D01*
X190018881Y-73104063D01*
X190097265Y-73069679D01*
X190111512Y-73063778D01*
X190191274Y-73032656D01*
X190204561Y-73024737D01*
X190218465Y-73017941D01*
X190218529Y-73018072D01*
X190218903Y-73017879D01*
X190218833Y-73017750D01*
X190232436Y-73010388D01*
X190246607Y-73004173D01*
X190318273Y-72957350D01*
X190331344Y-72949191D01*
X190404894Y-72905366D01*
X190416703Y-72895363D01*
X190429288Y-72886378D01*
X190429374Y-72886499D01*
X190429712Y-72886248D01*
X190429621Y-72886131D01*
X190441834Y-72876624D01*
X190454785Y-72868164D01*
X190517767Y-72810183D01*
X190529310Y-72799990D01*
X190547126Y-72784902D01*
X190563627Y-72768399D01*
X190574761Y-72757717D01*
X190637738Y-72699744D01*
X190647246Y-72687527D01*
X190657716Y-72676154D01*
X190657824Y-72676253D01*
X190673298Y-72658728D01*
X193515531Y-69816495D01*
X193611831Y-69746890D01*
X193725107Y-69711004D01*
X193843924Y-69712462D01*
X193956286Y-69751116D01*
X194050852Y-69823065D01*
X194118076Y-69921047D01*
X194151173Y-70035170D01*
X194146801Y-70153914D01*
X194142157Y-70177258D01*
X194142154Y-70177278D01*
X194139769Y-70189270D01*
X194138968Y-70201486D01*
X194138968Y-70201489D01*
X194134079Y-70276087D01*
X194119403Y-70500000D01*
X194120204Y-70512221D01*
X194131643Y-70686757D01*
X194139769Y-70810730D01*
X194142157Y-70822735D01*
X194198130Y-71104132D01*
X194198132Y-71104141D01*
X194200520Y-71116144D01*
X194204457Y-71127742D01*
X194296678Y-71399419D01*
X194296681Y-71399428D01*
X194300615Y-71411015D01*
X194438343Y-71690299D01*
X194611345Y-71949216D01*
X194816664Y-72183336D01*
X195050784Y-72388655D01*
X195309701Y-72561657D01*
X195588985Y-72699385D01*
X195883856Y-72799480D01*
X196189270Y-72860231D01*
X196500000Y-72880597D01*
X196810730Y-72860231D01*
X197116144Y-72799480D01*
X197411015Y-72699385D01*
X197690299Y-72561657D01*
X197949216Y-72388655D01*
X198183336Y-72183336D01*
X198388655Y-71949216D01*
X198561657Y-71690299D01*
X198699385Y-71411015D01*
X198799480Y-71116144D01*
X198860231Y-70810730D01*
X198880597Y-70500000D01*
X198860231Y-70189270D01*
X198799480Y-69883856D01*
X198699385Y-69588985D01*
X198561657Y-69309702D01*
X198388655Y-69050784D01*
X198183336Y-68816664D01*
X198129103Y-68769103D01*
X197958418Y-68619415D01*
X197949216Y-68611345D01*
X197690299Y-68438343D01*
X197679320Y-68432928D01*
X197679317Y-68432927D01*
X197422000Y-68306032D01*
X197421997Y-68306030D01*
X197411015Y-68300615D01*
X197399428Y-68296681D01*
X197399419Y-68296678D01*
X197127742Y-68204457D01*
X197116144Y-68200520D01*
X197104141Y-68198132D01*
X197104132Y-68198130D01*
X196822735Y-68142157D01*
X196810730Y-68139769D01*
X196798511Y-68138968D01*
X196798510Y-68138968D01*
X196512221Y-68120204D01*
X196500000Y-68119403D01*
X196487779Y-68120204D01*
X196422234Y-68124500D01*
X196201489Y-68138968D01*
X196201486Y-68138968D01*
X196189270Y-68139769D01*
X196177278Y-68142154D01*
X196177258Y-68142157D01*
X196153914Y-68146801D01*
X196035170Y-68151173D01*
X195921047Y-68118076D01*
X195823065Y-68050852D01*
X195751116Y-67956286D01*
X195712462Y-67843924D01*
X195711004Y-67725107D01*
X195746890Y-67611831D01*
X195816495Y-67515531D01*
X196864198Y-66467828D01*
X196881723Y-66452354D01*
X196881624Y-66452246D01*
X196892997Y-66441776D01*
X196905214Y-66432268D01*
X196963187Y-66369291D01*
X196973869Y-66358157D01*
X196990372Y-66341656D01*
X197005460Y-66323840D01*
X197015653Y-66312297D01*
X197073634Y-66249315D01*
X197082094Y-66236364D01*
X197091601Y-66224151D01*
X197091718Y-66224242D01*
X197091968Y-66223906D01*
X197091847Y-66223820D01*
X197100834Y-66211232D01*
X197110836Y-66199424D01*
X197149964Y-66133757D01*
X197154651Y-66125892D01*
X197162819Y-66112804D01*
X197209643Y-66041137D01*
X197215859Y-66026963D01*
X197223220Y-66013364D01*
X197223349Y-66013434D01*
X197223543Y-66013056D01*
X197223412Y-66012992D01*
X197230204Y-65999096D01*
X197238126Y-65985803D01*
X197269263Y-65906000D01*
X197275134Y-65891829D01*
X197309533Y-65813411D01*
X197313331Y-65798410D01*
X197318355Y-65783778D01*
X197318493Y-65783825D01*
X197318621Y-65783428D01*
X197318480Y-65783386D01*
X197322894Y-65768557D01*
X197328519Y-65754144D01*
X197346090Y-65670339D01*
X197349553Y-65655370D01*
X197370578Y-65572351D01*
X197371855Y-65556936D01*
X197374402Y-65541673D01*
X197374547Y-65541697D01*
X197374608Y-65541274D01*
X197374462Y-65541256D01*
X197376374Y-65525914D01*
X197379551Y-65510767D01*
X197383088Y-65425215D01*
X197384044Y-65409829D01*
X197385970Y-65386597D01*
X197385970Y-65378870D01*
X197386290Y-65371138D01*
X197387462Y-65371186D01*
X197398354Y-65287248D01*
X197434685Y-65198124D01*
X197492558Y-65121223D01*
X197545291Y-65079650D01*
X197543970Y-65077832D01*
X197601029Y-65036375D01*
X197620323Y-65022356D01*
X197627091Y-65017554D01*
X197704654Y-64963820D01*
X197714646Y-64953827D01*
X197726078Y-64945522D01*
X197791281Y-64877323D01*
X197797060Y-64871412D01*
X198669740Y-63998732D01*
X198701008Y-63970791D01*
X198717666Y-63957508D01*
X198755722Y-63913948D01*
X198762442Y-63906763D01*
X198762338Y-63906668D01*
X198767997Y-63900475D01*
X198773945Y-63894529D01*
X198798279Y-63865379D01*
X198803727Y-63859002D01*
X198865765Y-63787996D01*
X198873012Y-63775865D01*
X198882068Y-63765019D01*
X198928639Y-63682941D01*
X198932801Y-63675794D01*
X198981215Y-63594764D01*
X198986180Y-63581532D01*
X198993153Y-63569245D01*
X199024330Y-63480143D01*
X199027129Y-63472424D01*
X199060307Y-63384024D01*
X199062829Y-63370123D01*
X199067498Y-63356782D01*
X199082253Y-63263617D01*
X199083652Y-63255379D01*
X199100500Y-63162547D01*
X199100500Y-63148414D01*
X199102710Y-63134460D01*
X199100593Y-63040166D01*
X199100500Y-63031776D01*
X199100500Y-59391224D01*
X199102850Y-59349366D01*
X199105238Y-59328173D01*
X199101346Y-59270461D01*
X199101015Y-59260619D01*
X199100877Y-59260626D01*
X199100500Y-59252233D01*
X199100500Y-59243845D01*
X199097092Y-59205996D01*
X199096442Y-59197731D01*
X199090096Y-59103588D01*
X199086643Y-59089887D01*
X199085377Y-59075812D01*
X199060251Y-58984775D01*
X199058163Y-58976864D01*
X199035096Y-58885317D01*
X199029252Y-58872452D01*
X199025493Y-58858830D01*
X198984526Y-58773761D01*
X198981040Y-58766308D01*
X198942007Y-58680374D01*
X198933960Y-58668759D01*
X198927829Y-58656027D01*
X198917955Y-58642436D01*
X198872385Y-58579713D01*
X198867531Y-58572873D01*
X198861870Y-58564703D01*
X198813820Y-58495346D01*
X198803827Y-58485353D01*
X198795522Y-58473922D01*
X198727372Y-58408764D01*
X198721371Y-58402897D01*
X197633740Y-57315266D01*
X197605792Y-57283992D01*
X197592508Y-57267334D01*
X197579864Y-57256287D01*
X197579862Y-57256285D01*
X197548950Y-57229278D01*
X197541757Y-57222554D01*
X197541664Y-57222657D01*
X197535467Y-57216993D01*
X197529529Y-57211055D01*
X197500365Y-57186707D01*
X197494101Y-57181358D01*
X197422996Y-57119235D01*
X197410865Y-57111987D01*
X197400019Y-57102932D01*
X197385411Y-57094643D01*
X197385408Y-57094641D01*
X197317988Y-57056386D01*
X197310738Y-57052164D01*
X197244184Y-57012400D01*
X197244180Y-57012398D01*
X197229764Y-57003785D01*
X197216532Y-56998819D01*
X197204245Y-56991847D01*
X197188401Y-56986303D01*
X197188395Y-56986300D01*
X197115194Y-56960686D01*
X197107360Y-56957845D01*
X197019024Y-56924693D01*
X197005124Y-56922170D01*
X196991783Y-56917502D01*
X196975204Y-56914876D01*
X196975196Y-56914874D01*
X196898627Y-56902747D01*
X196890358Y-56901342D01*
X196814072Y-56887498D01*
X196814063Y-56887497D01*
X196797547Y-56884500D01*
X196783414Y-56884500D01*
X196769460Y-56882290D01*
X196752677Y-56882666D01*
X196752669Y-56882666D01*
X196675167Y-56884406D01*
X196666776Y-56884500D01*
X159887547Y-56884500D01*
X150512547Y-56884500D01*
X141287547Y-56884500D01*
X123243845Y-56884500D01*
X123235496Y-56885251D01*
X123235482Y-56885252D01*
X123092545Y-56898116D01*
X123092533Y-56898118D01*
X123075812Y-56899623D01*
X122978339Y-56926523D01*
X122878848Y-56940000D01*
X122561017Y-56940000D01*
X122560997Y-56940000D01*
X122551492Y-56940001D01*
X122542033Y-56940967D01*
X122542018Y-56940968D01*
X122469021Y-56948425D01*
X122469016Y-56948425D01*
X122448703Y-56950501D01*
X122429314Y-56956925D01*
X122429313Y-56956926D01*
X122302846Y-56998833D01*
X122302843Y-56998834D01*
X122282166Y-57005686D01*
X122263628Y-57017119D01*
X122263624Y-57017122D01*
X122151388Y-57086349D01*
X122151382Y-57086353D01*
X122132844Y-57097788D01*
X122117441Y-57113190D01*
X122117437Y-57113194D01*
X122024194Y-57206437D01*
X122024190Y-57206441D01*
X122008788Y-57221844D01*
X121997353Y-57240382D01*
X121997349Y-57240388D01*
X121928122Y-57352624D01*
X121928119Y-57352628D01*
X121916686Y-57371166D01*
X121909834Y-57391843D01*
X121909833Y-57391846D01*
X121867925Y-57518314D01*
X121867923Y-57518321D01*
X121861501Y-57537703D01*
X121859425Y-57558020D01*
X121859425Y-57558022D01*
X121851967Y-57631019D01*
X121851966Y-57631032D01*
X121851000Y-57640491D01*
X121851000Y-57650006D01*
X121851000Y-57650007D01*
X121851000Y-58619983D01*
X121851000Y-58620002D01*
X121851001Y-58629508D01*
X121851967Y-58638967D01*
X121851968Y-58638981D01*
X121859425Y-58711978D01*
X121861501Y-58732297D01*
X121916686Y-58898834D01*
X121928121Y-58917374D01*
X121933748Y-58929440D01*
X121964840Y-59033293D01*
X121964841Y-59141701D01*
X121933750Y-59245554D01*
X121928118Y-59257631D01*
X121916686Y-59276166D01*
X121909836Y-59296837D01*
X121909834Y-59296842D01*
X121867925Y-59423314D01*
X121867923Y-59423321D01*
X121861501Y-59442703D01*
X121859425Y-59463020D01*
X121859425Y-59463022D01*
X121851967Y-59536019D01*
X121851966Y-59536032D01*
X121851000Y-59545491D01*
X121851000Y-59555006D01*
X121851000Y-59555007D01*
X121851000Y-60524983D01*
X121851000Y-60525002D01*
X121851001Y-60534508D01*
X121851967Y-60543967D01*
X121851968Y-60543981D01*
X121858709Y-60609965D01*
X121861501Y-60637297D01*
X121916686Y-60803834D01*
X121928121Y-60822374D01*
X121928122Y-60822375D01*
X121943227Y-60846865D01*
X122008788Y-60953156D01*
X122132844Y-61077212D01*
X122282166Y-61169314D01*
X122448703Y-61224499D01*
X122551491Y-61235000D01*
X124048508Y-61234999D01*
X124151297Y-61224499D01*
X124272054Y-61184483D01*
X124389695Y-61165500D01*
X124443157Y-61165500D01*
X124508021Y-61171474D01*
X124521891Y-61175443D01*
X124635009Y-61185500D01*
X126001692Y-61185500D01*
X126009989Y-61185500D01*
X126123107Y-61175443D01*
X126308473Y-61122403D01*
X126479367Y-61033135D01*
X126628793Y-60911294D01*
X126750634Y-60761868D01*
X126839902Y-60590974D01*
X126892942Y-60405608D01*
X126902999Y-60292490D01*
X126902999Y-59787510D01*
X126902265Y-59779261D01*
X126902124Y-59776067D01*
X126916189Y-59656607D01*
X126967448Y-59547790D01*
X127050597Y-59460871D01*
X127157037Y-59404843D01*
X127275757Y-59385500D01*
X129360500Y-59385500D01*
X129476072Y-59403805D01*
X129580332Y-59456928D01*
X129663072Y-59539668D01*
X129716195Y-59643928D01*
X129734500Y-59759500D01*
X129734500Y-60212396D01*
X129715672Y-60329565D01*
X129661085Y-60434937D01*
X129576234Y-60517904D01*
X129469662Y-60570110D01*
X129357603Y-60585544D01*
X129350671Y-60584763D01*
X129333908Y-60585893D01*
X129333906Y-60585893D01*
X129142847Y-60598773D01*
X129142835Y-60598774D01*
X129126086Y-60599904D01*
X129109802Y-60604007D01*
X129109797Y-60604008D01*
X128924103Y-60650799D01*
X128924095Y-60650801D01*
X128907815Y-60654904D01*
X128892519Y-60661851D01*
X128876673Y-60667397D01*
X128876508Y-60666927D01*
X128818813Y-60686033D01*
X128739684Y-60694500D01*
X128635009Y-60694500D01*
X128626757Y-60695233D01*
X128626749Y-60695234D01*
X128539594Y-60702983D01*
X128539593Y-60702983D01*
X128521891Y-60704557D01*
X128504811Y-60709444D01*
X128504801Y-60709446D01*
X128354759Y-60752379D01*
X128354753Y-60752381D01*
X128336525Y-60757597D01*
X128319718Y-60766375D01*
X128319711Y-60766379D01*
X128182442Y-60838083D01*
X128182437Y-60838086D01*
X128165631Y-60846865D01*
X128150941Y-60858842D01*
X128150932Y-60858849D01*
X128030906Y-60956718D01*
X128030901Y-60956722D01*
X128016205Y-60968706D01*
X128004221Y-60983402D01*
X128004217Y-60983407D01*
X127906348Y-61103433D01*
X127906341Y-61103442D01*
X127894364Y-61118132D01*
X127885585Y-61134938D01*
X127885582Y-61134943D01*
X127813878Y-61272212D01*
X127813874Y-61272219D01*
X127805096Y-61289026D01*
X127799880Y-61307254D01*
X127799878Y-61307260D01*
X127756945Y-61457302D01*
X127756943Y-61457312D01*
X127752056Y-61474392D01*
X127750482Y-61492094D01*
X127750482Y-61492095D01*
X127750257Y-61494632D01*
X127741999Y-61587510D01*
X127741999Y-61595807D01*
X127741999Y-61790876D01*
X127736716Y-61853518D01*
X127728244Y-61886360D01*
X127728580Y-61886444D01*
X127726692Y-61891476D01*
X127724169Y-61905375D01*
X127719501Y-61918717D01*
X127716875Y-61935292D01*
X127716875Y-61935295D01*
X127704745Y-62011878D01*
X127703340Y-62020147D01*
X127689497Y-62096427D01*
X127689496Y-62096437D01*
X127686499Y-62112953D01*
X127686499Y-62127086D01*
X127684289Y-62141040D01*
X127684665Y-62157821D01*
X127684665Y-62157830D01*
X127686405Y-62235333D01*
X127686499Y-62243724D01*
X127686499Y-67875775D01*
X127684148Y-67917632D01*
X127681761Y-67938826D01*
X127682890Y-67955586D01*
X127682891Y-67955586D01*
X127685652Y-67996537D01*
X127685983Y-68006386D01*
X127686123Y-68006380D01*
X127686499Y-68014757D01*
X127686499Y-68023154D01*
X127687250Y-68031507D01*
X127687252Y-68031534D01*
X127689900Y-68060962D01*
X127690558Y-68069314D01*
X127694279Y-68124500D01*
X127696903Y-68163411D01*
X127700355Y-68177111D01*
X127701622Y-68191187D01*
X127706088Y-68207371D01*
X127706090Y-68207379D01*
X127726722Y-68282137D01*
X127728859Y-68290234D01*
X127751903Y-68381682D01*
X127757746Y-68394546D01*
X127761506Y-68408169D01*
X127768787Y-68423289D01*
X127768788Y-68423291D01*
X127802441Y-68493173D01*
X127805990Y-68500761D01*
X127844992Y-68586625D01*
X127853038Y-68598239D01*
X127859170Y-68610972D01*
X127914639Y-68687319D01*
X127919458Y-68694112D01*
X127963615Y-68757849D01*
X127963618Y-68757852D01*
X127973179Y-68771653D01*
X127983171Y-68781645D01*
X127991477Y-68793077D01*
X128003615Y-68804682D01*
X128059648Y-68858255D01*
X128065649Y-68864123D01*
X128811259Y-69609733D01*
X128839203Y-69641003D01*
X128842018Y-69644533D01*
X128842022Y-69644537D01*
X128852492Y-69657666D01*
X128865134Y-69668711D01*
X128865136Y-69668713D01*
X128896047Y-69695719D01*
X128903245Y-69702448D01*
X128903340Y-69702346D01*
X128909525Y-69707999D01*
X128915470Y-69713944D01*
X128921931Y-69719338D01*
X128921932Y-69719339D01*
X128944617Y-69738279D01*
X128950950Y-69743687D01*
X129022004Y-69805765D01*
X129034134Y-69813012D01*
X129044981Y-69822068D01*
X129125629Y-69867829D01*
X129127004Y-69868609D01*
X129134256Y-69872833D01*
X129200805Y-69912594D01*
X129200814Y-69912598D01*
X129215236Y-69921215D01*
X129228467Y-69926180D01*
X129240755Y-69933153D01*
X129256609Y-69938700D01*
X129271908Y-69945650D01*
X129271244Y-69947111D01*
X129338786Y-69981381D01*
X129412327Y-70047924D01*
X129451930Y-70109800D01*
X129452686Y-70109334D01*
X129519588Y-70217801D01*
X129544788Y-70258656D01*
X129668844Y-70382712D01*
X129818166Y-70474814D01*
X129984703Y-70529999D01*
X130087491Y-70540500D01*
X132187508Y-70540499D01*
X132290297Y-70529999D01*
X132456834Y-70474814D01*
X132582848Y-70397087D01*
X132667832Y-70358370D01*
X132759765Y-70341913D01*
X132852910Y-70348748D01*
X132941450Y-70378445D01*
X133036177Y-70424063D01*
X133286885Y-70501396D01*
X133546318Y-70540500D01*
X133794694Y-70540500D01*
X133808682Y-70540500D01*
X134068115Y-70501396D01*
X134318823Y-70424063D01*
X134555204Y-70310228D01*
X134771979Y-70162433D01*
X134964305Y-69983981D01*
X135127886Y-69778857D01*
X135259068Y-69551643D01*
X135354920Y-69307416D01*
X135413302Y-69051630D01*
X135432908Y-68790000D01*
X135413302Y-68528370D01*
X135354920Y-68272584D01*
X135259068Y-68028357D01*
X135127886Y-67801143D01*
X135129597Y-67800154D01*
X135093498Y-67727295D01*
X135074696Y-67625845D01*
X135084330Y-67523119D01*
X135121666Y-67426933D01*
X135183858Y-67344614D01*
X137063633Y-65464840D01*
X137155394Y-65397559D01*
X137263143Y-65360983D01*
X137376903Y-65358500D01*
X137464822Y-65384125D01*
X137465092Y-65383314D01*
X137631629Y-65438499D01*
X137734417Y-65449000D01*
X138723434Y-65448999D01*
X138826223Y-65438499D01*
X138992760Y-65383314D01*
X139011303Y-65371876D01*
X139023365Y-65366252D01*
X139127221Y-65335159D01*
X139235631Y-65335159D01*
X139339487Y-65366252D01*
X139351549Y-65371876D01*
X139370092Y-65383314D01*
X139536629Y-65438499D01*
X139639417Y-65449000D01*
X140628434Y-65448999D01*
X140731223Y-65438499D01*
X140897760Y-65383314D01*
X141047082Y-65291212D01*
X141171138Y-65167156D01*
X141263240Y-65017834D01*
X141318425Y-64851297D01*
X141328926Y-64748509D01*
X141328925Y-63251492D01*
X141318425Y-63148703D01*
X141278409Y-63027945D01*
X141259426Y-62910305D01*
X141259426Y-61609000D01*
X141277731Y-61493428D01*
X141330854Y-61389168D01*
X141413594Y-61306428D01*
X141517853Y-61253305D01*
X141633426Y-61235000D01*
X142593111Y-61234999D01*
X142627078Y-61234999D01*
X142729867Y-61224499D01*
X142850624Y-61184483D01*
X142968265Y-61165500D01*
X143027008Y-61165500D01*
X143091872Y-61171474D01*
X143105742Y-61175443D01*
X143218860Y-61185500D01*
X144585543Y-61185500D01*
X144593840Y-61185500D01*
X144706958Y-61175443D01*
X144892324Y-61122403D01*
X145063218Y-61033135D01*
X145212644Y-60911294D01*
X145334485Y-60761868D01*
X145423753Y-60590974D01*
X145476793Y-60405608D01*
X145486850Y-60292490D01*
X145486850Y-59787510D01*
X145486116Y-59779261D01*
X145485975Y-59776067D01*
X145500040Y-59656607D01*
X145551299Y-59547790D01*
X145634448Y-59460871D01*
X145740888Y-59404843D01*
X145859608Y-59385500D01*
X147926350Y-59385500D01*
X148041922Y-59403805D01*
X148146182Y-59456928D01*
X148228922Y-59539668D01*
X148282045Y-59643928D01*
X148300350Y-59759500D01*
X148300350Y-60211991D01*
X148281523Y-60329158D01*
X148226938Y-60434528D01*
X148142090Y-60517494D01*
X148035522Y-60569702D01*
X147934445Y-60583626D01*
X147934522Y-60584763D01*
X147918213Y-60585862D01*
X147918205Y-60585862D01*
X147917773Y-60585892D01*
X147917766Y-60585892D01*
X147726698Y-60598773D01*
X147726686Y-60598774D01*
X147709937Y-60599904D01*
X147693653Y-60604007D01*
X147693648Y-60604008D01*
X147507954Y-60650799D01*
X147507946Y-60650801D01*
X147491666Y-60654904D01*
X147476370Y-60661851D01*
X147460524Y-60667397D01*
X147460359Y-60666927D01*
X147402664Y-60686033D01*
X147323535Y-60694500D01*
X147218860Y-60694500D01*
X147210608Y-60695233D01*
X147210600Y-60695234D01*
X147123445Y-60702983D01*
X147123444Y-60702983D01*
X147105742Y-60704557D01*
X147088662Y-60709444D01*
X147088652Y-60709446D01*
X146938610Y-60752379D01*
X146938604Y-60752381D01*
X146920376Y-60757597D01*
X146903569Y-60766375D01*
X146903562Y-60766379D01*
X146766293Y-60838083D01*
X146766288Y-60838086D01*
X146749482Y-60846865D01*
X146734792Y-60858842D01*
X146734783Y-60858849D01*
X146614757Y-60956718D01*
X146614752Y-60956722D01*
X146600056Y-60968706D01*
X146588072Y-60983402D01*
X146588068Y-60983407D01*
X146490199Y-61103433D01*
X146490192Y-61103442D01*
X146478215Y-61118132D01*
X146469436Y-61134938D01*
X146469433Y-61134943D01*
X146397729Y-61272212D01*
X146397725Y-61272219D01*
X146388947Y-61289026D01*
X146383731Y-61307254D01*
X146383729Y-61307260D01*
X146340796Y-61457302D01*
X146340794Y-61457312D01*
X146335907Y-61474392D01*
X146334333Y-61492094D01*
X146334333Y-61492095D01*
X146334108Y-61494632D01*
X146325850Y-61587510D01*
X146325850Y-61595807D01*
X146325850Y-61790876D01*
X146320567Y-61853518D01*
X146312095Y-61886360D01*
X146312431Y-61886444D01*
X146310543Y-61891476D01*
X146308020Y-61905375D01*
X146303352Y-61918717D01*
X146300726Y-61935292D01*
X146300726Y-61935295D01*
X146288596Y-62011878D01*
X146287191Y-62020147D01*
X146273348Y-62096427D01*
X146273347Y-62096437D01*
X146270350Y-62112953D01*
X146270350Y-62127086D01*
X146268140Y-62141040D01*
X146268516Y-62157821D01*
X146268516Y-62157830D01*
X146270256Y-62235333D01*
X146270350Y-62243724D01*
X146270350Y-65456260D01*
X146257606Y-65553058D01*
X146220244Y-65643260D01*
X146160808Y-65720718D01*
X144451568Y-67429958D01*
X144374110Y-67489394D01*
X144283908Y-67526756D01*
X144187110Y-67539500D01*
X142670176Y-67539500D01*
X142577889Y-67527935D01*
X142491310Y-67493956D01*
X142415793Y-67439663D01*
X142402237Y-67427085D01*
X142391979Y-67417567D01*
X142175204Y-67269772D01*
X142162596Y-67263700D01*
X142162592Y-67263698D01*
X141951430Y-67162008D01*
X141951425Y-67162006D01*
X141938823Y-67155937D01*
X141925459Y-67151814D01*
X141925452Y-67151812D01*
X141701490Y-67082729D01*
X141701482Y-67082727D01*
X141688115Y-67078604D01*
X141674285Y-67076519D01*
X141674279Y-67076518D01*
X141442510Y-67041584D01*
X141442506Y-67041583D01*
X141428682Y-67039500D01*
X141166318Y-67039500D01*
X141152494Y-67041583D01*
X141152489Y-67041584D01*
X140920720Y-67076518D01*
X140920711Y-67076519D01*
X140906885Y-67078604D01*
X140893520Y-67082726D01*
X140893509Y-67082729D01*
X140669547Y-67151812D01*
X140669536Y-67151816D01*
X140656177Y-67155937D01*
X140643576Y-67162004D01*
X140643569Y-67162008D01*
X140432407Y-67263698D01*
X140432397Y-67263703D01*
X140419796Y-67269772D01*
X140408240Y-67277650D01*
X140408236Y-67277653D01*
X140238181Y-67393595D01*
X140137738Y-67441965D01*
X140027500Y-67458581D01*
X139917262Y-67441965D01*
X139816819Y-67393595D01*
X139646763Y-67277653D01*
X139635204Y-67269772D01*
X139622596Y-67263700D01*
X139622592Y-67263698D01*
X139411430Y-67162008D01*
X139411425Y-67162006D01*
X139398823Y-67155937D01*
X139385459Y-67151814D01*
X139385452Y-67151812D01*
X139161490Y-67082729D01*
X139161482Y-67082727D01*
X139148115Y-67078604D01*
X139134285Y-67076519D01*
X139134279Y-67076518D01*
X138902510Y-67041584D01*
X138902506Y-67041583D01*
X138888682Y-67039500D01*
X138626318Y-67039500D01*
X138612494Y-67041583D01*
X138612489Y-67041584D01*
X138380720Y-67076518D01*
X138380711Y-67076519D01*
X138366885Y-67078604D01*
X138353520Y-67082726D01*
X138353509Y-67082729D01*
X138129547Y-67151812D01*
X138129536Y-67151816D01*
X138116177Y-67155937D01*
X138103576Y-67162004D01*
X138103569Y-67162008D01*
X137892407Y-67263698D01*
X137892397Y-67263703D01*
X137879796Y-67269772D01*
X137868238Y-67277652D01*
X137868233Y-67277655D01*
X137674584Y-67409683D01*
X137674579Y-67409686D01*
X137663021Y-67417567D01*
X137652769Y-67427079D01*
X137652762Y-67427085D01*
X137548964Y-67523396D01*
X137470695Y-67596019D01*
X137461975Y-67606953D01*
X137461968Y-67606961D01*
X137315833Y-67790208D01*
X137315824Y-67790219D01*
X137307114Y-67801143D01*
X137300131Y-67813237D01*
X137300122Y-67813251D01*
X137182928Y-68016238D01*
X137182923Y-68016247D01*
X137175932Y-68028357D01*
X137170822Y-68041375D01*
X137170819Y-68041383D01*
X137085189Y-68259565D01*
X137085186Y-68259571D01*
X137080080Y-68272584D01*
X137076971Y-68286204D01*
X137076967Y-68286218D01*
X137028873Y-68496934D01*
X137021698Y-68528370D01*
X137020652Y-68542317D01*
X137020652Y-68542323D01*
X137014490Y-68624550D01*
X137002092Y-68790000D01*
X137021698Y-69051630D01*
X137024811Y-69065268D01*
X137076967Y-69293781D01*
X137076970Y-69293791D01*
X137080080Y-69307416D01*
X137085188Y-69320431D01*
X137085189Y-69320434D01*
X137159273Y-69509198D01*
X137175932Y-69551643D01*
X137182926Y-69563757D01*
X137182928Y-69563761D01*
X137300122Y-69766748D01*
X137300127Y-69766756D01*
X137307114Y-69778857D01*
X137315829Y-69789786D01*
X137315833Y-69789791D01*
X137425405Y-69927189D01*
X137469962Y-69998101D01*
X137497623Y-70077151D01*
X137507000Y-70160374D01*
X137507000Y-70196276D01*
X137504649Y-70238133D01*
X137502262Y-70259327D01*
X137503391Y-70276087D01*
X137503392Y-70276087D01*
X137506153Y-70317038D01*
X137506484Y-70326887D01*
X137506624Y-70326881D01*
X137507000Y-70335258D01*
X137507000Y-70343655D01*
X137507751Y-70352008D01*
X137507753Y-70352035D01*
X137510401Y-70381463D01*
X137511059Y-70389815D01*
X137516274Y-70467156D01*
X137517404Y-70483912D01*
X137520856Y-70497612D01*
X137522123Y-70511688D01*
X137526589Y-70527872D01*
X137526591Y-70527880D01*
X137547223Y-70602638D01*
X137549360Y-70610735D01*
X137572404Y-70702183D01*
X137578247Y-70715047D01*
X137582007Y-70728670D01*
X137589288Y-70743790D01*
X137589289Y-70743792D01*
X137622942Y-70813674D01*
X137626491Y-70821262D01*
X137665493Y-70907126D01*
X137673539Y-70918740D01*
X137679671Y-70931473D01*
X137735140Y-71007820D01*
X137739959Y-71014613D01*
X137784116Y-71078350D01*
X137784119Y-71078353D01*
X137793680Y-71092154D01*
X137803672Y-71102146D01*
X137811978Y-71113578D01*
X137880149Y-71178756D01*
X137886150Y-71184624D01*
X138831259Y-72129733D01*
X138859203Y-72161003D01*
X138862018Y-72164533D01*
X138862022Y-72164537D01*
X138872492Y-72177666D01*
X138885134Y-72188711D01*
X138885136Y-72188713D01*
X138916047Y-72215719D01*
X138923245Y-72222448D01*
X138923340Y-72222346D01*
X138929525Y-72227999D01*
X138935470Y-72233944D01*
X138941931Y-72239338D01*
X138941932Y-72239339D01*
X138964617Y-72258279D01*
X138970950Y-72263687D01*
X139042004Y-72325765D01*
X139054134Y-72333012D01*
X139064981Y-72342068D01*
X139132861Y-72380584D01*
X139147004Y-72388609D01*
X139154256Y-72392833D01*
X139220805Y-72432594D01*
X139220814Y-72432598D01*
X139235236Y-72441215D01*
X139248467Y-72446180D01*
X139260755Y-72453153D01*
X139347047Y-72483348D01*
X139349785Y-72484306D01*
X139357676Y-72487167D01*
X139378802Y-72495096D01*
X139445976Y-72520307D01*
X139459875Y-72522829D01*
X139473217Y-72527498D01*
X139489804Y-72530125D01*
X139489808Y-72530126D01*
X139527861Y-72536152D01*
X139566433Y-72542261D01*
X139574575Y-72543644D01*
X139667453Y-72560500D01*
X139681586Y-72560500D01*
X139695540Y-72562710D01*
X139789814Y-72560593D01*
X139798206Y-72560500D01*
X150978776Y-72560500D01*
X151020633Y-72562850D01*
X151041827Y-72565238D01*
X151099538Y-72561346D01*
X151109381Y-72561015D01*
X151109375Y-72560877D01*
X151117767Y-72560500D01*
X151126155Y-72560500D01*
X151163982Y-72557094D01*
X151172281Y-72556441D01*
X151266412Y-72550096D01*
X151280112Y-72546643D01*
X151294188Y-72545377D01*
X151385156Y-72520270D01*
X151393237Y-72518138D01*
X151397094Y-72517166D01*
X151484683Y-72495096D01*
X151497547Y-72489252D01*
X151511170Y-72485493D01*
X151596267Y-72444512D01*
X151603650Y-72441058D01*
X151689626Y-72402007D01*
X151701240Y-72393960D01*
X151713973Y-72387829D01*
X151790323Y-72332356D01*
X151797091Y-72327554D01*
X151874654Y-72273820D01*
X151884646Y-72263827D01*
X151896078Y-72255522D01*
X151961281Y-72187323D01*
X151967060Y-72181412D01*
X157632514Y-66515958D01*
X157663782Y-66488017D01*
X157680440Y-66474734D01*
X157718496Y-66431174D01*
X157725216Y-66423989D01*
X157725112Y-66423894D01*
X157730771Y-66417701D01*
X157736719Y-66411755D01*
X157761053Y-66382605D01*
X157766501Y-66376228D01*
X157828539Y-66305222D01*
X157835786Y-66293091D01*
X157844842Y-66282245D01*
X157891413Y-66200167D01*
X157895575Y-66193020D01*
X157943989Y-66111990D01*
X157948954Y-66098758D01*
X157955927Y-66086471D01*
X157987104Y-65997369D01*
X157989903Y-65989650D01*
X158023081Y-65901250D01*
X158025603Y-65887349D01*
X158030272Y-65874008D01*
X158045027Y-65780843D01*
X158046431Y-65772578D01*
X158047406Y-65767207D01*
X158049399Y-65756223D01*
X158081892Y-65657717D01*
X158140198Y-65571919D01*
X158219828Y-65505437D01*
X158314657Y-65463385D01*
X158417383Y-65448999D01*
X159212282Y-65448999D01*
X159315071Y-65438499D01*
X159481608Y-65383314D01*
X159630930Y-65291212D01*
X159754986Y-65167156D01*
X159847088Y-65017834D01*
X159902273Y-64851297D01*
X159912774Y-64748509D01*
X159912773Y-63251492D01*
X159902273Y-63148703D01*
X159862257Y-63027945D01*
X159843274Y-62910305D01*
X159843274Y-61609000D01*
X159861579Y-61493428D01*
X159914702Y-61389168D01*
X159997442Y-61306428D01*
X160101701Y-61253305D01*
X160217274Y-61235000D01*
X161171812Y-61234999D01*
X161205648Y-61234999D01*
X161308437Y-61224499D01*
X161429194Y-61184483D01*
X161546835Y-61165500D01*
X161610856Y-61165500D01*
X161675720Y-61171474D01*
X161689590Y-61175443D01*
X161802708Y-61185500D01*
X163169391Y-61185500D01*
X163177688Y-61185500D01*
X163290806Y-61175443D01*
X163476172Y-61122403D01*
X163647066Y-61033135D01*
X163796492Y-60911294D01*
X163918333Y-60761868D01*
X164007601Y-60590974D01*
X164060641Y-60405608D01*
X164070698Y-60292490D01*
X164070698Y-59787510D01*
X164069964Y-59779261D01*
X164069823Y-59776067D01*
X164083888Y-59656607D01*
X164135147Y-59547790D01*
X164218296Y-59460871D01*
X164324736Y-59404843D01*
X164443456Y-59385500D01*
X166510198Y-59385500D01*
X166625770Y-59403805D01*
X166730030Y-59456928D01*
X166812770Y-59539668D01*
X166865893Y-59643928D01*
X166884198Y-59759500D01*
X166884198Y-60211991D01*
X166865371Y-60329158D01*
X166810786Y-60434528D01*
X166725938Y-60517494D01*
X166619370Y-60569702D01*
X166518293Y-60583626D01*
X166518370Y-60584763D01*
X166502061Y-60585862D01*
X166502053Y-60585862D01*
X166501621Y-60585892D01*
X166501614Y-60585892D01*
X166310546Y-60598773D01*
X166310534Y-60598774D01*
X166293785Y-60599904D01*
X166277501Y-60604007D01*
X166277496Y-60604008D01*
X166091802Y-60650799D01*
X166091794Y-60650801D01*
X166075514Y-60654904D01*
X166060218Y-60661851D01*
X166044372Y-60667397D01*
X166044207Y-60666927D01*
X165986512Y-60686033D01*
X165907383Y-60694500D01*
X165802708Y-60694500D01*
X165794456Y-60695233D01*
X165794448Y-60695234D01*
X165707293Y-60702983D01*
X165707292Y-60702983D01*
X165689590Y-60704557D01*
X165672510Y-60709444D01*
X165672500Y-60709446D01*
X165522458Y-60752379D01*
X165522452Y-60752381D01*
X165504224Y-60757597D01*
X165487417Y-60766375D01*
X165487410Y-60766379D01*
X165350141Y-60838083D01*
X165350136Y-60838086D01*
X165333330Y-60846865D01*
X165318640Y-60858842D01*
X165318631Y-60858849D01*
X165198605Y-60956718D01*
X165198600Y-60956722D01*
X165183904Y-60968706D01*
X165171920Y-60983402D01*
X165171916Y-60983407D01*
X165074047Y-61103433D01*
X165074040Y-61103442D01*
X165062063Y-61118132D01*
X165053284Y-61134938D01*
X165053281Y-61134943D01*
X164981577Y-61272212D01*
X164981573Y-61272219D01*
X164972795Y-61289026D01*
X164967579Y-61307254D01*
X164967577Y-61307260D01*
X164924644Y-61457302D01*
X164924642Y-61457312D01*
X164919755Y-61474392D01*
X164918181Y-61492094D01*
X164918181Y-61492095D01*
X164917956Y-61494632D01*
X164909698Y-61587510D01*
X164909698Y-61595807D01*
X164909698Y-61790876D01*
X164904415Y-61853518D01*
X164895943Y-61886360D01*
X164896279Y-61886444D01*
X164894391Y-61891476D01*
X164891868Y-61905375D01*
X164887200Y-61918717D01*
X164884574Y-61935292D01*
X164884574Y-61935295D01*
X164872444Y-62011878D01*
X164871039Y-62020147D01*
X164857196Y-62096427D01*
X164857195Y-62096437D01*
X164854198Y-62112953D01*
X164854198Y-62127086D01*
X164851988Y-62141040D01*
X164852364Y-62157821D01*
X164852364Y-62157830D01*
X164854104Y-62235333D01*
X164854198Y-62243724D01*
X164854198Y-66113474D01*
X164851847Y-66155331D01*
X164849460Y-66176525D01*
X164850589Y-66193285D01*
X164850590Y-66193285D01*
X164853351Y-66234236D01*
X164853682Y-66244085D01*
X164853822Y-66244079D01*
X164854198Y-66252456D01*
X164854198Y-66260853D01*
X164854949Y-66269206D01*
X164854951Y-66269233D01*
X164857599Y-66298661D01*
X164858257Y-66307013D01*
X164863387Y-66383086D01*
X164864602Y-66401110D01*
X164868054Y-66414810D01*
X164869321Y-66428886D01*
X164873787Y-66445070D01*
X164873789Y-66445078D01*
X164894421Y-66519836D01*
X164896558Y-66527933D01*
X164919602Y-66619381D01*
X164925445Y-66632245D01*
X164929205Y-66645868D01*
X164936486Y-66660988D01*
X164936487Y-66660990D01*
X164940555Y-66669438D01*
X164964312Y-66718771D01*
X164970140Y-66730872D01*
X164973689Y-66738460D01*
X165012691Y-66824324D01*
X165020737Y-66835938D01*
X165026869Y-66848671D01*
X165082338Y-66925018D01*
X165087157Y-66931811D01*
X165131314Y-66995548D01*
X165131317Y-66995551D01*
X165140878Y-67009352D01*
X165150870Y-67019344D01*
X165159176Y-67030776D01*
X165171314Y-67042381D01*
X165227346Y-67095953D01*
X165233347Y-67101821D01*
X167672567Y-69541042D01*
X167737948Y-69629198D01*
X167774923Y-69732536D01*
X167780308Y-69842158D01*
X167753640Y-69948624D01*
X167697215Y-70042763D01*
X167615892Y-70116470D01*
X167516675Y-70163396D01*
X167408109Y-70179500D01*
X164662067Y-70179500D01*
X162492067Y-70179500D01*
X160236385Y-70179500D01*
X160213030Y-70178050D01*
X160213025Y-70178195D01*
X160197559Y-70177554D01*
X160182221Y-70175643D01*
X160166785Y-70176281D01*
X160166775Y-70176281D01*
X160096678Y-70179181D01*
X160081223Y-70179500D01*
X160057933Y-70179500D01*
X160050230Y-70180138D01*
X160050210Y-70180139D01*
X160034687Y-70181425D01*
X160019281Y-70182381D01*
X159949220Y-70185279D01*
X159949212Y-70185279D01*
X159933763Y-70185919D01*
X159918624Y-70189092D01*
X159903278Y-70191006D01*
X159903260Y-70190862D01*
X159902826Y-70190925D01*
X159902850Y-70191068D01*
X159887587Y-70193614D01*
X159872179Y-70194892D01*
X159857191Y-70198687D01*
X159857187Y-70198688D01*
X159789206Y-70215903D01*
X159774152Y-70219386D01*
X159705527Y-70233775D01*
X159705514Y-70233778D01*
X159690386Y-70236951D01*
X159675975Y-70242573D01*
X159661159Y-70246985D01*
X159661117Y-70246846D01*
X159660692Y-70246982D01*
X159660739Y-70247118D01*
X159646105Y-70252141D01*
X159631119Y-70255937D01*
X159616966Y-70262144D01*
X159616948Y-70262151D01*
X159552720Y-70290323D01*
X159538455Y-70296232D01*
X159473131Y-70321722D01*
X159473120Y-70321727D01*
X159458726Y-70327344D01*
X159445445Y-70335257D01*
X159431543Y-70342054D01*
X159431479Y-70341925D01*
X159431089Y-70342126D01*
X159431158Y-70342253D01*
X159417553Y-70349615D01*
X159403393Y-70355827D01*
X159390449Y-70364283D01*
X159390448Y-70364284D01*
X159331740Y-70402638D01*
X159318642Y-70410813D01*
X159258394Y-70446714D01*
X159258378Y-70446725D01*
X159245106Y-70454634D01*
X159233308Y-70464625D01*
X159220720Y-70473614D01*
X159220636Y-70473497D01*
X159220280Y-70473762D01*
X159220369Y-70473876D01*
X159208162Y-70483376D01*
X159195215Y-70491836D01*
X159183839Y-70502307D01*
X159183834Y-70502312D01*
X159132244Y-70549803D01*
X159120680Y-70560015D01*
X159108767Y-70570106D01*
X159108756Y-70570115D01*
X159102874Y-70575098D01*
X159097429Y-70580542D01*
X159097420Y-70580551D01*
X159088004Y-70589967D01*
X159010548Y-70649398D01*
X158920349Y-70686757D01*
X158823555Y-70699500D01*
X157636042Y-70699500D01*
X157548732Y-70689166D01*
X157535124Y-70685899D01*
X157443302Y-70663854D01*
X157428649Y-70662700D01*
X157428644Y-70662700D01*
X157214650Y-70645859D01*
X157200000Y-70644706D01*
X157185350Y-70645859D01*
X156971355Y-70662700D01*
X156971348Y-70662700D01*
X156956698Y-70663854D01*
X156942404Y-70667285D01*
X156942402Y-70667286D01*
X156733681Y-70717396D01*
X156733675Y-70717397D01*
X156719388Y-70720828D01*
X156705815Y-70726450D01*
X156705806Y-70726453D01*
X156507492Y-70808597D01*
X156507485Y-70808600D01*
X156493911Y-70814223D01*
X156481385Y-70821898D01*
X156481377Y-70821903D01*
X156298356Y-70934059D01*
X156298351Y-70934062D01*
X156285821Y-70941741D01*
X156274651Y-70951280D01*
X156274640Y-70951289D01*
X156111418Y-71090694D01*
X156111411Y-71090700D01*
X156100241Y-71100241D01*
X156090700Y-71111411D01*
X156090694Y-71111418D01*
X155951289Y-71274640D01*
X155951280Y-71274651D01*
X155941741Y-71285821D01*
X155934062Y-71298351D01*
X155934059Y-71298356D01*
X155821903Y-71481377D01*
X155821898Y-71481385D01*
X155814223Y-71493911D01*
X155808600Y-71507485D01*
X155808597Y-71507492D01*
X155726453Y-71705806D01*
X155726450Y-71705815D01*
X155720828Y-71719388D01*
X155717397Y-71733675D01*
X155717396Y-71733681D01*
X155690700Y-71844877D01*
X155663854Y-71956698D01*
X155662700Y-71971348D01*
X155662700Y-71971355D01*
X155657937Y-72031876D01*
X155644706Y-72200000D01*
X155645859Y-72214650D01*
X155660123Y-72395904D01*
X155663854Y-72443302D01*
X155667286Y-72457597D01*
X155692194Y-72561347D01*
X155720828Y-72680612D01*
X155726451Y-72694188D01*
X155726453Y-72694193D01*
X155808597Y-72892507D01*
X155814223Y-72906089D01*
X155821901Y-72918619D01*
X155821903Y-72918622D01*
X155895227Y-73038275D01*
X155941741Y-73114179D01*
X155951285Y-73125354D01*
X155951289Y-73125359D01*
X156010887Y-73195139D01*
X156100241Y-73299759D01*
X156148655Y-73341109D01*
X156222715Y-73426963D01*
X156267644Y-73531067D01*
X156279312Y-73643850D01*
X156256646Y-73754947D01*
X156201730Y-73854146D01*
X156119611Y-73932330D01*
X156017837Y-73982313D01*
X155905762Y-73999500D01*
X122155123Y-73999500D01*
X122058325Y-73986756D01*
X121968123Y-73949393D01*
X121890665Y-73889958D01*
X120110042Y-72109334D01*
X120050606Y-72031876D01*
X120013244Y-71941674D01*
X120000500Y-71844876D01*
X120000500Y-70500000D01*
X121119403Y-70500000D01*
X121120204Y-70512221D01*
X121131643Y-70686757D01*
X121139769Y-70810730D01*
X121142157Y-70822735D01*
X121198130Y-71104132D01*
X121198132Y-71104141D01*
X121200520Y-71116144D01*
X121204457Y-71127742D01*
X121296678Y-71399419D01*
X121296681Y-71399428D01*
X121300615Y-71411015D01*
X121438343Y-71690299D01*
X121611345Y-71949216D01*
X121816664Y-72183336D01*
X122050784Y-72388655D01*
X122309701Y-72561657D01*
X122588985Y-72699385D01*
X122883856Y-72799480D01*
X123189270Y-72860231D01*
X123500000Y-72880597D01*
X123810730Y-72860231D01*
X124116144Y-72799480D01*
X124411015Y-72699385D01*
X124690299Y-72561657D01*
X124949216Y-72388655D01*
X125183336Y-72183336D01*
X125388655Y-71949216D01*
X125561657Y-71690299D01*
X125699385Y-71411015D01*
X125799480Y-71116144D01*
X125860231Y-70810730D01*
X125880597Y-70500000D01*
X125860231Y-70189270D01*
X125799480Y-69883856D01*
X125699385Y-69588985D01*
X125561657Y-69309702D01*
X125388655Y-69050784D01*
X125183336Y-68816664D01*
X125129103Y-68769103D01*
X124958418Y-68619415D01*
X124949216Y-68611345D01*
X124690299Y-68438343D01*
X124679320Y-68432928D01*
X124679317Y-68432927D01*
X124422000Y-68306032D01*
X124421997Y-68306030D01*
X124411015Y-68300615D01*
X124399428Y-68296681D01*
X124399419Y-68296678D01*
X124127742Y-68204457D01*
X124116144Y-68200520D01*
X124104141Y-68198132D01*
X124104132Y-68198130D01*
X123822735Y-68142157D01*
X123810730Y-68139769D01*
X123798511Y-68138968D01*
X123798510Y-68138968D01*
X123512221Y-68120204D01*
X123500000Y-68119403D01*
X123487779Y-68120204D01*
X123422234Y-68124500D01*
X123201489Y-68138968D01*
X123201486Y-68138968D01*
X123189270Y-68139769D01*
X123177266Y-68142156D01*
X123177264Y-68142157D01*
X122895867Y-68198130D01*
X122895854Y-68198133D01*
X122883856Y-68200520D01*
X122872261Y-68204455D01*
X122872257Y-68204457D01*
X122600576Y-68296680D01*
X122600570Y-68296682D01*
X122588985Y-68300615D01*
X122578016Y-68306023D01*
X122578007Y-68306028D01*
X122320685Y-68432926D01*
X122320676Y-68432931D01*
X122309702Y-68438343D01*
X122299521Y-68445146D01*
X122060969Y-68604539D01*
X122060962Y-68604544D01*
X122050784Y-68611345D01*
X122041581Y-68619415D01*
X122041573Y-68619422D01*
X121825874Y-68808586D01*
X121825865Y-68808594D01*
X121816664Y-68816664D01*
X121808594Y-68825865D01*
X121808586Y-68825874D01*
X121619415Y-69041581D01*
X121619408Y-69041588D01*
X121611345Y-69050784D01*
X121604552Y-69060950D01*
X121604547Y-69060957D01*
X121445143Y-69299523D01*
X121445138Y-69299530D01*
X121438343Y-69309701D01*
X121432932Y-69320673D01*
X121432927Y-69320682D01*
X121319030Y-69551643D01*
X121306030Y-69578002D01*
X121306023Y-69578017D01*
X121300615Y-69588985D01*
X121296680Y-69600574D01*
X121296677Y-69600584D01*
X121204457Y-69872257D01*
X121200520Y-69883856D01*
X121198133Y-69895854D01*
X121198130Y-69895867D01*
X121142353Y-70176281D01*
X121139769Y-70189270D01*
X121138968Y-70201486D01*
X121138968Y-70201489D01*
X121134079Y-70276087D01*
X121119403Y-70500000D01*
X120000500Y-70500000D01*
X120000500Y-58155124D01*
X120013244Y-58058326D01*
X120050606Y-57968124D01*
X120110042Y-57890666D01*
X121890665Y-56110042D01*
X121968123Y-56050607D01*
X122058325Y-56013244D01*
X122155123Y-56000500D01*
X197844876Y-56000500D01*
X197941674Y-56013244D01*
G37*
%TD.AperFunction*%
%TA.AperFunction,Conductor*%
G36*
X157333846Y-59403805D02*
G01*
X157438106Y-59456928D01*
X157520846Y-59539668D01*
X157573969Y-59643928D01*
X157592274Y-59759500D01*
X157592274Y-60211991D01*
X157573447Y-60329158D01*
X157518862Y-60434528D01*
X157434014Y-60517494D01*
X157327446Y-60569702D01*
X157226369Y-60583626D01*
X157226446Y-60584763D01*
X157210137Y-60585862D01*
X157210129Y-60585862D01*
X157209697Y-60585892D01*
X157209690Y-60585892D01*
X157018622Y-60598773D01*
X157018610Y-60598774D01*
X157001861Y-60599904D01*
X156985577Y-60604007D01*
X156985572Y-60604008D01*
X156799878Y-60650799D01*
X156799870Y-60650801D01*
X156783590Y-60654904D01*
X156768294Y-60661851D01*
X156752448Y-60667397D01*
X156752283Y-60666927D01*
X156694588Y-60686033D01*
X156615459Y-60694500D01*
X156510784Y-60694500D01*
X156502532Y-60695233D01*
X156502524Y-60695234D01*
X156415369Y-60702983D01*
X156415368Y-60702983D01*
X156397666Y-60704557D01*
X156380586Y-60709444D01*
X156380576Y-60709446D01*
X156230534Y-60752379D01*
X156230528Y-60752381D01*
X156212300Y-60757597D01*
X156195493Y-60766375D01*
X156195486Y-60766379D01*
X156058217Y-60838083D01*
X156058212Y-60838086D01*
X156041406Y-60846865D01*
X156026716Y-60858842D01*
X156026707Y-60858849D01*
X155906681Y-60956718D01*
X155906676Y-60956722D01*
X155891980Y-60968706D01*
X155879996Y-60983402D01*
X155879992Y-60983407D01*
X155782123Y-61103433D01*
X155782116Y-61103442D01*
X155770139Y-61118132D01*
X155761360Y-61134938D01*
X155761357Y-61134943D01*
X155689653Y-61272212D01*
X155689649Y-61272219D01*
X155680871Y-61289026D01*
X155675655Y-61307254D01*
X155675653Y-61307260D01*
X155632720Y-61457302D01*
X155632718Y-61457312D01*
X155627831Y-61474392D01*
X155626257Y-61492094D01*
X155626257Y-61492095D01*
X155626032Y-61494632D01*
X155617774Y-61587510D01*
X155617774Y-61595807D01*
X155617774Y-61790876D01*
X155612491Y-61853518D01*
X155604019Y-61886360D01*
X155604355Y-61886444D01*
X155602467Y-61891476D01*
X155599944Y-61905375D01*
X155595276Y-61918717D01*
X155592650Y-61935292D01*
X155592650Y-61935295D01*
X155580520Y-62011878D01*
X155579115Y-62020147D01*
X155565272Y-62096427D01*
X155565271Y-62096437D01*
X155562274Y-62112953D01*
X155562274Y-62127086D01*
X155560064Y-62141040D01*
X155560440Y-62157821D01*
X155560440Y-62157830D01*
X155562180Y-62235333D01*
X155562274Y-62243724D01*
X155562274Y-64894336D01*
X155549530Y-64991134D01*
X155512168Y-65081336D01*
X155452732Y-65158794D01*
X150661568Y-69949958D01*
X150584110Y-70009394D01*
X150493908Y-70046756D01*
X150397110Y-70059500D01*
X146261889Y-70059500D01*
X146153323Y-70043396D01*
X146054106Y-69996470D01*
X145972783Y-69922763D01*
X145916358Y-69828624D01*
X145889690Y-69722158D01*
X145895075Y-69612536D01*
X145932050Y-69509198D01*
X145997431Y-69421042D01*
X147158908Y-68259565D01*
X148340590Y-67077882D01*
X148371858Y-67049941D01*
X148388516Y-67036658D01*
X148426572Y-66993098D01*
X148433289Y-66985915D01*
X148433186Y-66985821D01*
X148438856Y-66979616D01*
X148444794Y-66973680D01*
X148469139Y-66944518D01*
X148474526Y-66938211D01*
X148536615Y-66867146D01*
X148543862Y-66855015D01*
X148552918Y-66844169D01*
X148599489Y-66762091D01*
X148603651Y-66754944D01*
X148652065Y-66673914D01*
X148657030Y-66660682D01*
X148664003Y-66648395D01*
X148692346Y-66567394D01*
X148695154Y-66559370D01*
X148698017Y-66551472D01*
X148699469Y-66547603D01*
X148731157Y-66463174D01*
X148733679Y-66449274D01*
X148738348Y-66435933D01*
X148753108Y-66342733D01*
X148754497Y-66334555D01*
X148771350Y-66241697D01*
X148771350Y-66227564D01*
X148773560Y-66213610D01*
X148771443Y-66119335D01*
X148771350Y-66110944D01*
X148771350Y-65823000D01*
X148789655Y-65707428D01*
X148842778Y-65603168D01*
X148925518Y-65520428D01*
X149029777Y-65467305D01*
X149145350Y-65449000D01*
X149878215Y-65448999D01*
X149920358Y-65448999D01*
X150023147Y-65438499D01*
X150189684Y-65383314D01*
X150339006Y-65291212D01*
X150463062Y-65167156D01*
X150555164Y-65017834D01*
X150610349Y-64851297D01*
X150620850Y-64748509D01*
X150620849Y-63251492D01*
X150610349Y-63148703D01*
X150570333Y-63027945D01*
X150551350Y-62910305D01*
X150551350Y-61609000D01*
X150569655Y-61493428D01*
X150622778Y-61389168D01*
X150705518Y-61306428D01*
X150809777Y-61253305D01*
X150925350Y-61235000D01*
X151882462Y-61234999D01*
X151916363Y-61234999D01*
X152019152Y-61224499D01*
X152139909Y-61184483D01*
X152257550Y-61165500D01*
X152318932Y-61165500D01*
X152383796Y-61171474D01*
X152397666Y-61175443D01*
X152510784Y-61185500D01*
X153877467Y-61185500D01*
X153885764Y-61185500D01*
X153998882Y-61175443D01*
X154184248Y-61122403D01*
X154355142Y-61033135D01*
X154504568Y-60911294D01*
X154626409Y-60761868D01*
X154715677Y-60590974D01*
X154768717Y-60405608D01*
X154778774Y-60292490D01*
X154778774Y-59787510D01*
X154778040Y-59779261D01*
X154777899Y-59776067D01*
X154791964Y-59656607D01*
X154843223Y-59547790D01*
X154926372Y-59460871D01*
X155032812Y-59404843D01*
X155151532Y-59385500D01*
X157218274Y-59385500D01*
X157333846Y-59403805D01*
G37*
%TD.AperFunction*%
%TA.AperFunction,Conductor*%
G36*
X175917694Y-59403805D02*
G01*
X176021954Y-59456928D01*
X176104694Y-59539668D01*
X176157817Y-59643928D01*
X176176122Y-59759500D01*
X176176122Y-60211991D01*
X176157295Y-60329158D01*
X176102710Y-60434528D01*
X176017862Y-60517494D01*
X175911294Y-60569702D01*
X175810217Y-60583626D01*
X175810294Y-60584763D01*
X175793985Y-60585862D01*
X175793977Y-60585862D01*
X175793545Y-60585892D01*
X175793538Y-60585892D01*
X175602470Y-60598773D01*
X175602458Y-60598774D01*
X175585709Y-60599904D01*
X175569425Y-60604007D01*
X175569420Y-60604008D01*
X175383726Y-60650799D01*
X175383718Y-60650801D01*
X175367438Y-60654904D01*
X175352142Y-60661851D01*
X175336296Y-60667397D01*
X175336131Y-60666927D01*
X175278436Y-60686033D01*
X175199307Y-60694500D01*
X175094632Y-60694500D01*
X175086380Y-60695233D01*
X175086372Y-60695234D01*
X174999217Y-60702983D01*
X174999216Y-60702983D01*
X174981514Y-60704557D01*
X174964434Y-60709444D01*
X174964424Y-60709446D01*
X174814382Y-60752379D01*
X174814376Y-60752381D01*
X174796148Y-60757597D01*
X174779341Y-60766375D01*
X174779334Y-60766379D01*
X174642065Y-60838083D01*
X174642060Y-60838086D01*
X174625254Y-60846865D01*
X174610564Y-60858842D01*
X174610555Y-60858849D01*
X174490529Y-60956718D01*
X174490524Y-60956722D01*
X174475828Y-60968706D01*
X174463844Y-60983402D01*
X174463840Y-60983407D01*
X174365971Y-61103433D01*
X174365964Y-61103442D01*
X174353987Y-61118132D01*
X174345208Y-61134938D01*
X174345205Y-61134943D01*
X174273501Y-61272212D01*
X174273497Y-61272219D01*
X174264719Y-61289026D01*
X174259503Y-61307254D01*
X174259501Y-61307260D01*
X174216568Y-61457302D01*
X174216566Y-61457312D01*
X174211679Y-61474392D01*
X174210105Y-61492094D01*
X174210105Y-61492095D01*
X174209880Y-61494632D01*
X174201622Y-61587510D01*
X174201622Y-61595807D01*
X174201622Y-61790876D01*
X174196339Y-61853518D01*
X174187867Y-61886360D01*
X174188203Y-61886444D01*
X174186315Y-61891476D01*
X174183792Y-61905375D01*
X174179124Y-61918717D01*
X174176498Y-61935292D01*
X174176498Y-61935295D01*
X174164368Y-62011878D01*
X174162963Y-62020147D01*
X174149120Y-62096427D01*
X174149119Y-62096437D01*
X174146122Y-62112953D01*
X174146122Y-62127086D01*
X174143912Y-62141040D01*
X174144288Y-62157821D01*
X174144288Y-62157830D01*
X174146028Y-62235333D01*
X174146122Y-62243724D01*
X174146122Y-65582020D01*
X174143771Y-65623877D01*
X174141384Y-65645071D01*
X174142513Y-65661831D01*
X174142514Y-65661831D01*
X174145275Y-65702782D01*
X174145606Y-65712631D01*
X174145746Y-65712625D01*
X174146122Y-65721002D01*
X174146122Y-65729399D01*
X174146873Y-65737752D01*
X174146875Y-65737779D01*
X174149523Y-65767207D01*
X174150181Y-65775559D01*
X174153689Y-65827577D01*
X174156526Y-65869656D01*
X174159978Y-65883356D01*
X174161245Y-65897432D01*
X174165711Y-65913616D01*
X174165713Y-65913624D01*
X174186345Y-65988382D01*
X174188482Y-65996479D01*
X174211526Y-66087927D01*
X174217369Y-66100791D01*
X174221129Y-66114414D01*
X174260690Y-66196566D01*
X174262064Y-66199418D01*
X174265613Y-66207006D01*
X174276858Y-66231762D01*
X174296631Y-66275294D01*
X174304615Y-66292870D01*
X174312661Y-66304484D01*
X174318793Y-66317217D01*
X174374262Y-66393564D01*
X174379081Y-66400357D01*
X174423238Y-66464094D01*
X174423241Y-66464097D01*
X174432802Y-66477898D01*
X174442794Y-66487890D01*
X174451100Y-66499322D01*
X174485501Y-66532213D01*
X174519268Y-66564497D01*
X174525269Y-66570365D01*
X174855945Y-66901042D01*
X174921326Y-66989198D01*
X174958301Y-67092537D01*
X174963686Y-67202159D01*
X174937018Y-67308624D01*
X174880593Y-67402763D01*
X174799270Y-67476470D01*
X174700053Y-67523396D01*
X174591487Y-67539500D01*
X169362890Y-67539500D01*
X169266092Y-67526756D01*
X169175890Y-67489394D01*
X169098432Y-67429958D01*
X167755931Y-66087457D01*
X167690550Y-65999301D01*
X167653575Y-65895963D01*
X167648190Y-65786341D01*
X167674858Y-65679875D01*
X167731283Y-65585736D01*
X167812606Y-65512029D01*
X167911823Y-65465103D01*
X168020385Y-65448999D01*
X168504206Y-65448999D01*
X168606995Y-65438499D01*
X168773532Y-65383314D01*
X168922854Y-65291212D01*
X169046910Y-65167156D01*
X169139012Y-65017834D01*
X169194197Y-64851297D01*
X169204698Y-64748509D01*
X169204697Y-63251492D01*
X169194197Y-63148703D01*
X169154181Y-63027945D01*
X169135198Y-62910305D01*
X169135198Y-61609000D01*
X169153503Y-61493428D01*
X169206626Y-61389168D01*
X169289366Y-61306428D01*
X169393625Y-61253305D01*
X169509198Y-61235000D01*
X170461163Y-61234999D01*
X170494933Y-61234999D01*
X170597722Y-61224499D01*
X170718479Y-61184483D01*
X170836120Y-61165500D01*
X170902780Y-61165500D01*
X170967644Y-61171474D01*
X170981514Y-61175443D01*
X171094632Y-61185500D01*
X172461315Y-61185500D01*
X172469612Y-61185500D01*
X172582730Y-61175443D01*
X172768096Y-61122403D01*
X172938990Y-61033135D01*
X173088416Y-60911294D01*
X173210257Y-60761868D01*
X173299525Y-60590974D01*
X173352565Y-60405608D01*
X173362622Y-60292490D01*
X173362622Y-59787510D01*
X173361888Y-59779261D01*
X173361747Y-59776067D01*
X173375812Y-59656607D01*
X173427071Y-59547790D01*
X173510220Y-59460871D01*
X173616660Y-59404843D01*
X173735380Y-59385500D01*
X175802122Y-59385500D01*
X175917694Y-59403805D01*
G37*
%TD.AperFunction*%
%TA.AperFunction,Conductor*%
G36*
X185209618Y-59403805D02*
G01*
X185313878Y-59456928D01*
X185396618Y-59539668D01*
X185449741Y-59643928D01*
X185468046Y-59759500D01*
X185468046Y-60211991D01*
X185449219Y-60329158D01*
X185394634Y-60434528D01*
X185309786Y-60517494D01*
X185203218Y-60569702D01*
X185102141Y-60583626D01*
X185102218Y-60584763D01*
X185085909Y-60585862D01*
X185085901Y-60585862D01*
X185085469Y-60585892D01*
X185085462Y-60585892D01*
X184894394Y-60598773D01*
X184894382Y-60598774D01*
X184877633Y-60599904D01*
X184861349Y-60604007D01*
X184861344Y-60604008D01*
X184675650Y-60650799D01*
X184675642Y-60650801D01*
X184659362Y-60654904D01*
X184644066Y-60661851D01*
X184628220Y-60667397D01*
X184628055Y-60666927D01*
X184570360Y-60686033D01*
X184491231Y-60694500D01*
X184386556Y-60694500D01*
X184378304Y-60695233D01*
X184378296Y-60695234D01*
X184291141Y-60702983D01*
X184291140Y-60702983D01*
X184273438Y-60704557D01*
X184256358Y-60709444D01*
X184256348Y-60709446D01*
X184106306Y-60752379D01*
X184106300Y-60752381D01*
X184088072Y-60757597D01*
X184071265Y-60766375D01*
X184071258Y-60766379D01*
X183933989Y-60838083D01*
X183933984Y-60838086D01*
X183917178Y-60846865D01*
X183902488Y-60858842D01*
X183902479Y-60858849D01*
X183782453Y-60956718D01*
X183782448Y-60956722D01*
X183767752Y-60968706D01*
X183755768Y-60983402D01*
X183755764Y-60983407D01*
X183657895Y-61103433D01*
X183657888Y-61103442D01*
X183645911Y-61118132D01*
X183637132Y-61134938D01*
X183637129Y-61134943D01*
X183565425Y-61272212D01*
X183565421Y-61272219D01*
X183556643Y-61289026D01*
X183551427Y-61307254D01*
X183551425Y-61307260D01*
X183508492Y-61457302D01*
X183508490Y-61457312D01*
X183503603Y-61474392D01*
X183502029Y-61492094D01*
X183502029Y-61492095D01*
X183501804Y-61494632D01*
X183493546Y-61587510D01*
X183493546Y-61595807D01*
X183493546Y-61790876D01*
X183488263Y-61853518D01*
X183479791Y-61886360D01*
X183480127Y-61886444D01*
X183478239Y-61891476D01*
X183475716Y-61905375D01*
X183471048Y-61918717D01*
X183468422Y-61935292D01*
X183468422Y-61935295D01*
X183456292Y-62011878D01*
X183454887Y-62020147D01*
X183441044Y-62096427D01*
X183441043Y-62096437D01*
X183438046Y-62112953D01*
X183438046Y-62127086D01*
X183435836Y-62141040D01*
X183436212Y-62157821D01*
X183436212Y-62157830D01*
X183437952Y-62235333D01*
X183438046Y-62243724D01*
X183438046Y-65160230D01*
X183435695Y-65202087D01*
X183433308Y-65223281D01*
X183434437Y-65240041D01*
X183434438Y-65240041D01*
X183437199Y-65280992D01*
X183437530Y-65290841D01*
X183437670Y-65290835D01*
X183438046Y-65299212D01*
X183438046Y-65307609D01*
X183438797Y-65315962D01*
X183438799Y-65315989D01*
X183441447Y-65345417D01*
X183442105Y-65353769D01*
X183447320Y-65431110D01*
X183448450Y-65447866D01*
X183451902Y-65461566D01*
X183453169Y-65475642D01*
X183457635Y-65491826D01*
X183457637Y-65491834D01*
X183478269Y-65566592D01*
X183480406Y-65574689D01*
X183503450Y-65666137D01*
X183509293Y-65679001D01*
X183513053Y-65692624D01*
X183520334Y-65707744D01*
X183520335Y-65707746D01*
X183534798Y-65737779D01*
X183552991Y-65775559D01*
X183553988Y-65777628D01*
X183557537Y-65785216D01*
X183596539Y-65871080D01*
X183604585Y-65882694D01*
X183610717Y-65895427D01*
X183666186Y-65971774D01*
X183671005Y-65978567D01*
X183715162Y-66042304D01*
X183715165Y-66042307D01*
X183724726Y-66056108D01*
X183734718Y-66066100D01*
X183743024Y-66077532D01*
X183781600Y-66114414D01*
X183811195Y-66142710D01*
X183817196Y-66148578D01*
X184118745Y-66450127D01*
X184188940Y-66547603D01*
X184224615Y-66662303D01*
X184222088Y-66782397D01*
X184181621Y-66895496D01*
X184107387Y-66989933D01*
X184007045Y-67055966D01*
X183890945Y-67086784D01*
X183776106Y-67079526D01*
X183773115Y-67078604D01*
X183759284Y-67076519D01*
X183759283Y-67076519D01*
X183527510Y-67041584D01*
X183527506Y-67041583D01*
X183513682Y-67039500D01*
X183251318Y-67039500D01*
X183237494Y-67041583D01*
X183237489Y-67041584D01*
X183005720Y-67076518D01*
X183005711Y-67076519D01*
X182991885Y-67078604D01*
X182978520Y-67082726D01*
X182978509Y-67082729D01*
X182754547Y-67151812D01*
X182754536Y-67151816D01*
X182741177Y-67155937D01*
X182728577Y-67162004D01*
X182728574Y-67162006D01*
X182590396Y-67228549D01*
X182486631Y-67260982D01*
X182377922Y-67262201D01*
X182273455Y-67232105D01*
X182182057Y-67173236D01*
X182111452Y-67090568D01*
X182067604Y-66991087D01*
X182052784Y-66937390D01*
X182050641Y-66929272D01*
X182031703Y-66854115D01*
X182031702Y-66854114D01*
X182027596Y-66837816D01*
X182021751Y-66824949D01*
X182017993Y-66811330D01*
X181977032Y-66726274D01*
X181973555Y-66718842D01*
X181934507Y-66632874D01*
X181926460Y-66621259D01*
X181920329Y-66608527D01*
X181892603Y-66570365D01*
X181864885Y-66532213D01*
X181860031Y-66525373D01*
X181851861Y-66513580D01*
X181806320Y-66447846D01*
X181796327Y-66437853D01*
X181788022Y-66426422D01*
X181719872Y-66361264D01*
X181713871Y-66355397D01*
X180725362Y-65366888D01*
X180697414Y-65335614D01*
X180697051Y-65335159D01*
X180684130Y-65318956D01*
X180671486Y-65307909D01*
X180671484Y-65307907D01*
X180640572Y-65280900D01*
X180633379Y-65274176D01*
X180633286Y-65274279D01*
X180627089Y-65268615D01*
X180621151Y-65262677D01*
X180591987Y-65238329D01*
X180585723Y-65232980D01*
X180514618Y-65170857D01*
X180502487Y-65163609D01*
X180491641Y-65154554D01*
X180477033Y-65146265D01*
X180477030Y-65146263D01*
X180409610Y-65108008D01*
X180402360Y-65103786D01*
X180335806Y-65064022D01*
X180335802Y-65064020D01*
X180321386Y-65055407D01*
X180308154Y-65050441D01*
X180295867Y-65043469D01*
X180280023Y-65037925D01*
X180280017Y-65037922D01*
X180206816Y-65012308D01*
X180198982Y-65009467D01*
X180110646Y-64976315D01*
X180096746Y-64973792D01*
X180083405Y-64969124D01*
X180066826Y-64966498D01*
X180066818Y-64966496D01*
X179990249Y-64954369D01*
X179981980Y-64952964D01*
X179905694Y-64939120D01*
X179905685Y-64939119D01*
X179889169Y-64936122D01*
X179875036Y-64936122D01*
X179861082Y-64933912D01*
X179844299Y-64934288D01*
X179844291Y-64934288D01*
X179766789Y-64936028D01*
X179758398Y-64936122D01*
X178870622Y-64936122D01*
X178755050Y-64917817D01*
X178650790Y-64864694D01*
X178568050Y-64781954D01*
X178514927Y-64677695D01*
X178496622Y-64562122D01*
X178496621Y-63261016D01*
X178496621Y-63251492D01*
X178486121Y-63148703D01*
X178446105Y-63027945D01*
X178427122Y-62910305D01*
X178427122Y-61609000D01*
X178445427Y-61493428D01*
X178498550Y-61389168D01*
X178581290Y-61306428D01*
X178685549Y-61253305D01*
X178801122Y-61235000D01*
X179750513Y-61234999D01*
X179784218Y-61234999D01*
X179887007Y-61224499D01*
X180007764Y-61184483D01*
X180125405Y-61165500D01*
X180194704Y-61165500D01*
X180259568Y-61171474D01*
X180273438Y-61175443D01*
X180386556Y-61185500D01*
X181753239Y-61185500D01*
X181761536Y-61185500D01*
X181874654Y-61175443D01*
X182060020Y-61122403D01*
X182230914Y-61033135D01*
X182380340Y-60911294D01*
X182502181Y-60761868D01*
X182591449Y-60590974D01*
X182644489Y-60405608D01*
X182654546Y-60292490D01*
X182654546Y-59787510D01*
X182653812Y-59779261D01*
X182653671Y-59776067D01*
X182667736Y-59656607D01*
X182718995Y-59547790D01*
X182802144Y-59460871D01*
X182908584Y-59404843D01*
X183027304Y-59385500D01*
X185094046Y-59385500D01*
X185209618Y-59403805D01*
G37*
%TD.AperFunction*%
%TA.AperFunction,Conductor*%
G36*
X196108908Y-59398244D02*
G01*
X196199110Y-59435606D01*
X196276568Y-59495042D01*
X196489958Y-59708432D01*
X196549394Y-59785890D01*
X196586756Y-59876092D01*
X196599500Y-59972890D01*
X196599500Y-61142473D01*
X196582032Y-61255438D01*
X196531258Y-61357851D01*
X196451923Y-61440145D01*
X196351437Y-61494632D01*
X196239187Y-61516222D01*
X196125658Y-61502900D01*
X196021456Y-61455909D01*
X195936314Y-61379638D01*
X195883911Y-61290907D01*
X195883373Y-61289026D01*
X195794105Y-61118132D01*
X195748176Y-61061805D01*
X195684251Y-60983407D01*
X195672264Y-60968706D01*
X195657562Y-60956718D01*
X195537536Y-60858849D01*
X195537531Y-60858846D01*
X195522838Y-60846865D01*
X195440460Y-60803834D01*
X195368757Y-60766379D01*
X195368753Y-60766377D01*
X195351944Y-60757597D01*
X195333711Y-60752380D01*
X195333709Y-60752379D01*
X195183667Y-60709446D01*
X195183659Y-60709444D01*
X195166578Y-60704557D01*
X195145247Y-60702660D01*
X195061719Y-60695234D01*
X195061712Y-60695233D01*
X195053460Y-60694500D01*
X195045163Y-60694500D01*
X194950931Y-60694500D01*
X194880024Y-60687717D01*
X194833598Y-60674058D01*
X194833405Y-60674702D01*
X194633904Y-60614794D01*
X194633898Y-60614792D01*
X194617821Y-60609965D01*
X194601134Y-60608084D01*
X194601130Y-60608084D01*
X194410838Y-60586644D01*
X194410836Y-60586643D01*
X194394142Y-60584763D01*
X194377391Y-60585892D01*
X194377380Y-60585892D01*
X194186318Y-60598773D01*
X194186306Y-60598774D01*
X194169557Y-60599904D01*
X194153273Y-60604007D01*
X194153268Y-60604008D01*
X193967574Y-60650799D01*
X193967566Y-60650801D01*
X193951286Y-60654904D01*
X193935990Y-60661851D01*
X193920144Y-60667397D01*
X193919979Y-60666927D01*
X193862284Y-60686033D01*
X193783155Y-60694500D01*
X193678480Y-60694500D01*
X193670228Y-60695233D01*
X193670220Y-60695234D01*
X193583065Y-60702983D01*
X193583064Y-60702983D01*
X193565362Y-60704557D01*
X193548282Y-60709444D01*
X193548272Y-60709446D01*
X193398230Y-60752379D01*
X193398224Y-60752381D01*
X193379996Y-60757597D01*
X193363189Y-60766375D01*
X193363182Y-60766379D01*
X193225913Y-60838083D01*
X193225908Y-60838086D01*
X193209102Y-60846865D01*
X193194412Y-60858842D01*
X193194403Y-60858849D01*
X193074377Y-60956718D01*
X193074372Y-60956722D01*
X193059676Y-60968706D01*
X193047692Y-60983402D01*
X193047688Y-60983407D01*
X192949819Y-61103433D01*
X192949812Y-61103442D01*
X192937835Y-61118132D01*
X192929056Y-61134938D01*
X192929053Y-61134943D01*
X192857349Y-61272212D01*
X192857345Y-61272219D01*
X192848567Y-61289026D01*
X192843351Y-61307254D01*
X192843349Y-61307260D01*
X192800416Y-61457302D01*
X192800414Y-61457312D01*
X192795527Y-61474392D01*
X192793953Y-61492094D01*
X192793953Y-61492095D01*
X192793728Y-61494632D01*
X192785470Y-61587510D01*
X192785470Y-61595807D01*
X192785470Y-61790876D01*
X192780187Y-61853518D01*
X192771715Y-61886360D01*
X192772051Y-61886444D01*
X192770163Y-61891476D01*
X192767640Y-61905375D01*
X192762972Y-61918717D01*
X192760346Y-61935292D01*
X192760346Y-61935295D01*
X192748216Y-62011878D01*
X192746811Y-62020147D01*
X192732968Y-62096427D01*
X192732967Y-62096437D01*
X192729970Y-62112953D01*
X192729970Y-62127086D01*
X192727760Y-62141040D01*
X192728136Y-62157821D01*
X192728136Y-62157830D01*
X192729876Y-62235333D01*
X192729970Y-62243724D01*
X192729970Y-63327110D01*
X192717226Y-63423908D01*
X192679863Y-63514110D01*
X192620428Y-63591568D01*
X189226594Y-66985400D01*
X189152155Y-67043074D01*
X189065670Y-67080326D01*
X188972622Y-67094795D01*
X188878909Y-67085564D01*
X188866485Y-67082728D01*
X188853115Y-67078604D01*
X188749857Y-67063040D01*
X188607510Y-67041584D01*
X188607506Y-67041583D01*
X188593682Y-67039500D01*
X188331318Y-67039500D01*
X188317494Y-67041583D01*
X188317489Y-67041584D01*
X188085720Y-67076518D01*
X188085711Y-67076519D01*
X188071885Y-67078604D01*
X188058520Y-67082726D01*
X188058509Y-67082729D01*
X187834547Y-67151812D01*
X187834536Y-67151816D01*
X187821177Y-67155937D01*
X187709267Y-67209829D01*
X187606691Y-67242072D01*
X187499175Y-67243796D01*
X187395612Y-67214857D01*
X187304563Y-67157647D01*
X187233555Y-67076896D01*
X187188458Y-66979279D01*
X187173000Y-66872866D01*
X187173000Y-66576622D01*
X187175352Y-66534748D01*
X187175355Y-66534715D01*
X187177737Y-66513580D01*
X187175331Y-66477898D01*
X187173847Y-66455880D01*
X187173515Y-66446029D01*
X187173377Y-66446036D01*
X187173000Y-66437649D01*
X187173000Y-66429253D01*
X187169596Y-66391438D01*
X187168939Y-66383086D01*
X187167271Y-66358346D01*
X187162596Y-66288995D01*
X187159143Y-66275294D01*
X187157877Y-66261220D01*
X187142917Y-66207016D01*
X187132779Y-66170280D01*
X187130636Y-66162161D01*
X187127221Y-66148609D01*
X187107596Y-66070724D01*
X187101751Y-66057857D01*
X187097993Y-66044238D01*
X187057032Y-65959183D01*
X187053539Y-65951716D01*
X187040948Y-65923995D01*
X187011493Y-65824043D01*
X187010758Y-65719841D01*
X187038800Y-65619482D01*
X187093444Y-65530755D01*
X187170447Y-65460548D01*
X187263821Y-65414316D01*
X187357380Y-65383314D01*
X187506702Y-65291212D01*
X187630758Y-65167156D01*
X187722860Y-65017834D01*
X187778045Y-64851297D01*
X187788546Y-64748509D01*
X187788545Y-63251492D01*
X187778045Y-63148703D01*
X187738029Y-63027945D01*
X187719046Y-62910305D01*
X187719046Y-61609000D01*
X187737351Y-61493428D01*
X187790474Y-61389168D01*
X187873214Y-61306428D01*
X187977473Y-61253305D01*
X188093046Y-61235000D01*
X189039869Y-61234999D01*
X189073508Y-61234999D01*
X189176297Y-61224499D01*
X189297054Y-61184483D01*
X189414695Y-61165500D01*
X189486628Y-61165500D01*
X189551492Y-61171474D01*
X189565362Y-61175443D01*
X189678480Y-61185500D01*
X191045163Y-61185500D01*
X191053460Y-61185500D01*
X191166578Y-61175443D01*
X191351944Y-61122403D01*
X191522838Y-61033135D01*
X191672264Y-60911294D01*
X191794105Y-60761868D01*
X191883373Y-60590974D01*
X191936413Y-60405608D01*
X191946470Y-60292490D01*
X191946470Y-59787510D01*
X191945736Y-59779261D01*
X191945595Y-59776067D01*
X191959660Y-59656607D01*
X192010919Y-59547790D01*
X192094068Y-59460871D01*
X192200508Y-59404843D01*
X192319228Y-59385500D01*
X196012110Y-59385500D01*
X196108908Y-59398244D01*
G37*
%TD.AperFunction*%
%TA.AperFunction,Conductor*%
G36*
X138749998Y-59403805D02*
G01*
X138854258Y-59456928D01*
X138936998Y-59539668D01*
X138990121Y-59643928D01*
X139008426Y-59759500D01*
X139008426Y-60211991D01*
X138989599Y-60329158D01*
X138935014Y-60434528D01*
X138850166Y-60517494D01*
X138743598Y-60569702D01*
X138642521Y-60583626D01*
X138642598Y-60584763D01*
X138626289Y-60585862D01*
X138626281Y-60585862D01*
X138625849Y-60585892D01*
X138625842Y-60585892D01*
X138434774Y-60598773D01*
X138434762Y-60598774D01*
X138418013Y-60599904D01*
X138401729Y-60604007D01*
X138401724Y-60604008D01*
X138216030Y-60650799D01*
X138216022Y-60650801D01*
X138199742Y-60654904D01*
X138184446Y-60661851D01*
X138168600Y-60667397D01*
X138168435Y-60666927D01*
X138110740Y-60686033D01*
X138031611Y-60694500D01*
X137926936Y-60694500D01*
X137918684Y-60695233D01*
X137918676Y-60695234D01*
X137831521Y-60702983D01*
X137831520Y-60702983D01*
X137813818Y-60704557D01*
X137796738Y-60709444D01*
X137796728Y-60709446D01*
X137646686Y-60752379D01*
X137646680Y-60752381D01*
X137628452Y-60757597D01*
X137611645Y-60766375D01*
X137611638Y-60766379D01*
X137474369Y-60838083D01*
X137474364Y-60838086D01*
X137457558Y-60846865D01*
X137442868Y-60858842D01*
X137442859Y-60858849D01*
X137322833Y-60956718D01*
X137322828Y-60956722D01*
X137308132Y-60968706D01*
X137296148Y-60983402D01*
X137296144Y-60983407D01*
X137198275Y-61103433D01*
X137198268Y-61103442D01*
X137186291Y-61118132D01*
X137177512Y-61134938D01*
X137177509Y-61134943D01*
X137105805Y-61272212D01*
X137105801Y-61272219D01*
X137097023Y-61289026D01*
X137091807Y-61307254D01*
X137091805Y-61307260D01*
X137048872Y-61457302D01*
X137048870Y-61457312D01*
X137043983Y-61474392D01*
X137042409Y-61492094D01*
X137042409Y-61492095D01*
X137042184Y-61494632D01*
X137033926Y-61587510D01*
X137033926Y-61595807D01*
X137033926Y-61790876D01*
X137028643Y-61853518D01*
X137020171Y-61886360D01*
X137020507Y-61886444D01*
X137018619Y-61891476D01*
X137016096Y-61905375D01*
X137011428Y-61918717D01*
X137008802Y-61935292D01*
X137008802Y-61935295D01*
X136996672Y-62011878D01*
X136995267Y-62020147D01*
X136981424Y-62096427D01*
X136981423Y-62096437D01*
X136978426Y-62112953D01*
X136978426Y-62127086D01*
X136976216Y-62141040D01*
X136976592Y-62157821D01*
X136976592Y-62157830D01*
X136978332Y-62235333D01*
X136978426Y-62243724D01*
X136978426Y-62382301D01*
X136961645Y-62493074D01*
X136912808Y-62593906D01*
X136836297Y-62675749D01*
X136738979Y-62731259D01*
X136629586Y-62755454D01*
X136580339Y-62758774D01*
X136580333Y-62758774D01*
X136563587Y-62759904D01*
X136549886Y-62763356D01*
X136535812Y-62764623D01*
X136519639Y-62769086D01*
X136519630Y-62769088D01*
X136444869Y-62789720D01*
X136436764Y-62791859D01*
X136361607Y-62810798D01*
X136361598Y-62810801D01*
X136345316Y-62814904D01*
X136332449Y-62820748D01*
X136318830Y-62824507D01*
X136303703Y-62831791D01*
X136303691Y-62831796D01*
X136233860Y-62865424D01*
X136226270Y-62868975D01*
X136155661Y-62901047D01*
X136155641Y-62901058D01*
X136140374Y-62907993D01*
X136128759Y-62916039D01*
X136116027Y-62922171D01*
X136102453Y-62932032D01*
X136102451Y-62932034D01*
X136039718Y-62977611D01*
X136032884Y-62982459D01*
X135969145Y-63026618D01*
X135969131Y-63026628D01*
X135955346Y-63036180D01*
X135945353Y-63046172D01*
X135933922Y-63054478D01*
X135922327Y-63066604D01*
X135922318Y-63066613D01*
X135868741Y-63122650D01*
X135862877Y-63128647D01*
X132857767Y-66133757D01*
X132826508Y-66161693D01*
X132822968Y-66164515D01*
X132822951Y-66164530D01*
X132809834Y-66174992D01*
X132798790Y-66187632D01*
X132798779Y-66187643D01*
X132771761Y-66218566D01*
X132765042Y-66225759D01*
X132765142Y-66225851D01*
X132759481Y-66232044D01*
X132753555Y-66237971D01*
X132748187Y-66244400D01*
X132748172Y-66244417D01*
X132729201Y-66267139D01*
X132723763Y-66273507D01*
X132684711Y-66318206D01*
X132661735Y-66344504D01*
X132654487Y-66356634D01*
X132645432Y-66367481D01*
X132637155Y-66382067D01*
X132637148Y-66382078D01*
X132598876Y-66449526D01*
X132594660Y-66456766D01*
X132554896Y-66523322D01*
X132554892Y-66523328D01*
X132546285Y-66537736D01*
X132541319Y-66550967D01*
X132534347Y-66563255D01*
X132528802Y-66579098D01*
X132528800Y-66579105D01*
X132503188Y-66652297D01*
X132500331Y-66660178D01*
X132478341Y-66718771D01*
X132467193Y-66748476D01*
X132465111Y-66759941D01*
X132461693Y-66770883D01*
X132460005Y-66775708D01*
X132458945Y-66775337D01*
X132429741Y-66848614D01*
X132370454Y-66927576D01*
X132292568Y-66988270D01*
X132201513Y-67026465D01*
X132103635Y-67039500D01*
X131821144Y-67039500D01*
X130561497Y-67039500D01*
X130445927Y-67021196D01*
X130341667Y-66968073D01*
X130258927Y-66885333D01*
X130205804Y-66781073D01*
X130187499Y-66665501D01*
X130187499Y-65823000D01*
X130205804Y-65707428D01*
X130258927Y-65603168D01*
X130341667Y-65520428D01*
X130445926Y-65467305D01*
X130561499Y-65449000D01*
X131294364Y-65448999D01*
X131336507Y-65448999D01*
X131439296Y-65438499D01*
X131605833Y-65383314D01*
X131755155Y-65291212D01*
X131879211Y-65167156D01*
X131971313Y-65017834D01*
X132026498Y-64851297D01*
X132036999Y-64748509D01*
X132036998Y-63251492D01*
X132026498Y-63148703D01*
X132004484Y-63082269D01*
X131985500Y-62964628D01*
X131985500Y-61609000D01*
X132003805Y-61493428D01*
X132056928Y-61389168D01*
X132139668Y-61306428D01*
X132243927Y-61253305D01*
X132359500Y-61235000D01*
X133304208Y-61234999D01*
X133337793Y-61234999D01*
X133440582Y-61224499D01*
X133561339Y-61184483D01*
X133678980Y-61165500D01*
X133735084Y-61165500D01*
X133799948Y-61171474D01*
X133813818Y-61175443D01*
X133926936Y-61185500D01*
X135293619Y-61185500D01*
X135301916Y-61185500D01*
X135415034Y-61175443D01*
X135600400Y-61122403D01*
X135771294Y-61033135D01*
X135920720Y-60911294D01*
X136042561Y-60761868D01*
X136131829Y-60590974D01*
X136184869Y-60405608D01*
X136194926Y-60292490D01*
X136194926Y-59787510D01*
X136194192Y-59779261D01*
X136194051Y-59776067D01*
X136208116Y-59656607D01*
X136259375Y-59547790D01*
X136342524Y-59460871D01*
X136448964Y-59404843D01*
X136567684Y-59385500D01*
X138634426Y-59385500D01*
X138749998Y-59403805D01*
G37*
%TD.AperFunction*%
%TD*%
D22*
X200000000Y-58000000D02*
X200000000Y-72000000D01*
X120000000Y-58000000D02*
X122000000Y-56000000D01*
X198000000Y-74000000D02*
X122000000Y-74000000D01*
X120000000Y-72000000D02*
X120000000Y-58000000D01*
X122000000Y-74000000D02*
X120000000Y-72000000D01*
X122000000Y-56000000D02*
X198000000Y-56000000D01*
X200000000Y-72000000D02*
X198000000Y-74000000D01*
X198000000Y-56000000D02*
X200000000Y-58000000D01*
M02*
