%TF.GenerationSoftware,KiCad,Pcbnew,(7.0.0)*%
%TF.CreationDate,2023-10-30T21:48:48-03:00*%
%TF.ProjectId,QRE1113_Line_Sensors_x8,51524531-3131-4335-9f4c-696e655f5365,rev?*%
%TF.SameCoordinates,Original*%
%TF.FileFunction,Soldermask,Bot*%
%TF.FilePolarity,Negative*%
%FSLAX46Y46*%
G04 Gerber Fmt 4.6, Leading zero omitted, Abs format (unit mm)*
G04 Created by KiCad (PCBNEW (7.0.0)) date 2023-10-30 21:48:48*
%MOMM*%
%LPD*%
G01*
G04 APERTURE LIST*
G04 Aperture macros list*
%AMRoundRect*
0 Rectangle with rounded corners*
0 $1 Rounding radius*
0 $2 $3 $4 $5 $6 $7 $8 $9 X,Y pos of 4 corners*
0 Add a 4 corners polygon primitive as box body*
4,1,4,$2,$3,$4,$5,$6,$7,$8,$9,$2,$3,0*
0 Add four circle primitives for the rounded corners*
1,1,$1+$1,$2,$3*
1,1,$1+$1,$4,$5*
1,1,$1+$1,$6,$7*
1,1,$1+$1,$8,$9*
0 Add four rect primitives between the rounded corners*
20,1,$1+$1,$2,$3,$4,$5,0*
20,1,$1+$1,$4,$5,$6,$7,0*
20,1,$1+$1,$6,$7,$8,$9,0*
20,1,$1+$1,$8,$9,$2,$3,0*%
G04 Aperture macros list end*
%ADD10C,3.250000*%
%ADD11R,2.000000X2.000000*%
%ADD12O,2.000000X2.000000*%
%ADD13C,1.600000*%
%ADD14R,0.889000X1.397000*%
%ADD15RoundRect,0.197500X-0.632500X0.197500X-0.632500X-0.197500X0.632500X-0.197500X0.632500X0.197500X0*%
%ADD16RoundRect,0.250000X0.475000X-0.337500X0.475000X0.337500X-0.475000X0.337500X-0.475000X-0.337500X0*%
%ADD17R,1.397000X0.889000*%
%TA.AperFunction,Profile*%
%ADD18C,0.100000*%
%TD*%
G04 APERTURE END LIST*
D10*
%TO.C,H1*%
X123500000Y-70500000D03*
%TD*%
%TO.C,H2*%
X196500000Y-70500000D03*
%TD*%
D11*
%TO.C,J2*%
X131137499Y-68789999D03*
D12*
X133677499Y-68789999D03*
X136217499Y-68789999D03*
X138757499Y-68789999D03*
X141297499Y-68789999D03*
%TD*%
D11*
%TO.C,J1*%
X178302499Y-68789999D03*
D12*
X180842499Y-68789999D03*
X183382499Y-68789999D03*
X185922499Y-68789999D03*
X188462499Y-68789999D03*
%TD*%
D13*
%TO.C,C2*%
X157200000Y-72200000D03*
X157200000Y-70200000D03*
%TD*%
D14*
%TO.C,R14*%
X147520849Y-63999999D03*
X149425849Y-63999999D03*
%TD*%
D15*
%TO.C,U8*%
X125322499Y-60040000D03*
X129322499Y-60040000D03*
X129322499Y-61840000D03*
X125322499Y-61840000D03*
%TD*%
D14*
%TO.C,R16*%
X128936998Y-63999999D03*
X130841998Y-63999999D03*
%TD*%
D15*
%TO.C,U1*%
X190365970Y-60040000D03*
X194365970Y-60040000D03*
X194365970Y-61840000D03*
X190365970Y-61840000D03*
%TD*%
D16*
%TO.C,C1*%
X164600000Y-71680000D03*
X164600000Y-69605000D03*
%TD*%
D17*
%TO.C,R12*%
X123299999Y-58134999D03*
X123299999Y-60039999D03*
%TD*%
D15*
%TO.C,U6*%
X143906350Y-60040000D03*
X147906350Y-60040000D03*
X147906350Y-61840000D03*
X143906350Y-61840000D03*
%TD*%
D14*
%TO.C,R8*%
X166104697Y-63999999D03*
X168009697Y-63999999D03*
%TD*%
D17*
%TO.C,R2*%
X179035709Y-58134999D03*
X179035709Y-60039999D03*
%TD*%
%TO.C,R4*%
X160457139Y-58134999D03*
X160457139Y-60039999D03*
%TD*%
D14*
%TO.C,R6*%
X184688545Y-63999999D03*
X186593545Y-63999999D03*
%TD*%
D15*
%TO.C,U4*%
X162490198Y-60040000D03*
X166490198Y-60040000D03*
X166490198Y-61840000D03*
X162490198Y-61840000D03*
%TD*%
%TO.C,U7*%
X134614426Y-60040000D03*
X138614426Y-60040000D03*
X138614426Y-61840000D03*
X134614426Y-61840000D03*
%TD*%
D17*
%TO.C,R3*%
X169746424Y-58134999D03*
X169746424Y-60039999D03*
%TD*%
D14*
%TO.C,R15*%
X138228925Y-63999999D03*
X140133925Y-63999999D03*
%TD*%
D15*
%TO.C,U3*%
X171782122Y-60040000D03*
X175782122Y-60040000D03*
X175782122Y-61840000D03*
X171782122Y-61840000D03*
%TD*%
D14*
%TO.C,R13*%
X156812773Y-63999999D03*
X158717773Y-63999999D03*
%TD*%
D17*
%TO.C,R9*%
X151167854Y-58134999D03*
X151167854Y-60039999D03*
%TD*%
%TO.C,R10*%
X141878569Y-58134999D03*
X141878569Y-60039999D03*
%TD*%
%TO.C,R1*%
X188324999Y-58134999D03*
X188324999Y-60039999D03*
%TD*%
%TO.C,R11*%
X132589284Y-58134999D03*
X132589284Y-60039999D03*
%TD*%
D14*
%TO.C,R5*%
X193980469Y-63999999D03*
X195885469Y-63999999D03*
%TD*%
D16*
%TO.C,C3*%
X162430000Y-71680000D03*
X162430000Y-69605000D03*
%TD*%
D14*
%TO.C,R7*%
X175396621Y-63999999D03*
X177301621Y-63999999D03*
%TD*%
D15*
%TO.C,U2*%
X181074046Y-60040000D03*
X185074046Y-60040000D03*
X185074046Y-61840000D03*
X181074046Y-61840000D03*
%TD*%
%TO.C,U5*%
X153198274Y-60040000D03*
X157198274Y-60040000D03*
X157198274Y-61840000D03*
X153198274Y-61840000D03*
%TD*%
D18*
X200000000Y-58000000D02*
X200000000Y-72000000D01*
X120000000Y-58000000D02*
X122000000Y-56000000D01*
X198000000Y-74000000D02*
X122000000Y-74000000D01*
X120000000Y-72000000D02*
X120000000Y-58000000D01*
X122000000Y-74000000D02*
X120000000Y-72000000D01*
X122000000Y-56000000D02*
X198000000Y-56000000D01*
X200000000Y-72000000D02*
X198000000Y-74000000D01*
X198000000Y-56000000D02*
X200000000Y-58000000D01*
M02*
